<?xml version="1.0" encoding="UTF-8"?>
<svg id="Layer_1" data-name="Layer 1" xmlns="http://www.w3.org/2000/svg" viewBox="0 0 16 16">
  <defs>
    <style>
      .cls-1 {
        fill: #390c06;
      }

      .cls-1, .cls-2, .cls-3 {
        stroke-width: 0px;
      }

      .cls-2 {
        fill: #fe5f55;
      }

      .cls-3 {
        fill: #f0bf5d;
      }
    </style>
  </defs>
  <circle class="cls-3" cx="8" cy="8" r="8"/>
  <g>
    <path class="cls-2" d="m11.46,13.21c2.77-2.61,3.45-7.61.63-10.42.74.67,1.35,1.48,1.79,2.4,1.6,2.79.46,6.59-2.42,8.02h0Z"/>
    <path class="cls-2" d="m5.91,3.12c-1.85.55-3.22,2.34-3.19,4.21-.27.83-.39,1.72-.26,2.61.12.91.46,1.84,1.04,2.67-1.77-1.17-2.78-3.55-2.37-5.67.88-2,2.7-3.48,4.78-3.83h0Z"/>
    <path class="cls-2" d="m7.46,8.13c.42.19.47-.52.05-.68-1.23-.37-1.45,1.35-.53,1.8,2.15.9,3.38-1.97,1.58-3.27-1.88-1.31-4.26.73-3.86,2.74.18,1.26,1.2,2.28,2.42,2.57,2.91.75,5.32-2.42,4.33-5.26-.47-1.47-1.83-2.61-3.39-2.97,2.45.3,4.57,2.71,4.46,5.26-.1,2.83-2.84,5.25-5.77,4.62-3.01-.47-4.72-4.41-2.74-6.81,1.8-2.41,6.04-1.67,6.39,1.52.1.96-.34,1.98-1.18,2.6-1.9,1.53-4.83-1.09-2.93-2.88.52-.46,1.61-.31,1.6.49,0,.22-.28.44-.44.27h0Z"/>
  </g>
  <polygon class="cls-1" points="5.95 14.57 7.71 9.04 4.56 9.04 9.36 1.43 8.52 6.75 11.44 6.75 5.95 14.57"/>
</svg>