<svg xmlns="http://www.w3.org/2000/svg" xmlns:xlink="http://www.w3.org/1999/xlink" width="191.26" height="78.741" viewBox="0 0 191.26 78.741">
  <defs>
    <clipPath id="clip-path">
      <rect id="Rectangle_25" data-name="Rectangle 25" width="191.26" height="78.741" fill="none"/>
    </clipPath>
  </defs>
  <g id="Bandland_Logo_White" data-name="Bandland Logo White" transform="translate(191.26 78.741) rotate(180)">
    <g id="Group_90" data-name="Group 90" clip-path="url(#clip-path)">
      <path id="Path_5085" data-name="Path 5085" d="M76.7,6.848l.088.017-.061.184.087.017-.061.184.087.017-.061.184.087.017-.061.185.087.017-.061.184.088.017-.061.184.088.017-.061.185.087.017-.061.184L77,8.476l-.061.184.087.017-.061.185.087.017-.061.184.088.017-.061.184.088.017-.061.184.087.017-.061.185.087.017-.061.184.087.017-.061.184.087.017-.061.185.088.017-.061.184.087.017-.061.184.087.017-.061.185.087.017-.061.184.087.017-.061.184.088.017-.061.185.088.017-.061.184.087.017-.061.184.087.017-.061.184.087.017-.061.185.087.017-.061.184.088.017-.061.184.087.017-.061.185.087.017-.061.184.087.017-.061.184.087.017-.061.185.087.017-.061.184.088.017-.061.184.087.017-.061.184.087.017-.061.185.087.017L77.7,14.5l.087.017-.061.184.088.017-.061.185.088.017-.061.184.087.017-.061.184.087.017-.061.185.087.017-.061.184.087.017-.061.184.088.017-.061.184.087.017-.061.185.087.017-.061.184.087.017-.061.184.087.017-.061.185.087.017-.061.184.088.017-.061.184.087.017-.061.185.087.017-.061.184.087.017-.061.184.087.017-.061.185.088.017-.061.184.088.017-.061.184.087.017-.061.184.087.017-.061.185.087.017-.061.184.087.017-.061.184.088.017-.061.185.087.017-.061.184.087.017-.061.184.087.017-.061.185.087.017-.061.184.088.017-.061.184.088.017-.061.184.087.017-.061.185.087.017-.061.184.087.017-.061.184.087.017-.061.185.088.017c-.02.061-.041.123-.061.184l.087.017-.061.184.087.017-.061.185.087.017-.061.184.087.017-.061.184.087.017-.061.184.088.017-.061.184.087.017-.061.184.087.017-.061.184.087.017-.061.185.087.017-.061.184.088.017-.061.184.088.017-.061.185.087.017-.061.184.087.017-.061.184.087.017-.061.185.087.017-.061.184.088.017-.061.184.087.017-.061.184.087.017-.061.185.087.017-.061.184.087.017-.061.184.087.017-.061.185.088.017-.061.184.087.017-.061.184.087.017-.061.185.087.017-.061.184.087.017-.061.184.092.018V50.016c-.5.567-1.006,1.142-1.509,1.711V23.05l-.029,0v-.212l-.029,0v-.212l-.029,0v-.212l-.029,0v-.212l-.029,0V22l-.029,0v-.212l-.029,0v-.212l-.029,0v-.212l-.029,0v-.212l-.029,0v-.212l-.029,0v-.212l-.029,0v-.212l-.029,0v-.212l-.029,0v-.212l-.029,0V19.9l-.029,0v-.212l-.029,0v-.212l-.029,0v-.212l-.029,0v-.212l-.029,0v-.212l-.029,0v-.212l-.029,0v-.212l-.029,0v-.212l-.029,0v-.212l-.029,0V17.8l-.029,0v-.212l-.029,0v-.212l-.029,0v-.212l-.029,0v-.212l-.029,0v-.212l-.029,0v-.212l-.029,0v-.212l-.029,0v-.212l-.029,0v-.212l-.029,0v-.212l-.029,0V15.5l-.029,0v-.212l-.029,0v-.212l-.029,0v-.212l-.029,0v-.212l-.029,0v-.212l-.029,0v-.212l-.029,0v-.212l-.029,0v-.212l-.029,0v-.212l-.029,0V13.4l-.029,0v-.212l-.029,0v-.212l-.029,0v-.212l-.029,0v-.212l-.029,0v-.212l-.029,0V12.14l-.029,0V11.93l-.029,0V11.72l-.029,0V11.51l-.029,0V11.3l-.029,0V11.09l-.029,0v-.212l-.029,0v-.212l-.029,0v-.212l-.029,0v-.212l-.029,0v-.212l-.029,0V9.832l-.029,0V9.622l-.029,0V9.412l-.029,0V9.2l-.029,0V8.992l-.029,0V8.782l-.029,0V8.573l-.029,0V8.363l-.029,0V8.153l-.029,0V7.943l-.029,0V7.733l-.029,0V7.524l-.029,0V7.313l-.029,0V7.1l-.029,0V6.894l-.029,0V6.684l-.029,0V6.474l-.029,0V6.264l-.029,0V6.055l-.029,0V5.845l-.029,0V5.635l-.029,0V5.425l-.029,0V5.215l-.029,0V5.005l-.029,0V4.8l-.029,0V4.586l-.029,0V4.376l-.029,0V4.166l-.029,0V3.956l-.029,0V3.747l-.029,0V3.537l-.029,0V3.327l-.029,0V3.117l-.029,0V2.907l-.029,0V2.7l-.029,0V2.488l-.029,0V2.278l-.029,0V2.068l-.029,0V1.858q-3.876.234-7.747.555.227,8.439.455,16.878.319,7.367.637,14.735l-.009-.04-.017-.058-.025-.106-.018-.058c-.008-.035-.016-.07-.025-.105l-.017-.058L68.2,33.5l-.017-.058-.025-.1-.018-.058c-.008-.035-.017-.07-.025-.105l-.018-.058-.025-.105-.018-.058-.025-.105-.018-.058-.025-.1-.018-.058c-.008-.035-.016-.07-.025-.105l-.017-.058-.025-.106-.017-.058c-.008-.035-.017-.07-.025-.105l-.018-.058c-.008-.035-.017-.07-.025-.105l-.018-.058-.025-.1-.018-.058-.025-.105-.018-.058-.025-.105-.018-.058c-.008-.035-.016-.07-.025-.105l-.018-.058c-.008-.035-.016-.07-.025-.105l-.017-.058-.025-.1c-.006-.02-.011-.039-.017-.058l-.025-.106-.018-.058-.025-.105-.018-.058-.025-.105-.018-.058-.025-.105-.018-.058c-.008-.035-.016-.07-.025-.1l-.018-.058c-.008-.035-.016-.07-.025-.105l-.017-.058-.025-.105-.017-.058c-.008-.035-.017-.07-.025-.105l-.018-.058-.025-.106-.018-.058-.025-.105Q63.143,16.2,59.156,3.084q-3.546.553-7.084,1.181V20.688c-.021-.009-.046-.023-.071-.036v-.107c-.022-.01-.048-.024-.074-.038V20.4c-.022-.01-.048-.024-.074-.038v-.107c-.022-.01-.048-.024-.074-.038v-.107c-.022-.01-.048-.024-.074-.039v-.107a.729.729,0,0,1-.074-.039v-.106a.741.741,0,0,1-.074-.039v-.106a.716.716,0,0,1-.074-.04v-.106a.725.725,0,0,1-.074-.04v-.106a.663.663,0,0,1-.074-.04v-.105a.615.615,0,0,1-.074-.04v-.1a.6.6,0,0,1-.074-.041v-.1a.611.611,0,0,1-.074-.041v-.1a.572.572,0,0,1-.074-.041v-.1a.534.534,0,0,1-.074-.041v-.1a.524.524,0,0,1-.074-.042v-.1a.516.516,0,0,1-.074-.042v-.1a.527.527,0,0,1-.074-.042v-.1a.485.485,0,0,1-.074-.043v-.1a.469.469,0,0,1-.074-.044v-.1a.466.466,0,0,1-.074-.045v-.1a.468.468,0,0,1-.074-.045v-.1a.46.46,0,0,1-.074-.046v-.1a.416.416,0,0,1-.074-.047v-.1a.434.434,0,0,1-.074-.048v-.1a.437.437,0,0,1-.074-.049v-.1a.443.443,0,0,1-.074-.049v-.1a.4.4,0,0,1-.074-.05v-.095a.406.406,0,0,1-.074-.051v-.094a.426.426,0,0,1-.074-.052v-.093a.422.422,0,0,1-.074-.054v-.092a.432.432,0,0,1-.074-.055v-.091a.43.43,0,0,1-.074-.055V15.9a.412.412,0,0,1-.074-.057v-.088a.429.429,0,0,1-.074-.058v-.087a.447.447,0,0,1-.074-.059v-.086a.405.405,0,0,1-.074-.061v-.085a.43.43,0,0,1-.074-.062v-.083a.451.451,0,0,1-.074-.064v-.082a.469.469,0,0,1-.074-.065v-.08a.5.5,0,0,1-.074-.067v-.079a.489.489,0,0,1-.074-.068V14.59a.541.541,0,0,1-.074-.07v-.075a.578.578,0,0,1-.074-.072V14.3a.612.612,0,0,1-.074-.074v-.071a.8.8,0,0,1-.074-.076v-.069a.793.793,0,0,1-.074-.078v-.067a1.036,1.036,0,0,1-.074-.08v-.065s-.031-.032-.074-.083v-.062s-.03-.033-.074-.085v-.061l-.074-.088v-.058L41.318,4.811Q34.706,9.67,28.128,14.79v3.693l-.014-.005v-.151L28,18.285v-.151l-.114-.041v-.151l-.114-.041v-.151l-.114-.041v-.151l-.114-.041v-.151l-.114-.041v-.151l-.114-.041V16.98l-.114-.041v-.151l-.114-.041v-.151l-.114-.041V16.4l-.114-.041V16.21l-.114-.041v-.151l-.115-.041v-.151l-.114-.041v-.151l-.114-.041V15.44l-.114-.041v-.151l-.115-.041v-.151l-.114-.041v-.151l-.114-.041V14.67l-.114-.041v-.151l-.114-.041v-.151l-.114-.041v-.151l-.114-.041V13.9l-.114-.041v-.151l-.114-.041v-.151l-.114-.041v-.151l-.114-.041v-.151l-.114-.041v-.151l-.114-.041v-.151L24.68,12.7v-.151l-.114-.041v-.151l-.114-.041v-.151q-3.458-1.266-6.9-2.46-2.163,1.761-4.32,3.554l-.086.022v-.228l-.136.035v-.228l-.135.035v-.228l-.136.035v-.228l-.135.035v-.228l-.136.035v-.228l-.135.035V11.9l-.136.035V11.7l-.135.035v-.228q-3.783.951-7.549,1.99v48.47Q2.252,65.093,0,68.251l.222.006-.066.092.222.006-.066.092.222.006-.066.092.221.006-.066.092.222.006-.066.092L1,68.746l-.066.092.222.006-.066.092.222.006-.066.092.221.006-.066.092.222.006-.066.092.221.006-.066.092.222.006-.066.092.222.006-.066.092.222.006-.066.092.222.006-.066.092.221.006-.066.092.222.006-.066.092.221.006-.066.092.222.006-.066.092.222.006-.066.092.221.006L3.27,70.3l.222.006-.066.092.221.006-.066.092.222.006-.066.092.221.006-.066.092.222.006-.066.092.222.006-.066.092.221.006-.066.092L4.581,71l-.066.092.221.006-.066.092.222.006-.066.092.222.006-.066.092.221.006-.066.092.222.006-.066.092.221.006-.066.092.222.006-.066.092.222.006-.066.092.222.006-.066.092.222.006-.066.092.221.006-.066.092.222.006-.066.092.221.006-.066.092.222.006-.066.092.222.006-.066.092.221.006-.066.092.222.006-.066.092.221.006-.066.092.222.006-.066.092.222.006-.066.092.222.006-.066.092.222.006-.066.092.221.006-.066.092.222.006-.066.092.221.006-.066.092.222.006-.066.092.222.006-.066.092.221.006-.066.092.222.006-.066.092.221.006-.066.092.222.006-.066.092.222.006-.066.092.221.006-.066.092.222.006-.066.092.221.006-.066.092.222.006-.066.092.221.006-.066.092.222.006-.066.092.222.006-.066.092.221.006L10.744,75l.222.006L10.9,75.1l.221.006-.066.092.222.006-.066.092.222.006-.066.092.221.006-.066.092.222.006-.066.092.221.006-.066.092.222.006-.066.092.221.006-.066.092.222.006-.066.092.222.006-.066.092.221.006-.066.092.222.006-.066.092.221.006-.066.092.222.006-.066.092.222.006-.066.092.221.006-.066.092.222.006-.066.092.221.006-.066.092.222.006-.066.092.222.006-.066.092.222.006-.066.092.222.006-.066.092.221.006-.066.092.222.006-.066.092.221.006-.066.092.222.006-.066.092.222.006-.066.092.221.006-.066.092.222.006-.066.092.221.006-.066.092.221.007-.065.091q4.732.111,9.5.39,4.792-4.033,9.614-7.893v.088l.108-.021v.126l.108-.021v.126l.108-.021v.126l.108-.021v.126l.108-.021v.126l.108-.021v.126l.108-.021v.126l.108-.021v.126l.108-.021v.126l.108-.021v.126l.108-.021v.126l.109-.021v.126l.108-.021v.126l.108-.021v.126l.108-.021v.126l.108-.021v.126l.108-.021v.126l.108-.021V72.6l.108-.021V72.7L37,72.679V72.8l.108-.021v.126l.108-.021v.126l.108-.021v.126l.108-.021v.126l.109-.021v.126l.108-.021v.126l.108-.021v.126l.108-.021v.126l.108-.021v.126l.108-.021v.126l.108-.021v.126l.108-.021v.126l.108-.021v.126l.108-.021v.126l.108-.021v.126l.108-.021v.126l.109-.021v.126l.108-.021v.126l.108-.021v.126q3.164-.635,6.339-1.2V67.8h.008v.122l.087-.014v.122l.087-.014v.122l.087-.014v.122l.087-.014v.122l.087-.014v.122l.087-.014v.122l.087-.014v.122l.087-.014v.122l.087-.014V68.9l.087-.014v.122l.087-.014v.122l.087-.014v.122l.087-.014v.122l.087-.014v.122l.087-.014v.122l.087-.014v.122l.087-.014v.122l.087-.014v.122l.087-.014v.122l.088-.014v.122l.087-.014V70.2l.087-.014v.122l.087-.014v.122L47.5,70.4v.122l.087-.014v.122l.087-.014v.122l.087-.014v.122l.087-.014v.122l.087-.014v.122l.087-.014v.122l.087-.014v.122l.087-.014v.122l.087-.014V71.5l.087-.014v.122l.087-.014v.122l.087-.014v.122l.087-.014v.122l.087-.014v.122l.087-.014v.122l.087-.014v.122l.087-.014v.122l.087-.014v.122l.087-.014v.122l.087-.014v.122l.088-.014V72.8l.087-.014v.122q3.18-.517,6.369-.962V66.295l.016,0v.119l.068-.008v.12l.068-.008v.12l.068-.008v.12l.068-.008v.12l.068-.008v.12l.068-.008v.119l.068-.008v.119l.068-.008V67.3l.068-.008v.12l.068-.008v.12l.068-.008v.12l.068-.008v.12l.068-.008v.12l.068-.008v.119l.068-.008v.119l.068-.008v.119l.068-.008v.12l.068-.008v.12l.068-.008v.12l.068-.008v.12l.068-.008v.12l.068-.008v.119l.068-.008v.119l.068-.008v.119l.068-.008v.12l.068-.008v.12l.068-.008v.12l.068-.008v.12l.068-.008v.12l.068-.008v.119l.068-.008v.119l.068-.008v.119l.068-.008v.12l.068-.008v.12l.068-.008v.12l.068-.008v.12l.068-.008v.12l.068-.008v.119l.068-.008v.119l.068-.008v.119l.068-.008v.12l.068-.008v.12l.068-.008v.12l.068-.008v.12l.068-.008v.12l.068-.008v.119q3.106-.4,6.218-.727Q65.018,59.691,64.9,48.58q-.062-1.341-.124-2.682,1.88,6.388,3.761,12.793h.006l.034.115h.006l.034.114h.006l.034.115h.006l.034.115H68.7l.034.115h.006l.034.115h.006l.034.115h.006l.034.115h.006l.034.114H68.9l.034.115h.006l.034.114h.006l.034.115h.006l.034.115h.006l.034.115H69.1l.034.115h.006l.034.115h.006l.034.115h.006l.034.115h.006l.034.115H69.3l.034.114h.006l.034.115h.006l.034.114h.006l.034.115h.006l.034.115H69.5l.034.115h.006l.034.115h.006l.034.115h.006l.034.115h.006l.034.114H69.7l.034.115h.006l.034.114h.006l.034.115h.006l.034.114h.006l.034.115H69.9l.034.115h.006l.034.115h.007l.034.115h.006l.034.115h.007l.034.115H70.1l.034.114h.007l.034.115h.006l.034.114h.007l.034.115h.006l.034.114H70.3l.034.115h.006l.034.115h.007l.034.115h.006l.034.115h.007l.034.114H70.5l.034.115h.007l.034.114h.006l.034.115h.007l.034.114h.006l.034.115H70.7l.034.115h.006l.034.115h.006l.034.115h.006l.034.115h.006l.034.115H70.9l.034.115h.006l.034.115h.006l.034.114h.006l.034.115h.006l.034.114H71.1l.034.115h.006l.034.115h.006l.034.115h.006l.034.115h.006l.034.114H71.3l.034.115h.006l.034.115h.006l.034.115h.006l.034.114h.006l.034.115H71.5l.034.115h.006l.034.115h.006l.034.115h.006l.034.115h.006l.034.115H71.7l.034.114h.006l.034.115h.006l.034.114h.006l.034.115h.006l.034.115H71.9l.034.115h.006l.034.115h.006l.034.115h.006l.034.115h.006l.034.115H72.1l.034.115h.006l.034.114h.006l.034.115h.006l.034.114h.007l.034.115H72.3l.034.115h.007l.034.115h.006l.034.115h.007l.034.115h.006l.034.115h.007l.034.114h.006l.034.115q2.678-.36,5.358-.669V67.4q4.8,1.174,9.6,2.509,5.5-3.307,11-6.4v-.12l.013-.007v-.12l.013-.007v-.12l.013-.007v-.12L98.59,63v-.12l.013-.007v-.12l.013-.007v-.12l.013-.007V62.5l.013-.007v-.12l.013-.007v-.12l.013-.007v-.12l.013-.007v-.12l.013-.007v-.12l.013-.007v-.12l.013-.007V61.6l.013-.007v-.12l.013-.007v-.12l.013-.007v-.12l.013-.007v-.12l.013-.007v-.12l.013-.007v-.12l.013-.007v-.12l.013-.007v-.12l.013-.007v-.12l.013-.007v-.12l.013-.007V60.2l.013-.007v-.12l.013-.007v-.12l.013-.007v-.12l.013-.007v-.12l.013-.007v-.12l.013-.007v-.12l.013-.007v-.12l.013-.007v-.12l.013-.007v-.12l.013-.007v-.12L99,58.917V58.8l.013-.007v-.12l.013-.007v-.12l.013-.007v-.12l.013-.007v-.12l.013-.007v-.12l.013-.007v-.12l.013-.007V57.9L99.1,57.9v-.12l.013-.007v-.12l.013-.007v-.12l.013-.007v-.12l.013-.007v-.12l.013-.007v-.12l.013-.007v-.12L99.189,57v-.12l.013-.007v-.12l.013-.007v-.12l.013-.007V56.5l.013-.007v-.12l.013-.007v-.12l.013-.007v-.12l.013-.007v-.12l.013-.007v-.12l.013-.007v-.12l.013-.007v-.12l.013-.007v-.12l.013-.007v-.12l.013-.007v-.12l.013-.007V55.1l.013-.007v-.12l.013-.007v-.12l.013-.007v-.12l.013-.007v-.12l.013-.007v-.12l.013-.007v-.12l.013-.007v-.12l.013-.007v-.12l.013-.007v-.12l.013-.007v-.12l.013-.007V53.7l.013-.007v-.12l.013-.007v-.12l.013-.007v-.12l.013-.007v-.12l.013-.007v-.12l.013-.007v-.12l.013-.007V52.8l.013-.007v-.12l.013-.007v-.12l.013-.007v-.12l.013-.007v-.12l.013-.007v-.12l.013-.007v-.12l.013-.007v-.12L99.7,51.9v-.12l.013-.007v-.12l.013-.007v-.12l.013-.007V51.4l.013-.007v-.12l.013-.007v-.12l.013-.007v-.12l.013-.007v-.12l.013-.007v-.12l.013-.007v-.12l.013-.007V4.575Q89.393,1.97,78.964,0,77.831,3.42,76.7,6.848M92.082,52.787c-1.343-.391-2.686-.767-4.028-1.142V28.967q2.014.454,4.028.938V52.787" fill="#040504"/>
      <path id="Path_5086" data-name="Path 5086" d="M364.7,20.3q-10.119-5.417-20.365-10.2l-.08.225L344.2,10.3l-.08.225-.052-.025-.08.225-.052-.025-.08.225-.052-.025-.08.225-.052-.025-.08.225-.053-.025-.08.224-.052-.025-.08.225-.052-.025-.08.225-.052-.025-.08.225-.052-.025-.08.225-.052-.025-.08.225-.053-.025-.08.225-.053-.025c-.027.075-.053.15-.08.225l-.052-.025-.08.225-.052-.025-.08.224-.052-.025-.08.225-.052-.025-.08.225-.053-.025-.08.225-.053-.025-.08.225-.052-.025-.08.225-.052-.025-.08.225-.052-.025-.08.225-.052-.025-.08.225-.052-.025-.08.224-.053-.025-.08.225-.052-.025-.08.225-.052-.025-.08.225-.052-.025-.08.225-.052-.025-.061.169V10.888q-3.817-.813-7.647-1.537c0,.075,0,.15.006.224l-.119-.023c0,.075,0,.149.006.224l-.119-.023c0,.075,0,.149.006.224l-.119-.023c0,.075,0,.15.006.224l-.119-.023c0,.075,0,.149.006.224l-.119-.023c0,.075,0,.149.006.224l-.119-.023c0,.075,0,.15.006.224l-.119-.023q0,.112.006.224l-.119-.023c0,.075,0,.149.006.224l-.119-.023c0,.075,0,.15.006.224l-.119-.023q0,.112.006.224l-.119-.023c0,.075,0,.149.006.224l-.119-.023c0,.075,0,.15.006.224l-.119-.023c0,.075,0,.149.006.224l-.119-.023c0,.075,0,.149.006.224l-.119-.023c0,.075,0,.15.006.224l-.119-.023c0,.075,0,.149.006.224l-.119-.023q0,.112.006.224l-.119-.023c0,.075,0,.15.006.224l-.119-.023c0,.075,0,.149.006.224l-.119-.023q0,.112.006.224l-.119-.023c0,.075,0,.149.006.224l-.119-.023c0,.075,0,.149.006.224l-.119-.023q0,.112.006.224l-.119-.023c0,.075,0,.149.006.224l-.119-.023c0,.075,0,.149.006.224l-.119-.023q0,.112.006.224l-.119-.023c0,.075,0,.149.006.224l-.119-.023q0,.112.006.224l-.119-.023c0,.075,0,.15.006.224l-.119-.023q0,.112.006.224l-.119-.023q0,.112.006.224l-.119-.023c0,.075,0,.15.006.224l-.119-.023q0,.112.006.224l-.119-.023q0,.112.006.224l-.119-.023c0,.075,0,.15.006.224l-.119-.023q0,.112.006.224l-.119-.023c0,.075,0,.149.006.224l-.119-.023c0,.075,0,.15.006.224l-.119-.023q0,.112.006.224l-.119-.023c0,.075,0,.15.006.224l-.119-.023q0,.112.006.224l-.119-.023c0,.075,0,.149.006.224l-.119-.023c0,.075,0,.15.006.224l-.119-.023q0,.112.006.224l-.108-.021q-1.469-5.282-2.94-10.556-3.525-.406-7.058-.738v.213l-.088-.008v.213l-.088-.008v.213l-.088-.008v.213l-.088-.008v.213l-.088-.008v.213l-.087-.008v.213l-.088-.008V8.74L317,8.732v.213l-.088-.009V9.15l-.088-.009v.213l-.088-.009v.213l-.088-.009v.213l-.088-.009v.213l-.088-.009v.213l-.088-.009v.213l-.088-.009v.213l-.088-.009v.213l-.088-.009v.213l-.088-.009V11.2l-.088-.008V11.4l-.088-.008V11.6l-.088-.008v.213l-.088-.008v.213l-.088-.008v.213l-.088-.008v.213l-.088-.008v.213l-.088-.008v.213l-.088-.008v.213l-.088-.008v.213l-.088-.008v.213l-.088-.008v.213l-.088-.009v.213l-.088-.009v.213l-.088-.009v.213l-.087-.009v.213l-.088-.009v.213l-.087-.009v.213l-.088-.009v.213l-.088-.009v.213l-.088-.009v.213l-.088-.009V15.7l-.088-.009V15.9l-.088-.009v.213h-.008V9.57q-3.493-2.461-6.993-4.85-6.645,3.06-13.309,6.38v.174l-.047.023v.175l-.047.023v.175l-.047.023v.174l-.047.023v.175l-.047.023v.175l-.047.023v.174l-.047.023v.175l-.047.023v.175l-.047.023v.175l-.047.023v.175l-.047.023v.175l-.047.023v.174l-.047.023v.175l-.047.023v.175l-.047.023v.174l-.047.023v.175l-.047.023v.175l-.047.023v.174l-.047.023v.175l-.047.023v.175l-.047.023v.174l-.047.023v.175l-.047.023v.175l-.047.023v.174l-.047.023v.175l-.047.023v.175l-.047.023v.174l-.047.023v.175l-.047.023v.175l-.047.023v.174l-.047.023v.175l-.047.023v.175l-.047.023V17.8l-.047.023V18l-.047.023V18.2l-.047.023V18.4l-.047.023v.175l-.047.023v.175l-.047.023v.174l-.047.023v.175l-.047.023v.175l-.047.023v.174l-.047.023v.175l-.047.023v.175L291.5,20v.174l-.047.023v.175l-.047.023v.175l-.047.023v.174l-.047.023v.175l-.047.023v.175l-.047.023v.174l-.047.023v.175l-.047.023v.175l-.047.023v.174l-.047.023v.175l-.047.023v.175l-.047.023v.174l-.047.023v.175l-.047.023v.175l-.047.023v.174l-.047.023v.175l-.047.023v.175l-.047.023v.174l-.047.023v.175l-.047.023v.175l-.047.023v.174l-.047.023v.175l-.047.023v.175l-.047.023v.174l-.047.023v.175l-.047.023v.175l-.047.023v.174l-.047.023v.175l-.047.023v.175l-.047.023v.174l-.047.023v.175l-.047.023v.175l-.047.023v.174l-.047.023V26.9l-.047.023V27.1l-.047.023V27.3l-.047.023V27.5l-.047.023V27.7l-.047.023v.174l-.047.023v.175l-.047.023v.175l-.047.023v.174l-.047.023v.175l-.047.023v.175l-.047.023v.174l-.047.023v.175l-.047.023v.175l-.047.023v.174l-.047.023v.175l-.047.023v.175l-.047.023v.175l-.047.023v.175l-.047.023v.175l-.047.023v.175l-.047.023v.175l-.047.023V53.561q-2.1-.713-4.2-1.4V3.661q-3.869-.176-7.74-.265v.211h-.019v.211h-.019v.211h-.019V4.24h-.019v.212h-.019v.212h-.019v.211H276.8v.211h-.019v.211h-.019V5.5h-.019v.211h-.019v.212H276.7v.212h-.019v.211h-.019v.211h-.019V6.77h-.019v.211h-.019v.211h-.019V7.4h-.019v.212h-.019v.212h-.019v.211h-.019v.211h-.019v.211h-.019v.211h-.019v.212h-.019v.212h-.019V9.3H276.4v.211h-.019v.211h-.019v.211h-.019v.211h-.019v.212H276.3v.212h-.019v.212h-.019v.211h-.019V11.2h-.019v.211h-.019v.211h-.019v.212h-.019v.212h-.019v.211h-.019v.211h-.019v.211H276.1v.211h-.019V13.1h-.019v.212h-.019v.212h-.019v.212H276v.211h-.019v.211h-.019v.211h-.019v.211h-.019v.212h-.019v.212h-.019V15.2h-.019v.211h-.019v.211h-.019v.211h-.019v.211h-.019v.212h-.019v.212h-.019v.212h-.019v.211h-.019V17.1H275.7v.211h-.019v.211h-.019v.212h-.019v.212h-.019v.211h-.019v.211h-.019v.211h-.019v.211h-.019V19h-.019v.212h-.019v.212h-.019v.212h-.019v.211h-.019v.211h-.019v.211h-.019v.211H275.4v.212h-.019V20.9h-.019v.211h-.019v.211h-.019v.211H275.3v.211h-.019v.211h-.019v.212h-.019v.212h-.019v.212h-.019v.211h-.019V23h-.019v.211h-.019v.211h-.019v.212h-.019v.212h-.019v.211h-.019v.211h-.019v.211h-.019v.211h-.019V69.327q4.585,1.412,9.167,2.971,2.131-2.4,4.26-4.772l-.049-.017.1-.107-.049-.017.1-.107-.049-.017.1-.107-.049-.017.1-.107-.049-.017.1-.107-.049-.017.1-.107-.049-.017.1-.107-.049-.017.1-.107-.049-.017.1-.107-.049-.017.053-.06V72.1q3.206.23,6.407.533v-.119l.06.006V72.4l.06.005v-.119l.06.005V72.17l.06.005v-.119l.06.005v-.119l.06.006v-.119l.06.006v-.119l.06.006V71.6l.06.005V71.49l.06.005v-.119l.06.005v-.119l.06.005V71.15l.06.006v-.119l.06.006v-.119l.06.006V70.81l.06.005V70.7l.06.005v-.119l.06.005V70.47l.06.005v-.119l.06.006v-.119l.06.006v-.119l.06.006v-.119l.06.006V69.9l.06.005V69.79l.06.005v-.119l.06.005v-.119l.06.006v-.119l.06.006v-.119l.06.006v-.119l.06.006V69.11l.06.005V69l.06.005v-.119l.06.005v-.119l.06.005v-.119l.06.006v-.119l.06.006v-.119l.06.006v-.119l.06.005V68.2l.06.005v-.119l.06.005v-.119l.06.005v-.119l.06.006v-.119l.06.006v-.119l.06.006v-.119l.06.006V67.41l.06.005V67.3l.06.005v-.119l.06.005v-.119l.06.006v-.119l.06.006v-.119l.06.006v-.119l.06.006v-.119l.06.005V66.5l.06.005v-.119l.06.005v-.119l.06.005v-.119l.06.006v-.119l.06.006v-.119l.06.006v-.119l.06.005v-.119l.06.005V65.6l.06.005v-.119l.06.005v-.119l.06.006v-.119l.06.006v-.119l.06.006v-.119l.06.005v-.119h.019V73.04q3.2.348,6.389.77v-.121l.082.01v-.122l.081.01v-.121l.081.01v-.121l.081.01v-.122l.081.01v-.121l.082.01v-.121l.081.01v-.121l.081.01V72.8l.081.01V72.69l.081.01v-.121l.082.01v-.121l.081.01v-.121l.081.01v-.121l.081.01v-.121l.082.01v-.121l.081.01v-.121l.081.01V71.8l.081.01v-.122l.081.01v-.121l.082.01V71.47l.081.01v-.122l.081.01v-.121l.081.01v-.121l.081.01v-.121l.082.01v-.121l.081.01V70.8l.081.01v-.121l.081.01v-.121l.082.01v-.121l.081.01v-.121l.081.01V70.25l.081.01v-.121l.081.01v-.121l.082.01v-.121l.081.01v-.122l.081.01V69.7l.081.01v-.121l.081.01v-.121l.045.006v4.763q3.1.444,6.194.957v-.124l.1.016c0-.041,0-.083,0-.124l.1.016v-.124l.1.016c0-.041,0-.083,0-.124l.1.016c0-.041,0-.083,0-.124l.1.017c0-.042,0-.083,0-.124l.1.016c0-.041,0-.083,0-.124l.1.016v-.124l.1.016c0-.041,0-.083,0-.124l.1.016c0-.042,0-.083,0-.124l.1.016c0-.041,0-.083,0-.124l.1.016c0-.041,0-.083,0-.124l.1.017v-.124l.1.016c0-.041,0-.083,0-.124l.1.016v-.124l.1.017c0-.042,0-.083,0-.124l.1.016c0-.041,0-.083,0-.124l.1.016v-.124l.1.016c0-.041,0-.083,0-.124l.1.016v-.124l.1.016c0-.041,0-.083,0-.124l.1.016c0-.041,0-.083,0-.124l.1.017c0-.042,0-.083,0-.124l.1.016c0-.041,0-.083,0-.124l.1.016V72.48l.1.016c0-.041,0-.083,0-.124l.1.016c0-.042,0-.083,0-.124l.1.016c0-.041,0-.083,0-.124l.1.016c0-.041,0-.083,0-.124l.1.017V71.94l.1.016c0-.041,0-.083,0-.124l.1.016c0-.041,0-.083,0-.124l.1.016c0-.041,0-.083,0-.124l.1.016c0-.041,0-.083,0-.124l.1.016V71.4l.1.016c0-.041,0-.083,0-.124l.1.016c0-.042,0-.083,0-.124l.1.016c0-.041,0-.083,0-.124l.1.016c0-.041,0-.083,0-.124l.1.017v-.124l.1.016c0-.041,0-.083,0-.124l.1.016v-.124l.1.016c0-.041,0-.083,0-.124l.1.016c0-.042,0-.083,0-.124l.1.016v-.124l.1.016c0-.041,0-.083,0-.124l.1.016V70.1l.1.016c0-.041,0-.083,0-.124l.1.016c0-.041,0-.083,0-.124l.1.017c0-.042,0-.083,0-.124l.1.016c0-.041,0-.083,0-.124l.1.016v-.124l.1.016c0-.041,0-.083,0-.124l.1.016c0-.042,0-.083,0-.124l.1.016V69.35q.978,3.628,1.956,7.257,2.647.363,5.286.777v-.123l.126.019v-.123l.126.019v-.123l.126.019v-.123l.126.019v-.123l.126.019v-.123l.126.019V76.64l.126.019v-.123l.126.019v-.123l.126.019v-.123l.126.019v-.123l.126.019v-.123l.126.019v-.08q3.962,2.095,7.907,4.294,5.378-1.824,10.715-3.435v-.054l.167-.051v-.053l.167-.051v-.053l.167-.051v-.054l.167-.051v-.054l.167-.051v-.053l.167-.051v-.053l.167-.051v-.054l.167-.051v-.054l.167-.051v-.053l.167-.051V75.82l.167-.051v-.054l.167-.051V75.61L350,75.56v-.054l.167-.051V75.4l.167-.051V75.3l.167-.051v-.054l.167-.051v-.054l.167-.051v-.053l.167-.051v-.053l.167-.051v-.054l.167-.051v-.054l.167-.051v-.053l.167-.051V74.46l.167-.051v-.054l.167-.051v-.054l.167-.051v-.054l.167-.051v-.053l.167-.051v-.053l.167-.051v-.054l.167-.051v-.054l.167-.051v-.053l.167-.051v-.053l.167-.051v-.054l.167-.051v-.054l.167-.051V73.2l.167-.051V73.1l.167-.051V73l.167-.051v-.054l.167-.051v-.054l.167-.051v-.053l.167-.051v-.053l.167-.051v-.054l.167-.051v-.054l.167-.051v-.053l.167-.051v-.053l.167-.051v-.054l.167-.051v-.054l.167-.051v-.053l.167-.051V71.74l.167-.051v-.054l.167-.051v-.054l.167-.051v-.054l.167-.051v-.053l.167-.051v-.053l.167-.051v-.054l.167-.051v-.054l.167-.051V70.9l.167-.051V70.8l.167-.051v-.054l.167-.051v-.054l.167-.051v-.053l.167-.051V70.38l.167-.051v-.054l.167-.051v-.054l.167-.051v-.054l.167-.051v-.053l.167-.051v-.053l.167-.051v-.054l.167-.051v-.054l.167-.051v-.053l.167-.051v-.053l.167-.051v-.054l.167-.051v-.054l.167-.051v-.053l.167-.051V69.02l.167-.051v-.054l.167-.051v-.054l.167-.051v-.053l.167-.051V68.6l.167-.051V68.5l.167-.051v-.054l.167-.051v-.054l.167-.051v-.053l.167-.051v-.053l.167-.051v-.054l.167-.051v-.054l.167-.051v-.053l.167-.051V67.66l.167-.051v-.054l.167-.051v-.054l.167-.051v-.053l.167-.051v-.053l.167-.051v-.054l.167-.051v-.054l.167-.051v-.054l.167-.051v-.053l.167-.051v-.053l.167-.051v-.054l.167-.051v-.054l.167-.051V66.4l.167-.051ZM288.86,66.272l.007-.008v.011l-.007,0" transform="translate(-173.442 -2.142)" fill="#040504"/>
      <path id="Path_5087" data-name="Path 5087" d="M25.937,31.488V38.1q-3.069,2.5-6.129,5.062,3.06,1.073,6.129,2.2V76.579q-6.211,4.984-12.38,10.2-5.07-.278-10.108-.4Q5.421,83.619,7.4,80.877V32.837q3.073-.853,6.157-1.646v3.236q3.085-2.592,6.18-5.124,3.1,1.063,6.2,2.185M7.54,80.838q6.076.187,12.2.6V50.374q-3.1-1.063-6.18-2.067V73.19q-3.014,3.8-6.016,7.648m12.2-37.727V36.135q-3.1-.847-6.18-1.635V48.235q3.085-2.592,6.18-5.124" transform="translate(-2.174 -18.48)" fill="#fff"/>
      <path id="Path_5088" data-name="Path 5088" d="M78.077,73.65V25.322q6.225-4.852,12.484-9.467l6.264,7.705V70.412q-3.136.452-6.264.961V45.983l-6.25-4.31q0,15.39,0,30.78-3.121.569-6.234,1.2" transform="translate(-49.24 -9.999)" fill="#fff"/>
      <path id="Path_5089" data-name="Path 5089" d="M142.9,64.44V9.784q2.924-.519,5.853-.987,3.9,12.837,7.816,25.764,1.34,5.673,2.681,11.356l.217-.017q-.471-10.894-.942-21.787-.217-8.073-.435-16.146,3.152-.26,6.307-.462V62.162q-2.611.311-5.22.662-4.167-14.2-8.327-28.289-1.266-5.513-2.531-11.017l-.289.033q.326,7.047.651,14.095l.289,26.074q-3.037.334-6.069.722" transform="translate(-90.122 -4.734)" fill="#fff"/>
      <path id="Path_5090" data-name="Path 5090" d="M210.08,52.075V12.521q2.4-1.478,4.792-2.922-3.667-.781-7.332-1.481.907-2.746,1.814-5.487,9.834,1.859,19.682,4.289V52.011q-6.32,3.572-12.639,7.38-5.193-1.438-10.381-2.716,2.032-2.312,4.064-4.6,6.315,1.612,12.636,3.46V11.378q-3.16-.762-6.319-1.465v35.67q-3.16,3.217-6.317,6.492" transform="translate(-129.925 -1.659)" fill="#fff"/>
      <path id="Path_5091" data-name="Path 5091" d="M288.425,5.927V54.255q3.956,1.285,7.909,2.663-2.067,2.307-4.135,4.64-5.043-1.711-10.091-3.273V5.714q3.16.077,6.317.213" transform="translate(-177.913 -3.604)" fill="#fff"/>
      <path id="Path_5092" data-name="Path 5092" d="M392.489,70.527V15.871q2.919.283,5.832.616,3.884,13.905,7.755,27.9,1.326,6.038,2.651,12.088l.215.042q-.465-11.023-.931-22.044-.215-8.132-.43-16.264,3.117.6,6.225,1.259V74.125q-2.572-.4-5.15-.763-4.118-15.334-8.25-30.564-1.258-5.86-2.516-11.71l-.288-.047q.324,7.136.647,14.272.144,13.076.288,26.153-3.021-.5-6.047-.94" transform="translate(-247.525 -10.009)" fill="#fff"/>
      <path id="Path_5093" data-name="Path 5093" d="M459.032,74.183V34.629q2.351-.825,4.7-1.616-3.588-1.78-7.191-3.48.891-2.5,1.782-4.992,9.657,4.54,19.208,9.651V79.283q-6.13,1.85-12.308,3.937-5.077-2.852-10.181-5.545,2-1.758,3.993-3.492,6.2,3.334,12.353,6.9V36.929q-3.077-1.623-6.165-3.186v35.67q-3.089,2.356-6.188,4.77" transform="translate(-286.972 -15.477)" fill="#fff"/>
      <path id="Path_5094" data-name="Path 5094" d="M339.9,9.534q-6.29,2.894-12.6,6.025V63.886q3.153.233,6.3.524V42.684l6.3-8.41v30.78q3.145.35,6.285.76V13.89q-3.14-2.208-6.285-4.356m-5.875,24.973,2.6-8.161h-4.643l7.075-11.218-1.238,7.852h4.308Z" transform="translate(-206.414 -6.013)" fill="#fff"/>
      <path id="Path_5095" data-name="Path 5095" d="M89.518,35.511l-.434,6.767H85.457l3.749,3.764-.3,5.907,2.729-3.693,5.4,4.963L93.882,45.3l2.564-3.365H92.919Z" transform="translate(-53.894 -22.395)" fill="#040504"/>
      <path id="Path_5096" data-name="Path 5096" d="M320.32,173.511l.328-.035-.008-.152a1.482,1.482,0,0,0-.056-.369,1.038,1.038,0,0,0-.111-.262l-.058-.092q-.858-.177-1.717-.349a.645.645,0,0,0-.236.007,1.405,1.405,0,0,0-.256.073.907.907,0,0,0-.146.071,1.337,1.337,0,0,0-.166.047.906.906,0,0,0-.146.072,1.3,1.3,0,0,0-.167.047.9.9,0,0,0-.145.071,1.305,1.305,0,0,0-.167.047.913.913,0,0,0-.145.071l-.016,0v-.139a1.311,1.311,0,0,0-.051-.367,1.187,1.187,0,0,0-.1-.265l-.057-.1q-1.319-.257-2.639-.5a.6.6,0,0,0-.236.018,2.473,2.473,0,0,0-.253.07.614.614,0,0,0-.18.093c-.037.01-.072.018-.109.03a.607.607,0,0,0-.18.093c-.037.01-.072.018-.109.03a.6.6,0,0,0-.18.093c-.037.01-.073.018-.11.031a.6.6,0,0,0-.179.092c-.037.01-.073.018-.11.031a.592.592,0,0,0-.178.092l-.06.017a2,2,0,0,0-.168-.447l-.018-.033-.027-.027a2.54,2.54,0,0,0-.352-.271q-.225-.152-.474-.3a2.494,2.494,0,0,0-.475-.225q-1.842-.321-3.688-.619a.594.594,0,0,0-.237.023,2.384,2.384,0,0,0-.254.076.6.6,0,0,0-.2.115l-.049.015a.585.585,0,0,0-.2.115l-.049.015c-.014.005-.023.011-.036.016a1.324,1.324,0,0,0-.042-.227,1.026,1.026,0,0,0-.112-.257l-.058-.09q-.864-.136-1.728-.268a.64.64,0,0,0-.238.019,1.428,1.428,0,0,0-.258.085.849.849,0,0,0-.208.122c-.01,0-.02.006-.03.01a.836.836,0,0,0-.208.122c-.01,0-.02.006-.03.01a.827.827,0,0,0-.207.122c-.01,0-.021.006-.031.01a.832.832,0,0,0-.206.121h0c-.01,0-.021.006-.031.01a.823.823,0,0,0-.2.12h0l-.032.01a.824.824,0,0,0-.2.12h0c-.011,0-.022.006-.033.011a.817.817,0,0,0-.2.119l0,0c-.011,0-.022.006-.033.011a.818.818,0,0,0-.2.119l0,0c-.011,0-.022.006-.034.011l-.011.006c0-.066.007-.122.012-.166l.1-.016v-.093l.232-.037v-.093l.232-.036v-.093l.232-.037v-.143a1.273,1.273,0,0,0-.052-.365,1.074,1.074,0,0,0-.1-.26l-.057-.094q-1.327-.194-2.655-.376a.611.611,0,0,0-.238.029,2.606,2.606,0,0,0-.254.082.6.6,0,0,0-.226.137l-.006.006a.589.589,0,0,0-.208.128l-.006.007a.592.592,0,0,0-.208.127l-.006.007a.593.593,0,0,0-.208.127l-.006.007a.587.587,0,0,0-.208.127l-.007.007a.585.585,0,0,0-.207.127l-.007.007a.584.584,0,0,0-.207.127l-.007.008a.586.586,0,0,0-.206.126l-.008.008a.58.58,0,0,0-.206.126l-.008.008a.57.57,0,0,0-.206.126l-.008.009a.574.574,0,0,0-.206.126l-.008.009a.573.573,0,0,0-.206.125l-.008.009a.568.568,0,0,0-.205.125l-.009.01a.571.571,0,0,0-.205.125l-.009.01a.562.562,0,0,0-.2.124l-.009.01a.557.557,0,0,0-.2.124l-.009.01a.7.7,0,0,0-.066.032v-1.2c0-.06,0-.111.005-.157l.024,0-.006-.1.207-.037-.006-.1.207-.037c0-.032,0-.065-.006-.1l.207-.037-.006-.1.207-.037c0-.051-.006-.1-.009-.153a1.736,1.736,0,0,0-.055-.344.951.951,0,0,0-.115-.273l-.058-.088q-1.327-.167-2.656-.324a.636.636,0,0,0-.239.034,2.472,2.472,0,0,0-.255.087.6.6,0,0,0-.226.141l-.031.034a.537.537,0,0,0-.152.1l-.031.034a.528.528,0,0,0-.152.1l-.032.035a.524.524,0,0,0-.151.1l-.032.035a.531.531,0,0,0-.151.1l-.032.035a.524.524,0,0,0-.151.1l-.032.035a.526.526,0,0,0-.15.1l-.033.036a.526.526,0,0,0-.15.1l-.033.036a.526.526,0,0,0-.15.1l-.033.036a.516.516,0,0,0-.15.1l-.034.037a.508.508,0,0,0-.15.1l-.034.037a.516.516,0,0,0-.15.1l-.016.018q-.179-.822-.358-1.645l-.053-.048a2.675,2.675,0,0,0-.545-.376,4.975,4.975,0,0,0-.606-.276,2.047,2.047,0,0,0-.474-.131,1.133,1.133,0,0,0-.424.061,4.545,4.545,0,0,0-.5.182q-.26.111-.467.224a1.409,1.409,0,0,0-.316.217l-.03.031,0,.011a.855.855,0,0,0-.12.1l-.03.03,0,.011a.867.867,0,0,0-.121.1l-.03.03,0,.011a.838.838,0,0,0-.121.1l-.029.03,0,.011a.824.824,0,0,0-.121.1l-.029.03,0,.011a.822.822,0,0,0-.121.1l-.029.03,0,.011a.786.786,0,0,0-.121.1l-.029.03,0,.011a.827.827,0,0,0-.121.1l-.029.03,0,.012a.813.813,0,0,0-.122.1l-.029.03,0,.012a.813.813,0,0,0-.122.1l-.028.029,0,.012a.814.814,0,0,0-.122.1l-.028.029,0,.012a.817.817,0,0,0-.122.1l-.028.029s0,.008,0,.013a.819.819,0,0,0-.122.1l-.028.029,0,.013a.818.818,0,0,0-.122.1l-.028.029,0,.013a.8.8,0,0,0-.122.1l-.028.028,0,.013a.8.8,0,0,0-.122.1l-.028.028,0,.014a.78.78,0,0,0-.122.1l-.028.028,0,.014a.811.811,0,0,0-.122.1l-.027.028,0,.014a.83.83,0,0,0-.122.1l-.027.028,0,.014a.8.8,0,0,0-.122.1l-.027.028,0,.014a.8.8,0,0,0-.1.077.871.871,0,0,1,.062-.172l.071-.115-.291-.357-.1,0c-.163,0-.373,0-.627,0l.008-.034.1.015c.011-.048.022-.1.033-.145l.1.015.033-.145.1.015.036-.157q.076-.34.164-.827a5.385,5.385,0,0,0,.069-1.1c0-.027,0-.054,0-.081l-.06-.06a2.578,2.578,0,0,0-.707-.487,5.2,5.2,0,0,0-.864-.328,4.283,4.283,0,0,0-.8-.153,3.326,3.326,0,0,0-.694.041,7.986,7.986,0,0,0-.913.189,7.862,7.862,0,0,0-.918.3,2.789,2.789,0,0,0-.722.408l-.033.027-.017.04c-.006.013-.011.03-.017.045l-.041.031-.033.027-.017.039c-.006.013-.011.03-.017.045s-.028.02-.041.031l-.033.027-.017.039c-.006.013-.011.031-.017.045s-.028.02-.041.031l-.032.026-.017.039c-.006.013-.011.031-.017.045l-.041.031-.032.026-.017.038c-.006.013-.012.031-.017.046s-.029.02-.042.031l-.032.026-.017.038c-.006.014-.011.031-.017.046s-.029.02-.042.031l-.032.026-.017.038c-.006.013-.012.031-.017.046s-.029.021-.042.031l-.032.026-.016.038c-.006.013-.012.031-.018.046s-.029.021-.042.031l-.031.026-.017.038c-.006.014-.012.031-.017.047s-.03.021-.042.031l-.031.025-.016.038c-.006.014-.012.031-.018.047s-.03.021-.042.031l-.031.025c-.006.013-.011.025-.016.037s-.012.031-.018.047-.03.021-.042.032l-.031.025-.016.037c-.006.014-.012.032-.018.047s-.03.021-.043.032l-.031.025-.016.037c-.006.014-.012.032-.018.048l-.043.032-.031.025-.016.037c-.006.014-.012.032-.018.047s-.03.021-.043.033l-.031.025-.016.037c-.006.014-.012.032-.018.048s-.03.021-.043.033l-.03.025-.016.036c-.006.014-.012.032-.018.048s-.03.021-.044.033l-.03.024-.015.036c0,.011-.01.025-.014.037v-1.618l.035-.009v-.117l.1-.025v-.117l.1-.025v-.118l.1-.025v-.117l.1-.025v-.117l.1-.025v-.117l.1-.025v-.118l.1-.025v-.143a1.341,1.341,0,0,0-.045-.354.748.748,0,0,0-.124-.276l-.059-.073q-.932-.059-1.866-.113a.86.86,0,0,0-.239.033,1.634,1.634,0,0,0-.268.092.516.516,0,0,0-.228.168l-.033.047v.044a.357.357,0,0,0-.055.056l-.033.047v.043a.378.378,0,0,0-.056.056l-.032.047v.044a.336.336,0,0,0-.056.056l-.032.046v.044a.37.37,0,0,0-.056.057l-.032.046v.044a.353.353,0,0,0-.056.057l-.032.046v.044a.339.339,0,0,0-.056.057l-.032.045v.044a.356.356,0,0,0-.056.057l-.031.045v.044a.347.347,0,0,0-.057.057h0c-.3-.53-.6-1.061-.9-1.589q-1.135-.057-2.269-.106a.631.631,0,0,0-.239.052,2.256,2.256,0,0,0-.256.106.647.647,0,0,0-.227.158l-.05.058c0,.024,0,.048.005.072-.006.006-.014.011-.02.017l-.05.058c0,.024,0,.048.006.072-.006.006-.015.011-.02.018l-.05.057c0,.024,0,.048.005.072-.006.006-.015.012-.02.018l-.05.057.006.072c-.006.006-.015.011-.021.018l-.049.057c0,.024,0,.048.006.072-.006.006-.016.012-.021.018l-.049.056c0,.024,0,.048.005.072-.006.006-.016.012-.021.018l-.049.056c0,.024,0,.048.006.072-.006.006-.016.012-.021.019l-.048.056c0,.024,0,.048.005.072-.006.007-.016.013-.021.019l-.048.055c0,.024,0,.048.006.072a.287.287,0,0,0-.022.02l-.048.055c0,.024,0,.048.005.072-.006.007-.016.013-.022.02l-.048.055c0,.024,0,.048.006.073-.007.007-.017.013-.023.02l-.047.055c0,.024,0,.048.005.073-.007.007-.017.013-.023.02l-.024.027c.017-.081.034-.166.051-.258a10.1,10.1,0,0,0,.146-1.167c0-.023,0-.046.005-.069l-.04-.058a1.612,1.612,0,0,0-.365-.368,2.537,2.537,0,0,0-.412-.259l-.037-.018q-2.314-.083-4.627-.131a.707.707,0,0,0-.232.049,1.617,1.617,0,0,0-.267.119,1.065,1.065,0,0,0-.211.15l-.063.062c0,.029,0,.059.007.088,0,.007,0,.013,0,.02l-.04.04c0,.029,0,.059.007.088,0,.007,0,.013,0,.02l-.041.04c0,.029,0,.058.007.088,0,.007,0,.013,0,.021l-.04.04c0,.029,0,.058.007.087,0,.008,0,.014,0,.021l-.041.04c0,.029,0,.058.007.087,0,.008,0,.014,0,.021l-.041.04c0,.029,0,.058.007.086,0,.008,0,.014,0,.022l-.04.04c0,.028,0,.057.007.086,0,.008,0,.015,0,.023l-.041.04.007.085c0,.008,0,.015,0,.023l-.041.04c0,.028,0,.057.006.085,0,.008,0,.015,0,.023l-.041.04.007.084c0,.008,0,.016,0,.024l-.041.04c0,.028,0,.056.006.084,0,.008,0,.016,0,.024l-.041.04.007.083c0,.008,0,.016,0,.024l-.041.04c0,.027,0,.055.006.083,0,.008,0,.016,0,.025l-.041.04c0,.028,0,.055.006.083,0,.009,0,.017,0,.025l-.041.04c0,.027,0,.055.006.082,0,.009,0,.017,0,.025l-.041.04c0,.027,0,.055.006.082,0,.009,0,.017,0,.026l-.041.04c0,.027,0,.054.006.081,0,.01,0,.017.005.027l-.041.04c0,.027,0,.054.006.081,0,.01,0,.017,0,.027l-.041.04c0,.027,0,.054.006.081,0,.01,0,.018.005.027l-.041.041c0,.027,0,.053.006.08,0,.01,0,.018.005.028l-.041.041c0,.026,0,.053.006.079,0,.01,0,.018.005.028l-.041.041c0,.026,0,.052.006.079,0,.01,0,.018.005.028l-.041.041c0,.026,0,.052.006.078,0,.01,0,.019.005.029l-.041.041c0,.026,0,.052.006.078,0,.01,0,.019.006.029h0a1.31,1.31,0,0,0-.054-.129l-.017-.034-.029-.025a1.449,1.449,0,0,0-.341-.2c0-.018,0-.038.007-.057s.012-.049.017-.076,0-.042.008-.062.012-.049.017-.076.005-.042.008-.062.012-.049.017-.076.005-.042.008-.062.012-.049.017-.076.005-.042.009-.062.012-.049.017-.076,0-.042.008-.062.012-.049.017-.076,0-.042.008-.062.012-.049.017-.076,0-.042.008-.062.012-.049.017-.076,0-.041.008-.062.012-.049.017-.077a3.833,3.833,0,0,0,.061-.694,2.857,2.857,0,0,0-.025-.4,1.866,1.866,0,0,0-.091-.393c-.006-.015-.01-.03-.016-.045l-.035-.034a2.328,2.328,0,0,0-.445-.305,5.311,5.311,0,0,0-.594-.284,2.137,2.137,0,0,0-.612-.158q-1.739-.017-3.478-.016a.705.705,0,0,0-.249.062,2.377,2.377,0,0,0-.255.119.742.742,0,0,0-.219.166l-.045.054v.07c0,.027,0,.052.006.078h0v.069c0,.027,0,.052.006.078h0v.069c0,.027,0,.052.006.078h0v.069c0,.027,0,.052.006.079h0v.068c0,.027,0,.052.006.079h0v.068a.792.792,0,0,0,.006.079h0v.068a.718.718,0,0,0,.006.08h0v.068c0,.027,0,.053.007.08h0v.067c0,.028,0,.054.007.081h0v.067c0,.028,0,.054.006.081h0v.066a.806.806,0,0,0,.006.081h0v.066a.73.73,0,0,0,.006.081h0v.066c0,.028,0,.054.007.082h0v.065c0,.028,0,.055.007.082h0v.065c0,.028,0,.055.007.082h0v.065c0,.028,0,.055.007.082h0v.064a.756.756,0,0,0,.007.083h0v.064a.77.77,0,0,0,.006.083h0v.063c0,.029,0,.056.007.083h0v.063c0,.029,0,.056.007.084h0v.063c0,.029,0,.056.007.084h0v.062a.706.706,0,0,0,.007.085h0v.062a.711.711,0,0,0,.007.085v.063a.712.712,0,0,0,.007.085h0v.061a.8.8,0,0,0,.007.085v.063a.8.8,0,0,0,.007.086h0v.061a.73.73,0,0,0,.007.086v.062a.743.743,0,0,0,.007.086h0v.06a.737.737,0,0,0,.007.087v.061a.847.847,0,0,0,.007.087h0v.059a.756.756,0,0,0,.007.087v.061a.756.756,0,0,0,.007.088v.06a.683.683,0,0,0,.007.088v.06a.7.7,0,0,0,.007.088v.059a.629.629,0,0,0,.007.089l0,0v.058a.706.706,0,0,0,.007.089l0,0v.057a.774.774,0,0,0,.007.089v.059a.775.775,0,0,0,.006.079l-.064.007-.048.094a1.067,1.067,0,0,0-.062.186,1.2,1.2,0,0,0-.035.272v.169h.005V173h.006v.115h.006v.115h.006v.115h.006v.115h.006v.115h.005v.115h.006v.115h.006v.115h.006v.115h.006v.115h.005v.115h.006v.115h.006v.115h.006v.115h.006v.115h.006v.115h.005v.115h.006v.115h.006v.115h.006v.115h.006v.115h.006v.115h.005v.115h.006v.115h.006v.115h.006v.115h.006v.115h.005v.115h.006v.115h.006v.115h.006v.115h.006v.115h.006v.115h.005v.115h.006v.115h.006v.115h.006v.115h.006v.115h.005v.115h.006v.115h.006v.115h.006v.115h.006v.115h.006v.115h.005v.115h.006v.115h.006v.115h.006v.115h.006v.115h.006v.115l.124.016q.27.035.656.07c.255.024.522.045.8.065s.546.038.8.053.481.028.667.037.3.016.369.021h.03a.927.927,0,0,0,.348-.078,2.794,2.794,0,0,0,.389-.2,1.715,1.715,0,0,0,.3-.227l.02-.019.011-.025a1.89,1.89,0,0,0,.1-.345c0-.013,0-.027.006-.039s.014-.052.02-.081c0-.013,0-.026.006-.039s.014-.052.02-.081c0-.013,0-.027.006-.039s.014-.052.021-.081c0-.013,0-.026.006-.039s.014-.052.02-.081c0-.013,0-.026.006-.039s.014-.052.02-.081c0-.013,0-.026.006-.039s.014-.052.021-.081c0-.013,0-.026.006-.039s.014-.052.02-.081c0-.013,0-.027.006-.039s.014-.052.02-.081c0-.013,0-.026.006-.039s.014-.052.021-.081c0-.013,0-.027.006-.04s.014-.052.02-.081c0-.013,0-.026.006-.039s.014-.052.02-.081c0-.013,0-.027.006-.039s.014-.052.02-.081c0-.013,0-.026.006-.039s.014-.052.02-.081c0-.013,0-.027.006-.039.007-.028.014-.052.02-.081,0-.013,0-.026.006-.039s.014-.052.02-.081c0-.013,0-.027.006-.039s.014-.052.02-.081c0-.013,0-.026.006-.039s.014-.052.02-.081c0-.013,0-.026.006-.039s.014-.052.02-.081c0-.013,0-.026.006-.039s.014-.052.02-.081c0-.013,0-.026.006-.039s.014-.052.021-.081c0-.013,0-.026.006-.039.007-.028.014-.052.02-.081,0-.013,0-.026.006-.039s.014-.052.02-.081c0-.013,0-.027.006-.039.007-.028.014-.052.021-.081,0-.013,0-.027.006-.039s.014-.052.02-.081c0-.013,0-.027.006-.04s.014-.052.02-.081c0-.013,0-.026.006-.039s.014-.052.021-.081c0-.013,0-.027.006-.039.007-.028.014-.052.02-.081,0-.013,0-.026.006-.039s.014-.052.02-.081c0-.013,0-.027.006-.039.007-.028.014-.052.021-.081,0-.013,0-.026.006-.039l.007-.028.3.007a1.58,1.58,0,0,0-.033.376v1.358c0,.01-.005.017-.008.028s0,.018,0,.026c-.008.025-.017.055-.027.092,0,.008,0,.018,0,.026-.008.025-.017.055-.027.092,0,.009,0,.018,0,.027-.008.025-.017.054-.027.091,0,.009,0,.018,0,.027-.009.024-.017.054-.027.091,0,.008,0,.018,0,.027-.008.024-.017.054-.027.091,0,.009,0,.018,0,.027-.009.024-.017.054-.027.09,0,.009,0,.018,0,.028s-.017.053-.027.09c0,.009,0,.019,0,.028-.008.024-.017.053-.027.09,0,.009,0,.019,0,.028s-.017.053-.027.09c0,.009,0,.019,0,.028s-.017.053-.026.09c0,.009,0,.019,0,.028s-.017.052-.026.089c0,.009,0,.019,0,.029s-.017.052-.026.089c0,.009,0,.02,0,.029s-.017.052-.026.089c0,.01,0,.02,0,.029s-.017.052-.026.089c0,.01,0,.02,0,.03s-.017.052-.026.088c0,.01,0,.02,0,.03s-.017.051-.026.088c0,.01,0,.02,0,.03s-.017.051-.026.088c0,.01,0,.02,0,.03s-.017.051-.026.088a.793.793,0,0,0-.026.2c0,.04,0,.081,0,.121l.12.022c.116.022.279.044.488.068s.44.047.7.069.53.044.8.066l.785.062c.252.02.469.035.657.046s.319.018.4.021a.411.411,0,0,0,.206-.065,1.969,1.969,0,0,0,.2-.124.547.547,0,0,0,.163-.157l.011-.019c0-.007,0-.015,0-.022l0-.025a.416.416,0,0,0,.04-.049l.012-.02c0-.007,0-.015,0-.022s0-.017,0-.025a.384.384,0,0,0,.04-.049l.012-.02,0-.023c0-.007,0-.017,0-.025a.333.333,0,0,0,.04-.048l.012-.02c0-.007,0-.015,0-.023l0-.025a.334.334,0,0,0,.04-.048l.012-.02c0-.007,0-.015,0-.023s0-.017,0-.025a.376.376,0,0,0,.04-.048l.012-.02.005-.023,0-.024a.379.379,0,0,0,.04-.048l.012-.02,0-.023,0-.024a.357.357,0,0,0,.04-.048l.012-.02c0-.008,0-.016,0-.023l0-.024a.354.354,0,0,0,.04-.048l.012-.02.005-.023,0-.024a.406.406,0,0,0,.039-.048l.012-.021c0-.008,0-.016.005-.023l0-.024a.409.409,0,0,0,.039-.048l.013-.021,0-.024,0-.024a.4.4,0,0,0,.039-.048l.013-.021.005-.024c0-.007,0-.016,0-.023a.4.4,0,0,0,.039-.048l.013-.021.005-.024,0-.023a.442.442,0,0,0,.039-.048l.013-.021c0-.008,0-.016.005-.024l0-.023a.433.433,0,0,0,.039-.048l.013-.021.006-.024c0-.007,0-.016,0-.023a.407.407,0,0,0,.039-.047l.013-.021.005-.024c0-.007,0-.016,0-.023a.407.407,0,0,0,.039-.047l.013-.021c0-.008,0-.016.005-.025s0-.016,0-.022a.413.413,0,0,0,.034-.042v.837a.39.39,0,0,0-.018.039h0l-.036.059a.342.342,0,0,0-.027.059h0l-.036.059a.373.373,0,0,0-.028.059h0l-.036.058a.363.363,0,0,0-.028.06h0l-.035.058a.338.338,0,0,0-.028.06h0l-.035.058a.329.329,0,0,0-.028.061h0l-.035.057a.335.335,0,0,0-.028.061h0l-.035.057a.518.518,0,0,0-.056.157.837.837,0,0,0-.021.181v.1l.1.035a3.124,3.124,0,0,0,.348.1c.133.033.271.062.412.089s.266.05.378.07a2.159,2.159,0,0,0,.248.034,1.056,1.056,0,0,0,.249-.024,1.783,1.783,0,0,0,.277-.078.927.927,0,0,0,.227-.118l.054-.04q0-.029,0-.058c.009-.006.019-.01.026-.016l.054-.041v-.057l.026-.016.054-.041v-.058c.008-.005.018-.01.026-.016l.055-.041c0-.019,0-.038,0-.057s.018-.01.025-.016l.055-.041v-.057l.025-.015.055-.042c0-.019,0-.038,0-.057l.024-.015.056-.042v-.057l.024-.015.056-.042v-.057h0c.23.409.461.816.692,1.225l.083,0c.117.006.264.006.434,0a3.546,3.546,0,0,0,.511-.058,1.053,1.053,0,0,0,.42-.159l.088-.064-.016-.036c.008-.005.019-.008.027-.014l.088-.064-.015-.035c.008-.005.018-.008.026-.014l.089-.064-.015-.036c.007,0,.018-.008.025-.013l.09-.065-.015-.035c.007,0,.018-.008.025-.013l.09-.065-.015-.035c.007,0,.017-.008.024-.013l.091-.066-.015-.035c.007,0,.017-.008.023-.012l.091-.066-.015-.035c.007,0,.016-.007.023-.012l.092-.066-.015-.035c.007,0,.016-.007.022-.011l.092-.067-.015-.035c.006,0,.015-.007.021-.011l.093-.068-.015-.035c.006,0,.015-.007.021-.011l.071-.051a2.282,2.282,0,0,0,.231.693l.012.021.018.017c.033.031.111.1.226.19a4.912,4.912,0,0,0,.437.314,3.5,3.5,0,0,0,.595.308,2.321,2.321,0,0,0,.705.165,4.792,4.792,0,0,0,.608,0c.217-.011.435-.033.647-.063s.4-.064.572-.1a2.081,2.081,0,0,0,.4-.125l.074-.034v-.053c.02-.008.046-.016.063-.024l.074-.035v-.053c.02-.008.045-.016.063-.024l.075-.035v-.053c.02-.008.045-.015.062-.023l.075-.035V179c.02-.008.045-.016.062-.023l.076-.035v-.053c.019-.008.044-.015.061-.023l.076-.035v-.053c.019-.008.044-.015.061-.023l.077-.036v-.053c.019-.008.044-.015.06-.023l.077-.036v-.053c.019-.007.043-.015.06-.023l.078-.036v-.053c.018-.007.043-.014.059-.022l.078-.037v-.053c.018-.007.042-.014.059-.022l.079-.037v-.053c.018-.007.042-.014.058-.022l.079-.037v-.053l.034-.013c-.069.231-.133.417-.19.556a.246.246,0,0,0-.037.051l-.053.015-.017.011a.228.228,0,0,0-.072.087l-.054.015-.017.011a.228.228,0,0,0-.071.088l-.054.015-.017.011a.226.226,0,0,0-.071.088l-.054.015-.017.011a.227.227,0,0,0-.071.087l-.055.015-.017.011a.271.271,0,0,0-.1.156.732.732,0,0,0-.027.208v.11l.106.038c.072.026.179.057.315.094s.277.073.43.11.3.073.451.106.271.06.372.082.177.035.2.038a.954.954,0,0,0,.258-.019,1.761,1.761,0,0,0,.282-.079.588.588,0,0,0,.223-.129l.014-.015a.51.51,0,0,0,.145-.093l.014-.015a.511.511,0,0,0,.145-.093l.014-.014c.014-.007.031-.013.044-.02a.543.543,0,0,0-.029.171v.1l.09.045a1.605,1.605,0,0,0,.307.1c.14.038.3.079.484.121s.361.084.537.124l.451.1c.133.03.212.045.238.048a.918.918,0,0,0,.258-.015,1.683,1.683,0,0,0,.281-.075.621.621,0,0,0,.215-.121.608.608,0,0,0,.178-.1c0,.017-.006.034-.007.051v.119l.118.035c.132.039.321.085.574.139s.514.106.806.16.58.107.867.156.541.094.765.129.387.061.486.074a.374.374,0,0,0,.2-.045,1.57,1.57,0,0,0,.146-.079.623.623,0,0,0,.063-.022,1.525,1.525,0,0,0,.146-.079.624.624,0,0,0,.063-.022,1.57,1.57,0,0,0,.146-.079.661.661,0,0,0,.063-.022c.049-.022.1-.051.146-.079.021-.007.039-.011.063-.022a1.578,1.578,0,0,0,.146-.079.669.669,0,0,0,.063-.022c.048-.022.1-.051.146-.079.021-.007.039-.011.063-.022s.049-.027.074-.04a1.285,1.285,0,0,0,.162.2,3.306,3.306,0,0,0,.519.419,4.717,4.717,0,0,0,.649.359,2.553,2.553,0,0,0,.673.206,2.816,2.816,0,0,0,.583.023,3.587,3.587,0,0,0,.579-.081,2.678,2.678,0,0,0,.509-.165c.014-.006.023-.013.036-.019.072-.025.143-.051.208-.08.014-.006.023-.013.036-.019.072-.025.143-.051.208-.079.014-.006.023-.013.036-.02.072-.024.143-.05.208-.079.014-.006.023-.013.036-.019.072-.025.143-.051.208-.079.013-.006.023-.013.036-.02.072-.025.143-.05.208-.079.013-.006.023-.013.036-.019.072-.025.143-.051.208-.079l.036-.02c.072-.025.143-.05.208-.079l.025-.014v.122a1.371,1.371,0,0,1-.031.309.563.563,0,0,1-.03.085l-.143,0-.035.054a.3.3,0,0,0-.025.05l-.193,0-.035.053a.447.447,0,0,0-.055.15.826.826,0,0,0-.021.178v.1l.1.048a1.914,1.914,0,0,0,.269.1c.122.039.263.081.427.13s.323.093.483.136l.413.111c.124.033.2.052.238.058a1.2,1.2,0,0,0,.38-.01.956.956,0,0,0,.326-.106.916.916,0,0,0,.269-.093,1.212,1.212,0,0,0,.162-.042,1.344,1.344,0,0,0,.227.273,1.618,1.618,0,0,0,1.091.365,2.769,2.769,0,0,0,.367-.037,2.237,2.237,0,0,0,.348-.086l.076-.026v-.006a2.091,2.091,0,0,0,.211-.058l.077-.027v-.006a2,2,0,0,0,.21-.058l.077-.027V182.3a2.119,2.119,0,0,0,.21-.058l.072-.025c.013.015.024.03.038.045a3.542,3.542,0,0,0,.516.444,4.908,4.908,0,0,0,.645.389,2.617,2.617,0,0,0,.669.238,2.9,2.9,0,0,0,.579.051,3.436,3.436,0,0,0,.575-.054,43.887,43.887,0,0,0,.708-.187,231,231,0,0,0,.632-.17,2.643,2.643,0,0,0,.316-.085,297.429,297.429,0,0,0,.632-.17,2179.279,2179.279,0,0,1,.948-.255,2.83,2.83,0,0,0,.316-.085,725.308,725.308,0,0,1,.948-.255,829.019,829.019,0,0,1,.948-.255,3.018,3.018,0,0,0,.316-.085,2.956,2.956,0,0,0,.316-.085,2.922,2.922,0,0,0,.316-.085,3.027,3.027,0,0,0,.316-.085,2.96,2.96,0,0,0,.316-.085,3.143,3.143,0,0,0,.316-.085,3.036,3.036,0,0,0,.316-.085,3.14,3.14,0,0,0,.316-.085,3.05,3.05,0,0,0,.316-.085,2.984,2.984,0,0,0,.316-.085,3.205,3.205,0,0,0,.316-.085,3.057,3.057,0,0,0,.316-.085,97223.594,97223.594,0,0,1,.632-.17,392.148,392.148,0,0,1,.632-.17,3.2,3.2,0,0,0,.316-.085q.167-.037.316-.085a3.183,3.183,0,0,0,.316-.085c.111-.024.216-.052.316-.085s.216-.053.316-.085.216-.052.316-.085.216-.053.316-.085.216-.053.316-.085.216-.052.316-.085.216-.053.316-.085.216-.053.316-.085.216-.053.316-.085.216-.053.316-.085.216-.052.316-.085.216-.053.316-.085.216-.053.316-.085.216-.053.316-.085.215-.053.315-.085a3.351,3.351,0,0,0,.516-.152,1.516,1.516,0,0,0,.5-.305l.045-.045q0-2.16,0-4.32a1.981,1.981,0,0,1,.035-.436L320,173.7c0-.026,0-.052,0-.078l.328-.035c0-.026,0-.051,0-.077m-3.985-.468-.006,0c0-.01,0-.019.007-.027l.141-.016a1.306,1.306,0,0,0-.142.041m.312-.119a.884.884,0,0,0-.144.071H316.5v-.079l.282-.031a1.28,1.28,0,0,0-.133.038m.435-.154a1.214,1.214,0,0,0-.123.035.893.893,0,0,0-.144.071l-.011,0V172.8l.278-.031m-48.142-4.139,0,0,0-.014v.011" transform="translate(-161.456 -104.774)" fill="#040504"/>
      <path id="Path_5097" data-name="Path 5097" d="M226.087,176.591a.526.526,0,0,0-.017-.12,110.8,110.8,0,0,0-.049-.359.575.575,0,0,0-.016-.12.546.546,0,0,0-.017-.119.568.568,0,0,0-.016-.12.6.6,0,0,0-.017-.12.572.572,0,0,0-.017-.12.591.591,0,0,0-.016-.119,371.716,371.716,0,0,0-.033-.24,36.12,36.12,0,0,0-.033-.239.572.572,0,0,0-.017-.12,42.217,42.217,0,0,0-.033-.239.6.6,0,0,0-.017-.12.623.623,0,0,0-.016-.12.594.594,0,0,0-.017-.12,117.514,117.514,0,0,1-.066-.479,518.909,518.909,0,0,0-.033-.239.649.649,0,0,0-.016-.12.62.62,0,0,0-.017-.12.647.647,0,0,0-.016-.12.683.683,0,0,0-.017-.12,36.738,36.738,0,0,1-.033-.239,847.984,847.984,0,0,1-.033-.239.676.676,0,0,0-.016-.12,3478.153,3478.153,0,0,1-.033-.239,118.491,118.491,0,0,1-.066-.479.679.679,0,0,0-.017-.12.715.715,0,0,0-.016-.12.752.752,0,0,0-.017-.12.679.679,0,0,0-.017-.12,44.879,44.879,0,0,0-.033-.24,451.532,451.532,0,0,1-.033-.239.942.942,0,0,0-.09-.32,2.316,2.316,0,0,0-.226-.374,1.851,1.851,0,0,0-.288-.309.55.55,0,0,0-.356-.156.917.917,0,0,0-.363.1,3.041,3.041,0,0,0-.382.22.279.279,0,0,0-.02-.069c0-.007,0-.014,0-.022a.268.268,0,0,0-.029-.117c0-.007,0-.014,0-.021a.269.269,0,0,0-.029-.117c0-.007,0-.014,0-.021a.265.265,0,0,0-.029-.117c0-.007,0-.014,0-.02a.266.266,0,0,0-.029-.118c0-.007,0-.014,0-.02a.269.269,0,0,0-.029-.118c0-.006,0-.013,0-.02a.27.27,0,0,0-.029-.119c0-.006,0-.013,0-.019a.271.271,0,0,0-.029-.119c0-.006,0-.013,0-.019a.275.275,0,0,0-.029-.119c0-.006,0-.012,0-.018a.275.275,0,0,0-.029-.12c0-.006,0-.012,0-.018a.275.275,0,0,0-.029-.12c0-.006,0-.012,0-.018a.282.282,0,0,0-.029-.12c0-.006,0-.012,0-.018a.285.285,0,0,0-.029-.121c0-.006,0-.011,0-.017a.287.287,0,0,0-.029-.121c0-.006,0-.011,0-.017a.287.287,0,0,0-.029-.122c0-.006,0-.011,0-.017a.285.285,0,0,0-.029-.122c0-.005,0-.011,0-.016a.286.286,0,0,0-.029-.122c0-.005,0-.01,0-.016a.287.287,0,0,0-.029-.123c0-.005,0-.01,0-.016a.288.288,0,0,0-.029-.123c0-.005,0-.01,0-.015a.291.291,0,0,0-.029-.123s0-.01,0-.014a.291.291,0,0,0-.029-.124s0-.01,0-.014a.464.464,0,0,0-.245-.353,2.773,2.773,0,0,0-.451-.242c-.175-.077-.366-.151-.565-.218s-.389-.121-.558-.16a1.871,1.871,0,0,0-.439-.057,3.413,3.413,0,0,0-.777.121,3.8,3.8,0,0,0-.8.314,2.292,2.292,0,0,0-.649.489l-.061.068c0,.029.007.059.011.088a3.659,3.659,0,0,0,.187.773c.014.037.027.068.041.1,0,.01.006.022.01.032.014.038.028.07.042.1,0,.01.005.02.009.029.014.038.028.07.041.1,0,.01.005.02.009.029.014.038.028.07.041.1,0,.009.005.02.009.029.014.038.028.07.041.1,0,.009.005.02.009.029.014.038.028.07.041.1,0,.01.005.02.009.029.014.038.028.071.041.1,0,.01.005.02.009.029.014.039.028.071.041.1,0,.01.006.02.009.029.014.038.028.071.041.1,0,.01.006.02.009.029.014.038.028.071.042.1,0,.009.005.02.008.029.014.038.028.071.041.1,0,.01.006.02.009.029.014.038.028.071.042.1,0,.009.005.019.008.029.014.038.028.071.041.1,0,.01.006.02.009.029.014.038.028.071.041.1,0,.01.006.02.009.029.014.038.028.071.042.1,0,.01.005.02.008.029l0,.009v.023c-.005-.009-.01-.017-.015-.025a104.214,104.214,0,0,0-.1-.276,1102.042,1102.042,0,0,0-.1-.276,49.025,49.025,0,0,1-.1-.276.3.3,0,0,0-.052-.138.3.3,0,0,0-.052-.138.3.3,0,0,0-.052-.138.307.307,0,0,0-.052-.138.3.3,0,0,0-.052-.138,157.882,157.882,0,0,1-.1-.276.312.312,0,0,0-.052-.138.306.306,0,0,0-.052-.138.313.313,0,0,0-.052-.138.316.316,0,0,0-.052-.138.312.312,0,0,0-.052-.138,145.486,145.486,0,0,0-.1-.275.479.479,0,0,0-.23-.312,2.677,2.677,0,0,0-.436-.236c-.169-.075-.356-.147-.553-.211a4.987,4.987,0,0,0-.566-.151,2.07,2.07,0,0,0-.475-.049,4.868,4.868,0,0,0-.931.137,5.538,5.538,0,0,0-.9.3.607.607,0,0,0-.054-.074.441.441,0,0,0-.079-.153.448.448,0,0,0-.079-.153,150.518,150.518,0,0,1-.158-.3,4520.667,4520.667,0,0,1-.158-.305.448.448,0,0,0-.079-.153.454.454,0,0,0-.079-.153,1434.9,1434.9,0,0,1-.158-.305.467.467,0,0,0-.079-.153,4204.129,4204.129,0,0,0-.158-.305,4205.124,4205.124,0,0,1-.158-.305.531.531,0,0,0-.133-.227,1.272,1.272,0,0,0-.285-.219.664.664,0,0,0-.365-.1.677.677,0,0,0-.444.276,3.823,3.823,0,0,0-.384.528c-.126.206-.247.423-.358.645s-.2.43-.271.614a1.4,1.4,0,0,0-.113.46.9.9,0,0,0,.1.375,2.086,2.086,0,0,0,.17.287c.027.047.058.093.09.139s.058.093.09.139.058.093.09.139.058.093.09.139.058.093.09.139.058.093.09.139.058.093.09.139.058.093.09.139.058.093.09.139.058.093.09.14.058.093.09.139.058.093.09.139.058.093.09.139.058.093.09.139.058.093.09.139.058.093.09.139.058.093.09.14.057.093.09.139.058.093.09.139.057.093.09.139.058.093.09.139.057.093.09.139.057.093.09.139.058.093.09.139.057.093.09.139.058.093.09.139.057.093.09.139.048.078.074.116l-.022.014-.1.059v.117a.9.9,0,0,0,.157.468c.021.034.044.063.066.095,0,.007.006.014.01.021.021.034.045.063.067.1,0,.007.006.013.01.02.021.034.044.063.066.1,0,.007.006.013.01.02.021.034.045.063.067.095,0,.007.006.013.01.021.021.034.044.063.066.1,0,.007.006.013.01.02.021.034.045.063.067.095,0,.007.006.013.01.02.021.034.044.064.066.1,0,.007.006.013.01.02.021.034.045.064.067.1,0,.007.006.013.01.02.021.034.044.064.067.1,0,.007.005.013.01.02.021.034.045.064.067.1,0,.007.006.013.01.02.021.034.044.064.067.1,0,.007.005.013.01.02.021.034.045.063.067.1,0,.007.006.013.01.02.021.034.044.063.067.1,0,.007.005.013.01.02.021.034.045.063.067.095,0,.007.006.013.01.021.021.034.044.063.067.095,0,.007.005.013.01.02.021.034.045.064.067.1,0,.007.006.013.01.02.021.034.044.064.067.1,0,.007.005.013.01.02.021.034.045.064.067.1,0,.007.006.013.01.02.021.034.044.064.067.1,0,.007.005.013.01.02.021.034.045.064.067.1,0,.007.006.013.01.02.021.034.044.064.067.1,0,.007.005.013.01.02.021.034.045.064.067.1,0,.007.006.013.01.02.021.034.044.064.067.1,0,.007.006.013.01.02.021.034.045.064.067.1,0,.007.006.013.01.02.021.034.044.064.067.095,0,.007.005.013.01.02.021.034.045.064.067.1,0,.007.006.013.01.02.021.034.044.064.067.1,0,.007.006.013.01.02.021.034.045.064.067.1,0,.007.006.013.01.02.021.034.044.064.067.1,0,.007.006.013.01.02.021.034.044.064.066.1,0,.007.006.013.01.02.021.034.044.064.067.1,0,.007.005.013.01.02.021.034.044.064.066.1,0,.007.006.013.01.02.021.034.044.064.067.095,0,.007.006.013.01.021.021.034.044.064.066.1,0,.007.006.013.01.02.021.034.044.064.067.1,0,.007.006.013.01.02.021.034.044.064.066.1,0,.007.006.013.01.02.021.034.044.064.067.1,0,.007.006.013.01.02.021.034.044.064.067.1,0,.007.005.013.01.02.021.034.044.064.067.1,0,.007.006.013.01.02.021.034.044.064.067.1,0,.007.005.013.01.02.021.034.044.064.067.1,0,.007.006.013.01.02.021.034.044.064.067.1,0,.007.005.013.01.02.021.034.044.064.067.1,0,.007.006.013.01.02.021.034.044.064.067.095,0,.007.005.013.01.02.021.034.044.064.067.1,0,.007.006.013.01.02.021.034.044.064.067.1,0,.007.005.013.01.02.021.034.044.064.067.1,0,.007.006.013.01.02.021.034.044.064.067.1,0,.007.005.013.01.02.021.034.044.064.067.1,0,.007.006.013.01.02.021.034.044.064.067.1,0,.007.005.013.01.02.021.034.044.064.067.1,0,.007.006.013.01.02a1.592,1.592,0,0,0,.228.289c.11.108.185.151.266.147a.466.466,0,0,0,.218-.086c.067-.042.133-.088.2-.137.043-.03.076-.054.1-.069a1.427,1.427,0,0,1,.184.01c.113.011.242.028.385.049l.434.067c.145.022.272.041.384.056a1.5,1.5,0,0,0,.247.021.91.91,0,0,0,.313-.081,2.577,2.577,0,0,0,.319-.16,1.44,1.44,0,0,0,.205-.142c0,.015,0,.031,0,.046l.044.047.012.01c0,.018,0,.037-.005.055l.044.046.013.01c0,.018,0,.037-.005.055l.043.046.013.011c0,.018,0,.037-.005.055l.043.045.013.011c0,.018,0,.037-.005.055l.042.045.013.011c0,.018,0,.037-.005.055l.042.045a1.017,1.017,0,0,0,.267.183,2.648,2.648,0,0,0,.366.156.993.993,0,0,0,.336.066,5.511,5.511,0,0,0,.719-.069,4.686,4.686,0,0,0,.679-.157,1.4,1.4,0,0,0,.486-.24.6.6,0,0,0,.089-.111.3.3,0,0,0,.027.087c0,.007,0,.015,0,.023a.3.3,0,0,0,.027.087c0,.007,0,.015,0,.023a.3.3,0,0,0,.027.087c0,.008,0,.015,0,.023a.293.293,0,0,0,.027.087l0,.023a.4.4,0,0,0,.116.224.922.922,0,0,0,.209.171.512.512,0,0,0,.27.08.523.523,0,0,0,.338-.187,3.143,3.143,0,0,0,.319-.377c.109-.147.21-.3.308-.466a4.8,4.8,0,0,0,.237-.445.878.878,0,0,0,.1-.345.523.523,0,0,0-.018-.132.535.535,0,0,0-.017-.12m-6.609-6.512h0l.012.031,0,.016v.036l0-.007a.27.27,0,0,0-.015-.076m.318.86h.007l.019.048v.022c-.006-.01-.011-.02-.018-.03a.236.236,0,0,0-.008-.043m.049.123h0a.108.108,0,0,0,0,.012c.005.014.01.025.016.039v.027c0-.007-.008-.014-.013-.02a.248.248,0,0,0-.011-.058m.049.123h0c0,.007,0,.015.007.023s.008.018.011.029v.032l-.007-.011a.257.257,0,0,0-.014-.072m.051.127c0,.01.005.02.009.029l0,.006h-.006a.243.243,0,0,0-.012-.04h0l0,0m-.189-.5c.007.018.013.032.019.049v.017a.307.307,0,0,0-.023-.038.244.244,0,0,0-.006-.029Zm-.046-.123c.006.017.013.031.019.048v.012a.323.323,0,0,0-.029-.047c0-.005,0-.01,0-.014l.013,0m-.046-.123.018.047v.007a.3.3,0,0,0-.034-.056l.016,0m-.046-.123.018.046v.012a.326.326,0,0,0-.03-.06Zm-.046-.123.018.045v.026a.274.274,0,0,0-.026-.072h.008m-.046-.123.017.042v.042a.265.265,0,0,0-.022-.085h0m-.092-.246.008.02c0,.009.005.019.008.029v.028l-.01-.016a.262.262,0,0,0-.012-.062h0" transform="translate(-132.864 -103.235)" fill="#040504"/>
      <path id="Path_5098" data-name="Path 5098" d="M134.828,177.484c.122.009.28.012.472.008l.12,0,.027-.119q.058-.253.122-.638a4.178,4.178,0,0,0,.051-.816c0-.02,0-.04,0-.059l-.044-.038c-.016-.014-.038-.025-.056-.038a.06.06,0,0,0,0-.008c0-.02,0-.04,0-.06l-.045-.038c-.016-.014-.038-.025-.055-.038v-.007c0-.02,0-.04,0-.06l-.045-.038c-.016-.014-.038-.024-.055-.038a.045.045,0,0,1,0-.007c0-.02,0-.04,0-.061l-.045-.038c-.016-.014-.038-.024-.055-.038v-.006c0-.02,0-.041,0-.061l-.045-.039c-.016-.013-.037-.024-.054-.037V175.2c0-.021,0-.041,0-.062l-.045-.039c-.016-.013-.037-.024-.054-.037a.027.027,0,0,0,0-.006c0-.021,0-.041,0-.062l-.046-.039c-.016-.013-.037-.024-.054-.037v-.005c0-.021,0-.042,0-.062l-.046-.04c-.016-.013-.037-.024-.053-.037a.022.022,0,0,1,0,0c0-.021,0-.042,0-.063l-.047-.04c-.016-.013-.037-.024-.053-.036v0c0-.021,0-.042,0-.063l-.047-.04c-.016-.013-.037-.024-.053-.036v0c0-.021,0-.042,0-.064l-.047-.04c-.015-.013-.036-.023-.052-.036a.012.012,0,0,0,0,0c0-.021,0-.042,0-.064l-.048-.041c-.015-.013-.036-.023-.052-.035v0c0-.021,0-.043,0-.065l-.048-.041c-.015-.013-.036-.023-.052-.035v0c0-.022,0-.044,0-.065l-.048-.041c-.015-.013-.035-.023-.051-.035v0c0-.022,0-.044,0-.065l-.049-.041c-.015-.013-.035-.023-.051-.035h0c0-.022,0-.044,0-.066l-.049-.041c-.015-.013-.035-.023-.051-.035h0c0-.022,0-.044,0-.066l-.049-.042c-.015-.013-.035-.023-.05-.035h0c0-.022,0-.044,0-.066l-.049-.042c-.014-.012-.034-.022-.05-.034h0c0-.022,0-.045,0-.067l-.05-.042c-.014-.013-.035-.022-.05-.034s0-.045,0-.067l-.05-.042c-.014-.012-.034-.022-.049-.034s0-.045,0-.067l-.05-.043c-.014-.012-.034-.022-.049-.034s0-.045,0-.067l-.051-.043c-.014-.012-.034-.021-.049-.033s0-.045,0-.067l-.051-.043c-.014-.012-.034-.022-.048-.033s0-.045,0-.067l-.051-.044c-.014-.012-.033-.021-.048-.033s0-.044,0-.067l-.051-.044c-.014-.012-.033-.021-.048-.033s0-.045,0-.067l-.052-.044c-.014-.012-.033-.021-.048-.033s0-.045,0-.067l-.052-.044c-.014-.012-.033-.021-.047-.033s0-.045,0-.067l-.052-.045c-.014-.011-.033-.021-.047-.032l0-.067-.053-.045c-.014-.012-.033-.021-.047-.032s0-.045,0-.067l-.053-.045c-.013-.011-.032-.021-.047-.032s0-.045,0-.067l-.053-.045c-.014-.011-.032-.02-.046-.031s0-.045,0-.067l-.054-.045c-.013-.011-.032-.02-.046-.031s0-.045,0-.066l-.054-.046c-.013-.011-.031-.02-.045-.031s0-.044,0-.066l-.054-.047c-.013-.011-.032-.02-.045-.031l0-.066-.055-.047c-.013-.011-.031-.02-.045-.031s0-.044,0-.066l-.055-.047c-.013-.011-.031-.02-.045-.031s0-.044,0-.066l-.055-.047c-.013-.011-.031-.02-.044-.03s0-.044,0-.066l-.055-.047c-.013-.011-.031-.02-.044-.03s0-.044,0-.066l-.056-.048c-.013-.011-.03-.02-.044-.03s0-.044,0-.066l-.056-.048c-.013-.011-.03-.019-.044-.03s0-.044,0-.066l-.056-.048c-.013-.011-.03-.019-.043-.03l0-.066-.057-.048c-.012-.011-.03-.019-.043-.03s0-.044,0-.066l-.057-.049c-.013-.01-.03-.019-.043-.029s0-.044,0-.066l-.057-.049c-.012-.01-.03-.018-.042-.029s0-.044,0-.066l-.058-.049c-.012-.01-.029-.019-.042-.029s0-.044,0-.066l-.058-.049c-.012-.01-.029-.018-.042-.028s0-.044,0-.066l-.058-.05c-.012-.01-.029-.018-.041-.028l0-.066-.059-.05c-.012-.01-.028-.018-.041-.028l0-.066-.059-.05c-.012-.01-.028-.018-.041-.028s0-.044,0-.065l-.059-.051c-.012-.01-.028-.018-.041-.028s0-.044,0-.065l-.059-.051c-.011-.01-.028-.018-.04-.028s0-.044,0-.065l-.059-.051a2.176,2.176,0,0,0-.67-.372,4.326,4.326,0,0,0-.817-.208,2.941,2.941,0,0,0-1.486.106,8.091,8.091,0,0,0-.9.326,9.487,9.487,0,0,0-.907.44,3.387,3.387,0,0,0-.722.516l-.033.032c-.005.014-.011.028-.017.042a3.747,3.747,0,0,0-.163.59l-.025-.022a1.1,1.1,0,0,0-.137-.142,479.35,479.35,0,0,0-.411-.427,1.12,1.12,0,0,0-.137-.142,136.3,136.3,0,0,0-.274-.285,1.388,1.388,0,0,0-.329-.286,2.048,2.048,0,0,0-.411-.207l-.038-.013q-2.307.2-4.612.441a.737.737,0,0,0-.232.078,1.841,1.841,0,0,0-.266.152,1.16,1.16,0,0,0-.211.176l-.062.07c0,.029,0,.058.006.088a1.071,1.071,0,0,0,.052.267.881.881,0,0,0,.08.184l.057.088.081-.008c.01.021.02.041.03.057l.056.088.081-.008a.583.583,0,0,0,.03.058l.056.087.081-.008c.01.021.02.042.03.058l.055.087.082-.008v0c0,.016,0,.031,0,.047v.915c-.017-.01-.043-.022-.08-.038-.009-.014-.016-.028-.025-.042l-.019-.028-.03-.018a.717.717,0,0,0-.1-.049c-.009-.014-.016-.028-.025-.041l-.019-.029-.03-.018a.706.706,0,0,0-.1-.049c-.009-.014-.016-.028-.025-.041l-.019-.029-.03-.018a.708.708,0,0,0-.1-.049c-.009-.013-.016-.028-.025-.041l-.02-.029-.03-.018a.726.726,0,0,0-.1-.049c-.009-.013-.016-.027-.025-.041l-.02-.029-.031-.018a.716.716,0,0,0-.1-.049c-.009-.013-.016-.027-.025-.04l-.02-.029-.031-.019a.739.739,0,0,0-.1-.049c-.009-.013-.016-.027-.024-.04l-.02-.03-.031-.019a.739.739,0,0,0-.1-.049c-.009-.013-.016-.027-.024-.04l-.02-.03-.031-.019a.745.745,0,0,0-.1-.049c-.008-.013-.016-.027-.024-.04l-.02-.03-.031-.019a.8.8,0,0,0-.1-.049c-.008-.013-.016-.026-.024-.039l-.02-.03-.031-.019a.761.761,0,0,0-.1-.049c-.008-.013-.016-.027-.024-.039l-.02-.03-.031-.019a.686.686,0,0,0-.1-.049c-.008-.013-.015-.026-.023-.039l-.02-.03-.032-.019a1.76,1.76,0,0,0-.305-.131c-.143-.052-.3-.1-.476-.156s-.327-.095-.461-.13a.911.911,0,0,0-.316-.052q-1.884.216-3.767.455l-.03.014c-.042.02-.106.053-.192.1a2.849,2.849,0,0,0-.253.161.957.957,0,0,0-.212.195l-.051.069c0,.026.005.053.007.079a1.394,1.394,0,0,0,.049.241.7.7,0,0,0,.082.2l.057.086.117-.015a.513.513,0,0,0,.031.061l.056.086.118-.015a.5.5,0,0,0,.031.061l.056.086.117-.015a.53.53,0,0,0,.031.062l.024.038c0,.029,0,.057,0,.088v2.08a.773.773,0,0,0-.137-.081l-.042-.018h0a.851.851,0,0,0-.172-.111l-.042-.018h0a.822.822,0,0,0-.172-.111l-.042-.018h0a.853.853,0,0,0-.172-.111l-.043-.018h0a.827.827,0,0,0-.172-.11l-.043-.019h0a.879.879,0,0,0-.172-.11l-.043-.019h0a.849.849,0,0,0-.172-.11l-.044-.019h0a.838.838,0,0,0-.172-.11l-.044-.019h0a.877.877,0,0,0-.172-.11l-.044-.019h0a.838.838,0,0,0-.172-.11l-.044-.02h0a.855.855,0,0,0-.172-.11l-.044-.019h0a.873.873,0,0,0-.172-.109l-.045-.02h0a.879.879,0,0,0-.172-.109l-.045-.02h0a.876.876,0,0,0-.172-.109l-.045-.02h0a.87.87,0,0,0-.172-.109l-.045-.02-.052.007a1.014,1.014,0,0,0-.24.078l-.281.116c-.065.027-.1.043-.124.048-.067.01-.19.022-.369.038s-.39.033-.623.051-.465.036-.69.057l-.583.052c-.171.016-.274.025-.305.03l-.039.006-.037.021a1.65,1.65,0,0,0-.345.283c-.112.117-.218.236-.321.36a2.71,2.71,0,0,0-.222.311l-.027-.013a.559.559,0,0,0-.139-.041l.006-.026-.112-.057a.576.576,0,0,0-.138-.041l.006-.026-.113-.057a.551.551,0,0,0-.137-.041l.006-.026-.114-.057a.57.57,0,0,0-.137-.041l.006-.025-.114-.058a.773.773,0,0,0-.262-.061,2.432,2.432,0,0,0-.436.006l-.049,0-.044.027a8.747,8.747,0,0,1-1.051.523c-.431.185-.865.359-1.285.515l-.085.032-.043.083a.951.951,0,0,0-.081.341,3.978,3.978,0,0,0-.02.437v.212l.262-.068v.181l.261-.068c0,.06,0,.121,0,.181l.262-.068c0,.061,0,.121,0,.181l.262-.068v.181l.212-.055v.192l-.015,0a1.309,1.309,0,0,0-.216-.1c-.021-.008-.044-.011-.065-.018a1.383,1.383,0,0,0-.218-.1c-.021-.008-.043-.011-.064-.018a1.377,1.377,0,0,0-.218-.1c-.021-.008-.043-.011-.064-.018a1.388,1.388,0,0,0-.219-.1c-.02-.008-.042-.011-.063-.018a1.4,1.4,0,0,0-.22-.1c-.02-.008-.042-.011-.062-.018a1.375,1.375,0,0,0-.22-.1c-.02-.007-.041-.01-.061-.018a1.446,1.446,0,0,0-.221-.1c-.02-.007-.041-.01-.061-.017a1.438,1.438,0,0,0-.222-.1c-.02-.007-.04-.01-.06-.017a1.429,1.429,0,0,0-.222-.1c-.019-.007-.04-.01-.059-.017a1.444,1.444,0,0,0-.223-.1c-.019-.007-.039-.01-.058-.017a1.456,1.456,0,0,0-.224-.105c-.019-.007-.039-.01-.058-.017a1.522,1.522,0,0,0-.225-.105l-.064-.021a1.519,1.519,0,0,0-.219-.1l-.063-.021a1.5,1.5,0,0,0-.219-.1l-.064-.021a1.531,1.531,0,0,0-.219-.1l-.064-.021a1.559,1.559,0,0,0-.219-.1l-.064-.021a1.56,1.56,0,0,0-.219-.1c-.021-.008-.042-.013-.064-.021a1.517,1.517,0,0,0-.219-.1l-.064-.021a1.578,1.578,0,0,0-.219-.1,3.212,3.212,0,0,0-.492-.141,1.17,1.17,0,0,0-.427-.025,3.761,3.761,0,0,0-.5.127,3.485,3.485,0,0,0-.473.194,3.394,3.394,0,0,0-.436.26,2.743,2.743,0,0,0-.383.323,2.55,2.55,0,0,0-.348.456,5.113,5.113,0,0,0-.4.775c-.035.083-.065.179-.1.27L91.387,175a.646.646,0,0,0-.2-.043c0-.006,0-.012,0-.018l-.112-.052a.656.656,0,0,0-.2-.043c0-.006,0-.011,0-.017l-.113-.052a.655.655,0,0,0-.2-.044l0-.017-.113-.052a.655.655,0,0,0-.2-.044l0-.017-.114-.053a.739.739,0,0,0-.26-.051,2.527,2.527,0,0,0-.434.023l-.048.006-.044.028a9.232,9.232,0,0,1-1.045.565c-.429.2-.861.394-1.279.567l-.085.035-.043.085a.947.947,0,0,0-.081.345c-.013.132-.02.279-.02.438v.213l.325-.1v.2l.324-.1v.2l.324-.1v.2l.278-.084v1.4a2.664,2.664,0,0,1-.059.648.5.5,0,0,1-.117.244.619.619,0,0,1-.215.127l-.338.118-.047.069a.822.822,0,0,0-.1.25,1.273,1.273,0,0,0-.041.309c0,.049,0,.1,0,.146l.138.012c.031,0,.094,0,.185,0v.072l.137.012c.031,0,.095,0,.186,0v.072l.136.012c.031,0,.095,0,.187,0v.072l.136.012c.031,0,.095,0,.187,0,0,.024,0,.048,0,.072l.135.012c.031,0,.1,0,.188,0,0,.024,0,.048,0,.072l.134.011c.031,0,.1,0,.188,0v.072l.134.012c.031,0,.1,0,.189,0v.072l.133.012c.031,0,.1,0,.19,0V181l.132.012c.031,0,.1,0,.191,0v.073l.131.011c.031,0,.1,0,.191,0,0,.024,0,.048,0,.073l.131.011c.031,0,.1,0,.192,0,0,.024,0,.049,0,.073l.13.011c.031,0,.1,0,.192,0v.073l.13.011c.031,0,.1,0,.193,0v.074l.129.011c.031,0,.1,0,.194,0v.074l.128.011c.031,0,.1,0,.2,0v.073l.127.011c.031,0,.1,0,.2,0,0,.024,0,.049,0,.074l.127.011c.031,0,.1,0,.2,0,0,.024,0,.049,0,.073l.126.011c.031,0,.1,0,.2,0v.074l.125.011c.031,0,.1,0,.2,0v.074l.124.011c.031,0,.1,0,.2,0V182l.124.011c.031,0,.1,0,.2,0v.074l.123.011c.031,0,.1,0,.2,0,0,.025,0,.049,0,.074l.123.011c.031,0,.1,0,.2,0,0,.025,0,.049,0,.074l.122.011c.031,0,.1,0,.2,0v.074l.121.011c.031,0,.1,0,.2,0v.075l.12.011c.031,0,.1,0,.2,0v.075l.119.01c.032,0,.1,0,.2,0v.075l.119.01c.032,0,.1,0,.2,0,0,.025,0,.05,0,.075l.118.01c.031,0,.1,0,.2,0,0,.025,0,.05,0,.075l.117.01c.031,0,.1,0,.205,0v.075l.117.01c.031,0,.1,0,.206,0v.075l.116.01c.031,0,.1,0,.207,0V183l.115.01c.031,0,.1,0,.208,0v.075l.114.01c.031,0,.1,0,.208,0,0,.025,0,.051,0,.076l.114.01c.031,0,.1,0,.209,0,0,.025,0,.051,0,.076l.113.01c.031,0,.1,0,.209,0v.076l.113.01c.031,0,.1,0,.21,0v.076l.112.01c.031,0,.1,0,.211,0v.076l.111.01c.031,0,.1,0,.212,0v.076l.11.01c.031,0,.1,0,.212,0,0,.025,0,.051,0,.076l.11.01c.031,0,.1,0,.213,0,0,.025,0,.051,0,.076l.109.01c.031,0,.1,0,.214,0v.077l.108.01c.031,0,.1,0,.215,0v.077l.107.01c.031,0,.1,0,.215,0V184l.107.009c.031,0,.1,0,.216,0v.077l.106.009c.031,0,.1,0,.216,0q0,.039,0,.078l.106.009c.031,0,.1,0,.217,0,0,.026,0,.052,0,.078l.1.009c.031,0,.1,0,.218,0v.078l.1.009c.031,0,.1,0,.219,0v.078l.1.009c.031,0,.105,0,.219,0v.078l.1.009c.031,0,.105,0,.22,0v.078l.1.009a2.705,2.705,0,0,0,.272-.006c.137-.007.3-.017.49-.029s.377-.025.566-.04.353-.027.49-.041.235-.024.269-.031a.811.811,0,0,0,.237-.094,1.523,1.523,0,0,0,.23-.161,1.361,1.361,0,0,0,.184-.181l.041-.05v-.059a.644.644,0,0,0-.031-.213c-.012-.036-.022-.062-.031-.085l.046.01a1.939,1.939,0,0,0,.3.088,322.816,322.816,0,0,1,.591.176,1.9,1.9,0,0,0,.38.107,1.432,1.432,0,0,0,.5,0,2.174,2.174,0,0,0,.706-.263,3.049,3.049,0,0,0,.561-.415,2.433,2.433,0,0,0,.356-.4l.011-.017.007-.019a2.222,2.222,0,0,0,.1-.389,2.587,2.587,0,0,0,.041-.477c0-.04-.007-.081-.009-.122h.068v.076l.11.014a1.5,1.5,0,0,0,.151.006c0,.025,0,.051,0,.076l.109.014c.025,0,.077.005.151.006,0,.025,0,.051,0,.076l.108.014c.025,0,.077.005.152.006v.076l.107.013c.025,0,.077.005.153.006v.076l.107.014c.025,0,.077,0,.153.005v.076l.106.014c.025,0,.078,0,.154.005q0,.038,0,.076l.105.013c.025,0,.078,0,.155.005,0,.025,0,.051,0,.076l.1.013c.025,0,.078,0,.155.005v.076l.1.013c.025,0,.078,0,.156.005v.077l.1.013c.025,0,.078,0,.157.005v.077l.1.013c.036,0,.125.007.273,0s.3,0,.493-.009.379-.01.569-.017.353-.013.493-.021.236-.014.27-.02a.771.771,0,0,0,.239-.084c.037-.019.07-.046.1-.069l.05.016.032.017a2,2,0,0,0,.2.076c.012.006.019.011.033.017a1.957,1.957,0,0,0,.2.076c.012.006.019.011.033.017a1.88,1.88,0,0,0,.2.076c.012.006.02.011.033.018a1.842,1.842,0,0,0,.2.076l.033.018a2.091,2.091,0,0,0,.305.108c.113.031.225.058.339.081a1.969,1.969,0,0,0,.313.038h.032l.031-.013a.8.8,0,0,0,.265-.2,2.151,2.151,0,0,0,.173-.206l.046-.065-.022-.068a.946.946,0,0,1-.034-.139.986.986,0,0,1-.009-.137,2.583,2.583,0,0,1,.043-.44,3.807,3.807,0,0,1,.151-.556c.073-.215.174-.477.3-.778l.069-.165h.033l.068,0v.107l.136,0,.069,0v.107l.136,0,.07,0v.107l.135,0,.071,0v.107l.134,0,.071,0v.107l.133,0,.072,0v.107l.132,0,.073,0v.107l.131,0,.074,0v.107l.13,0,.075,0v.107l.13,0,.076,0v.107l.129,0,.076,0v.107l.128,0,.078,0v.107l.127,0c.043,0,.149,0,.32-.013q.674-.032,1.349-.059l.7-.024c.214-.006.378-.009.5-.009l.035,0a1.4,1.4,0,0,0,.287-.077,3.994,3.994,0,0,0,.43-.188q.232-.117.454-.257a1.978,1.978,0,0,0,.38-.3l.016-.017.011-.02a1.643,1.643,0,0,0,.089-.2h.07c0,.033,0,.065,0,.1l.123.008h.045v.1l.122.008h.046v.1l.121.008h.047c0,.033,0,.065,0,.1l.12.008h.048v.1l.119.008c.115.007.278.009.486.007s.441-.008.7-.018.528-.021.8-.033l.783-.035c.251-.011.468-.022.655-.035s.32-.022.4-.028a.449.449,0,0,0,.206-.09,2.452,2.452,0,0,0,.2-.149.647.647,0,0,0,.162-.177l.011-.021c0-.007,0-.015,0-.023.024-.117.047-.26.069-.428s.04-.342.054-.529c.007-.1.008-.194.011-.291l.011.018.018.014.092.067.008.015.012.019.017.014.092.067.008.016.012.018.018.014.092.068.008.015.012.018.017.013.092.068.008.016.012.018.017.013.092.068s.006.011.009.016l.012.018.017.013.093.068.008.016.012.018.017.013c.035.026.107.08.22.158a3.8,3.8,0,0,0,.43.257,2.941,2.941,0,0,0,.592.228,2.114,2.114,0,0,0,.707.064,3.3,3.3,0,0,0,.842-.171,4.066,4.066,0,0,0,.682-.3,1.81,1.81,0,0,0,.418-.3l.031-.033.008-.043c.019-.1.037-.225.055-.378s.033-.308.046-.474.025-.326.029-.474l0-.1-.1-.03-.009,0,0-.093-.1-.03-.008,0c0-.031,0-.062,0-.093l-.1-.03-.007,0c0-.031,0-.062,0-.093l-.1-.031-.007,0c0-.031,0-.062,0-.093l-.1-.031-.006,0c0-.031,0-.062,0-.093l-.1-.031h-.006c0-.031,0-.062,0-.093l-.1-.031h0c0-.031,0-.062,0-.093l-.1-.031h0c0-.026,0-.053,0-.079l.05,0m-28.7,6.035h0" transform="translate(-54.753 -105.857)" fill="#040504"/>
      <path id="Path_5099" data-name="Path 5099" d="M90.437,191.614c-.044.009-.161.023-.344.039s-.4.036-.659.055-.507.038-.763.053-.473.03-.659.039-.3.013-.343.008a.882.882,0,0,1,.033-.254.683.683,0,0,1,.071-.176l.264-.092a.845.845,0,0,0,.3-.18.762.762,0,0,0,.188-.362,2.9,2.9,0,0,0,.066-.7q0-.746,0-1.493a2.816,2.816,0,0,1,.028-.433,1.481,1.481,0,0,1,.057-.259l-.047-.038-1.289.387a4.127,4.127,0,0,1,.018-.417.855.855,0,0,1,.057-.264q.64-.264,1.29-.572a9.351,9.351,0,0,0,1.073-.581,2.288,2.288,0,0,1,.4-.022.626.626,0,0,1,.2.036c-.019.08-.04.192-.061.335s-.041.308-.057.492-.023.387-.024.608v2.206a1.418,1.418,0,0,1-.071.456,1.222,1.222,0,0,1-.136.3l1.064-.047a1.471,1.471,0,0,1,.052.143.683.683,0,0,1,.033.231,1.675,1.675,0,0,1-.217.213,1.83,1.83,0,0,1-.273.192.825.825,0,0,1-.254.1" transform="translate(-55.081 -117.521)" fill="#fff"/>
      <path id="Path_5100" data-name="Path 5100" d="M101.079,187.792a1.766,1.766,0,0,1-.618.005,2.274,2.274,0,0,1-.561-.165,3.555,3.555,0,0,1-.434-.226,1.739,1.739,0,0,1-.236-.169,1.713,1.713,0,0,1-.207-.673,7.21,7.21,0,0,1-.057-.912,6.378,6.378,0,0,1,.127-1.327,5.67,5.67,0,0,1,.316-1.039,4.719,4.719,0,0,1,.377-.737,2.23,2.23,0,0,1,.665-.71,3.008,3.008,0,0,1,.406-.242,3.392,3.392,0,0,1,.444-.182,3.615,3.615,0,0,1,.477-.121,1.036,1.036,0,0,1,.359.025,2.9,2.9,0,0,1,.467.134.881.881,0,0,1,.326.184,1.756,1.756,0,0,1-.123.435c-.051.107-.079.167-.085.181-.11.026-.209.047-.307.065l-.3.054-.378.069c-.124.023-.254.051-.382.084s-.262.076-.4.127a2.106,2.106,0,0,0-.2.594,12.1,12.1,0,0,0-.222,1.272c.105-.084.216-.171.33-.266s.223-.179.325-.256a.692.692,0,0,1,.269-.134,1.428,1.428,0,0,1,.519,0,2.771,2.771,0,0,1,.524.148,3.669,3.669,0,0,1,.425.195.671.671,0,0,1,.212.157,1.607,1.607,0,0,1,.123.449,3.978,3.978,0,0,1,.038.521,3.512,3.512,0,0,1-.052.608,2.917,2.917,0,0,1-.127.489,3.107,3.107,0,0,1-.444.5,3.945,3.945,0,0,1-.713.528,2.72,2.72,0,0,1-.882.328m.33-1.069a.271.271,0,0,0,.109-.048.807.807,0,0,0,.118-.107l.151-.161a3.473,3.473,0,0,0,.061-.358,2.4,2.4,0,0,0,.024-.3.688.688,0,0,0-.014-.154,1.263,1.263,0,0,0-.033-.142.887.887,0,0,0-.264-.194,1.139,1.139,0,0,0-.3-.1.759.759,0,0,0-.269,0,.306.306,0,0,0-.137.063c-.04.033-.084.068-.132.106a1.19,1.19,0,0,1-.184.115,1.133,1.133,0,0,0-.028.2c-.008.085-.008.182-.01.3a1.552,1.552,0,0,0,.019.23.906.906,0,0,0,.057.218.251.251,0,0,0,.075.114c.1.038.206.076.316.112s.207.066.293.089a.617.617,0,0,0,.146.03" transform="translate(-62.413 -114.329)" fill="#fff"/>
      <path id="Path_5101" data-name="Path 5101" d="M112.024,188.35a2.586,2.586,0,0,1,.033-.462.587.587,0,0,1,.08-.242q.689-.12,1.105-.216a7.088,7.088,0,0,0,.7-.19,4.268,4.268,0,0,0,.534-.223l.246.244a2.337,2.337,0,0,1-.029.357,1.231,1.231,0,0,1-.075.288q-1.295.216-2.59.444" transform="translate(-70.648 -117.943)" fill="#fff"/>
      <path id="Path_5102" data-name="Path 5102" d="M123.687,185.752c-.044.007-.161.015-.346.025s-.406.02-.663.028-.51.017-.766.023-.477.01-.663.012-.3,0-.346-.005a.986.986,0,0,1,.033-.253.617.617,0,0,1,.071-.173l.265-.081a.814.814,0,0,0,.3-.168.707.707,0,0,0,.189-.354,2.842,2.842,0,0,0,.066-.7v-1.493a2.844,2.844,0,0,1,.028-.432,1.887,1.887,0,0,1,.057-.256l-.047-.04q-.649.166-1.3.335a4.094,4.094,0,0,1,.02-.417.811.811,0,0,1,.056-.262q.643-.239,1.3-.52a8.794,8.794,0,0,0,1.08-.537,2.351,2.351,0,0,1,.4-.006.655.655,0,0,1,.2.044c-.018.079-.039.19-.062.333s-.041.305-.057.489-.023.385-.024.607v2.206a1.424,1.424,0,0,1-.071.453,1.14,1.14,0,0,1-.137.292l1.07,0c.013.03.03.078.052.144a.724.724,0,0,1,.033.232,1.629,1.629,0,0,1-.218.2,1.73,1.73,0,0,1-.274.18.87.87,0,0,1-.256.092" transform="translate(-76.039 -113.815)" fill="#fff"/>
      <path id="Path_5103" data-name="Path 5103" d="M134.217,184.9a2.452,2.452,0,0,1-.393-.048c-.148-.029-.3-.065-.445-.106a2.748,2.748,0,0,1-.389-.137.643.643,0,0,1-.213-.135,1.523,1.523,0,0,1,.1-.476c.067-.2.154-.423.266-.676s.237-.523.384-.807.3-.573.451-.864.308-.576.464-.851.3-.533.436-.771.255-.443.356-.616q-.788.111-1.574.226-.119.479-.237.957a1.38,1.38,0,0,1-.228.086,2.579,2.579,0,0,1-.426.1,3.231,3.231,0,0,1-.237-.383,2.877,2.877,0,0,1-.2-.474,1.594,1.594,0,0,1-.09-.452,2.158,2.158,0,0,1,.223-.314c.1-.119.2-.235.308-.346a1.425,1.425,0,0,1,.294-.243c.03-.005.13-.015.294-.029l.583-.052c.222-.02.452-.038.687-.057s.442-.034.626-.051.31-.03.379-.039a1.021,1.021,0,0,0,.175-.062c.09-.038.186-.076.28-.115a.977.977,0,0,1,.19-.064.851.851,0,0,1,.237.171.368.368,0,0,1,.123.264l-.674,1.51q-.378.86-.635,1.481c-.171.413-.308.769-.408,1.065a5.63,5.63,0,0,0-.213.781,3.307,3.307,0,0,0-.062.632,1.276,1.276,0,0,0,.014.212,1.758,1.758,0,0,0,.052.216,2.457,2.457,0,0,1-.213.254.9.9,0,0,1-.28.216" transform="translate(-83.395 -112.321)" fill="#fff"/>
      <path id="Path_5104" data-name="Path 5104" d="M154.376,178.885q-.238,0-.675.013c-.292.009-.61.021-.951.033l-1,.042-.827.038-.427.016a.95.95,0,0,1,.028-.226.9.9,0,0,1,.047-.154l.276-.064a.421.421,0,0,0,.233-.158.851.851,0,0,0,.138-.321,1.971,1.971,0,0,0,.047-.477V173.9a2.2,2.2,0,0,1,.038-.466.591.591,0,0,1,.081-.205c.029-.035.038-.052.033-.052l-.817.1a.678.678,0,0,1-.062-.158,1.26,1.26,0,0,1-.042-.208.744.744,0,0,1,.161-.144,2.578,2.578,0,0,1,.233-.148c.079-.045.137-.076.175-.094q1.867-.237,3.735-.451a.956.956,0,0,1,.247.048c.134.036.286.078.456.129s.327.1.466.152a1.949,1.949,0,0,1,.276.117,3.492,3.492,0,0,1,.5,1.162A5.9,5.9,0,0,1,156.9,175a8.083,8.083,0,0,1-.081,1.15,8.849,8.849,0,0,1-.2,1.006,3.518,3.518,0,0,1-.243.677,2.5,2.5,0,0,1-.471.375c-.195.124-.392.236-.595.338a5.073,5.073,0,0,1-.556.244,1.418,1.418,0,0,1-.376.1m-1.6-.609q.951-.116,1.9-.225a2.643,2.643,0,0,0,.247-.561,5.052,5.052,0,0,0,.166-.7q.061-.373.09-.756c.019-.257.029-.5.029-.736a5.658,5.658,0,0,0-.043-.689,5.41,5.41,0,0,0-.129-.708,2.8,2.8,0,0,0-.214-.593.77.77,0,0,0-.3-.346c-.12-.018-.23-.029-.323-.034a2.108,2.108,0,0,0-.3.007c-.1.009-.226.022-.366.038a.712.712,0,0,0-.485.2.914.914,0,0,0-.123.547v3.936a1.306,1.306,0,0,1-.052.382.861.861,0,0,1-.1.236" transform="translate(-94.913 -108.52)" fill="#fff"/>
      <path id="Path_5105" data-name="Path 5105" d="M175.556,176.622c-.1.009-.278.021-.529.038s-.546.033-.881.047l-1.057.048q-.551.024-1.081.044t-.943.024c-.275,0-.49,0-.642-.01a.927.927,0,0,1,.029-.226.808.808,0,0,1,.047-.152l.276-.057a.4.4,0,0,0,.233-.153.858.858,0,0,0,.138-.318,2.121,2.121,0,0,0,.047-.476V171.7a1.958,1.958,0,0,1,.038-.465.6.6,0,0,1,.081-.2c.028-.035.039-.052.033-.051l-.819.085a.822.822,0,0,1-.062-.146.916.916,0,0,1-.043-.223.961.961,0,0,1,.171-.142,1.588,1.588,0,0,1,.233-.133.673.673,0,0,1,.167-.06q2.285-.235,4.571-.437a1.935,1.935,0,0,1,.376.19,1.165,1.165,0,0,1,.319.281,10.87,10.87,0,0,1-.143,1.163c-.064.342-.122.606-.172.794a2.447,2.447,0,0,1-.434,0,2.594,2.594,0,0,1-.4-.065q-.133-.706-.267-1.411a.569.569,0,0,0-.229-.065,3.534,3.534,0,0,0-.467-.018c-.2,0-.442.018-.734.045a.692.692,0,0,0-.352.115.453.453,0,0,0-.167.244,1.34,1.34,0,0,0-.043.342q0,.784,0,1.569c.247-.038.465-.067.652-.091s.37-.053.553-.085.379-.071.6-.117l.143.168c-.013.153-.027.277-.043.37a1.525,1.525,0,0,1-.071.268q-.915.083-1.829.172,0,.856,0,1.712a1.332,1.332,0,0,1-.052.38.783.783,0,0,1-.1.233q1-.1,1.991-.187l.753-1.855a2.266,2.266,0,0,1,.538.014,1.748,1.748,0,0,1,.358.079c0,.241-.01.486-.028.734s-.043.484-.071.705-.06.409-.091.564a.717.717,0,0,1-.167.176,2.878,2.878,0,0,1-.252.188.5.5,0,0,1-.181.087" transform="translate(-107.478 -107.166)" fill="#fff"/>
      <path id="Path_5106" data-name="Path 5106" d="M192.079,175.257a2.654,2.654,0,0,1-.892-.081,3.814,3.814,0,0,1-.763-.293,5.019,5.019,0,0,1-.563-.336c-.149-.1-.246-.175-.291-.209a2.452,2.452,0,0,1-.291-.827,5.867,5.867,0,0,1-.11-1.156,10.046,10.046,0,0,1,.057-1.069q.057-.527.143-.943a3.748,3.748,0,0,1,.162-.6,3.317,3.317,0,0,1,.677-.482,9.227,9.227,0,0,1,.887-.43,8.078,8.078,0,0,1,.882-.318,3.453,3.453,0,0,1,.653-.137,3.4,3.4,0,0,1,.749.038,4.187,4.187,0,0,1,.783.2,1.973,1.973,0,0,1,.615.34,5.311,5.311,0,0,1-.066,1.064c-.056.343-.112.626-.163.852-.253,0-.461,0-.62-.011a3.283,3.283,0,0,1-.382-.045l-.334-1.346a1,1,0,0,0-.253-.1,2.751,2.751,0,0,0-.291-.056,1.278,1.278,0,0,0-.239-.011,3.9,3.9,0,0,0-.42.059c-.165.031-.323.064-.472.1s-.261.062-.339.087a3.64,3.64,0,0,0-.129.571c-.042.257-.074.529-.1.816s-.038.541-.038.763c0,.247.012.512.038.8s.059.546.1.787a3.1,3.1,0,0,0,.138.564.573.573,0,0,0,.157.1,2.661,2.661,0,0,0,.324.137,3.593,3.593,0,0,0,.4.118,1.218,1.218,0,0,0,.372.035,1.5,1.5,0,0,0,.167-.036c.092-.022.189-.05.291-.082a.494.494,0,0,0,.191-.089l.687-1.616a2.22,2.22,0,0,1,.539.026,3.476,3.476,0,0,1,.406.092c-.005.2-.018.407-.038.63s-.038.435-.062.636-.047.365-.071.494a2.266,2.266,0,0,1-.515.362,5.375,5.375,0,0,1-.887.389,4.214,4.214,0,0,1-1.088.22" transform="translate(-119.301 -106.18)" fill="#fff"/>
      <path id="Path_5107" data-name="Path 5107" d="M211.974,167.529a.361.361,0,0,1-.229-.1,1.547,1.547,0,0,1-.258-.271,1.877,1.877,0,0,1-.205-.335.7.7,0,0,1-.081-.3,1.28,1.28,0,0,1,.1-.391,5.988,5.988,0,0,1,.263-.595c.107-.218.225-.427.348-.627a3.7,3.7,0,0,1,.363-.5.511.511,0,0,1,.3-.206.485.485,0,0,1,.263.072,1.078,1.078,0,0,1,.243.188.3.3,0,0,1,.1.194,3.024,3.024,0,0,0-.315.32c-.107.126-.207.253-.3.381a2.353,2.353,0,0,0-.21.358.907.907,0,0,1,.339.267,2.188,2.188,0,0,1,.258.391.74.74,0,0,1,.1.314.391.391,0,0,1-.129.235,2.241,2.241,0,0,1-.315.277,2.4,2.4,0,0,1-.363.228.762.762,0,0,1-.281.1" transform="translate(-133.195 -103.558)" fill="#fff"/>
      <path id="Path_5108" data-name="Path 5108" d="M218.991,176.341c-.045,0-.118-.047-.22-.147a1.838,1.838,0,0,1-.282-.358.73.73,0,0,1-.129-.369,4.1,4.1,0,0,0,.535-.391c.221-.184.463-.4.721-.655a10.642,10.642,0,0,0,.731-.792,5.884,5.884,0,0,0,.563-.8,1.4,1.4,0,0,0,.22-.679c-.109-.053-.2-.095-.282-.127a1.386,1.386,0,0,0-.3-.074,4.258,4.258,0,0,0-.53-.03l-.268,1.324a1.2,1.2,0,0,1-.281.069,4.3,4.3,0,0,1-.53.052.689.689,0,0,1-.263-.345,2.853,2.853,0,0,1-.177-.591c-.045-.223-.083-.434-.115-.636a2.731,2.731,0,0,1,.735-.467,5.289,5.289,0,0,1,.922-.311,4.62,4.62,0,0,1,.893-.132,1.854,1.854,0,0,1,.43.045,4.913,4.913,0,0,1,.545.146c.192.063.368.131.535.2a2.5,2.5,0,0,1,.406.219c.1.072.158.137.157.194a1.7,1.7,0,0,1-.167.7,3.95,3.95,0,0,1-.444.737,7.428,7.428,0,0,1-.6.7c-.217.223-.43.427-.64.609s-.4.334-.564.455q.659.063,1.318.13l.439-.758a1.819,1.819,0,0,1,.478.036,1.259,1.259,0,0,1,.258.082,6.067,6.067,0,0,1-.048.777q-.047.386-.086.549a1.691,1.691,0,0,1-.291.2,3.11,3.11,0,0,1-.406.2,1.064,1.064,0,0,1-.354.093,2.043,2.043,0,0,1-.3-.027q-.224-.029-.516-.075l-.587-.091c-.2-.029-.374-.052-.53-.068a1.545,1.545,0,0,0-.329-.01,2.244,2.244,0,0,0-.191.127c-.089.064-.178.123-.263.178a.47.47,0,0,1-.2.085" transform="translate(-137.71 -107.77)" fill="#fff"/>
      <path id="Path_5109" data-name="Path 5109" d="M233.515,176.874a1.181,1.181,0,0,1-.387-.079,3.407,3.407,0,0,1-.468-.2,1.213,1.213,0,0,1-.311-.209,1.531,1.531,0,0,1,.086-.4.514.514,0,0,1,.1-.208,3.643,3.643,0,0,0,.425.044c.155.008.316.01.482.005a3.8,3.8,0,0,0,.516-.052,3.323,3.323,0,0,0,.526-.127.692.692,0,0,0,.138-.194,1.954,1.954,0,0,0,.124-.293.878.878,0,0,0,.052-.282.5.5,0,0,0-.234-.436,1.754,1.754,0,0,0-.6-.247c-.244-.057-.492-.1-.755-.141a2.686,2.686,0,0,1,.024-.281,3.43,3.43,0,0,1,.067-.368,1.522,1.522,0,0,1,.091-.278,1.278,1.278,0,0,0,.3.011.689.689,0,0,0,.22-.063,1.629,1.629,0,0,0,.44-.325,1.14,1.14,0,0,0,.253-.467,2.5,2.5,0,0,0,.081-.681.965.965,0,0,0-.249-.061c-.089-.011-.192-.02-.305-.03s-.246-.019-.392-.028q-.2.466-.411.933a.384.384,0,0,1-.186.067,3.271,3.271,0,0,1-.464.037,1.339,1.339,0,0,1-.234-.454,3.376,3.376,0,0,1-.177-.731,2.162,2.162,0,0,1,.592-.446,3.674,3.674,0,0,1,.76-.3,3.147,3.147,0,0,1,.731-.114,1.732,1.732,0,0,1,.392.053,5.294,5.294,0,0,1,.54.154c.194.065.377.136.55.212a2.658,2.658,0,0,1,.42.225c.107.073.164.14.162.2a2.162,2.162,0,0,1-.182.845,3.078,3.078,0,0,1-.468.784,1.9,1.9,0,0,1-.6.507v.038a2.907,2.907,0,0,1,.635.239,1.327,1.327,0,0,1,.464.38.936.936,0,0,1,.172.572,2.244,2.244,0,0,1-.048.4c-.033.163-.075.327-.124.492a3.724,3.724,0,0,1-.163.441.84.84,0,0,1-.172.27,1.692,1.692,0,0,1-.582.283,6.345,6.345,0,0,1-.889.206,7.185,7.185,0,0,1-.946.091" transform="translate(-146.484 -107.515)" fill="#fff"/>
      <path id="Path_5110" data-name="Path 5110" d="M244.421,183.4a.5.5,0,0,1-.263-.081,1.019,1.019,0,0,1-.239-.2.377.377,0,0,1-.11-.2c.095-.077.213-.176.353-.3s.275-.248.406-.382a2.239,2.239,0,0,0,.291-.356,1.222,1.222,0,0,1-.353-.285,1.863,1.863,0,0,1-.277-.4.773.773,0,0,1-.105-.312.366.366,0,0,1,.129-.235,2.134,2.134,0,0,1,.315-.257,2.726,2.726,0,0,1,.363-.209.721.721,0,0,1,.282-.085.381.381,0,0,1,.229.111,1.677,1.677,0,0,1,.258.277,1.913,1.913,0,0,1,.206.34.719.719,0,0,1,.081.3,1.078,1.078,0,0,1-.119.386,6.052,6.052,0,0,1-.311.584,7.084,7.084,0,0,1-.406.613,3.979,3.979,0,0,1-.411.486.55.55,0,0,1-.32.2" transform="translate(-153.76 -113.584)" fill="#fff"/>
      <path id="Path_5111" data-name="Path 5111" d="M260.983,173.368c-.082-.007-.25-.017-.5-.029s-.551-.029-.9-.05-.71-.045-1.084-.072-.736-.056-1.08-.088-.638-.063-.879-.094a.835.835,0,0,1,.029-.223.771.771,0,0,1,.048-.147l.277-.029a.35.35,0,0,0,.234-.129.743.743,0,0,0,.139-.3,2.055,2.055,0,0,0,.047-.471v-3.726a2.175,2.175,0,0,1,.038-.428.592.592,0,0,1,.115-.276h-.822a.829.829,0,0,1-.066-.152.6.6,0,0,1-.038-.228.573.573,0,0,1,.163-.119,2.218,2.218,0,0,1,.234-.11.538.538,0,0,1,.177-.048q1.74,0,3.479.016a1.885,1.885,0,0,1,.54.144,5.159,5.159,0,0,1,.573.273,2.079,2.079,0,0,1,.407.277,1.72,1.72,0,0,1,.081.353,3.36,3.36,0,0,1,.024.38,3.723,3.723,0,0,1-.057.66,3.053,3.053,0,0,1-.148.554.785.785,0,0,1-.206.33,1.516,1.516,0,0,1-.3.153,2.2,2.2,0,0,1-.42.123l-.01.028a3.12,3.12,0,0,1,.793.191,1.777,1.777,0,0,1,.468.245,1.47,1.47,0,0,1,.139.43,2.932,2.932,0,0,1,.043.5,4.375,4.375,0,0,1-.028.489c-.021.18-.047.354-.082.522a2.432,2.432,0,0,1-.129.43,2.123,2.123,0,0,1-.377.28,3.306,3.306,0,0,1-.5.25,1,1,0,0,1-.425.09m-2.15-.8q.822,0,1.644.012a1.083,1.083,0,0,0,.191-.336,2.23,2.23,0,0,0,.115-.445,3.318,3.318,0,0,0,.038-.48,2.777,2.777,0,0,0-.038-.466,1.065,1.065,0,0,0-.115-.353.856.856,0,0,0-.372-.17,4.249,4.249,0,0,0-.5-.095,3.4,3.4,0,0,0-.339-.031l-.468,0q0,.884,0,1.768a1.262,1.262,0,0,1-.052.375.731.731,0,0,1-.1.223m.153-3.022.339,0c.157,0,.324-.008.507-.016s.339-.021.473-.039a1.533,1.533,0,0,0,.244-.511,2.33,2.33,0,0,0,.082-.636,1.609,1.609,0,0,0-.062-.472.978.978,0,0,0-.225-.368,2.145,2.145,0,0,0-.363-.088c-.126-.02-.241-.033-.339-.041s-.167-.01-.205-.011q-.326,0-.387.15a1.374,1.374,0,0,0-.062.465q0,.784,0,1.569" transform="translate(-161.787 -105.096)" fill="#fff"/>
      <path id="Path_5112" data-name="Path 5112" d="M280.368,173.656c-.1,0-.277-.013-.53-.028s-.546-.036-.883-.062l-1.06-.083q-.554-.044-1.085-.09t-.946-.093c-.277-.031-.49-.061-.645-.089a.881.881,0,0,1,.029-.222,1.061,1.061,0,0,1,.048-.147l.277-.023a.343.343,0,0,0,.234-.124.749.749,0,0,0,.139-.3,2,2,0,0,0,.048-.47V168.2a2.015,2.015,0,0,1,.038-.46.485.485,0,0,1,.081-.193c.029-.031.038-.046.033-.047l-.821-.017a.82.82,0,0,1-.062-.153,1.046,1.046,0,0,1-.043-.229.857.857,0,0,1,.172-.12,1.314,1.314,0,0,1,.234-.1.555.555,0,0,1,.167-.039q2.294.048,4.586.13a2.22,2.22,0,0,1,.377.237,1.482,1.482,0,0,1,.32.321,10.18,10.18,0,0,1-.143,1.145c-.063.334-.123.591-.172.773a2.5,2.5,0,0,1-.434-.058,2.669,2.669,0,0,1-.4-.114q-.133-.722-.267-1.445a.6.6,0,0,0-.229-.093,3.449,3.449,0,0,0-.468-.076c-.2-.023-.445-.037-.736-.046a.641.641,0,0,0-.354.071.388.388,0,0,0-.167.223,1.2,1.2,0,0,0-.043.336v1.569c.249-.007.469-.009.654-.01s.373-.007.554-.017.381-.024.6-.043l.143.185c-.012.151-.028.274-.043.365a1.382,1.382,0,0,1-.072.259q-.917-.03-1.834-.055V172.2a1.209,1.209,0,0,1-.053.374.706.706,0,0,1-.1.221q1,.027,2,.059.377-.881.755-1.762a2.338,2.338,0,0,1,.54.081,1.988,1.988,0,0,1,.358.123c0,.24-.01.485-.029.731s-.043.478-.072.7-.06.4-.091.553a.6.6,0,0,1-.167.155,2.7,2.7,0,0,1-.253.157.42.42,0,0,1-.182.065" transform="translate(-173.568 -105.215)" fill="#fff"/>
      <path id="Path_5113" data-name="Path 5113" d="M295.45,174.17a3.118,3.118,0,0,1-.31-.043c-.15-.025-.318-.057-.506-.093s-.371-.077-.549-.119a4.483,4.483,0,0,1-.449-.128.885.885,0,0,1,.024-.2.51.51,0,0,1,.052-.154l.258-.027a.275.275,0,0,0,.205-.153,1.219,1.219,0,0,0,.124-.38,3.292,3.292,0,0,0,.043-.544v-3.565a1.5,1.5,0,0,1,.057-.468.6.6,0,0,1,.1-.2l-.755-.032a.467.467,0,0,1-.067-.155,1.2,1.2,0,0,1-.038-.23.523.523,0,0,1,.167-.112,2.54,2.54,0,0,1,.239-.1.536.536,0,0,1,.167-.04q1.079.046,2.158.1,1.428,2.509,2.854,5.032c-.025-.134-.042-.28-.057-.436s-.019-.393-.019-.71v-2.4a1.68,1.68,0,0,1,.053-.491.393.393,0,0,1,.109-.212l-.954-.055a1.185,1.185,0,0,1-.067-.156.7.7,0,0,1-.038-.23.364.364,0,0,1,.153-.106,1.5,1.5,0,0,1,.239-.082.661.661,0,0,1,.181-.027q.888.051,1.775.107a.554.554,0,0,1,.086.2,1.083,1.083,0,0,1,.038.3l-.305.075a1.033,1.033,0,0,0-.253.094.346.346,0,0,0-.148.224,2.115,2.115,0,0,0-.048.53q0,1.806,0,3.612a7.729,7.729,0,0,0,.038.853,1.782,1.782,0,0,0,.077.409,1.276,1.276,0,0,1-.5.184,4.621,4.621,0,0,1-.663.075q-.336.014-.568,0-1.321-2.346-2.645-4.681a7.15,7.15,0,0,1-.353-.7,1.176,1.176,0,0,1-.1-.342l-.048,0c-.006.056-.014.142-.024.251s-.015.264-.014.461v3.4a1.665,1.665,0,0,1-.043.369.988.988,0,0,1-.1.281l1.251.192c.006.019.021.063.043.13a.763.763,0,0,1,.034.225,1.044,1.044,0,0,1-.263.135,2.1,2.1,0,0,1-.343.1,1.268,1.268,0,0,1-.291.029" transform="translate(-185.183 -105.585)" fill="#fff"/>
      <path id="Path_5114" data-name="Path 5114" d="M318.429,175.6a2.932,2.932,0,0,1-.892-.209,4.486,4.486,0,0,1-.768-.4,6.478,6.478,0,0,1-.572-.411q-.23-.186-.3-.248a2.967,2.967,0,0,1-.291-.885,6.2,6.2,0,0,1-.11-1.186,9.962,9.962,0,0,1,.2-1.983,3.224,3.224,0,0,1,.162-.578,2.6,2.6,0,0,1,.677-.381,8.062,8.062,0,0,1,1.788-.483,3.165,3.165,0,0,1,.653-.04,4.053,4.053,0,0,1,.763.146,5.014,5.014,0,0,1,.829.315,2.4,2.4,0,0,1,.648.444,4.965,4.965,0,0,1-.067,1.064c-.058.322-.111.594-.162.818-.217-.03-.419-.065-.605-.1a2.818,2.818,0,0,1-.405-.1l-.4-1.4a1.135,1.135,0,0,0-.219-.131,2.112,2.112,0,0,0-.238-.095.885.885,0,0,0-.21-.045,4.491,4.491,0,0,0-.467-.008c-.185,0-.36.015-.529.027a3.235,3.235,0,0,0-.386.048,1.789,1.789,0,0,0-.1.377c-.032.165-.06.352-.086.555s-.044.407-.057.609-.019.386-.019.55c0,.246.011.515.038.8s.058.554.1.8a3.7,3.7,0,0,0,.139.585.648.648,0,0,0,.148.115,3.766,3.766,0,0,0,.329.191,3.358,3.358,0,0,0,.415.184,1.576,1.576,0,0,0,.405.093,2.822,2.822,0,0,0,.324,0c.141-.005.277-.015.415-.029s.235-.029.3-.042q0-.5,0-1.008a1.717,1.717,0,0,1,.033-.344,1.819,1.819,0,0,1,.053-.209l-1.23-.1a1.765,1.765,0,0,1,.048-.376c.031-.144.061-.255.085-.336.274.021.57.038.892.051s.63.024.929.029.54.007.725,0l.133.164a1.529,1.529,0,0,0-.133.425,4.354,4.354,0,0,0-.067.841v1.521a2.636,2.636,0,0,1-.5.157c-.225.051-.475.1-.758.137s-.568.069-.858.083a6.089,6.089,0,0,1-.8,0" transform="translate(-198.972 -106.449)" fill="#fff"/>
      <path id="Path_5115" data-name="Path 5115" d="M336.74,177.3c-.031,0-.118-.019-.252-.048s-.3-.066-.5-.11-.4-.092-.6-.142-.4-.1-.576-.148-.315-.089-.41-.122a.807.807,0,0,1,.028-.226.208.208,0,0,1,.067-.117l.181-.05a.822.822,0,0,1,.2-.034.411.411,0,0,0,.243-.12,1.394,1.394,0,0,0,.291-.453,7.5,7.5,0,0,0,.357-1.022q.495-1.731.99-3.462a1.222,1.222,0,0,1,.277-.187q.2-.108.452-.217a4.4,4.4,0,0,1,.481-.175.973.973,0,0,1,.352-.055,1.91,1.91,0,0,1,.424.12,4.848,4.848,0,0,1,.581.265,2.445,2.445,0,0,1,.5.343q.585,2.691,1.17,5.385a.267.267,0,0,0,.1.168.659.659,0,0,0,.191.083l.6.172.062.117a.794.794,0,0,1,.033.237.657.657,0,0,1-.247.138,2.188,2.188,0,0,1-.352.093,1.073,1.073,0,0,1-.295.02c-.033,0-.131-.024-.3-.062s-.373-.083-.609-.137-.479-.11-.723-.168-.46-.112-.647-.162a2.371,2.371,0,0,1-.376-.124.475.475,0,0,1,.052-.237.716.716,0,0,0,.052-.1l.3,0a.65.65,0,0,0,.2-.04.341.341,0,0,0,.19-.185.761.761,0,0,0,0-.476q-.142-.6-.285-1.208-1.066-.111-2.132-.215l-.362,1.22a1.08,1.08,0,0,1-.124.264,1.4,1.4,0,0,1-.176.225.268.268,0,0,1-.147.1q.752.129,1.5.26c.013.02.035.064.067.13a.459.459,0,0,1,.048.214.662.662,0,0,1-.238.133,2.1,2.1,0,0,1-.352.1,1.135,1.135,0,0,1-.3.023m.257-3.359c.342.014.631.03.867.043s.427.023.576.025.26,0,.329,0q-.219-1.049-.438-2.1a2.382,2.382,0,0,0-.338-.22,1.574,1.574,0,0,0-.357-.136q-.32,1.194-.638,2.39" transform="translate(-210.889 -107.594)" fill="#fff"/>
      <path id="Path_5116" data-name="Path 5116" d="M361.126,179.651c-.134-.018-.351-.05-.65-.1s-.645-.106-1.031-.174-.778-.138-1.169-.211-.753-.145-1.084-.216-.582-.132-.761-.184a.866.866,0,0,1,.029-.22.706.706,0,0,1,.047-.141l.276,0a.306.306,0,0,0,.233-.1.662.662,0,0,0,.137-.288,1.829,1.829,0,0,0,.048-.465v-3.726a1.948,1.948,0,0,1,.038-.457.471.471,0,0,1,.081-.185c.029-.029.038-.042.033-.043l-.817-.1a.758.758,0,0,1-.062-.174,1.2,1.2,0,0,1-.043-.219.462.462,0,0,1,.167-.1,2.188,2.188,0,0,1,.237-.081.513.513,0,0,1,.167-.028q1.279.151,2.556.311a.724.724,0,0,1,.086.21,1.419,1.419,0,0,1,.048.3l-.409.072a.607.607,0,0,0-.2.066.387.387,0,0,0-.157.2,1.43,1.43,0,0,0-.062.5v3.888a1.288,1.288,0,0,1-.052.369.649.649,0,0,1-.1.211q.78.1,1.558.2.375-.912.75-1.823a2.449,2.449,0,0,1,.522.126,2.692,2.692,0,0,1,.36.153c0,.241-.009.49-.028.747s-.041.505-.071.742-.056.442-.081.617a.684.684,0,0,1-.171.139,1.838,1.838,0,0,1-.247.134.394.394,0,0,1-.18.048" transform="translate(-224.785 -108.753)" fill="#fff"/>
      <path id="Path_5117" data-name="Path 5117" d="M376.258,181.632a3.231,3.231,0,0,1-.853-.262,5.917,5.917,0,0,1-.844-.467,4.246,4.246,0,0,1-.664-.535.938.938,0,0,1-.294-.473v-3.973a1.73,1.73,0,0,1,.048-.436.5.5,0,0,1,.114-.246l-.816-.112c-.014-.034-.032-.086-.057-.16a.934.934,0,0,1-.047-.235.458.458,0,0,1,.166-.1,2.354,2.354,0,0,1,.237-.077.511.511,0,0,1,.166-.025q1.277.176,2.551.361a.839.839,0,0,1,.081.206.979.979,0,0,1,.043.306l-.407.064a.576.576,0,0,0-.218.083.377.377,0,0,0-.143.217,1.69,1.69,0,0,0-.047.459v3.907c.083.068.178.143.289.222a3.637,3.637,0,0,0,.346.222,3.68,3.68,0,0,0,.341.174,1.185,1.185,0,0,0,.274.088,2.547,2.547,0,0,0,.64.024,1.824,1.824,0,0,0,.507-.123,1.907,1.907,0,0,0,.407-.228v-3.935a2.352,2.352,0,0,1,.038-.441.529.529,0,0,1,.095-.252l-.8-.121a.5.5,0,0,1-.066-.162,1.234,1.234,0,0,1-.038-.234.675.675,0,0,1,.17-.1,1.249,1.249,0,0,1,.228-.075.476.476,0,0,1,.171-.017q.815.124,1.629.252a.861.861,0,0,1,.085.2,1.293,1.293,0,0,1,.047.317l-.3.047a.767.767,0,0,0-.28.089.343.343,0,0,0-.142.22,2.116,2.116,0,0,0-.042.493v4.249a1.441,1.441,0,0,1-.455.3,3.5,3.5,0,0,1-.659.213,4.662,4.662,0,0,1-.753.105,3.656,3.656,0,0,1-.749-.03" transform="translate(-235.135 -110.071)" fill="#fff"/>
      <path id="Path_5118" data-name="Path 5118" d="M395.4,184.544c-.045-.007-.145-.033-.3-.074l-.558-.15c-.215-.058-.428-.119-.649-.182s-.409-.122-.572-.174a2.688,2.688,0,0,1-.331-.12.975.975,0,0,1,.024-.2.477.477,0,0,1,.052-.148l.274.006a.289.289,0,0,0,.232-.091.621.621,0,0,0,.137-.281,1.865,1.865,0,0,0,.047-.464v-3.726a1.918,1.918,0,0,1,.038-.455.428.428,0,0,1,.081-.182c.029-.028.039-.041.033-.042l-.814-.132a.829.829,0,0,1-.062-.177,1.486,1.486,0,0,1-.042-.221.437.437,0,0,1,.165-.092,2.1,2.1,0,0,1,.237-.071.474.474,0,0,1,.165-.021q1.845.3,3.688.619a2.46,2.46,0,0,1,.4.2c.16.095.313.192.463.291a2.525,2.525,0,0,1,.317.242,1.926,1.926,0,0,1,.2.6,4.085,4.085,0,0,1,.057.685,2.383,2.383,0,0,1-.047.543.922.922,0,0,1-.109.275c-.04.062-.085.127-.127.2a1.351,1.351,0,0,1-.279.226,2.906,2.906,0,0,1-.364.2,3,3,0,0,1-.349.134v.047a1.558,1.558,0,0,1,.4.345,2.212,2.212,0,0,1,.311.616l.312.892a1.6,1.6,0,0,0,.25.5.394.394,0,0,0,.222.144c.069.008.131.018.188.029l.34.061a.66.66,0,0,1,.109.2.854.854,0,0,1,.061.329,2.815,2.815,0,0,1-.443.11,3.639,3.639,0,0,1-.472.048,1.853,1.853,0,0,1-.378-.02,1.878,1.878,0,0,1-.945-.414,1.8,1.8,0,0,1-.5-.838l-.529-1.736a.491.491,0,0,0-.137-.233.571.571,0,0,0-.3-.127l-.482-.081v1.531a1.192,1.192,0,0,1-.052.381.466.466,0,0,1-.109.2l.945.293c.013.034.029.081.048.141a1.044,1.044,0,0,1,.038.225,1.107,1.107,0,0,1-.425.142,1.426,1.426,0,0,1-.454.014m.01-3.62q.3.042.567.086c.176.03.343.054.5.071s.308.029.454.036a1.713,1.713,0,0,0,.151-.34,2.4,2.4,0,0,0,.085-.751,2.838,2.838,0,0,0-.061-.6,1.337,1.337,0,0,0-.2-.5,3.056,3.056,0,0,0-.4-.126c-.161-.04-.305-.076-.435-.107s-.2-.048-.213-.051q-.331-.056-.388.1a1.382,1.382,0,0,0-.057.442Z" transform="translate(-247.84 -111.97)" fill="#fff"/>
      <path id="Path_5119" data-name="Path 5119" d="M415.578,188.111a3.327,3.327,0,0,1-.848-.3,6.241,6.241,0,0,1-.839-.507,4.512,4.512,0,0,1-.66-.566.992.992,0,0,1-.293-.487v-3.974a1.848,1.848,0,0,1,.047-.433.457.457,0,0,1,.113-.24l-.812-.15c-.012-.034-.03-.088-.057-.163a1.035,1.035,0,0,1-.047-.237.418.418,0,0,1,.165-.089,1.965,1.965,0,0,1,.236-.065.5.5,0,0,1,.165-.017q1.269.235,2.537.481a.971.971,0,0,1,.08.211,1,1,0,0,1,.042.308l-.405.045a.522.522,0,0,0-.217.072.367.367,0,0,0-.141.211,1.636,1.636,0,0,0-.047.457q0,1.953,0,3.907.124.109.288.236c.11.085.225.163.344.238s.232.137.339.19a1.133,1.133,0,0,0,.273.1,2.579,2.579,0,0,0,.636.054,1.733,1.733,0,0,0,.5-.1,1.714,1.714,0,0,0,.4-.209v-3.936a2.268,2.268,0,0,1,.037-.439.535.535,0,0,1,.094-.247l-.791-.158a.515.515,0,0,1-.066-.165,1.467,1.467,0,0,1-.038-.235.646.646,0,0,1,.17-.09,1.156,1.156,0,0,1,.226-.064.5.5,0,0,1,.169-.008q.81.162,1.619.329a.85.85,0,0,1,.085.2,1.436,1.436,0,0,1,.047.318l-.3.033a.738.738,0,0,0-.278.076.337.337,0,0,0-.141.214,2.033,2.033,0,0,0-.042.49v4.249a1.337,1.337,0,0,1-.452.274,3.443,3.443,0,0,1-.655.182,4.563,4.563,0,0,1-.749.07,3.694,3.694,0,0,1-.744-.065" transform="translate(-259.945 -114.072)" fill="#fff"/>
    </g>
  </g>
</svg>
