<svg width="1366" height="428" viewBox="0 0 1366 428" fill="none" xmlns="http://www.w3.org/2000/svg">
<mask id="mask0_3_6663" style="mask-type:luminance" maskUnits="userSpaceOnUse" x="-50" y="0" width="1467" height="494">
<path d="M-49.814 493.661L1416.73 493.661V0.354004L-49.814 0.354004V493.661Z" fill="white"/>
</mask>
<g mask="url(#mask0_3_6663)">
<path d="M-40.6199 303.355C-37.0659 303.04 -34.9269 305.494 -31.9698 306.123C-25.4279 307.476 -18.8539 308.671 -12.2799 309.835C10.4301 313.861 31.2201 308.262 50.9751 297.599C58.7441 293.384 64.0292 286.59 68.2441 279.009C69.3131 277.059 70.6031 274.417 69.5652 272.687C68.3652 270.737 65.7281 272.187 63.6521 272.467C58.6191 273.096 53.618 274.512 48.4281 272.813C37.7332 269.29 31.946 261.143 29.3041 250.984C26.7606 241.445 25.8671 231.541 26.6621 221.7C28.6442 199.084 35.7841 177.915 45.3141 157.407C49.1201 149.134 54.9392 145.391 63.8412 145.737C76.9891 146.209 90.1052 144.637 103.253 144.919C123.258 145.328 143.169 144.007 163.079 142.214C166.067 141.962 169.055 141.714 172.044 141.428C173.411 141.396 174.733 140.927 175.814 140.089C176.895 139.251 177.68 138.089 178.052 136.773C178.901 134.005 177.737 132.495 175.095 130.891C167.735 126.391 161.349 120.763 158.204 112.238C156.523 107.721 155.434 103.006 154.964 98.209C152.699 77.701 178.064 57.526 191.178 41.484C191.458 41.0876 191.824 40.7599 192.249 40.5256C192.674 40.2913 193.146 40.1563 193.631 40.131C202.847 39.345 191.703 40.238 200.95 39.514C202.743 39.388 204.788 38.854 206.675 40.458C200.447 44.858 197.553 51.247 194.848 57.664C190.602 67.698 193.118 86.634 201.862 93.428C212.619 101.763 224.038 109.092 237.406 112.143C256.328 116.302 275.559 118.901 294.906 119.912C313.306 120.981 331.739 121.202 350.172 120.793C372.442 120.293 394.554 118.811 416.226 113.15C433.715 108.589 450.983 103.65 467.088 95.158C484.797 85.816 499.046 72.605 512.257 57.696C526.157 41.969 531.857 23.568 534.401 4.035C535.312 7.98395 535.881 12.0042 536.101 16.051C536.979 36.0109 542.816 55.4374 553.086 72.575C564.756 92.265 582.307 103.275 605.521 105.602C619.204 106.955 632.632 105.476 646.034 104.124C659.436 102.772 670.883 106.546 681.955 113.088H683.655C690.455 109.313 697.247 105.633 705.11 104.438C717 102.614 728.67 105.382 740.465 105.916C756.727 106.64 772.706 105.853 787.238 97.486C814.289 81.886 823.096 55.337 828.412 27.122C830.079 18.315 830.112 9.16202 832.312 0.354004C832.347 0.606018 832.347 0.825989 832.378 1.077C834.014 19.887 839.172 36.935 850.339 52.096C852.852 55.556 855.839 58.67 858.577 61.973C873.244 79.609 892.154 93.2256 913.531 101.543C945.863 114.471 979.617 120.479 1014.37 120.793C1045.92 121.076 1077.41 120.636 1108.77 115.949C1126.2 113.37 1142.49 108.872 1157.46 99.31C1168.63 92.201 1174.16 82.61 1174.07 69.554C1173.95 57.79 1168.82 48.291 1160.51 40.27C1161.46 39.012 1162.87 39.389 1164.04 39.484C1172.72 40.144 1162.24 39.551 1170.89 40.117C1170.89 40.117 1176.62 41.41 1178.92 44.332C1188.26 56.222 1211.72 71.316 1212.44 86.1C1213.39 105.319 1208.74 122.021 1190.14 131.772C1189.71 131.968 1189.33 132.286 1189.07 132.687C1188.81 133.089 1188.67 133.557 1188.67 134.037C1188.53 134.922 1188.58 135.825 1188.82 136.688C1189.06 137.551 1189.47 138.355 1190.04 139.048C1190.6 139.742 1191.31 140.309 1192.11 140.713C1192.91 141.118 1193.78 141.351 1194.67 141.397C1196.66 141.617 1198.67 141.554 1200.65 141.712C1216.41 143.096 1232.14 145.235 1248.02 144.826C1266.33 144.354 1284.57 145.958 1302.87 145.77C1310.65 145.676 1317 147.689 1320.71 155.71C1333.82 184.239 1344.02 213.21 1338.83 245.418C1337.54 253.376 1334.61 260.518 1329.11 266.335C1322.29 273.507 1313.66 274.828 1304.26 272.689C1302 272.189 1298.79 270.456 1297.5 272.595C1296.15 274.828 1297.97 277.879 1299.39 280.333C1304.84 289.978 1313.38 297.51 1323.64 301.722C1342.51 309.837 1361.92 313.643 1382.36 309.46C1388.78 308.17 1395.42 307.667 1401.45 305.119C1405.83 303.263 1411.08 302.666 1413.75 305.088C1417.12 308.139 1417.28 311.977 1416.02 316.097C1412.93 326.162 1407.46 334.97 1401.9 343.714C1398.15 349.431 1395.35 355.72 1393.62 362.335C1389.66 378.125 1389.12 394.167 1389.37 410.335C1389.5 417.758 1389.25 425.276 1387.02 432.353C1377.58 461.889 1356.67 479.409 1327.25 486.989C1317.24 489.561 1306.61 489.161 1296.23 489.755C1277.61 490.855 1259.02 492.649 1240.4 492.743C1091.02 493.498 941.641 493.372 792.263 493.592C573.277 493.875 354.263 493.215 135.273 492.869C125.773 492.869 116.306 492.68 106.744 491.8C93.8792 490.636 80.826 490.731 67.8661 489.693C59.2161 489.001 50.4712 488.781 41.8842 487.554C29.2391 485.761 18.1992 479.754 8.10217 472.236C-7.12183 460.881 -17.7849 446.223 -21.2449 427.162C-23.2269 416.436 -22.345 405.521 -22.5349 394.67C-22.7679 383.275 -24.2875 371.942 -27.0648 360.888C-29.4548 351.294 -35.3999 343.525 -40.2759 335.188C-43.9879 328.803 -47.6359 322.355 -49.3658 315.057C-51.0958 307.917 -47.7659 303.957 -40.6218 303.357" fill="#F0BF5D"/>
<path d="M-40.6199 303.355C-37.0659 303.04 -34.9268 305.494 -31.9698 306.123C-25.4278 307.476 -18.8539 308.671 -12.2799 309.835C10.4301 313.861 31.2201 308.262 50.9751 297.599C58.7441 293.384 64.0291 286.59 68.2441 279.009C69.3131 277.059 70.6032 274.417 69.5652 272.687C68.3652 270.737 65.7281 272.187 63.6521 272.467C58.6191 273.096 53.6181 274.512 48.4281 272.813C37.7331 269.29 31.9461 261.143 29.3041 250.984C26.7606 241.445 25.8671 231.541 26.6621 221.7C28.6441 199.084 35.7841 177.915 45.3141 157.407C49.1201 149.134 54.9392 145.391 63.8412 145.737C76.9892 146.209 90.1052 144.637 103.253 144.919C123.258 145.328 143.169 144.007 163.079 142.214C166.067 141.962 169.055 141.714 172.044 141.428C173.411 141.396 174.733 140.927 175.814 140.089C176.895 139.251 177.68 138.089 178.052 136.773C178.901 134.005 177.737 132.495 175.095 130.891C167.735 126.391 161.349 120.763 158.204 112.238C156.523 107.721 155.434 103.006 154.964 98.209C152.699 77.701 178.064 57.526 191.178 41.484C191.458 41.0877 191.824 40.76 192.249 40.5256C192.674 40.2912 193.147 40.1563 193.631 40.131C202.847 39.345 191.703 40.238 200.95 39.514C202.743 39.388 204.788 38.854 206.675 40.458C200.447 44.858 197.553 51.247 194.848 57.664C190.602 67.698 193.118 86.634 201.862 93.428C212.619 101.763 224.038 109.092 237.406 112.143C256.328 116.302 275.559 118.901 294.906 119.912C313.306 120.981 331.739 121.202 350.172 120.793C372.442 120.293 394.554 118.811 416.226 113.15C433.715 108.589 450.983 103.65 467.088 95.158C484.797 85.816 499.046 72.605 512.257 57.696C526.157 41.969 531.857 23.568 534.401 4.035C535.312 7.98396 535.881 12.0042 536.101 16.051C536.979 36.0109 542.816 55.4374 553.086 72.575C564.756 92.265 582.307 103.275 605.521 105.602C619.204 106.955 632.632 105.476 646.034 104.124C659.436 102.772 670.883 106.546 681.955 113.088H683.655C690.455 109.313 697.247 105.633 705.11 104.438C717 102.614 728.67 105.382 740.465 105.916C756.727 106.64 772.706 105.853 787.238 97.486C814.289 81.886 823.096 55.337 828.412 27.122C830.079 18.315 830.112 9.162 832.312 0.354004C832.347 0.606004 832.347 0.825996 832.378 1.077C834.014 19.887 839.172 36.935 850.339 52.096C852.852 55.556 855.839 58.67 858.577 61.973C873.244 79.609 892.154 93.2257 913.531 101.543C945.863 114.471 979.617 120.479 1014.37 120.793C1045.92 121.076 1077.41 120.636 1108.77 115.949C1126.2 113.37 1142.49 108.872 1157.46 99.31C1168.63 92.201 1174.16 82.61 1174.07 69.554C1173.95 57.79 1168.82 48.291 1160.51 40.27C1161.46 39.012 1162.87 39.389 1164.04 39.484C1172.72 40.144 1162.24 39.551 1170.89 40.117C1170.89 40.117 1176.62 41.41 1178.92 44.332C1188.26 56.222 1211.72 71.316 1212.44 86.1C1213.39 105.319 1208.74 122.021 1190.14 131.772C1189.71 131.968 1189.33 132.286 1189.07 132.687C1188.81 133.089 1188.67 133.557 1188.67 134.037C1188.53 134.922 1188.58 135.825 1188.82 136.688C1189.06 137.551 1189.47 138.355 1190.04 139.048C1190.6 139.742 1191.31 140.309 1192.11 140.713C1192.91 141.118 1193.78 141.351 1194.67 141.397C1196.66 141.617 1198.67 141.554 1200.65 141.712C1216.41 143.096 1232.14 145.235 1248.02 144.826C1266.33 144.354 1284.57 145.958 1302.87 145.77C1310.65 145.676 1317 147.689 1320.71 155.71C1333.82 184.239 1344.02 213.21 1338.83 245.418C1337.54 253.376 1334.61 260.518 1329.11 266.335C1322.29 273.507 1313.66 274.828 1304.26 272.689C1302 272.189 1298.79 270.456 1297.5 272.595C1296.15 274.828 1297.97 277.879 1299.39 280.333C1304.84 289.978 1313.38 297.51 1323.64 301.722C1342.51 309.837 1361.92 313.643 1382.36 309.46C1388.78 308.17 1395.42 307.667 1401.45 305.119C1405.83 303.263 1411.08 302.666 1413.75 305.088C1417.12 308.139 1417.28 311.977 1416.02 316.097C1412.93 326.162 1407.46 334.97 1401.9 343.714C1398.15 349.431 1395.35 355.72 1393.62 362.335C1389.66 378.125 1389.12 394.167 1389.37 410.335C1389.5 417.758 1389.25 425.276 1387.02 432.353C1377.58 461.889 1356.67 479.409 1327.25 486.989C1317.24 489.561 1306.61 489.161 1296.23 489.755C1277.61 490.855 1259.02 492.649 1240.4 492.743C1091.02 493.498 941.641 493.372 792.263 493.592C573.277 493.875 354.263 493.215 135.273 492.869C125.773 492.869 116.306 492.68 106.744 491.8C93.8791 490.636 80.8261 490.731 67.8661 489.693C59.2161 489.001 50.4712 488.781 41.8842 487.554C29.2392 485.761 18.1992 479.754 8.10217 472.236C-7.12183 460.881 -17.7849 446.223 -21.2449 427.162C-23.2269 416.436 -22.3449 405.521 -22.5349 394.67C-22.768 383.275 -24.2875 371.942 -27.0648 360.888C-29.4548 351.294 -35.3999 343.525 -40.2759 335.188C-43.9879 328.803 -47.6358 322.355 -49.3658 315.057C-51.0958 307.917 -47.7658 303.957 -40.6218 303.357" stroke="black" stroke-width="3"/>
</g>
<mask id="mask1_3_6663" style="mask-type:luminance" maskUnits="userSpaceOnUse" x="-50" y="0" width="1467" height="494">
<path d="M-40.6201 303.355C-37.0662 303.04 -34.9271 305.494 -31.9701 306.123C-25.4281 307.476 -18.8541 308.671 -12.2802 309.835C10.4298 313.861 31.2198 308.262 50.9749 297.599C58.7439 293.384 64.0289 286.59 68.2439 279.009C69.3129 277.059 70.6029 274.417 69.5649 272.687C68.365 270.737 65.7279 272.187 63.6519 272.467C58.6189 273.096 53.6178 274.512 48.4279 272.813C37.7329 269.29 31.9458 261.143 29.3038 250.984C26.7604 241.445 25.8668 231.541 26.6619 221.7C28.6439 199.084 35.7838 177.915 45.3138 157.407C49.1199 149.134 54.939 145.391 63.8409 145.737C76.9889 146.209 90.105 144.637 103.253 144.919C123.258 145.328 143.169 144.007 163.079 142.214C166.067 141.962 169.055 141.714 172.044 141.428C173.411 141.396 174.733 140.927 175.814 140.089C176.895 139.251 177.679 138.089 178.052 136.773C178.901 134.005 177.737 132.495 175.095 130.891C167.735 126.391 161.349 120.763 158.204 112.238C156.523 107.721 155.434 103.006 154.964 98.209C152.699 77.701 157.701 59.331 170.817 43.289C171.097 42.8926 171.463 42.5649 171.888 42.3306C172.313 42.0963 172.785 41.9613 173.27 41.936C182.486 41.15 191.702 40.236 200.95 39.514C202.743 39.388 204.788 38.854 206.675 40.458C200.447 44.858 197.553 51.247 194.848 57.664C190.602 67.698 193.118 86.634 201.862 93.428C212.619 101.763 224.038 109.092 237.406 112.143C256.328 116.302 275.559 118.901 294.906 119.912C313.306 120.981 331.739 121.202 350.172 120.793C372.442 120.293 394.554 118.811 416.226 113.15C433.715 108.589 450.983 103.65 467.088 95.158C484.797 85.816 499.046 72.605 512.257 57.696C526.157 41.969 531.857 23.568 534.401 4.035C535.312 7.98395 535.881 12.0042 536.101 16.051C536.979 36.0109 542.816 55.4374 553.086 72.575C564.756 92.265 582.307 103.275 605.521 105.602C619.204 106.955 632.632 105.476 646.034 104.124C659.436 102.772 670.883 106.546 681.955 113.088H683.655C690.455 109.313 697.247 105.633 705.11 104.438C717 102.614 728.67 105.382 740.465 105.916C756.727 106.64 772.706 105.853 787.238 97.486C814.289 81.886 823.096 55.337 828.412 27.122C830.079 18.315 830.112 9.16202 832.312 0.354004C832.347 0.606018 832.347 0.825989 832.378 1.077C834.014 19.887 839.172 36.935 850.339 52.096C852.852 55.556 855.839 58.67 858.577 61.973C873.244 79.609 892.154 93.2256 913.531 101.543C945.863 114.471 979.617 120.479 1014.37 120.793C1045.92 121.076 1077.41 120.636 1108.77 115.949C1126.2 113.37 1142.49 108.872 1157.46 99.31C1168.63 92.201 1174.16 82.61 1174.07 69.554C1173.94 57.79 1168.82 48.291 1160.51 40.27C1161.46 39.012 1162.87 39.389 1164.04 39.484C1172.71 40.144 1181.36 41.057 1190.01 41.623C1191.59 41.6335 1193.14 42.0217 1194.54 42.755C1195.94 43.4883 1197.14 44.5455 1198.04 45.838C1207.38 57.728 1211.72 71.316 1212.44 86.1C1213.39 105.319 1208.73 122.021 1190.14 131.772C1189.7 131.968 1189.33 132.286 1189.07 132.687C1188.81 133.089 1188.66 133.557 1188.66 134.037C1188.53 134.922 1188.58 135.825 1188.82 136.688C1189.05 137.551 1189.47 138.355 1190.03 139.048C1190.6 139.742 1191.3 140.309 1192.1 140.713C1192.9 141.118 1193.78 141.351 1194.67 141.397C1196.65 141.617 1198.66 141.554 1200.64 141.712C1216.4 143.096 1232.13 145.235 1248.01 144.826C1266.32 144.354 1284.56 145.958 1302.87 145.77C1310.64 145.676 1316.99 147.689 1320.71 155.71C1333.82 184.239 1344.01 213.21 1338.82 245.418C1337.54 253.376 1334.61 260.518 1329.1 266.335C1322.28 273.507 1313.66 274.828 1304.26 272.689C1301.99 272.189 1298.78 270.456 1297.49 272.595C1296.14 274.828 1297.97 277.879 1299.38 280.333C1304.84 289.978 1313.38 297.51 1323.63 301.722C1342.5 309.837 1361.91 313.643 1382.36 309.46C1388.77 308.17 1395.41 307.667 1401.45 305.119C1405.82 303.263 1411.07 302.666 1413.75 305.088C1417.12 308.139 1417.27 311.977 1416.02 316.097C1412.93 326.162 1407.46 334.97 1401.89 343.714C1398.14 349.431 1395.35 355.72 1393.62 362.335C1389.65 378.125 1389.12 394.167 1389.37 410.335C1389.5 417.758 1389.24 425.276 1387.01 432.353C1377.57 461.889 1356.66 479.409 1327.25 486.989C1317.24 489.561 1306.61 489.161 1296.23 489.755C1277.61 490.855 1259.01 492.649 1240.4 492.743C1091.01 493.498 941.641 493.372 792.263 493.592C573.277 493.875 354.263 493.215 135.273 492.869C125.773 492.869 116.306 492.68 106.744 491.8C93.8789 490.636 80.8258 490.731 67.8658 489.693C59.2158 489.001 50.4709 488.781 41.8839 487.554C29.2389 485.761 18.199 479.754 8.10193 472.236C-7.12207 460.881 -17.7852 446.223 -21.2451 427.162C-23.2272 416.436 -22.3452 405.521 -22.5352 394.67C-22.7682 383.275 -24.2877 371.942 -27.0651 360.888C-29.4551 351.294 -35.4001 343.525 -40.2761 335.188C-43.9882 328.803 -47.6361 322.355 -49.3661 315.057C-51.0961 307.917 -47.7661 303.957 -40.6221 303.357" fill="white"/>
</mask>
<g mask="url(#mask1_3_6663)">
<mask id="mask2_3_6663" style="mask-type:luminance" maskUnits="userSpaceOnUse" x="-144" y="53" width="1582" height="791">
<path d="M-143.815 843.836L1437.84 843.836V53.2608L-143.815 53.2608V843.836Z" fill="white"/>
</mask>
<g mask="url(#mask2_3_6663)">
<mask id="mask3_3_6663" style="mask-type:luminance" maskUnits="userSpaceOnUse" x="-144" y="53" width="1582" height="791">
<path d="M-143.815 843.836L1437.84 843.836V53.2608L-143.815 53.2608V843.836Z" fill="white"/>
</mask>
<g mask="url(#mask3_3_6663)">
<g style="mix-blend-mode:overlay" opacity="0.45">
<mask id="mask4_3_6663" style="mask-type:luminance" maskUnits="userSpaceOnUse" x="-144" y="53" width="1582" height="791">
<path d="M-143.815 843.836L1437.84 843.836V53.2608L-143.815 53.2608V843.836Z" fill="white"/>
</mask>
<g mask="url(#mask4_3_6663)">
<path d="M-140.393 268.688C-102.74 216.381 -26.863 111.264 10.886 59.1118L10.861 59.0778C-26.992 111.111 -103.271 215.674 -141.214 267.551L-140.393 268.688Z" fill="#7B1AA7"/>
<path d="M-140.344 285.814C-99.6291 229.222 -17.5681 115.514 23.2649 59.1138L23.2399 59.0808C-17.6991 115.363 -100.211 228.448 -141.267 284.543L-140.344 285.814Z" fill="#7B1AA7"/>
<path d="M-140.296 302.94C-96.507 242.079 -8.25998 119.783 35.645 59.1118L35.62 59.0778C-8.41698 119.597 -97.162 241.206 -141.315 301.54L-140.296 302.94Z" fill="#7B1AA7"/>
<path d="M-140.235 320.083C-93.3911 254.93 1.03392 124.035 48.0239 59.1118L47.9989 59.0828C0.874924 123.849 -94.1091 253.972 -141.376 318.512L-140.235 320.083Z" fill="#7B1AA7"/>
<path d="M-140.174 337.225C-83.3402 258.246 4.01283 136.887 60.4028 59.1118L60.3788 59.0768C4.18083 136.457 -84.3892 257.525 -141.436 335.486L-140.174 337.225Z" fill="#7B1AA7"/>
<path d="M-140.126 354.351C-79.793 270.513 12.935 141.689 72.782 59.1108L72.758 59.0768C13.09 141.201 -80.929 269.721 -141.486 352.478L-140.126 354.351Z" fill="#7B1AA7"/>
<path d="M-140.053 371.511C-76.2531 282.774 21.8469 146.479 85.1599 59.1108L85.1359 59.0768C22.0079 145.957 -77.4631 281.924 -141.559 369.437L-140.053 371.511Z" fill="#7B1AA7"/>
<path d="M-139.993 388.654C-72.7009 295.054 30.7481 151.254 97.5391 59.1118L97.5151 59.0778C30.9391 150.73 -74.0099 294.11 -141.62 386.413L-139.993 388.654Z" fill="#7B1AA7"/>
<path d="M-139.931 405.796C-69.1501 307.323 39.6659 156.047 109.919 59.1098L109.895 59.0758C39.8519 155.481 -70.5521 306.296 -141.681 403.388L-139.931 405.796Z" fill="#7B1AA7"/>
<path d="M-139.871 422.938C-65.5972 319.601 48.5749 160.83 122.298 59.1098L122.274 59.0768C48.7748 160.238 -67.1021 318.481 -141.74 420.363L-139.871 422.938Z" fill="#7B1AA7"/>
<path d="M-139.798 440.098C-62.0542 331.864 57.4768 165.614 134.677 59.1108L134.653 59.0768C57.6958 165.005 -63.6362 330.681 -141.813 437.322L-139.798 440.098Z" fill="#7B1AA7"/>
<path d="M-139.725 457.258C-58.5021 344.14 66.3989 170.41 147.056 59.1108L147.032 59.0768C66.6109 169.758 -60.1801 342.869 -141.886 454.281L-139.725 457.258Z" fill="#7B1AA7"/>
<path d="M-139.652 474.417C-54.937 356.434 75.3141 175.203 159.435 59.1098L159.411 59.0768C75.5271 174.51 -56.7379 355.036 -141.959 471.24L-139.652 474.417Z" fill="#7B1AA7"/>
<path d="M-139.58 491.576C-51.377 368.72 84.214 179.976 171.814 59.1108L171.79 59.0768C84.459 179.285 -53.2921 367.212 -142.032 488.198L-139.58 491.576Z" fill="#7B1AA7"/>
<path d="M-139.495 508.752C-38.3071 367.552 82.4929 199.595 184.193 59.1098L184.169 59.0758C82.2199 199.229 -39.6611 365.705 -142.116 505.139L-139.495 508.752Z" fill="#7B1AA7"/>
<path d="M-139.434 525.895C-44.2682 393.28 102.033 189.547 196.572 59.1098L196.548 59.0758C102.3 188.805 -46.3892 391.576 -142.178 522.116L-139.434 525.895Z" fill="#7B1AA7"/>
<path d="M-139.349 543.071C-40.7131 405.56 110.958 194.353 208.951 59.1098L208.927 59.0758C111.206 193.544 -42.9371 403.757 -142.263 539.058L-139.349 543.071Z" fill="#7B1AA7"/>
<path d="M-139.276 560.23C-26.5249 402.9 108.019 215.658 221.33 59.1098L221.306 59.0758C107.7 215.23 -28.1699 400.645 -142.335 556.015L-139.276 560.23Z" fill="#7B1AA7"/>
<path d="M-139.19 577.406C-22.613 414.661 116.526 221.006 233.71 59.1058L233.685 59.0718C116.194 220.57 -24.329 412.313 -142.42 572.957L-139.19 577.406Z" fill="#7B1AA7"/>
<path d="M-139.106 594.582C-18.6871 426.441 125.03 226.361 246.088 59.1088L246.064 59.0748C124.688 225.911 -20.4991 423.961 -142.504 589.899L-139.106 594.582Z" fill="#7B1AA7"/>
<path d="M-139.021 611.758C-13.1732 436.025 132.183 233.526 258.467 59.1088L258.443 59.0748C167.002 184.844 50.1058 344.458 -42.1442 470.158L-142.589 606.841L-139.021 611.758Z" fill="#7B1AA7"/>
<path d="M-138.949 628.918C-9.19305 447.743 140.639 238.925 270.846 59.1098L270.822 59.0758C176.547 188.746 56.0219 353.301 -39.1031 482.876L-142.662 623.8L-138.949 628.918Z" fill="#7B1AA7"/>
<path d="M-138.852 646.11C-4.66492 458.71 148.643 244.957 283.225 59.1098L283.201 59.0758C148.453 244.382 -6.89087 455.97 -142.76 640.724L-138.852 646.11Z" fill="#7B1AA7"/>
<path d="M-138.766 663.287C-0.669006 470.406 157.082 250.367 295.605 59.1089L295.581 59.0749C156.911 249.81 -3.00201 467.529 -142.844 657.668L-138.766 663.287Z" fill="#7B1AA7"/>
<path d="M-138.669 680.479C0.912872 485.298 167.571 253.138 307.984 59.1088L307.96 59.0748C167.155 252.579 -1.3161 482.248 -142.941 674.592L-138.669 680.479Z" fill="#7B1AA7"/>
<path d="M-138.585 697.656C7.32083 493.799 173.994 261.236 320.362 59.1088L320.338 59.0748C173.786 260.611 4.7738 490.643 -143.027 691.535L-138.585 697.656Z" fill="#7B1AA7"/>
<path d="M-138.487 714.848C11.292 505.46 182.441 266.663 332.741 59.1088L332.717 59.0748C182.232 266.02 8.68695 502.233 -143.123 708.46L-138.487 714.848Z" fill="#7B1AA7"/>
<path d="M-138.39 732.041C15.2981 517.169 190.894 272.087 345.12 59.1088L345.096 59.0748C190.678 271.432 12.5671 513.778 -143.22 725.385L-138.39 732.041Z" fill="#7B1AA7"/>
<path d="M-138.301 749.217C19.264 528.825 199.358 277.531 357.499 59.1078L357.475 59.0748C199.109 276.823 16.483 525.377 -143.301 742.326L-138.301 749.217Z" fill="#7B1AA7"/>
<path d="M-138.208 766.41C23.2569 540.518 207.815 282.968 369.878 59.1098L369.854 59.0758C207.547 282.222 20.3779 536.936 -143.403 759.252L-138.208 766.41Z" fill="#7B1AA7"/>
<path d="M-138.111 783.603C27.2568 552.215 216.272 288.403 382.257 59.1088L382.233 59.0758C215.984 287.622 24.2568 548.494 -143.5 776.177L-138.111 783.603Z" fill="#7B1AA7"/>
<path d="M-138.014 800.796C31.261 563.927 224.715 293.819 394.636 59.1088L394.612 59.0748C224.436 293.043 28.136 560.036 -143.597 793.103L-138.014 800.796Z" fill="#7B1AA7"/>
<path d="M-137.917 817.988C34.5609 576.607 233.759 298.441 407.015 59.1088L406.991 59.0748C281.52 231.626 120.991 450.422 -5.7251 622.7L-143.693 810.027L-137.917 817.988Z" fill="#7B1AA7"/>
<path d="M-137.796 835.214C39.254 587.32 241.621 304.681 419.393 59.1088L419.369 59.0748C241.319 303.852 35.9131 583.148 -143.815 826.914L-137.796 835.214Z" fill="#7B1AA7"/>
<path d="M-131.552 843.77C50.671 588.751 249.025 311.497 431.791 59.0848L431.767 59.0508C248.802 310.643 47.204 584.544 -137.644 835.37L-131.552 843.77Z" fill="#7B1AA7"/>
<path d="M-119.173 843.77C59.8639 593.179 264.426 307.36 444.17 59.0848L444.146 59.0508C264.136 306.544 56.4189 588.87 -125.265 835.37L-119.173 843.77Z" fill="#7B1AA7"/>
<path d="M-106.794 843.77C72.2419 593.179 276.804 307.36 456.548 59.0848L456.524 59.0508C276.514 306.544 68.7968 588.87 -112.886 835.37L-106.794 843.77Z" fill="#7B1AA7"/>
<path d="M-94.4152 843.77C84.5438 593.264 291.209 304.55 471.009 56.2158L470.985 56.1818C340.809 235.27 174.166 462.237 42.6838 641.016L-100.508 835.37L-94.4152 843.77Z" fill="#7B1AA7"/>
<path d="M-82.0351 843.77C96.9239 593.264 303.589 304.55 483.389 56.2158L483.365 56.1818C353.189 235.27 186.546 462.237 55.0639 641.016L-88.1281 835.37L-82.0351 843.77Z" fill="#7B1AA7"/>
<path d="M-69.6569 843.77C109.303 593.264 315.968 304.55 495.768 56.2158L495.744 56.1818C365.568 235.27 198.925 462.237 67.4431 641.016L-75.749 835.37L-69.6569 843.77Z" fill="#7B1AA7"/>
<path d="M-57.278 843.77C122.415 592.255 327.729 305.386 508.147 56.2158L508.123 56.1818C327.464 304.602 118.983 587.963 -63.3701 835.37L-57.278 843.77Z" fill="#7B1AA7"/>
<path d="M-44.9001 843.77C134.793 592.256 340.107 305.386 520.525 56.2158L520.501 56.1818C339.842 304.602 131.361 587.963 -50.9921 835.37L-44.9001 843.77Z" fill="#7B1AA7"/>
<path d="M-32.5212 843.77C147.172 592.255 352.486 305.386 532.904 56.2158L532.88 56.1818C352.221 304.602 143.74 587.963 -38.6132 835.37L-32.5212 843.77Z" fill="#7B1AA7"/>
<path d="M-20.142 843.77C158.807 593.249 365.504 304.581 545.283 56.2158L545.259 56.1818C415.059 235.236 248.45 462.25 116.959 641.016L-26.2341 835.37L-20.142 843.77Z" fill="#7B1AA7"/>
<path d="M-7.7619 843.77C173.6 589.895 375.593 307.72 557.663 56.2158L557.639 56.1818C423.163 241.118 265.157 456.356 129.338 641.016L-13.8539 835.37L-7.7619 843.77Z" fill="#7B1AA7"/>
<path d="M4.61603 843.77C185.978 589.895 387.971 307.72 570.041 56.2158L570.017 56.1818C435.541 241.118 277.535 456.356 141.716 641.016L-1.47601 835.37L4.61603 843.77Z" fill="#7B1AA7"/>
<path d="M16.9949 843.77C198.357 589.895 400.35 307.72 582.42 56.2158L582.396 56.1818C447.92 241.118 289.914 456.356 154.095 641.016L10.9029 835.37L16.9949 843.77Z" fill="#7B1AA7"/>
<path d="M29.3738 843.77C208.325 593.251 415.029 304.592 594.799 56.2158L594.775 56.1818C464.575 235.233 297.954 462.233 166.475 641.016L23.2818 835.37L29.3738 843.77Z" fill="#7B1AA7"/>
<path d="M41.753 843.77C220.704 593.251 427.408 304.592 607.178 56.2158L607.154 56.1818C476.954 235.233 310.333 462.234 178.854 641.016L35.6609 835.37L41.753 843.77Z" fill="#7B1AA7"/>
<path d="M54.1319 843.77C233.083 593.251 439.787 304.592 619.557 56.2158L619.533 56.1818C489.333 235.233 322.712 462.233 191.233 641.016L48.0399 835.37L54.1319 843.77Z" fill="#7B1AA7"/>
<path d="M66.511 843.77C245.462 593.251 452.166 304.592 631.936 56.2158L631.912 56.1818C501.712 235.233 335.091 462.233 203.612 641.016L60.419 835.37L66.511 843.77Z" fill="#7B1AA7"/>
<path d="M78.89 843.77C257.841 593.251 464.545 304.592 644.315 56.2158L644.291 56.1818C514.091 235.233 347.47 462.233 215.991 641.016L72.7979 835.37L78.89 843.77Z" fill="#7B1AA7"/>
<path d="M91.2689 843.77C270.22 593.251 476.924 304.592 656.694 56.2158L656.67 56.1818C526.47 235.233 359.849 462.233 228.37 641.016L85.1768 835.37L91.2689 843.77Z" fill="#7B1AA7"/>
<path d="M103.649 843.77C282.601 593.254 489.306 304.597 669.073 56.2158L669.049 56.1818C538.849 235.237 372.218 462.219 240.749 641.016L97.556 835.37L103.649 843.77Z" fill="#7B1AA7"/>
<path d="M116.028 843.77C294.978 593.251 501.682 304.592 681.452 56.2158L681.428 56.1818C551.228 235.233 384.607 462.233 253.128 641.016L109.935 835.37L116.028 843.77Z" fill="#7B1AA7"/>
<path d="M128.406 843.77C308.097 592.254 513.431 305.411 693.831 56.2158L693.807 56.1818C513.131 304.576 304.668 587.97 122.314 835.37L128.406 843.77Z" fill="#7B1AA7"/>
<path d="M140.785 843.77C323.674 587.807 522.771 309.553 706.21 56.2158L706.186 56.1818C522.551 308.7 320.224 583.627 134.693 835.37L140.785 843.77Z" fill="#7B1AA7"/>
<path d="M153.164 843.77C336.053 587.807 535.15 309.553 718.589 56.2158L718.565 56.1818C534.93 308.7 332.603 583.627 147.072 835.37L153.164 843.77Z" fill="#7B1AA7"/>
<path d="M165.543 843.77C345.234 592.254 550.568 305.411 730.968 56.2158L730.944 56.1818C550.268 304.576 341.805 587.97 159.451 835.37L165.543 843.77Z" fill="#7B1AA7"/>
<path d="M177.921 843.77C357.62 592.265 562.946 305.406 743.346 56.2158L743.322 56.1818C562.646 304.581 354.175 587.955 171.829 835.37L177.921 843.77Z" fill="#7B1AA7"/>
<path d="M190.301 843.77C370.049 592.33 575.301 305.377 755.725 56.2158L755.701 56.1818C575.05 304.612 366.507 587.888 184.209 835.37L190.301 843.77Z" fill="#7B1AA7"/>
<path d="M202.693 843.786C382.383 592.269 587.698 305.4 768.105 56.2148L768.081 56.1808C587.411 304.581 378.93 587.948 196.581 835.357L202.693 843.786Z" fill="#7B1AA7"/>
<path d="M215.072 843.786C394.762 592.269 600.077 305.4 780.484 56.2148L780.46 56.1808C599.79 304.581 391.309 587.948 208.96 835.357L215.072 843.786Z" fill="#7B1AA7"/>
<path d="M227.45 843.786C407.14 592.269 612.455 305.4 792.862 56.2148L792.838 56.1808C612.168 304.581 403.687 587.948 221.338 835.357L227.45 843.786Z" fill="#7B1AA7"/>
<path d="M239.829 843.786C419.454 592.343 626.889 302.555 807.36 53.2948L807.336 53.2608C676.67 233.011 509.419 460.839 377.436 640.273L233.712 835.357L239.829 843.786Z" fill="#7B1AA7"/>
<path d="M252.208 843.786C431.833 592.343 639.268 302.555 819.739 53.2948L819.715 53.2608C689.049 233.011 521.798 460.839 389.815 640.273L246.091 835.357L252.208 843.786Z" fill="#7B1AA7"/>
<path d="M264.587 843.786C444.211 592.343 651.647 302.555 832.118 53.2948L832.094 53.2608C701.429 233.011 534.177 460.839 402.194 640.273L258.47 835.357L264.587 843.786Z" fill="#7B1AA7"/>
<path d="M276.966 843.786C456.582 592.332 664.039 302.573 844.497 53.2948L844.473 53.2608C713.791 232.988 546.565 460.851 414.573 640.273L270.849 835.357L276.966 843.786Z" fill="#7B1AA7"/>
<path d="M289.345 843.786C468.961 592.332 676.418 302.573 856.876 53.2948L856.852 53.2608C726.17 232.988 558.944 460.851 426.952 640.273L283.228 835.357L289.345 843.786Z" fill="#7B1AA7"/>
<path d="M301.724 843.786C481.338 592.329 688.802 302.58 869.255 53.2948L869.231 53.2608C738.544 232.986 571.323 460.853 439.333 640.273L295.607 835.357L301.724 843.786Z" fill="#7B1AA7"/>
<path d="M314.103 843.786C493.717 592.329 701.181 302.58 881.634 53.2948L881.61 53.2608C750.923 232.986 583.702 460.853 451.712 640.273L307.986 835.357L314.103 843.786Z" fill="#7B1AA7"/>
<path d="M326.481 843.786C506.095 592.329 713.559 302.58 894.012 53.2948L893.988 53.2608C763.3 232.986 596.079 460.853 464.089 640.273L320.364 835.357L326.481 843.786Z" fill="#7B1AA7"/>
<path d="M338.861 843.786C518.475 592.329 725.939 302.58 906.392 53.2948L906.368 53.2608C775.68 232.986 608.46 460.853 476.47 640.273L332.744 835.357L338.861 843.786Z" fill="#7B1AA7"/>
<path d="M351.24 843.786C530.854 592.329 738.318 302.58 918.771 53.2948L918.747 53.2608C788.059 232.986 620.839 460.853 488.849 640.273L345.123 835.357L351.24 843.786Z" fill="#7B1AA7"/>
<path d="M363.619 843.786C543.233 592.329 750.697 302.58 931.15 53.2948L931.126 53.2608C800.439 232.986 633.218 460.853 501.228 640.273L357.502 835.357L363.619 843.786Z" fill="#7B1AA7"/>
<path d="M375.997 843.786C555.611 592.329 763.075 302.58 943.528 53.2948L943.504 53.2608C812.817 232.986 645.596 460.853 513.606 640.273L369.88 835.357L375.997 843.786Z" fill="#7B1AA7"/>
<path d="M388.376 843.786C567.99 592.329 775.454 302.58 955.907 53.2948L955.883 53.2608C825.195 232.986 657.975 460.853 525.985 640.273L382.259 835.357L388.376 843.786Z" fill="#7B1AA7"/>
<path d="M400.755 843.786C580.369 592.329 787.833 302.58 968.286 53.2948L968.262 53.2608C837.575 232.986 670.354 460.853 538.364 640.273L394.638 835.357L400.755 843.786Z" fill="#7B1AA7"/>
<path d="M413.134 843.786C592.748 592.329 800.213 302.58 980.665 53.2948L980.641 53.2608C849.954 232.986 682.734 460.853 550.744 640.273L407.018 835.357L413.134 843.786Z" fill="#7B1AA7"/>
<path d="M425.513 843.786C605.127 592.329 812.591 302.58 993.044 53.2948L993.02 53.2608C862.333 232.982 695.112 460.851 563.12 640.273L419.396 835.357L425.513 843.786Z" fill="#7B1AA7"/>
<path d="M437.892 843.786C617.506 592.329 824.97 302.58 1005.42 53.2948L1005.4 53.2608C874.712 232.982 707.491 460.851 575.499 640.273L431.775 835.357L437.892 843.786Z" fill="#7B1AA7"/>
<path d="M450.271 843.786C629.885 592.329 837.349 302.58 1017.8 53.2948L1017.78 53.2608C887.09 232.986 719.87 460.853 587.88 640.273L444.154 835.357L450.271 843.786Z" fill="#7B1AA7"/>
<path d="M462.65 843.786C643.008 591.327 849.098 303.403 1030.18 53.2948L1030.16 53.2608C848.818 302.598 639.57 587.03 456.533 835.357L462.65 843.786Z" fill="#7B1AA7"/>
<path d="M475.029 843.786C655.387 591.327 861.477 303.403 1042.56 53.2948L1042.54 53.2608C861.197 302.598 651.949 587.03 468.912 835.357L475.029 843.786Z" fill="#7B1AA7"/>
<path d="M487.408 843.786C667.766 591.327 873.856 303.403 1054.94 53.2948L1054.91 53.2608C873.576 302.598 664.328 587.03 481.291 835.357L487.408 843.786Z" fill="#7B1AA7"/>
<path d="M499.787 843.786C680.153 591.339 886.242 303.413 1067.32 53.2948L1067.29 53.2608C885.947 302.586 676.7 587.019 493.67 835.357L499.787 843.786Z" fill="#7B1AA7"/>
<path d="M512.166 843.786C692.54 591.35 898.618 303.408 1079.7 53.2948L1079.67 53.2608C898.33 302.592 689.07 587.008 506.049 835.357L512.166 843.786Z" fill="#7B1AA7"/>
<path d="M524.545 843.786C704.967 591.415 910.976 303.38 1092.08 53.2948L1092.05 53.2608C910.73 302.621 701.402 586.941 518.428 835.357L524.545 843.786Z" fill="#7B1AA7"/>
<path d="M536.936 843.802C717.302 591.356 923.372 303.402 1104.45 53.2938L1104.43 53.2598C923.091 302.596 713.824 587.002 530.795 835.34L536.936 843.802Z" fill="#7B1AA7"/>
<path d="M549.314 843.802C729.68 591.356 935.75 303.402 1116.83 53.2938L1116.81 53.2598C935.469 302.596 726.202 587.002 543.174 835.34L549.314 843.802Z" fill="#7B1AA7"/>
<path d="M561.694 843.802C742.061 591.356 948.13 303.402 1129.21 53.2938L1129.19 53.2598C947.849 302.596 738.582 587.002 555.553 835.34L561.694 843.802Z" fill="#7B1AA7"/>
<path d="M574.073 843.802C757.406 587.173 957.376 307.776 1141.59 53.2938L1141.57 53.2598C957.001 306.988 754.049 582.841 567.932 835.34L574.073 843.802Z" fill="#7B1AA7"/>
<path d="M586.451 843.802C766.818 591.356 972.887 303.402 1153.97 53.2938L1153.95 53.2598C972.606 302.596 763.339 587.002 580.31 835.34L586.451 843.802Z" fill="#7B1AA7"/>
<path d="M598.83 843.802C779.197 591.356 985.266 303.402 1166.35 53.2938L1166.32 53.2598C984.985 302.596 775.718 587.002 592.689 835.34L598.83 843.802Z" fill="#7B1AA7"/>
<path d="M611.209 843.802C791.576 591.356 997.645 303.402 1178.73 53.2938L1178.7 53.2598C997.364 302.596 788.097 587.002 605.068 835.34L611.209 843.802Z" fill="#7B1AA7"/>
<path d="M623.588 843.802C803.955 591.356 1010.02 303.402 1191.11 53.2938L1191.08 53.2598C1009.74 302.596 800.476 587.002 617.447 835.34L623.588 843.802Z" fill="#7B1AA7"/>
<path d="M635.968 843.802C816.335 591.356 1022.4 303.402 1203.49 53.2938L1203.46 53.2598C1022.12 302.596 812.856 587.002 629.827 835.34L635.968 843.802Z" fill="#7B1AA7"/>
<path d="M648.346 843.802C831.125 587.992 1032.49 306.539 1215.86 53.2938L1215.84 53.2598C1032.26 305.702 827.635 583.731 642.205 835.34L648.346 843.802Z" fill="#7B1AA7"/>
<path d="M660.725 843.802C841.089 591.353 1047.17 303.412 1228.24 53.2938L1228.22 53.2598C1046.87 302.587 837.615 587.002 654.584 835.34L660.725 843.802Z" fill="#7B1AA7"/>
<path d="M673.104 843.802C853.468 591.353 1059.55 303.412 1240.62 53.2938L1240.6 53.2598C1059.25 302.587 849.994 587.002 666.963 835.34L673.104 843.802Z" fill="#7B1AA7"/>
<path d="M685.483 843.802C865.847 591.353 1071.93 303.412 1253 53.2938L1252.98 53.2598C1071.63 302.587 862.373 587.002 679.343 835.34L685.483 843.802Z" fill="#7B1AA7"/>
<path d="M697.862 843.802C878.226 591.353 1084.3 303.412 1265.38 53.2938L1265.36 53.2598C1084.01 302.587 874.752 587.002 691.721 835.34L697.862 843.802Z" fill="#7B1AA7"/>
<path d="M710.241 843.802C890.605 591.353 1096.68 303.412 1277.76 53.2938L1277.74 53.2598C1096.39 302.587 887.131 587.002 704.1 835.34L710.241 843.802Z" fill="#7B1AA7"/>
<path d="M722.62 843.802C902.984 591.353 1109.06 303.412 1290.14 53.2938L1290.11 53.2598C1108.77 302.587 899.51 587.002 716.479 835.34L722.62 843.802Z" fill="#7B1AA7"/>
<path d="M734.999 843.802C915.363 591.353 1121.44 303.412 1302.52 53.2938L1302.49 53.2598C1121.15 302.587 911.889 587.002 728.858 835.34L734.999 843.802Z" fill="#7B1AA7"/>
<path d="M747.378 843.802C927.742 591.353 1133.82 303.412 1314.9 53.2938L1314.87 53.2598C1133.53 302.587 924.268 587.002 741.237 835.34L747.378 843.802Z" fill="#7B1AA7"/>
<path d="M759.756 843.802C940.12 591.353 1146.2 303.412 1327.27 53.2938L1327.25 53.2598C1145.9 302.587 936.646 587.002 753.615 835.34L759.756 843.802Z" fill="#7B1AA7"/>
<path d="M772.136 843.802C952.5 591.353 1158.58 303.412 1339.66 53.2938L1339.63 53.2598C1158.28 302.587 949.026 587.002 765.995 835.34L772.136 843.802Z" fill="#7B1AA7"/>
<path d="M784.515 843.802C964.879 591.353 1170.96 303.413 1352.03 53.2938L1352.01 53.2598C1170.66 302.586 961.404 587.002 778.374 835.34L784.515 843.802Z" fill="#7B1AA7"/>
<path d="M796.894 843.802C977.258 591.353 1183.34 303.413 1364.41 53.2938L1364.39 53.2598C1183.04 302.586 973.783 587.002 790.753 835.34L796.894 843.802Z" fill="#7B1AA7"/>
<path d="M809.272 843.802C989.637 591.353 1195.72 303.413 1376.79 53.2938L1376.77 53.2598C1195.42 302.586 986.161 587.002 803.131 835.34L809.272 843.802Z" fill="#7B1AA7"/>
<path d="M821.651 843.802C1002.01 591.353 1208.09 303.413 1389.17 53.2938L1389.15 53.2598C1207.8 302.586 998.54 587.002 815.51 835.34L821.651 843.802Z" fill="#7B1AA7"/>
<path d="M834.03 843.802C1014.39 591.353 1220.47 303.413 1401.55 53.2938L1401.52 53.2598C1220.18 302.586 1010.92 587.002 827.89 835.34L834.03 843.802Z" fill="#7B1AA7"/>
<path d="M846.41 843.802C1026.78 591.359 1232.86 303.419 1413.93 53.2938L1413.9 53.2598C1232.55 302.58 1023.29 586.997 840.269 835.34L846.41 843.802Z" fill="#7B1AA7"/>
<path d="M858.788 843.802C1039.15 591.356 1245.23 303.416 1426.31 53.2938L1426.28 53.2598C1244.93 302.583 1035.68 587.002 852.647 835.34L858.788 843.802Z" fill="#7B1AA7"/>
<path d="M871.168 843.802C1050.29 593.069 1254.99 307.126 1434.79 58.6638L1434.77 58.6298C1254.62 306.202 1046.81 588.707 865.026 835.34L871.168 843.802Z" fill="#7B1AA7"/>
<path d="M883.559 843.819C1055.8 602.529 1261.48 315.546 1434.8 75.7398L1434.75 75.6738C1260.73 314.53 1052.48 597.965 877.393 835.319L883.559 843.819Z" fill="#7B1AA7"/>
<path d="M895.938 843.819C1067.21 604.004 1262.98 330.575 1434.83 92.8318L1434.73 92.6988C1262.36 329.319 1063.64 599.502 889.773 835.319L895.938 843.819Z" fill="#7B1AA7"/>
<path d="M908.317 843.819C1072.87 613.303 1269.35 339.13 1434.85 109.925L1434.7 109.725C1268.37 337.802 1069.42 608.572 902.151 835.319L908.317 843.819Z" fill="#7B1AA7"/>
<path d="M920.695 843.819C1083.48 615.876 1271.51 353.241 1434.89 127.034L1434.67 126.734C1316.09 289.453 1164.45 495.897 1044.82 658.527L914.53 835.319L920.695 843.819Z" fill="#7B1AA7"/>
<path d="M933.074 843.819C1089.94 624.087 1277.21 362.699 1434.91 144.127L1434.64 143.759C1276.03 361.089 1086.35 619.165 926.911 835.319L933.074 843.819Z" fill="#7B1AA7"/>
<path d="M945.454 843.819C1098.48 629.482 1281.14 374.478 1434.95 161.236L1434.61 160.768C1279.86 372.738 1094.82 624.46 939.288 835.319L945.454 843.819Z" fill="#7B1AA7"/>
<path d="M957.833 843.819C1111.45 628.626 1280.02 393.28 1434.98 178.345L1434.57 177.776C1278.43 391.554 1107.99 623.394 951.668 835.319L957.833 843.819Z" fill="#7B1AA7"/>
<path d="M970.211 843.819C1115.54 640.263 1289 398.055 1435.02 195.454L1434.53 194.785C1287.51 396.019 1111.75 635.057 964.046 835.319L970.211 843.819Z" fill="#7B1AA7"/>
<path d="M982.59 843.819C1124.08 645.657 1292.93 409.832 1435.07 212.58L1434.49 211.78C1291.34 407.67 1120.21 640.352 976.425 835.319L982.59 843.819Z" fill="#7B1AA7"/>
<path d="M994.97 843.819C1132.62 651.051 1296.85 421.608 1435.12 229.706L1434.44 228.769C1295.18 419.319 1128.68 645.647 988.805 835.319L994.97 843.819Z" fill="#7B1AA7"/>
<path d="M1007.35 843.819C1128.52 674.219 1314.87 413.759 1435.15 246.819L1434.4 245.782C1313.77 410.835 1123.69 669.113 1001.18 835.324L1007.35 843.819Z" fill="#7B1AA7"/>
<path d="M1019.73 843.819C1137.4 679.078 1318.41 426.132 1435.2 263.941L1434.35 262.771C1317.16 423.032 1132.55 673.907 1013.56 835.324L1019.73 843.819Z" fill="#7B1AA7"/>
<path d="M1032.11 843.819C1146.29 683.946 1321.94 438.492 1435.25 281.067L1434.3 279.767C1320.55 435.244 1141.42 678.695 1025.94 835.324L1032.11 843.819Z" fill="#7B1AA7"/>
<path d="M1044.48 843.819C1155.18 688.819 1325.47 450.842 1435.31 298.21L1434.24 296.739C1323.96 447.466 1150.28 683.477 1038.32 835.324L1044.48 843.819Z" fill="#7B1AA7"/>
<path d="M1056.86 843.819C1164.08 693.697 1329 463.202 1435.36 315.336L1434.19 313.73C1327.35 459.677 1159.13 688.254 1050.7 835.324L1056.86 843.819Z" fill="#7B1AA7"/>
<path d="M1069.24 843.819C1160.35 716.153 1344.02 459.683 1435.42 332.478L1434.13 330.706C1341.81 456.698 1155.69 709.796 1063.08 835.319L1069.24 843.819Z" fill="#7B1AA7"/>
<path d="M1081.62 843.819C1169.67 720.443 1347.16 472.571 1435.48 349.619L1434.07 347.679C1344.83 469.426 1164.96 714.009 1075.46 835.319L1081.62 843.819Z" fill="#7B1AA7"/>
<path d="M1094 843.819C1178.99 724.733 1350.3 485.458 1435.54 366.763L1434.01 364.657C1347.86 482.153 1174.23 718.219 1087.83 835.319L1094 843.819Z" fill="#7B1AA7"/>
<path d="M1106.38 843.819C1188.32 729.019 1353.45 498.346 1435.6 383.906L1433.95 381.632C1350.89 494.88 1183.49 722.435 1100.21 835.319L1106.38 843.819Z" fill="#7B1AA7"/>
<path d="M1118.76 843.819C1197.64 733.312 1356.59 511.234 1435.66 401.048L1433.89 398.606C1353.92 507.606 1192.76 726.647 1112.59 835.322L1118.76 843.819Z" fill="#7B1AA7"/>
<path d="M1131.14 843.819C1206.96 737.598 1359.74 524.127 1435.74 418.208L1433.82 415.566C1356.94 520.33 1202.03 730.866 1124.97 835.319L1131.14 843.819Z" fill="#7B1AA7"/>
<path d="M168.963 835.371C81.2929 716.386 -53.4231 533.505 -139.883 415.617L-141.729 418.16C-56.5451 536.8 76.9249 723.514 162.871 843.771L168.963 835.371Z" fill="#7B1AA7"/>
<path d="M181.343 835.371C90.1328 711.581 -50.0232 521.325 -139.944 398.639L-141.667 401.013C-53.0162 524.405 85.8358 718.66 175.251 843.771L181.343 835.371Z" fill="#7B1AA7"/>
<path d="M193.722 835.371C98.9709 706.788 -46.6161 509.14 -140.004 381.671L-141.604 383.879C-49.4961 512.02 94.7499 713.801 187.63 843.771L193.722 835.371Z" fill="#7B1AA7"/>
<path d="M206.113 835.357C107.813 701.987 -43.2042 496.946 -140.077 364.706L-141.533 366.713C-45.9812 499.642 103.661 708.946 199.997 843.787L206.113 835.357Z" fill="#7B1AA7"/>
<path d="M218.491 835.357C116.645 697.193 -39.794 484.757 -140.139 347.732L-141.474 349.571C-42.465 487.263 112.577 704.087 212.375 843.787L218.491 835.357Z" fill="#7B1AA7"/>
<path d="M230.87 835.357C138.231 709.798 -47.8829 456.703 -140.2 330.757L-141.413 332.43C-49.9949 459.676 133.661 716.158 224.754 843.787L230.87 835.357Z" fill="#7B1AA7"/>
<path d="M243.249 835.357C134.321 687.595 -32.966 460.357 -140.251 313.765L-141.367 315.304C-35.438 462.513 130.404 694.37 237.133 843.787L243.249 835.357Z" fill="#7B1AA7"/>
<path d="M255.629 835.357C143.158 682.798 -29.5481 448.156 -140.307 296.787L-141.307 298.159C-31.9281 450.143 139.319 689.512 249.513 843.787L255.629 835.357Z" fill="#7B1AA7"/>
<path d="M268.008 835.357C152.001 677.993 -26.1362 435.963 -140.356 279.796L-141.256 281.034C-28.4112 437.765 148.227 684.661 261.892 843.787L268.008 835.357Z" fill="#7B1AA7"/>
<path d="M280.386 835.357C160.845 673.187 -22.727 423.771 -140.405 262.804L-141.205 263.904C-24.895 425.387 157.133 679.812 274.27 843.787L280.386 835.357Z" fill="#7B1AA7"/>
<path d="M292.765 835.357C169.696 668.37 -19.3351 411.598 -140.453 245.812L-141.153 246.782C-21.3641 412.987 166.033 674.973 286.649 843.787L292.765 835.357Z" fill="#7B1AA7"/>
<path d="M305.144 835.358C178.534 663.571 -15.9059 399.388 -140.501 228.821L-141.108 229.658C-17.856 400.627 174.944 670.117 299.028 843.788L305.144 835.358Z" fill="#7B1AA7"/>
<path d="M317.523 835.357C187.383 658.757 -12.5031 387.206 -140.551 211.828L-141.06 212.528C-14.3351 388.235 183.849 665.273 311.407 843.787L317.523 835.357Z" fill="#7B1AA7"/>
<path d="M329.902 835.357C177.767 629.127 11.4019 402.802 -140.587 194.82L-141.024 195.42C10.0629 405.097 173.97 633.905 323.785 843.786L329.902 835.357Z" fill="#7B1AA7"/>
<path d="M342.281 835.358C190.649 629.794 10.2568 384.401 -140.619 177.811L-140.983 178.311C8.93274 386.246 187.004 634.84 336.164 843.787L342.281 835.358Z" fill="#7B1AA7"/>
<path d="M354.66 835.357C199.131 624.475 14.0759 372.767 -140.66 160.802L-140.951 161.202C12.8709 374.45 195.523 629.468 348.544 843.786L354.66 835.357Z" fill="#7B1AA7"/>
<path d="M367.039 835.357C207.593 619.187 17.9141 361.11 -140.696 143.793L-140.914 144.093C16.79 362.681 204.063 624.072 360.923 843.787L367.039 835.357Z" fill="#7B1AA7"/>
<path d="M379.418 835.357C216.064 613.88 21.729 349.487 -140.721 126.768L-140.891 127.002C20.7329 350.878 212.593 618.687 373.302 843.787L379.418 835.357Z" fill="#7B1AA7"/>
<path d="M391.797 835.357C218.746 600.614 30.6609 345.015 -140.745 109.743L-140.866 109.91C29.6758 345.86 215.53 605.58 385.68 843.787L391.797 835.357Z" fill="#7B1AA7"/>
<path d="M404.176 835.358C230.66 600.096 31.5758 329.258 -140.769 92.7168L-140.841 92.8168C30.7758 330.276 227.388 604.738 398.059 843.787L404.176 835.358Z" fill="#7B1AA7"/>
<path d="M416.555 835.357C236.906 591.667 37.2229 320.269 -140.781 75.6738L-140.829 75.7408C-9.99304 256.471 142.255 468.859 272.928 651.353L410.438 843.786L416.555 835.357Z" fill="#7B1AA7"/>
<path d="M428.934 835.357C244.671 585.37 41.9621 309.921 -140.446 59.1098L-140.471 59.1438C41.3461 310.256 241.609 590.134 422.817 843.787L428.934 835.357Z" fill="#7B1AA7"/>
<path d="M441.312 835.358C257.035 585.352 54.312 309.882 -128.111 59.0518L-128.136 59.0858C53.695 310.216 253.974 590.115 435.196 843.787L441.312 835.358Z" fill="#7B1AA7"/>
<path d="M453.691 835.358C267.197 582.271 69.0229 313.122 -115.731 59.0518L-115.756 59.0858C23.0069 250.746 168.915 454.101 307.039 647.202L447.574 843.787L453.691 835.358Z" fill="#7B1AA7"/>
<path d="M466.071 835.358C279.577 582.271 81.4028 313.122 -103.352 59.0518L-103.377 59.0858C35.3858 250.747 181.295 454.102 319.423 647.203L459.954 843.787L466.071 835.358Z" fill="#7B1AA7"/>
<path d="M478.45 835.358C291.956 582.271 93.782 313.122 -90.973 59.0518L-90.998 59.0858C47.765 250.747 193.674 454.102 331.802 647.203L472.333 843.787L478.45 835.358Z" fill="#7B1AA7"/>
<path d="M490.828 835.358C304.328 582.272 106.163 313.118 -78.5951 59.0518L-78.6191 59.0858C60.1399 250.751 206.055 454.099 344.176 647.202L484.711 843.787L490.828 835.358Z" fill="#7B1AA7"/>
<path d="M503.207 835.358C316.707 582.273 118.543 313.117 -66.2159 59.0518L-66.24 59.0858C72.518 250.752 218.434 454.099 356.555 647.202L497.09 843.787L503.207 835.358Z" fill="#7B1AA7"/>
<path d="M515.586 835.358C331.5 585.569 128.668 309.993 -53.837 59.0518L-53.8611 59.0858C80.7359 245.012 234.962 459.879 368.934 647.202L509.469 843.787L515.586 835.358Z" fill="#7B1AA7"/>
<path d="M527.965 835.358C343.879 585.57 141.046 309.995 -41.4572 59.0518L-41.4811 59.0858C93.1189 245.013 247.343 459.877 381.314 647.203L521.849 843.787L527.965 835.358Z" fill="#7B1AA7"/>
<path d="M540.357 835.34C356.257 585.573 153.426 309.994 -29.0781 59.0508L-29.1021 59.0848C105.493 245.014 259.726 459.871 393.689 647.202L534.216 843.802L540.357 835.34Z" fill="#7B1AA7"/>
<path d="M552.735 835.34C368.635 585.574 165.804 309.994 -16.6992 59.0508L-16.7231 59.0848C117.871 245.014 272.104 459.871 406.067 647.202L546.594 843.802L552.735 835.34Z" fill="#7B1AA7"/>
<path d="M565.114 835.34C383.252 588.64 175.837 306.756 -4.32098 59.0508L-4.34497 59.0848C175.253 307.144 380.114 593.403 558.973 843.803L565.114 835.34Z" fill="#7B1AA7"/>
<path d="M577.493 835.34C395.631 588.64 188.216 306.756 8.05792 59.0508L8.03394 59.0848C187.632 307.144 392.493 593.403 571.352 843.803L577.493 835.34Z" fill="#7B1AA7"/>
<path d="M589.872 835.34C408.012 588.64 200.597 306.753 20.4371 59.0508L20.4131 59.0848C200.009 307.147 404.872 593.403 583.731 843.803L589.872 835.34Z" fill="#7B1AA7"/>
<path d="M602.251 835.34C420.391 588.64 212.976 306.753 32.817 59.0508L32.793 59.0848C212.388 307.147 417.251 593.403 596.11 843.803L602.251 835.34Z" fill="#7B1AA7"/>
<path d="M614.63 835.34C432.77 588.64 225.355 306.753 45.1949 59.0508L45.1709 59.0848C224.767 307.147 429.63 593.403 608.489 843.803L614.63 835.34Z" fill="#7B1AA7"/>
<path d="M627.009 835.34C445.149 588.64 237.734 306.753 57.5738 59.0508L57.5498 59.0848C237.146 307.147 442.009 593.403 620.868 843.803L627.009 835.34Z" fill="#7B1AA7"/>
<path d="M639.388 835.34C457.528 588.64 250.113 306.753 69.9529 59.0508L69.929 59.0848C249.525 307.147 454.388 593.403 633.247 843.803L639.388 835.34Z" fill="#7B1AA7"/>
<path d="M651.767 835.34C469.91 588.64 262.495 306.749 82.3321 59.0508L82.3081 59.0848C261.901 307.151 466.761 593.412 645.626 843.803L651.767 835.34Z" fill="#7B1AA7"/>
<path d="M664.146 835.34C482.286 588.64 274.871 306.753 94.711 59.0508L94.687 59.0848C274.283 307.147 479.146 593.403 658.005 843.803L664.146 835.34Z" fill="#7B1AA7"/>
<path d="M676.524 835.34C494.665 588.64 287.25 306.753 107.09 59.0508L107.065 59.0848C286.661 307.147 491.524 593.403 670.383 843.803L676.524 835.34Z" fill="#7B1AA7"/>
<path d="M688.904 835.34C507.044 588.64 299.629 306.753 119.469 59.0508L119.445 59.0848C299.041 307.147 503.904 593.403 682.763 843.803L688.904 835.34Z" fill="#7B1AA7"/>
<path d="M701.283 835.34C517.002 585.34 314.262 309.893 131.848 59.0508L131.824 59.0848C313.663 310.203 513.924 590.126 695.142 843.803L701.283 835.34Z" fill="#7B1AA7"/>
<path d="M713.662 835.34C529.381 585.34 326.641 309.893 144.227 59.0508L144.203 59.0848C326.042 310.203 526.303 590.126 707.521 843.803L713.662 835.34Z" fill="#7B1AA7"/>
<path d="M726.04 835.34C541.759 585.34 339.019 309.893 156.605 59.0508L156.581 59.0848C338.42 310.203 538.681 590.126 719.899 843.803L726.04 835.34Z" fill="#7B1AA7"/>
<path d="M738.419 835.34C556.559 588.64 349.144 306.753 168.984 59.0508L168.96 59.0848C348.556 307.147 553.419 593.403 732.278 843.803L738.419 835.34Z" fill="#7B1AA7"/>
<path d="M750.799 835.34C568.939 588.64 361.524 306.753 181.364 59.0508L181.34 59.0848C360.936 307.147 565.799 593.403 744.658 843.803L750.799 835.34Z" fill="#7B1AA7"/>
<path d="M763.178 835.34C581.318 588.64 373.903 306.753 193.743 59.0508L193.719 59.0848C373.315 307.147 578.178 593.403 757.037 843.803L763.178 835.34Z" fill="#7B1AA7"/>
<path d="M775.556 835.34C593.696 588.64 386.281 306.753 206.121 59.0508L206.097 59.0848C385.693 307.147 590.556 593.403 769.415 843.803L775.556 835.34Z" fill="#7B1AA7"/>
<path d="M787.935 835.34C603.096 584.54 401.787 311.07 218.5 59.0508L218.476 59.0848C401.258 311.531 599.903 589.23 781.794 843.803L787.935 835.34Z" fill="#7B1AA7"/>
<path d="M800.314 835.34C615.475 584.54 414.166 311.07 230.879 59.0508L230.855 59.0848C413.637 311.531 612.282 589.23 794.173 843.803L800.314 835.34Z" fill="#7B1AA7"/>
<path d="M812.693 835.34C627.854 584.54 426.545 311.07 243.259 59.0508L243.235 59.0848C426.017 311.531 624.661 589.23 806.552 843.803L812.693 835.34Z" fill="#7B1AA7"/>
<path d="M825.072 835.34C640.233 584.54 438.924 311.07 255.637 59.0508L255.613 59.0848C438.395 311.531 637.04 589.23 818.931 843.803L825.072 835.34Z" fill="#7B1AA7"/>
<path d="M837.451 835.34C652.609 584.54 451.311 311.058 268.016 59.0508L267.992 59.0848C450.765 311.543 649.422 589.225 831.31 843.803L837.451 835.34Z" fill="#7B1AA7"/>
<path d="M849.83 835.34C664.988 584.54 463.691 311.058 280.395 59.0508L280.371 59.0848C463.144 311.543 661.801 589.225 843.689 843.803L849.83 835.34Z" fill="#7B1AA7"/>
<path d="M862.209 835.34C677.367 584.54 476.07 311.058 292.774 59.0508L292.75 59.0848C475.523 311.543 674.179 589.225 856.068 843.803L862.209 835.34Z" fill="#7B1AA7"/>
<path d="M874.588 835.34C689.746 584.54 488.449 311.058 305.154 59.0508L305.129 59.0848C487.902 311.543 686.558 589.225 868.447 843.803L874.588 835.34Z" fill="#7B1AA7"/>
<path d="M886.979 835.319C702.121 584.546 500.828 311.058 317.532 59.0508L317.508 59.0848C500.279 311.543 698.941 589.219 880.814 843.819L886.979 835.319Z" fill="#7B1AA7"/>
<path d="M899.358 835.319C714.5 584.546 513.207 311.058 329.911 59.0508L329.887 59.0848C512.658 311.543 711.32 589.219 893.193 843.819L899.358 835.319Z" fill="#7B1AA7"/>
<path d="M911.737 835.319C729.879 588.619 522.45 306.749 342.29 59.0468L342.266 59.0808C521.862 307.147 726.708 593.427 905.572 843.819L911.737 835.319Z" fill="#7B1AA7"/>
<path d="M924.116 835.319C742.258 588.619 534.829 306.749 354.669 59.0468L354.645 59.0808C534.24 307.147 739.087 593.427 917.951 843.819L924.116 835.319Z" fill="#7B1AA7"/>
<path d="M936.495 835.319C751.421 584.23 550.204 310.919 367.048 59.0468L367.024 59.0808C549.595 311.211 748.331 589.063 930.33 843.819L936.495 835.319Z" fill="#7B1AA7"/>
<path d="M948.874 835.319C767.015 588.619 559.589 306.75 379.427 59.0508L379.403 59.0848C558.997 307.15 763.847 593.425 942.709 843.819L948.874 835.319Z" fill="#7B1AA7"/>
<path d="M961.252 835.319C779.394 588.619 571.968 306.75 391.805 59.0508L391.781 59.0848C571.376 307.15 776.225 593.425 955.087 843.819L961.252 835.319Z" fill="#7B1AA7"/>
<path d="M973.632 835.319C791.773 588.619 584.347 306.75 404.185 59.0508L404.161 59.0848C583.755 307.15 788.605 593.425 967.467 843.819L973.632 835.319Z" fill="#7B1AA7"/>
<path d="M986.011 835.319C804.152 588.619 596.726 306.75 416.564 59.0508L416.54 59.0848C596.134 307.15 800.984 593.425 979.846 843.819L986.011 835.319Z" fill="#7B1AA7"/>
<path d="M998.39 835.319C816.531 588.619 609.105 306.75 428.943 59.0508L428.919 59.0848C608.513 307.15 813.363 593.425 992.225 843.819L998.39 835.319Z" fill="#7B1AA7"/>
<path d="M1010.77 835.319C828.909 588.619 621.483 306.75 441.321 59.0508L441.297 59.0848C620.891 307.15 825.741 593.425 1004.6 843.819L1010.77 835.319Z" fill="#7B1AA7"/>
<path d="M1023.15 835.319C841.288 588.619 633.862 306.75 453.7 59.0508L453.676 59.0848C633.27 307.15 838.12 593.425 1016.98 843.819L1023.15 835.319Z" fill="#7B1AA7"/>
<path d="M1035.53 835.319C853.668 588.619 646.248 306.742 466.08 59.0508L466.056 59.0848C645.643 307.158 850.5 593.425 1029.36 843.819L1035.53 835.319Z" fill="#7B1AA7"/>
<path d="M1047.91 835.319C866.1 588.735 656.606 303.919 476.377 56.1768L476.353 56.2108C606.285 235.639 771.001 465.26 900.716 646.474L1041.74 843.819L1047.91 835.319Z" fill="#7B1AA7"/>
<path d="M1060.28 835.32C877.754 587.72 669.577 304.794 488.755 56.1818L488.731 56.2158C668.984 305.19 874.601 592.502 1054.12 843.82L1060.28 835.32Z" fill="#7B1AA7"/>
<path d="M1072.66 835.319C887.869 584.661 684.328 308.019 501.134 56.1818L501.11 56.2158C636.215 242.806 790.952 458.54 925.471 646.476L1066.5 843.819L1072.66 835.319Z" fill="#7B1AA7"/>
<path d="M1085.04 835.32C902.512 587.72 694.335 304.794 513.513 56.1818L513.489 56.2158C693.742 305.19 899.359 592.502 1078.88 843.82L1085.04 835.32Z" fill="#7B1AA7"/>
<path d="M1097.42 835.32C914.891 587.72 706.714 304.794 525.892 56.1818L525.868 56.2158C706.121 305.19 911.738 592.502 1091.26 843.82L1097.42 835.32Z" fill="#7B1AA7"/>
<path d="M1109.8 835.32C927.27 587.72 719.093 304.794 538.271 56.1818L538.247 56.2158C718.5 305.19 924.117 592.502 1103.63 843.82L1109.8 835.32Z" fill="#7B1AA7"/>
<path d="M1122.18 835.32C939.649 587.72 731.472 304.794 550.65 56.1818L550.626 56.2158C730.879 305.19 936.496 592.502 1116.01 843.82L1122.18 835.32Z" fill="#7B1AA7"/>
<path d="M1134.56 835.319C952.028 587.719 743.851 304.794 563.029 56.1818L563.005 56.2158C743.258 305.19 948.875 592.502 1128.39 843.819L1134.56 835.319Z" fill="#7B1AA7"/>
<path d="M1146.94 835.319C964.407 587.719 756.23 304.794 575.408 56.1818L575.384 56.2158C755.637 305.19 961.254 592.502 1140.77 843.819L1146.94 835.319Z" fill="#7B1AA7"/>
<path d="M1159.32 835.319C976.79 587.719 768.616 304.79 587.787 56.1818L587.763 56.2158C768.016 305.194 973.629 592.507 1153.15 843.819L1159.32 835.319Z" fill="#7B1AA7"/>
<path d="M1171.69 835.319C989.169 587.719 780.995 304.79 600.166 56.1818L600.142 56.2158C780.395 305.194 986.008 592.507 1165.53 843.819L1171.69 835.319Z" fill="#7B1AA7"/>
<path d="M1184.07 835.319C1001.55 587.719 793.374 304.79 612.545 56.1818L612.521 56.2158C792.774 305.194 998.387 592.507 1177.91 843.819L1184.07 835.319Z" fill="#7B1AA7"/>
<path d="M1196.45 835.319C1013.93 587.719 805.753 304.79 624.924 56.1818L624.9 56.2158C805.153 305.194 1010.77 592.507 1190.29 843.819L1196.45 835.319Z" fill="#7B1AA7"/>
<path d="M1208.83 835.319C1026.31 587.719 818.132 304.79 637.303 56.1818L637.279 56.2158C817.532 305.194 1023.15 592.506 1202.67 843.819L1208.83 835.319Z" fill="#7B1AA7"/>
<path d="M1221.22 835.307C1038.68 587.726 830.51 304.786 649.681 56.1818L649.657 56.2158C829.908 305.198 1035.53 592.495 1215.03 843.836L1221.22 835.307Z" fill="#7B1AA7"/>
<path d="M1233.6 835.307C1051.06 587.726 842.889 304.786 662.06 56.1818L662.036 56.2158C842.287 305.198 1047.91 592.495 1227.41 843.836L1233.6 835.307Z" fill="#7B1AA7"/>
<path d="M1245.98 835.307C1063.43 587.726 855.267 304.786 674.438 56.1818L674.414 56.2158C854.665 305.198 1060.29 592.495 1239.79 843.836L1245.98 835.307Z" fill="#7B1AA7"/>
<path d="M1258.36 835.307C1075.81 587.726 867.647 304.786 686.818 56.1818L686.794 56.2158C867.045 305.198 1072.67 592.495 1252.17 843.836L1258.36 835.307Z" fill="#7B1AA7"/>
<path d="M1270.74 835.307C1088.19 587.727 880.027 304.786 699.197 56.1818L699.173 56.2158C879.423 305.199 1085.05 592.495 1264.55 843.836L1270.74 835.307Z" fill="#7B1AA7"/>
<path d="M1283.12 835.307C1100.57 587.727 892.406 304.786 711.576 56.1818L711.552 56.2158C891.802 305.199 1097.43 592.495 1276.93 843.836L1283.12 835.307Z" fill="#7B1AA7"/>
<path d="M1295.5 835.307C1112.95 587.727 904.784 304.786 723.955 56.1818L723.931 56.2158C904.18 305.199 1109.81 592.495 1289.31 843.836L1295.5 835.307Z" fill="#7B1AA7"/>
<path d="M1307.88 835.307C1125.33 587.727 917.163 304.786 736.333 56.1818L736.309 56.2158C916.559 305.199 1122.18 592.495 1301.69 843.836L1307.88 835.307Z" fill="#7B1AA7"/>
<path d="M1320.25 835.307C1137.71 587.727 929.542 304.786 748.713 56.1818L748.689 56.2158C928.938 305.199 1134.56 592.495 1314.06 843.836L1320.25 835.307Z" fill="#7B1AA7"/>
<path d="M1332.63 835.307C1150.09 587.727 941.922 304.786 761.092 56.1818L761.068 56.2158C941.318 305.199 1146.94 592.495 1326.45 843.836L1332.63 835.307Z" fill="#7B1AA7"/>
<path d="M1345.01 835.307C1162.46 587.727 954.3 304.786 773.47 56.1818L773.446 56.2158C953.696 305.199 1159.32 592.495 1338.82 843.836L1345.01 835.307Z" fill="#7B1AA7"/>
<path d="M1357.39 835.307C1174.84 587.727 966.679 304.786 785.849 56.1818L785.825 56.2158C966.075 305.199 1171.7 592.495 1351.2 843.836L1357.39 835.307Z" fill="#7B1AA7"/>
<path d="M1369.77 835.307C1184.8 584.406 981.323 307.936 798.228 56.1818L798.204 56.2158C980.702 308.272 1181.71 589.208 1363.58 843.836L1369.77 835.307Z" fill="#7B1AA7"/>
<path d="M1382.15 835.307C1198.92 586.799 989.989 302.795 808.489 53.2618L808.465 53.2948C989.388 303.203 1195.79 591.562 1375.96 843.836L1382.15 835.307Z" fill="#7B1AA7"/>
<path d="M1394.53 835.307C1211.3 586.799 1002.37 302.795 820.868 53.2618L820.844 53.2948C1001.77 303.203 1208.17 591.562 1388.34 843.836L1394.53 835.307Z" fill="#7B1AA7"/>
<path d="M1406.91 835.307C1223.68 586.799 1014.75 302.795 833.247 53.2618L833.223 53.2948C1014.15 303.203 1220.54 591.562 1400.72 843.836L1406.91 835.307Z" fill="#7B1AA7"/>
<path d="M1419.29 835.307C1236.06 586.799 1027.13 302.794 845.626 53.2618L845.602 53.2948C1026.52 303.203 1232.92 591.562 1413.1 843.836L1419.29 835.307Z" fill="#7B1AA7"/>
<path d="M1431.67 835.307C1248.44 586.799 1039.51 302.794 858.005 53.2618L857.981 53.2948C1038.9 303.203 1245.3 591.562 1425.48 843.836L1431.67 835.307Z" fill="#7B1AA7"/>
<path d="M1437.84 826.851C1256.59 581.051 1049.93 300.118 870.402 53.2868L870.378 53.3208C1049.34 300.513 1253.51 585.735 1431.72 835.281L1437.84 826.851Z" fill="#7B1AA7"/>
<path d="M1437.71 809.961C1260.51 569.468 1058.34 294.742 882.782 53.2878L882.758 53.3218C1057.82 295.055 1257.48 574.064 1431.84 818.055L1437.71 809.961Z" fill="#7B1AA7"/>
<path d="M1437.63 793.018C1265.04 558.939 1066.25 288.47 895.16 53.2878L895.136 53.3218C1018.48 223.64 1174.88 441.573 1298.04 613.554L1431.93 800.879L1437.63 793.018Z" fill="#7B1AA7"/>
<path d="M1437.53 776.093C1268.27 546.386 1075.24 283.896 907.539 53.2858L907.515 53.3198C1074.72 284.229 1265.48 550.635 1432.02 783.686L1437.53 776.093Z" fill="#7B1AA7"/>
<path d="M1437.44 759.167C1272.14 534.867 1083.69 278.467 919.919 53.2858L919.895 53.3198C1083.16 278.821 1269.5 538.901 1432.12 766.493L1437.44 759.167Z" fill="#7B1AA7"/>
<path d="M1437.34 742.242C1276.05 523.287 1092.12 273.071 932.297 53.2868L932.273 53.3198C1091.63 273.38 1273.47 527.229 1432.22 749.3L1437.34 742.242Z" fill="#7B1AA7"/>
<path d="M1437.23 725.335C1280.58 512.591 1100.04 266.916 944.676 53.2908L944.652 53.3248C1056.7 207.991 1198.75 405.911 1310.67 562.045L1432.33 732.091L1437.23 725.335Z" fill="#7B1AA7"/>
<path d="M1437.14 708.392C1283.85 500.157 1108.99 262.256 957.055 53.2918L957.031 53.3248C1108.54 262.524 1281.44 503.853 1432.41 714.915L1437.14 708.392Z" fill="#7B1AA7"/>
<path d="M1437.05 691.467C1287.76 488.581 1117.43 256.841 969.433 53.2868L969.409 53.3208C1117 257.105 1285.41 492.176 1432.51 697.722L1437.05 691.467Z" fill="#7B1AA7"/>
<path d="M1436.96 674.524C1294 480.373 1123.93 248.596 981.813 53.2858L981.789 53.3198C1123.52 249.172 1291.71 483.546 1432.59 680.546L1436.96 674.524Z" fill="#7B1AA7"/>
<path d="M1436.86 657.599C1296.09 466.289 1133.87 245.317 994.191 53.2858L994.167 53.3198C1094.88 192.387 1222.65 370.211 1323.28 510.544L1432.69 663.353L1436.86 657.599Z" fill="#7B1AA7"/>
<path d="M1436.78 640.658C1301.68 457.051 1140.92 237.924 1006.57 53.2878L1006.55 53.3218C1140.54 238.468 1299.55 460.012 1432.78 646.177L1436.78 640.658Z" fill="#7B1AA7"/>
<path d="M1436.68 623.732C1303.87 443.092 1150.76 234.554 1018.95 53.2828L1018.93 53.3168C1113.98 184.557 1234.59 352.376 1329.57 484.812L1432.87 628.983L1436.68 623.732Z" fill="#7B1AA7"/>
<path d="M1436.61 606.775C1307.71 431.575 1159.23 229.138 1031.33 53.2878L1031.3 53.3218C1123.53 180.659 1240.56 343.454 1332.74 471.914L1432.94 611.825L1436.61 606.775Z" fill="#7B1AA7"/>
<path d="M1436.51 589.849C1324.89 437.912 1153.44 204.303 1043.71 53.2868L1043.68 53.3208C1152.8 203.889 1323.3 441.522 1433.04 594.633L1436.51 589.849Z" fill="#7B1AA7"/>
<path d="M1436.44 572.89C1316.99 410.481 1174.89 216.581 1056.09 53.2898L1056.06 53.3238C1174.56 217.052 1315.27 412.867 1433.11 577.473L1436.44 572.89Z" fill="#7B1AA7"/>
<path d="M1436.36 555.948C1320.85 398.793 1183.39 211.248 1068.47 53.2878L1068.44 53.3218C1183.07 211.696 1319.17 401.125 1433.2 560.296L1436.36 555.948Z" fill="#7B1AA7"/>
<path d="M1436.28 538.989C1324.67 387.149 1191.88 205.912 1080.84 53.2888L1080.82 53.3228C1191.58 206.337 1323.09 389.337 1433.27 543.137L1436.28 538.989Z" fill="#7B1AA7"/>
<path d="M1436.2 522.048C1328.52 375.482 1200.38 200.568 1093.23 53.2888L1093.2 53.3228C1200.08 200.996 1327.01 377.58 1433.36 525.962L1436.2 522.048Z" fill="#7B1AA7"/>
<path d="M1436.12 505.089C1332.34 363.852 1208.87 195.237 1105.6 53.2888L1105.58 53.3228C1208.59 195.637 1330.95 365.78 1433.43 508.802L1436.12 505.089Z" fill="#7B1AA7"/>
<path d="M1436.04 488.147C1336.17 352.199 1217.37 189.888 1117.98 53.2878L1117.96 53.3218C1217.09 190.295 1334.87 354.005 1433.52 491.626L1436.04 488.147Z" fill="#7B1AA7"/>
<path d="M1435.98 471.172C1340.01 340.533 1225.86 184.56 1130.36 53.2898L1130.34 53.3238C1225.6 184.936 1338.78 342.244 1433.58 474.484L1435.98 471.172Z" fill="#7B1AA7"/>
<path d="M1435.89 454.23C1352.62 340.656 1224.68 166.069 1142.74 53.2878L1142.72 53.3218C1224.21 165.756 1351.63 343.078 1433.66 457.308L1435.89 454.23Z" fill="#7B1AA7"/>
<path d="M1435.83 437.254C1347.7 317.197 1242.85 173.884 1155.12 53.2878L1155.1 53.3218C1242.61 174.23 1346.61 318.72 1433.72 440.164L1435.83 437.254Z" fill="#7B1AA7"/>
<path d="M1435.76 420.296C1359.54 316.354 1242.49 156.507 1167.5 53.2898L1167.47 53.3238C1242.05 156.231 1358.72 318.458 1433.79 423.007L1435.76 420.296Z" fill="#7B1AA7"/>
<path d="M1435.69 403.337C1363.03 304.171 1251.4 151.72 1179.88 53.2898L1179.85 53.3238C1250.98 151.469 1362.24 306.177 1433.87 405.847L1435.69 403.337Z" fill="#7B1AA7"/>
<path d="M1435.61 386.378C1366.49 292.017 1260.31 146.934 1192.26 53.2868L1192.23 53.3208C1259.9 146.706 1365.78 293.867 1433.94 388.687L1435.61 386.378Z" fill="#7B1AA7"/>
<path d="M1435.55 369.403C1369.98 279.829 1269.21 142.162 1204.64 53.2898L1204.61 53.3238C1268.83 141.935 1369.3 281.594 1434 371.544L1435.55 369.403Z" fill="#7B1AA7"/>
<path d="M1435.49 352.428C1380.94 278.009 1271.36 127.971 1217.01 53.2899L1216.99 53.3249C1271.19 128.228 1380.07 279.24 1434.06 354.402L1435.49 352.428Z" fill="#7B1AA7"/>
<path d="M1435.44 335.435C1376.92 255.495 1287.02 132.6 1229.39 53.2898L1229.37 53.3238C1286.68 132.403 1376.37 257.003 1434.11 337.275L1435.44 335.435Z" fill="#7B1AA7"/>
<path d="M1435.39 318.46C1387.05 252.483 1289.94 119.482 1241.77 53.2898L1241.75 53.3238C1289.79 119.71 1386.31 253.533 1434.17 320.133L1435.39 318.46Z" fill="#7B1AA7"/>
<path d="M1435.32 301.485C1390.1 239.719 1299.23 115.233 1254.15 53.2898L1254.13 53.3248C1299.09 115.458 1389.42 240.683 1434.23 302.99L1435.32 301.485Z" fill="#7B1AA7"/>
<path d="M1435.26 284.51C1393.15 226.964 1308.52 110.992 1266.53 53.2908L1266.51 53.3258C1308.39 111.197 1392.54 227.824 1434.29 285.848L1435.26 284.51Z" fill="#7B1AA7"/>
<path d="M1435.21 267.522C1396.2 214.211 1317.8 106.762 1278.91 53.2958L1278.89 53.3308C1317.69 106.929 1395.66 214.965 1434.34 268.722L1435.21 267.522Z" fill="#7B1AA7"/>
<path d="M1435.17 250.526C1399.25 201.438 1327.09 102.512 1291.29 53.2968L1291.27 53.3308C1326.99 102.673 1398.78 202.119 1434.39 251.597L1435.17 250.526Z" fill="#7B1AA7"/>
<path d="M1435.12 233.533C1402.32 188.664 1336.38 98.2608 1303.67 53.2918L1303.64 53.3258C1336.28 98.4188 1401.89 189.276 1434.44 234.47L1435.12 233.533Z" fill="#7B1AA7"/>
<path d="M1435.07 216.544C1405.37 175.903 1345.67 94.0228 1316.05 53.2928L1316.02 53.3268C1345.59 94.1548 1405 176.421 1434.49 217.344L1435.07 216.544Z" fill="#7B1AA7"/>
<path d="M1435.03 199.535C1408.43 163.127 1354.96 89.7768 1328.43 53.2928L1328.41 53.3268C1354.88 89.8998 1408.11 163.584 1434.52 200.235L1435.03 199.535Z" fill="#7B1AA7"/>
<path d="M1434.98 182.541L1340.81 53.2947C1341.2 53.0557 1434.6 185.041 1434.98 182.541Z" fill="#7B1AA7"/>
<path d="M1434.95 165.531C1434.92 165.56 1353.19 53.1599 1353.16 53.3279C1353.56 53.0699 1434.63 167.646 1434.95 165.531Z" fill="#7B1AA7"/>
<path d="M1434.92 148.506C1434.9 148.539 1365.57 53.1668 1365.54 53.3308C1365.88 53.1068 1434.65 150.319 1434.92 148.506Z" fill="#7B1AA7"/>
</g>
</g>
</g>
</g>
</g>
</svg>
