<svg xmlns="http://www.w3.org/2000/svg" xmlns:xlink="http://www.w3.org/1999/xlink" width="1366" height="510" viewBox="0 0 1366 510">
  <defs>
    <filter id="Orange_Band" x="0" y="0" width="1366" height="510" filterUnits="userSpaceOnUse">
      <feOffset dy="10" input="SourceAlpha"/>
      <feGaussianBlur result="blur"/>
      <feFlood flood-color="#390c06"/>
      <feComposite operator="in" in2="blur"/>
      <feComposite in="SourceGraphic"/>
    </filter>
    <clipPath id="clip-path">
      <rect id="Orange_Band-2" data-name="Orange Band" width="1366" height="500" transform="translate(0 -0.253)" fill="#44c0a8"/>
    </clipPath>
    <clipPath id="clip-path-2">
      <rect id="Rectangle_14" data-name="Rectangle 14" width="2128.239" height="903.093" fill="none"/>
    </clipPath>
  </defs>
  <g id="Orange_Band-3" data-name="Orange Band" transform="translate(0 0.253)">
    <g transform="matrix(1, 0, 0, 1, 0, -0.25)" filter="url(#Orange_Band)">
      <rect id="Orange_Band-4" data-name="Orange Band" width="1366" height="500" fill="#f0bf5d"/>
    </g>
    <g id="Mask_Group_1" data-name="Mask Group 1" clip-path="url(#clip-path)">
      <g id="Pattern" transform="translate(-381.12 -222.583)">
        <g id="Group_15" data-name="Group 15" clip-path="url(#clip-path-2)">
          <g id="Group_14" data-name="Group 14">
            <g id="Group_13" data-name="Group 13" clip-path="url(#clip-path-2)">
              <g id="Group_12" data-name="Group 12" opacity="0.45" style="mix-blend-mode: overlay;isolation: isolate">
                <g id="Group_11" data-name="Group 11">
                  <g id="Group_10" data-name="Group 10" clip-path="url(#clip-path-2)">
                    <line id="Line_1" data-name="Line 1" x1="4.106" y2="4.804" transform="translate(2120.083 891.498)" fill="none" stroke="#7b1aa7" stroke-width="0.051"/>
                    <path id="Path_5" data-name="Path 5" d="M20.8,0C20.828.045-.154,24.411,0,24.45-.043,24.36,21.1.075,20.8,0" transform="translate(2103.354 871.973)" fill="#7b1aa7"/>
                    <path id="Path_6" data-name="Path 6" d="M37.485,0,0,43.93C-.057,44.011,37.921.052,37.485,0" transform="translate(2086.656 852.467)" fill="#7b1aa7"/>
                    <path id="Path_7" data-name="Path 7" d="M54.1,0,0,63.48C-.152,63.429,55.014.177,54.1,0" transform="translate(2069.994 832.923)" fill="#7b1aa7"/>
                    <path id="Path_8" data-name="Path 8" d="M70.69,0C70.721.041-.16,83.008,0,83.044-.183,82.7,71.9.292,70.69,0" transform="translate(2053.369 813.398)" fill="#7b1aa7"/>
                    <path id="Path_9" data-name="Path 9" d="M87.315,0C87.345.041-.159,102.534,0,102.57-.169,102.106,88.782.371,87.315,0" transform="translate(2036.711 793.873)" fill="#7b1aa7"/>
                    <path id="Path_10" data-name="Path 10" d="M103.957,0,0,122.077C-.24,121.68,105.877.452,103.957,0" transform="translate(2020.02 774.328)" fill="#7b1aa7"/>
                    <path id="Path_11" data-name="Path 11" d="M120.566,0C90.55,35.34,30.078,106.373,0,141.623l.033.038C30.171,106.463,90.888,35.718,121.088.611L120.566,0" transform="translate(2003.362 754.784)" fill="#7b1aa7"/>
                    <path id="Path_12" data-name="Path 12" d="M137.174,0C103.026,40.22,34.224,121.058,0,161.168l.033.038C34.326,121.157,103.424,40.665,137.795.725L137.174,0" transform="translate(1986.705 735.24)" fill="#7b1aa7"/>
                    <path id="Path_13" data-name="Path 13" d="M153.782,0C115.492,45.087,38.36,135.727,0,180.713l.033.038C38.495,135.863,115.972,45.626,154.5.841L153.782,0" transform="translate(1970.048 715.695)" fill="#7b1aa7"/>
                    <path id="Path_14" data-name="Path 14" d="M170.374,0C127.963,49.982,42.509,150.434,0,200.277l.032.038C42.647,150.572,128.511,50.6,171.224.993L170.374,0" transform="translate(1953.39 696.132)" fill="#7b1aa7"/>
                    <path id="Path_15" data-name="Path 15" d="M186.966,0C140.432,54.87,46.655,165.136,0,219.84l.033.038C46.8,165.282,141.055,55.573,187.947,1.146L186.966,0" transform="translate(1936.733 676.569)" fill="#7b1aa7"/>
                    <path id="Path_16" data-name="Path 16" d="M203.559,0C152.893,59.752,50.794,179.829,0,239.4l.033.038C50.968,180,153.607,60.559,204.669,1.3L203.559,0" transform="translate(1920.076 657.006)" fill="#7b1aa7"/>
                    <path id="Path_17" data-name="Path 17" d="M220.15,0C165.364,64.646,54.944,194.536,0,258.968l.033.037C55.12,194.711,166.147,65.531,221.391,1.452L220.15,0" transform="translate(1903.419 637.442)" fill="#7b1aa7"/>
                    <path id="Path_18" data-name="Path 18" d="M236.742,0C177.821,69.523,59.078,209.225,0,278.531l.034.038C59.289,209.437,178.7,70.52,238.114,1.6L236.742,0" transform="translate(1886.762 617.879)" fill="#7b1aa7"/>
                    <path id="Path_19" data-name="Path 19" d="M253.318,0C190.285,74.426,63.229,223.95,0,298.114l.034.038C63.443,224.164,191.252,75.52,254.853,1.8L253.318,0" transform="translate(1870.104 598.296)" fill="#7b1aa7"/>
                    <path id="Path_20" data-name="Path 20" d="M269.893,0C193.418,90.219,75.877,228.851,0,317.7l.033.039C75.651,229.342,194.83,91.042,271.591,1.986L269.893,0" transform="translate(1853.447 578.714)" fill="#7b1aa7"/>
                    <path id="Path_21" data-name="Path 21" d="M286.485,0C205.3,95.77,80.529,242.929,0,337.26l.033.038C80.321,243.487,206.83,96.675,288.314,2.14L286.485,0" transform="translate(1836.791 559.151)" fill="#7b1aa7"/>
                    <path id="Path_22" data-name="Path 22" d="M303.043,0C217.194,101.366,85.193,257.06,0,356.861l.033.038C84.977,257.656,218.823,102.338,305.068,2.369L303.043,0" transform="translate(1820.134 539.549)" fill="#7b1aa7"/>
                    <path id="Path_23" data-name="Path 23" d="M319.618,0C229.071,106.925,89.872,271.19,0,376.444l.033.038C89.618,271.786,230.833,108,321.807,2.56L319.618,0" transform="translate(1803.477 519.966)" fill="#7b1aa7"/>
                    <path id="Path_24" data-name="Path 24" d="M336.194,0C240.952,112.488,94.531,285.295,0,396.028l.033.038C94.281,285.941,242.839,113.66,338.546,2.751L336.194,0" transform="translate(1786.819 500.385)" fill="#7b1aa7"/>
                    <path id="Path_25" data-name="Path 25" d="M352.77,0C252.827,118.045,99.2,299.412,0,415.61l.033.037C98.931,300.084,254.849,119.323,355.284,2.942L352.77,0" transform="translate(1770.163 480.802)" fill="#7b1aa7"/>
                    <path id="Path_26" data-name="Path 26" d="M369.329,0C264.718,123.638,103.873,313.55,0,435.211l.033.038C103.584,314.245,266.846,124.99,372.04,3.171L369.329,0" transform="translate(1753.505 461.2)" fill="#7b1aa7"/>
                    <path id="Path_27" data-name="Path 27" d="M385.887,0C276.6,129.217,108.53,327.674,0,454.813l.033.038C108.245,328.419,278.853,130.67,388.794,3.4L385.887,0" transform="translate(1736.849 441.598)" fill="#7b1aa7"/>
                    <path id="Path_28" data-name="Path 28" d="M402.446,0C288.455,134.775,113.191,341.8,0,474.415l.033.037C112.906,342.591,290.879,136.372,405.549,3.63L402.446,0" transform="translate(1720.192 421.997)" fill="#7b1aa7"/>
                    <path id="Path_29" data-name="Path 29" d="M419.005,0C300.321,140.342,117.874,355.951,0,494.016l.033.038C117.543,356.737,302.9,142.064,422.3,3.859L419.005,0" transform="translate(1703.535 402.395)" fill="#7b1aa7"/>
                    <path id="Path_30" data-name="Path 30" d="M435.548,0C299.393,161.292,136.841,353.158,0,513.637l.033.038c137.18-160.1,301.181-350.27,439.043-509.549L435.548,0" transform="translate(1686.877 382.775)" fill="#7b1aa7"/>
                    <path id="Path_31" data-name="Path 31" d="M452.124,0C324.069,151.49,127.209,384.219,0,533.22l.033.038C126.851,385.066,326.923,153.436,455.815,4.316L452.124,0" transform="translate(1670.221 363.192)" fill="#7b1aa7"/>
                    <path id="Path_32" data-name="Path 32" d="M468.666,0C335.942,157.082,131.857,398.35,0,552.841l.033.038c131.491-153.606,338.9-393.738,472.554-548.3L468.666,0" transform="translate(1653.563 343.571)" fill="#7b1aa7"/>
                    <path id="Path_33" data-name="Path 33" d="M485.225,0C333.509,179.722,152.469,393.613,0,572.442l.033.038C152.9,394.1,335.726,182.3,489.34,4.815L485.225,0" transform="translate(1636.907 323.97)" fill="#7b1aa7"/>
                    <path id="Path_34" data-name="Path 34" d="M501.768,0C344.9,185.908,157.68,407.119,0,592.063l.034.038C158.127,407.623,347.212,188.59,506.113,5.082L501.768,0" transform="translate(1620.249 304.349)" fill="#7b1aa7"/>
                    <path id="Path_35" data-name="Path 35" d="M518.31,0C356.276,192.072,162.894,420.629,0,611.684l.032.038C163.349,421.142,358.714,194.9,522.882,5.349L518.31,0" transform="translate(1603.593 284.729)" fill="#7b1aa7"/>
                    <path id="Path_36" data-name="Path 36" d="M534.852,0C365.513,200.744,169.926,432.064,0,631.305l.033.038c123.041-143.669,280.333-326,404.463-469.591L539.654,5.617Z" transform="translate(1586.936 265.108)" fill="#7b1aa7"/>
                    <path id="Path_37" data-name="Path 37" d="M551.412,0C376.815,206.96,175.2,445.5,0,650.906l.033.038c126.854-148.125,289.029-336.1,417.03-484.12L556.409,5.846Z" transform="translate(1570.279 245.506)" fill="#7b1aa7"/>
                    <path id="Path_38" data-name="Path 38" d="M567.938,0C387.379,214.071,181.091,458.248,0,670.546l.033.038C181.347,458.9,390.375,217.2,573.2,6.152L567.938,0" transform="translate(1553.622 225.867)" fill="#7b1aa7"/>
                    <path id="Path_39" data-name="Path 39" d="M584.481,0C398.661,220.332,186.394,471.689,0,690.167l.033.038C186.623,472.326,401.8,223.62,589.968,6.419L584.481,0" transform="translate(1536.964 206.246)" fill="#7b1aa7"/>
                    <path id="Path_40" data-name="Path 40" d="M601.007,0C413.188,222.96,188.936,488.162,0,709.807l.033.038C189.5,488.8,416.185,226.444,606.756,6.725L601.007,0" transform="translate(1520.307 186.607)" fill="#7b1aa7"/>
                    <path id="Path_41" data-name="Path 41" d="M617.55,0C421.221,232.871,196.949,498.533,0,729.428l.033.038c197.2-230.219,424.617-492.99,623.495-722.474L617.55,0" transform="translate(1503.651 166.985)" fill="#7b1aa7"/>
                    <path id="Path_42" data-name="Path 42" d="M634.076,0C432.535,239.189,202.235,511.973,0,749.067l.032.038C202.522,512.707,436.041,242.875,640.314,7.3L634.076,0" transform="translate(1486.995 147.346)" fill="#7b1aa7"/>
                    <path id="Path_43" data-name="Path 43" d="M650.6,0C443.8,245.454,207.524,525.417,0,768.707l.032.038C207.814,526.165,447.477,249.327,657.1,7.6Z" transform="translate(1470.337 127.706)" fill="#7b1aa7"/>
                    <path id="Path_44" data-name="Path 44" d="M667.145,0C455.122,251.76,212.792,538.818,0,788.329l.033.037C213.127,539.628,458.865,255.7,673.873,7.871L667.145,0" transform="translate(1453.681 108.086)" fill="#7b1aa7"/>
                    <path id="Path_45" data-name="Path 45" d="M683.671,0C466.406,258.042,218.069,552.248,0,807.968l.033.038C218.43,553.1,470.286,262.133,690.661,8.176L683.671,0" transform="translate(1437.023 88.446)" fill="#7b1aa7"/>
                    <path id="Path_46" data-name="Path 46" d="M700.2,0C477.686,264.32,223.346,565.677,0,827.608l.033.037c223.7-261.074,481.68-559.074,707.415-819.163L700.2,0" transform="translate(1420.366 68.806)" fill="#7b1aa7"/>
                    <path id="Path_47" data-name="Path 47" d="M716.724,0C488.951,270.582,228.643,579.133,0,847.247l.032.038c228.985-267.267,493.121-572.259,724.2-838.5L716.724,0" transform="translate(1403.71 49.166)" fill="#7b1aa7"/>
                    <path id="Path_48" data-name="Path 48" d="M733.25,0C501.167,275.736,233.129,593.492,0,866.887l.033.038C168.864,669.816,384.875,419.88,555.375,223.082L741.022,9.094Z" transform="translate(1387.053 29.527)" fill="#7b1aa7"/>
                    <path id="Path_49" data-name="Path 49" d="M749.743,0C511.508,283.175,239.207,606.041,0,886.564l.033.038C239.613,606.988,516,287.942,757.841,9.476L749.743,0" transform="translate(1370.397 9.849)" fill="#7b1aa7"/>
                    <path id="Path_50" data-name="Path 50" d="M758.023,0C512.828,291.314,245.926,608.029,0,896.365l.033.038C246.226,609,517.493,296.12,766.221,9.591L758.023,0" transform="translate(1353.715 0.076)" fill="#7b1aa7"/>
                    <path id="Path_51" data-name="Path 51" d="M758.023,0C517.115,286.257,241.861,612.755,0,896.365l.033.038C242.251,613.687,521.751,291.181,766.221,9.591L758.023,0" transform="translate(1337.058 0.076)" fill="#7b1aa7"/>
                    <path id="Path_52" data-name="Path 52" d="M758.021,0C517.115,286.257,241.86,612.755,0,896.365l.032.038C242.25,613.687,521.75,291.181,766.219,9.591L758.021,0" transform="translate(1320.402 0.076)" fill="#7b1aa7"/>
                    <path id="Path_53" data-name="Path 53" d="M760.824,0C520.02,286.16,241.936,615.964,0,899.643l.033.038C175.2,695.106,399.426,435.835,576.346,231.611L769.022,9.591,760.824,0" transform="translate(1300.943 0.076)" fill="#7b1aa7"/>
                    <path id="Path_54" data-name="Path 54" d="M760.824,0C520.019,286.16,241.936,615.964,0,899.643l.033.038C175.2,695.1,399.426,435.835,576.346,231.611L769.022,9.591Z" transform="translate(1284.286 0.076)" fill="#7b1aa7"/>
                    <path id="Path_55" data-name="Path 55" d="M760.824,0C520.019,286.16,241.936,615.964,0,899.643l.033.038C175.2,695.1,399.426,435.835,576.346,231.611L769.022,9.591,760.824,0" transform="translate(1267.629 0.076)" fill="#7b1aa7"/>
                    <path id="Path_56" data-name="Path 56" d="M760.824,0C519.033,287.311,242.767,615.01,0,899.643l.033.038C243.123,615.906,523.652,292.215,769.022,9.591L760.824,0" transform="translate(1250.972 0.076)" fill="#7b1aa7"/>
                    <path id="Path_57" data-name="Path 57" d="M760.824,0C519.033,287.31,242.767,615.01,0,899.643l.033.038C243.123,615.906,523.652,292.215,769.022,9.591L760.824,0" transform="translate(1234.315 0.076)" fill="#7b1aa7"/>
                    <path id="Path_58" data-name="Path 58" d="M760.824,0C519.033,287.311,242.767,615.01,0,899.643l.033.038C243.124,615.906,523.652,292.215,769.022,9.591L760.824,0" transform="translate(1217.659 0.076)" fill="#7b1aa7"/>
                    <path id="Path_59" data-name="Path 59" d="M760.824,0C520.035,286.177,241.907,615.929,0,899.643l.033.038c175.2-204.538,399.38-463.861,576.313-668.071L769.022,9.591Z" transform="translate(1201.002 0.076)" fill="#7b1aa7"/>
                    <path id="Path_60" data-name="Path 60" d="M760.824,0C516.787,290.008,244.99,612.343,0,899.643l.033.038C180.981,688.425,393.59,442.553,576.346,231.611L769.022,9.591Z" transform="translate(1184.344 0.076)" fill="#7b1aa7"/>
                    <path id="Path_61" data-name="Path 61" d="M760.824,0C516.787,290.008,244.99,612.343,0,899.643l.033.038C180.98,688.425,393.59,442.553,576.346,231.611L769.022,9.591Z" transform="translate(1167.688 0.076)" fill="#7b1aa7"/>
                    <path id="Path_62" data-name="Path 62" d="M760.824,0C516.787,290.008,244.99,612.343,0,899.643l.033.038C180.98,688.425,393.59,442.553,576.346,231.611L769.022,9.591Z" transform="translate(1151.031 0.076)" fill="#7b1aa7"/>
                    <path id="Path_63" data-name="Path 63" d="M760.824,0C520.032,286.174,241.9,615.916,0,899.643l.033.038c175.2-204.535,399.4-463.842,576.313-668.071L769.022,9.591Z" transform="translate(1134.374 0.076)" fill="#7b1aa7"/>
                    <path id="Path_64" data-name="Path 64" d="M760.824,0C520.032,286.174,241.9,615.916,0,899.643l.033.038c175.2-204.535,399.4-463.843,576.313-668.071L769.022,9.591Z" transform="translate(1117.717 0.076)" fill="#7b1aa7"/>
                    <path id="Path_65" data-name="Path 65" d="M760.824,0C520.032,286.174,241.9,615.916,0,899.643l.033.038c175.2-204.535,399.4-463.842,576.313-668.071L769.022,9.591Z" transform="translate(1101.06 0.076)" fill="#7b1aa7"/>
                    <path id="Path_66" data-name="Path 66" d="M760.824,0C520.032,286.174,241.9,615.916,0,899.643l.033.038c175.2-204.535,399.4-463.842,576.313-668.071L769.022,9.591Z" transform="translate(1084.403 0.076)" fill="#7b1aa7"/>
                    <path id="Path_67" data-name="Path 67" d="M760.824,0C520.032,286.174,241.9,615.916,0,899.643l.033.038c175.2-204.535,399.4-463.842,576.313-668.071L769.022,9.591Z" transform="translate(1067.746 0.076)" fill="#7b1aa7"/>
                    <path id="Path_68" data-name="Path 68" d="M760.824,0C520.032,286.174,241.9,615.916,0,899.643l.033.038c175.2-204.535,399.4-463.842,576.313-668.071L769.022,9.591Z" transform="translate(1051.09 0.076)" fill="#7b1aa7"/>
                    <path id="Path_69" data-name="Path 69" d="M760.824,0C520.029,286.17,241.891,615.911,0,899.643l.033.038c175.2-204.539,399.41-463.826,576.313-668.071L769.022,9.591Z" transform="translate(1034.433 0.076)" fill="#7b1aa7"/>
                    <path id="Path_70" data-name="Path 70" d="M760.824,0C520.032,286.174,241.9,615.916,0,899.643l.033.038c175.2-204.535,399.4-463.842,576.313-668.071L769.022,9.591Z" transform="translate(1017.776 0.076)" fill="#7b1aa7"/>
                    <path id="Path_71" data-name="Path 71" d="M760.824,0C519.036,287.314,242.742,614.981,0,899.643l.033.038C243.149,615.934,523.65,292.211,769.022,9.591L760.824,0" transform="translate(1001.119 0.076)" fill="#7b1aa7"/>
                    <path id="Path_72" data-name="Path 72" d="M760.824,0C514.734,292.393,246.832,610.249,0,899.643l.033.038C247.128,611.224,519.376,297.168,769.022,9.591L760.824,0" transform="translate(984.462 0.076)" fill="#7b1aa7"/>
                    <path id="Path_73" data-name="Path 73" d="M760.824,0C514.734,292.393,246.832,610.249,0,899.643l.033.038C247.128,611.224,519.375,297.168,769.022,9.591L760.824,0" transform="translate(967.805 0.076)" fill="#7b1aa7"/>
                    <path id="Path_74" data-name="Path 74" d="M760.824,0C519.036,287.314,242.742,614.981,0,899.643l.033.038C243.149,615.934,523.65,292.211,769.022,9.591L760.824,0" transform="translate(951.148 0.076)" fill="#7b1aa7"/>
                    <path id="Path_75" data-name="Path 75" d="M760.824,0C519.025,287.3,242.747,614.986,0,899.643l.033.038C243.143,615.929,523.661,292.224,769.022,9.591L760.824,0" transform="translate(934.492 0.076)" fill="#7b1aa7"/>
                    <path id="Path_76" data-name="Path 76" d="M760.823,0C518.958,287.226,242.775,615.02,0,899.643l.032.038C243.113,615.894,523.724,292.3,769.021,9.591L760.823,0" transform="translate(917.835 0.076)" fill="#7b1aa7"/>
                    <path id="Path_77" data-name="Path 77" d="M760.808,0C519.019,287.314,242.752,615.012,0,899.662l.033.038C243.139,615.942,523.666,292.25,769.039,9.628L760.808,0" transform="translate(901.177 0.058)" fill="#7b1aa7"/>
                    <path id="Path_78" data-name="Path 78" d="M760.808,0C519.019,287.314,242.752,615.012,0,899.662l.033.038C243.139,615.942,523.666,292.25,769.039,9.628L760.808,0" transform="translate(884.521 0.058)" fill="#7b1aa7"/>
                    <path id="Path_79" data-name="Path 79" d="M760.808,0C519.019,287.314,242.752,615.012,0,899.662l.033.038C243.139,615.942,523.666,292.25,769.039,9.628L760.808,0" transform="translate(867.864 0.058)" fill="#7b1aa7"/>
                    <path id="Path_80" data-name="Path 80" d="M763.659,0C521.959,287.229,242.839,618.262,0,903l.033.038C175.855,697.7,400.9,437.449,578.495,232.478L771.889,9.629Z" transform="translate(848.356 0.058)" fill="#7b1aa7"/>
                    <path id="Path_81" data-name="Path 81" d="M763.659,0C521.959,287.229,242.839,618.262,0,903l.033.038C175.854,697.7,400.9,437.449,578.495,232.478L771.889,9.629Z" transform="translate(831.7 0.058)" fill="#7b1aa7"/>
                    <path id="Path_82" data-name="Path 82" d="M763.659,0C521.96,287.229,242.839,618.262,0,903l.033.038C175.854,697.7,400.9,437.449,578.495,232.478L771.889,9.629Z" transform="translate(815.043 0.058)" fill="#7b1aa7"/>
                    <path id="Path_83" data-name="Path 83" d="M763.659,0C521.971,287.242,242.821,618.242,0,903l.033.038c175.844-205.307,400.86-465.6,578.462-670.558L771.89,9.629Z" transform="translate(798.385 0.058)" fill="#7b1aa7"/>
                    <path id="Path_84" data-name="Path 84" d="M763.659,0C521.971,287.242,242.821,618.242,0,903l.033.038c175.844-205.307,400.86-465.6,578.462-670.558L771.89,9.629Z" transform="translate(781.729 0.058)" fill="#7b1aa7"/>
                    <path id="Path_85" data-name="Path 85" d="M763.659,0C521.973,287.245,242.814,618.233,0,903l.033.038c175.85-205.3,400.859-465.6,578.462-670.558L771.89,9.629Z" transform="translate(765.072 0.058)" fill="#7b1aa7"/>
                    <path id="Path_86" data-name="Path 86" d="M763.659,0C521.973,287.245,242.814,618.233,0,903l.033.038c175.85-205.3,400.859-465.6,578.462-670.558L771.89,9.629Z" transform="translate(748.415 0.058)" fill="#7b1aa7"/>
                    <path id="Path_87" data-name="Path 87" d="M763.659,0C521.973,287.245,242.814,618.233,0,903l.033.038c175.85-205.3,400.86-465.6,578.463-670.558L771.89,9.629Z" transform="translate(731.758 0.058)" fill="#7b1aa7"/>
                    <path id="Path_88" data-name="Path 88" d="M763.659,0C521.973,287.245,242.814,618.233,0,903l.033.038c175.85-205.3,400.859-465.6,578.462-670.558L771.889,9.629Z" transform="translate(715.101 0.058)" fill="#7b1aa7"/>
                    <path id="Path_89" data-name="Path 89" d="M763.659,0C521.973,287.245,242.814,618.233,0,903l.033.038c175.85-205.3,400.859-465.6,578.462-670.558L771.89,9.629Z" transform="translate(698.444 0.058)" fill="#7b1aa7"/>
                    <path id="Path_90" data-name="Path 90" d="M763.659,0C521.973,287.245,242.814,618.233,0,903l.033.038c175.85-205.3,400.859-465.6,578.462-670.558L771.89,9.629Z" transform="translate(681.787 0.058)" fill="#7b1aa7"/>
                    <path id="Path_91" data-name="Path 91" d="M763.659,0C521.973,287.245,242.814,618.233,0,903l.033.038c175.85-205.3,400.859-465.6,578.462-670.558L771.89,9.629Z" transform="translate(665.131 0.058)" fill="#7b1aa7"/>
                    <path id="Path_92" data-name="Path 92" d="M763.659,0C521.973,287.245,242.814,618.233,0,903l.033.038c175.85-205.3,400.859-465.6,578.462-670.558L771.89,9.629Z" transform="translate(648.474 0.058)" fill="#7b1aa7"/>
                    <path id="Path_93" data-name="Path 93" d="M763.659,0C521.973,287.245,242.814,618.233,0,903l.033.038c175.85-205.3,400.859-465.6,578.462-670.558L771.889,9.629Z" transform="translate(631.817 0.058)" fill="#7b1aa7"/>
                    <path id="Path_94" data-name="Path 94" d="M763.659,0C521.973,287.245,242.813,618.233,0,903l.033.038c175.849-205.3,400.858-465.6,578.461-670.558L771.889,9.629Z" transform="translate(615.161 0.058)" fill="#7b1aa7"/>
                    <path id="Path_95" data-name="Path 95" d="M763.659,0C521.973,287.245,242.814,618.233,0,903l.033.038c175.85-205.3,400.86-465.6,578.462-670.558L771.89,9.629Z" transform="translate(598.503 0.058)" fill="#7b1aa7"/>
                    <path id="Path_96" data-name="Path 96" d="M763.659,0C521.973,287.245,242.814,618.233,0,903l.033.038c175.85-205.3,400.859-465.6,578.462-670.558L771.89,9.629Z" transform="translate(581.846 0.058)" fill="#7b1aa7"/>
                    <path id="Path_97" data-name="Path 97" d="M763.659,0C521.973,287.245,242.814,618.233,0,903l.033.038c175.85-205.3,400.859-465.6,578.462-670.558L771.889,9.629Z" transform="translate(565.19 0.058)" fill="#7b1aa7"/>
                    <path id="Path_98" data-name="Path 98" d="M763.659,0C520.973,288.39,243.662,617.293,0,903l.033.038C244.039,618.213,525.6,293.3,771.889,9.629L763.659,0" transform="translate(548.533 0.058)" fill="#7b1aa7"/>
                    <path id="Path_99" data-name="Path 99" d="M763.659,0C520.973,288.39,243.662,617.293,0,903l.033.038C244.039,618.213,525.6,293.3,771.889,9.629Z" transform="translate(531.876 0.058)" fill="#7b1aa7"/>
                    <path id="Path_100" data-name="Path 100" d="M763.659,0C520.973,288.39,243.662,617.293,0,903l.033.038C244.039,618.213,525.6,293.3,771.89,9.629L763.659,0" transform="translate(515.219 0.058)" fill="#7b1aa7"/>
                    <path id="Path_101" data-name="Path 101" d="M763.659,0C520.962,288.377,243.652,617.282,0,903l.033.038C244.049,618.226,525.608,293.311,771.89,9.629L763.659,0" transform="translate(498.562 0.058)" fill="#7b1aa7"/>
                    <path id="Path_102" data-name="Path 102" d="M763.659,0C520.951,288.364,243.657,617.287,0,903l.033.038C244.044,618.219,525.62,293.324,771.89,9.629L763.659,0" transform="translate(481.905 0.058)" fill="#7b1aa7"/>
                    <path id="Path_103" data-name="Path 103" d="M763.659,0C520.887,288.29,243.686,617.32,0,903l.033.038C244.016,618.186,525.684,293.4,771.89,9.629L763.659,0" transform="translate(465.248 0.058)" fill="#7b1aa7"/>
                    <path id="Path_104" data-name="Path 104" d="M763.642,0C520.945,288.376,243.661,617.31,0,903.017l.033.038C244.04,618.233,525.625,293.351,771.906,9.667Z" transform="translate(448.592 0.038)" fill="#7b1aa7"/>
                    <path id="Path_105" data-name="Path 105" d="M763.642,0C520.945,288.376,243.661,617.31,0,903.017l.032.038C244.04,618.233,525.626,293.351,771.905,9.667L763.642,0" transform="translate(431.935 0.038)" fill="#7b1aa7"/>
                    <path id="Path_106" data-name="Path 106" d="M763.642,0C520.945,288.376,243.661,617.31,0,903.017l.033.038C244.04,618.233,525.625,293.351,771.906,9.667L763.642,0" transform="translate(415.277 0.038)" fill="#7b1aa7"/>
                    <path id="Path_107" data-name="Path 107" d="M763.642,0C516.953,293.153,247.877,612.317,0,903.017l.033.038C248.382,613.216,521.471,298.1,771.906,9.667L763.642,0" transform="translate(398.621 0.038)" fill="#7b1aa7"/>
                    <path id="Path_108" data-name="Path 108" d="M763.642,0C520.945,288.376,243.661,617.31,0,903.017l.033.038C244.04,618.233,525.625,293.351,771.906,9.667L763.642,0" transform="translate(381.964 0.038)" fill="#7b1aa7"/>
                    <path id="Path_109" data-name="Path 109" d="M763.642,0C520.945,288.376,243.661,617.31,0,903.017l.032.038C244.039,618.233,525.625,293.351,771.905,9.667L763.642,0" transform="translate(365.307 0.038)" fill="#7b1aa7"/>
                    <path id="Path_110" data-name="Path 110" d="M763.642,0C520.945,288.376,243.661,617.31,0,903.017l.033.038C244.039,618.233,525.625,293.351,771.906,9.667L763.642,0" transform="translate(348.65 0.038)" fill="#7b1aa7"/>
                    <path id="Path_111" data-name="Path 111" d="M763.642,0C520.944,288.376,243.661,617.31,0,903.017l.033.038C244.04,618.233,525.625,293.351,771.906,9.667Z" transform="translate(331.994 0.038)" fill="#7b1aa7"/>
                    <path id="Path_112" data-name="Path 112" d="M763.642,0C520.945,288.376,243.661,617.31,0,903.017l.032.038C244.04,618.233,525.625,293.351,771.905,9.667L763.642,0" transform="translate(315.336 0.038)" fill="#7b1aa7"/>
                    <path id="Path_113" data-name="Path 113" d="M763.642,0C517.7,292.218,246.743,613.729,0,903.017l.033.038C247.054,614.684,522.4,297.086,771.906,9.667L763.642,0" transform="translate(298.679 0.038)" fill="#7b1aa7"/>
                    <path id="Path_114" data-name="Path 114" d="M763.642,0C520.948,288.379,243.652,617.3,0,903.017l.033.038C244.049,618.244,525.623,293.347,771.906,9.667L763.642,0" transform="translate(282.023 0.038)" fill="#7b1aa7"/>
                    <path id="Path_115" data-name="Path 115" d="M763.642,0C520.948,288.379,243.652,617.3,0,903.017l.033.038C244.049,618.244,525.623,293.347,771.906,9.667L763.642,0" transform="translate(265.366 0.038)" fill="#7b1aa7"/>
                    <path id="Path_116" data-name="Path 116" d="M763.642,0C520.948,288.379,243.652,617.3,0,903.017l.032.038C244.049,618.244,525.623,293.347,771.905,9.667L763.642,0" transform="translate(248.709 0.038)" fill="#7b1aa7"/>
                    <path id="Path_117" data-name="Path 117" d="M763.642,0C520.948,288.379,243.652,617.3,0,903.017l.033.038C244.049,618.244,525.623,293.347,771.906,9.667L763.642,0" transform="translate(232.052 0.038)" fill="#7b1aa7"/>
                    <path id="Path_118" data-name="Path 118" d="M763.642,0C520.948,288.379,243.652,617.3,0,903.017l.033.038C244.049,618.244,525.623,293.347,771.906,9.667L763.642,0" transform="translate(215.395 0.038)" fill="#7b1aa7"/>
                    <path id="Path_119" data-name="Path 119" d="M763.642,0C520.948,288.379,243.652,617.3,0,903.017l.032.038C244.049,618.244,525.623,293.347,771.905,9.667L763.642,0" transform="translate(198.738 0.038)" fill="#7b1aa7"/>
                    <path id="Path_120" data-name="Path 120" d="M763.642,0C520.948,288.379,243.652,617.3,0,903.017l.033.038C244.049,618.244,525.623,293.347,771.906,9.667L763.642,0" transform="translate(182.081 0.038)" fill="#7b1aa7"/>
                    <path id="Path_121" data-name="Path 121" d="M763.642,0C520.948,288.379,243.652,617.3,0,903.017l.033.038C244.049,618.244,525.623,293.347,771.906,9.667L763.642,0" transform="translate(165.425 0.038)" fill="#7b1aa7"/>
                    <path id="Path_122" data-name="Path 122" d="M763.642,0C520.948,288.379,243.652,617.3,0,903.017l.033.038C244.049,618.244,525.623,293.347,771.906,9.667L763.642,0" transform="translate(148.768 0.038)" fill="#7b1aa7"/>
                    <path id="Path_123" data-name="Path 123" d="M763.642,0C520.948,288.379,243.652,617.3,0,903.017l.033.038C244.049,618.244,525.623,293.347,771.906,9.667L763.642,0" transform="translate(132.11 0.038)" fill="#7b1aa7"/>
                    <path id="Path_124" data-name="Path 124" d="M763.642,0C520.948,288.379,243.652,617.3,0,903.017l.033.038C244.05,618.245,525.624,293.347,771.906,9.667L763.642,0" transform="translate(115.454 0.038)" fill="#7b1aa7"/>
                    <path id="Path_125" data-name="Path 125" d="M763.642,0C520.948,288.379,243.652,617.3,0,903.017l.033.038C244.05,618.245,525.624,293.347,771.906,9.667L763.642,0" transform="translate(98.797 0.038)" fill="#7b1aa7"/>
                    <path id="Path_126" data-name="Path 126" d="M763.642,0C520.948,288.379,243.652,617.3,0,903.017l.033.038C244.05,618.245,525.624,293.347,771.906,9.667L763.642,0" transform="translate(82.14 0.038)" fill="#7b1aa7"/>
                    <path id="Path_127" data-name="Path 127" d="M763.642,0C520.948,288.379,243.652,617.3,0,903.017l.033.038C244.049,618.245,525.624,293.347,771.906,9.667L763.642,0" transform="translate(65.484 0.038)" fill="#7b1aa7"/>
                    <path id="Path_128" data-name="Path 128" d="M763.642,0C520.948,288.379,243.651,617.3,0,903.017l.033.038C244.049,618.245,525.624,293.347,771.905,9.667L763.642,0" transform="translate(48.827 0.038)" fill="#7b1aa7"/>
                    <path id="Path_129" data-name="Path 129" d="M763.642,0C520.941,288.372,243.646,617.293,0,903.017l.032.038c244.023-284.8,525.6-609.7,771.874-893.388L763.642,0" transform="translate(32.169 0.038)" fill="#7b1aa7"/>
                    <path id="Path_130" data-name="Path 130" d="M763.642,0C520.945,288.376,243.649,617.3,0,903.017l.033.038C244.051,618.248,525.625,293.351,771.906,9.667L763.642,0" transform="translate(15.513 0.038)" fill="#7b1aa7"/>
                    <path id="Path_131" data-name="Path 131" d="M758.4,0C517.37,286.419,241.938,613.059,0,896.883l.033.038C242.432,614.113,522.054,291.4,766.663,9.667L758.4,0" transform="translate(4.099 0.038)" fill="#7b1aa7"/>
                    <path id="Path_132" data-name="Path 132" d="M741.742,0C509.969,275.631,233.214,603.46,0,877.4l.066.076C234.23,604.62,514.449,280.845,750.039,9.705L741.742,0" transform="translate(4.083 0.019)" fill="#7b1aa7"/>
                    <path id="Path_133" data-name="Path 133" d="M725.118,0C494.654,273.947,231.235,586.292,0,857.871l.13.153C232.073,587.727,499.457,279.089,733.413,9.705L725.118,0" transform="translate(4.051 0.019)" fill="#7b1aa7"/>
                    <path id="Path_134" data-name="Path 134" d="M708.494,0C487.077,263.325,222.689,576.519,0,838.346l.2.229C224.01,578.036,491.719,268.728,716.79,9.7l-8.3-9.7" transform="translate(4.017 0.019)" fill="#7b1aa7"/>
                    <path id="Path_135" data-name="Path 135" d="M691.886,0C472.849,260.385,219.832,560.4,0,818.8l.294.343c159.562-185.878,363.6-421.7,524.573-607.481L700.182,9.7Z" transform="translate(3.968 0.019)" fill="#7b1aa7"/>
                    <path id="Path_136" data-name="Path 136" d="M675.262,0C464.189,251.006,212.2,549.6,0,799.276l.359.42C213.789,551.434,469.016,256.628,683.557,9.7l-8.3-9.7" transform="translate(3.936 0.019)" fill="#7b1aa7"/>
                    <path id="Path_137" data-name="Path 137" d="M658.654,0C452.752,244.843,206.964,536.14,0,779.732l.458.534C208.683,538.127,457.676,250.579,666.951,9.705L658.654,0" transform="translate(3.887 0.019)" fill="#7b1aa7"/>
                    <path id="Path_138" data-name="Path 138" d="M642.046,0C435.338,245.821,208.51,514.662,0,760.188l.555.65C210.652,516.634,439.992,251.8,650.341,9.7l-8.3-9.7" transform="translate(3.838 0.019)" fill="#7b1aa7"/>
                    <path id="Path_139" data-name="Path 139" d="M625.438,0C429.884,232.527,196.479,509.208,0,740.643l.654.765c197.834-229.874,434.333-502.934,633.08-731.7L625.438,0" transform="translate(3.789 0.019)" fill="#7b1aa7"/>
                    <path id="Path_140" data-name="Path 140" d="M608.848,0C418.464,226.365,191.266,495.755,0,721.08L.785,722C193.4,498.224,423.663,232.426,617.143,9.7l-8.3-9.7" transform="translate(3.722 0.019)" fill="#7b1aa7"/>
                    <path id="Path_141" data-name="Path 141" d="M592.255,0C407.042,220.2,186.05,482.3,0,701.516l.914,1.07C188.3,484.914,412.337,226.377,600.551,9.705Z" transform="translate(3.658 0.019)" fill="#7b1aa7"/>
                    <path id="Path_142" data-name="Path 142" d="M575.648,0C412.6,193.742,161.852,491.268,0,681.972l1.013,1.185C163.326,494.609,419.1,199.571,583.945,9.7l-8.3-9.7" transform="translate(3.608 0.019)" fill="#7b1aa7"/>
                    <path id="Path_143" data-name="Path 143" d="M559.056,0C400.713,188.188,157.149,477.134,0,662.409l1.143,1.336C158.837,480.676,407.238,194.1,567.353,9.7l-8.3-9.7" transform="translate(3.544 0.019)" fill="#7b1aa7"/>
                    <path id="Path_144" data-name="Path 144" d="M542.465,0C388.819,182.627,152.463,463.015,0,642.846l1.275,1.49C154.333,466.726,395.379,188.626,550.762,9.7Z" transform="translate(3.478 0.019)" fill="#7b1aa7"/>
                    <path id="Path_145" data-name="Path 145" d="M525.889,0C376.935,177.061,147.8,448.907,0,623.263l1.437,1.681c148.4-172.18,382.1-441.781,532.749-615.24l-8.3-9.7" transform="translate(3.397 0.019)" fill="#7b1aa7"/>
                    <path id="Path_146" data-name="Path 146" d="M509.3,0C365.029,171.488,143.113,434.788,0,603.7l1.567,1.835C145.333,438.815,371.689,177.706,517.594,9.7L509.3,0" transform="translate(3.331 0.019)" fill="#7b1aa7"/>
                    <path id="Path_147" data-name="Path 147" d="M492.723,0C370.127,145.836,122.992,438.808,0,584.118l1.732,2.024C125.967,442.218,376.4,153.1,501.02,9.7l-8.3-9.7" transform="translate(3.248 0.019)" fill="#7b1aa7"/>
                    <path id="Path_148" data-name="Path 148" d="M476.148,0C357.666,140.936,118.844,424.086,0,564.535l1.9,2.216C121.975,427.679,364.008,148.285,484.444,9.705L476.148,0" transform="translate(3.167 0.019)" fill="#7b1aa7"/>
                    <path id="Path_149" data-name="Path 149" d="M459.572,0C345.205,136.035,114.7,409.364,0,544.953l2.058,2.406C117.982,413.14,351.62,143.472,467.869,9.7l-8.3-9.7" transform="translate(3.086 0.019)" fill="#7b1aa7"/>
                    <path id="Path_150" data-name="Path 150" d="M443,0C332.746,131.135,110.551,394.642,0,525.371l2.222,2.6C113.99,398.6,339.233,138.66,451.294,9.7Z" transform="translate(3.004 0.019)" fill="#7b1aa7"/>
                    <path id="Path_151" data-name="Path 151" d="M426.422,0C320.285,126.235,106.4,379.92,0,505.788l2.385,2.789C110,384.063,326.844,133.847,434.718,9.7Z" transform="translate(2.923 0.019)" fill="#7b1aa7"/>
                    <path id="Path_152" data-name="Path 152" d="M409.863,0C307.844,121.339,102.268,365.192,0,486.186L2.581,489.2C106.026,369.529,314.469,129.03,418.159,9.7l-8.3-9.7" transform="translate(2.824 0.019)" fill="#7b1aa7"/>
                    <path id="Path_153" data-name="Path 153" d="M393.3,0C295.4,116.444,98.132,350.466,0,466.585l2.776,3.247C102.054,355,302.093,124.213,401.6,9.7Z" transform="translate(2.727 0.019)" fill="#7b1aa7"/>
                    <path id="Path_154" data-name="Path 154" d="M376.745,0C282.964,111.548,94,335.738,0,446.983l2.973,3.476C98.083,340.462,289.718,119.4,385.042,9.7l-8.3-9.7" transform="translate(2.628 0.019)" fill="#7b1aa7"/>
                    <path id="Path_155" data-name="Path 155" d="M360.186,0C270.522,106.652,89.863,321.011,0,427.381l3.169,3.706C94.112,325.929,277.343,114.579,368.483,9.7Z" transform="translate(2.531 0.019)" fill="#7b1aa7"/>
                    <path id="Path_156" data-name="Path 156" d="M343.611,0C258.059,101.749,85.712,306.285,0,407.8l3.331,3.9C90.122,311.393,264.958,109.77,351.907,9.7l-8.3-9.7" transform="translate(2.45 0.019)" fill="#7b1aa7"/>
                    <path id="Path_157" data-name="Path 157" d="M327.052,0C245.613,96.846,81.572,291.551,0,388.2l3.528,4.126C86.158,296.867,252.589,104.96,335.349,9.7l-8.3-9.7" transform="translate(2.35 0.019)" fill="#7b1aa7"/>
                    <path id="Path_158" data-name="Path 158" d="M310.509,0,0,368.577l3.755,4.394L318.8,9.7Z" transform="translate(2.238 0.019)" fill="#7b1aa7"/>
                    <path id="Path_159" data-name="Path 159" d="M293.934,0,0,348.994l3.952,4.624L302.262,9.743Z" transform="translate(2.139 0)" fill="#7b1aa7"/>
                    <path id="Path_160" data-name="Path 160" d="M277.391,0,0,329.374l4.181,4.89L285.72,9.743Z" transform="translate(2.025 0)" fill="#7b1aa7"/>
                    <path id="Path_161" data-name="Path 161" d="M260.848,0,0,309.753l4.409,5.158L269.177,9.743Z" transform="translate(1.911 0)" fill="#7b1aa7"/>
                    <path id="Path_162" data-name="Path 162" d="M244.289,0,0,290.151l4.605,5.388L252.618,9.743Z" transform="translate(1.813 0)" fill="#7b1aa7"/>
                    <path id="Path_163" data-name="Path 163" d="M227.747,0,0,270.531l4.834,5.655L236.076,9.743Z" transform="translate(1.698 0)" fill="#7b1aa7"/>
                    <path id="Path_164" data-name="Path 164" d="M211.221,0,0,250.89l5.1,5.961L219.55,9.743Z" transform="translate(1.567 0)" fill="#7b1aa7"/>
                    <path id="Path_165" data-name="Path 165" d="M194.678,0,0,231.27,5.323,237.5,203.007,9.743Z" transform="translate(1.453 0)" fill="#7b1aa7"/>
                    <path id="Path_166" data-name="Path 166" d="M178.136,0,0,211.649l5.552,6.5L186.464,9.743Z" transform="translate(1.339 0)" fill="#7b1aa7"/>
                    <path id="Path_167" data-name="Path 167" d="M161.609,0,0,192.01l5.813,6.8L169.938,9.743Z" transform="translate(1.209 0)" fill="#7b1aa7"/>
                    <path id="Path_168" data-name="Path 168" d="M145.083,0,0,172.37l6.075,7.108L153.411,9.743Z" transform="translate(1.078 0)" fill="#7b1aa7"/>
                    <path id="Path_169" data-name="Path 169" d="M128.525,0,0,152.769,6.271,160.1,136.853,9.743Z" transform="translate(0.98 0)" fill="#7b1aa7"/>
                    <path id="Path_170" data-name="Path 170" d="M112.015,0,0,133.109l6.565,7.681L120.343,9.743Z" transform="translate(0.833 0)" fill="#7b1aa7"/>
                    <path id="Path_171" data-name="Path 171" d="M95.472,0,0,113.489l6.793,7.947L103.8,9.743Z" transform="translate(0.719 0)" fill="#7b1aa7"/>
                    <path id="Path_172" data-name="Path 172" d="M78.962,0,0,93.83l7.088,8.292L87.29,9.743Z" transform="translate(0.572 0)" fill="#7b1aa7"/>
                    <path id="Path_173" data-name="Path 173" d="M62.436,0,0,74.19l7.348,8.6L70.764,9.743Z" transform="translate(0.441 0)" fill="#7b1aa7"/>
                    <path id="Path_174" data-name="Path 174" d="M45.909,0,0,54.55l7.61,8.9L54.238,9.743Z" transform="translate(0.311 0)" fill="#7b1aa7"/>
                    <path id="Path_175" data-name="Path 175" d="M29.367,0,0,34.93,7.838,44.1,37.7,9.743Z" transform="translate(0.196 0)" fill="#7b1aa7"/>
                    <path id="Path_176" data-name="Path 176" d="M12.873,0,0,15.251,8.165,24.8,21.2,9.743Z" transform="translate(0.033 0)" fill="#7b1aa7"/>
                    <path id="Path_177" data-name="Path 177" d="M0,9.591,13.053,24.633l8-9.362L8.2,0Z" transform="translate(2107.135 0.076)" fill="#7b1aa7"/>
                    <path id="Path_178" data-name="Path 178" d="M0,9.591,29.857,43.948l7.707-9.018L8.2,0Z" transform="translate(2090.478 0.076)" fill="#7b1aa7"/>
                    <path id="Path_179" data-name="Path 179" d="M0,9.591,34.983,49.86,46.629,63.3l7.479-8.749L42.619,40.926C35.327,32.254,15.736,8.964,8.2,0L0,9.591" transform="translate(2073.821 0.076)" fill="#7b1aa7"/>
                    <path id="Path_180" data-name="Path 180" d="M0,9.591,63.432,82.615l7.185-8.406L8.2,0Z" transform="translate(2057.165 0.076)" fill="#7b1aa7"/>
                    <path id="Path_181" data-name="Path 181" d="M0,9.591,80.219,101.95l6.925-8.1L8.2,0Z" transform="translate(2040.508 0.076)" fill="#7b1aa7"/>
                    <path id="Path_182" data-name="Path 182" d="M0,9.591,97.024,121.265l6.63-7.756L8.2,0Z" transform="translate(2023.851 0.076)" fill="#7b1aa7"/>
                    <path id="Path_183" data-name="Path 183" d="M0,9.591,113.778,140.637l6.434-7.527L8.2,0Z" transform="translate(2007.194 0.076)" fill="#7b1aa7"/>
                    <path id="Path_184" data-name="Path 184" d="M0,9.591,130.566,159.971l6.172-7.222L8.2,0Z" transform="translate(1990.537 0.076)" fill="#7b1aa7"/>
                    <path id="Path_185" data-name="Path 185" d="M0,9.591,147.353,179.3l5.911-6.916L8.2,0Z" transform="translate(1973.88 0.076)" fill="#7b1aa7"/>
                    <path id="Path_186" data-name="Path 186" d="M0,9.591,164.141,198.639l5.65-6.61L8.2,0Z" transform="translate(1957.223 0.076)" fill="#7b1aa7"/>
                    <path id="Path_187" data-name="Path 187" d="M0,9.591l180.912,208.4,5.422-6.343L8.2,0Z" transform="translate(1940.566 0.076)" fill="#7b1aa7"/>
                    <path id="Path_188" data-name="Path 188" d="M0,9.591,197.7,237.326l5.16-6.037L8.2,0Z" transform="translate(1923.91 0.076)" fill="#7b1aa7"/>
                    <path id="Path_189" data-name="Path 189" d="M0,9.591,214.47,256.68l4.932-5.77L8.2,0Z" transform="translate(1907.253 0.076)" fill="#7b1aa7"/>
                    <path id="Path_190" data-name="Path 190" d="M0,9.591,231.226,276.052l4.735-5.541L8.2,0Z" transform="translate(1890.596 0.076)" fill="#7b1aa7"/>
                    <path id="Path_191" data-name="Path 191" d="M0,9.591,248,295.4l4.508-5.272L8.2,0Z" transform="translate(1873.939 0.076)" fill="#7b1aa7"/>
                    <path id="Path_192" data-name="Path 192" d="M0,9.591,264.768,314.758l4.278-5.006L8.2,0Z" transform="translate(1857.282 0.076)" fill="#7b1aa7"/>
                    <path id="Path_193" data-name="Path 193" d="M0,9.591,281.539,334.112l4.05-4.738L8.2,0Z" transform="translate(1840.625 0.076)" fill="#7b1aa7"/>
                    <path id="Path_194" data-name="Path 194" d="M0,9.591,298.31,353.465l3.822-4.471L8.2,0Z" transform="translate(1823.968 0.076)" fill="#7b1aa7"/>
                    <path id="Path_195" data-name="Path 195" d="M0,9.591c78.591,90.465,236.616,272.66,315.064,363.247l3.626-4.242C241.239,276.8,85.506,91.918,8.2,0L0,9.591" transform="translate(1807.312 0.076)" fill="#7b1aa7"/>
                    <path id="Path_196" data-name="Path 196" d="M0,9.591c82.781,95.276,249.21,287.188,331.821,382.62l3.429-4.013C253.655,291.53,89.619,96.819,8.2,0L0,9.591" transform="translate(1790.654 0.076)" fill="#7b1aa7"/>
                    <path id="Path_197" data-name="Path 197" d="M0,9.591C86.932,109.725,261.764,311.354,348.576,411.582l3.233-3.783C266.114,306.216,93.771,101.674,8.2,0L0,9.591" transform="translate(1773.997 0.076)" fill="#7b1aa7"/>
                    <path id="Path_198" data-name="Path 198" d="M0,9.592c103.66,119.5,263.053,303.03,365.33,421.363l3.037-3.553C267.649,308.256,109.87,120.71,8.2,0L0,9.592" transform="translate(1757.341 0.075)" fill="#7b1aa7"/>
                    <path id="Path_199" data-name="Path 199" d="M0,9.592C108.428,134.565,275.115,326.556,382.085,450.327L384.926,447C279.579,322.392,114.529,126.263,8.2,0L0,9.592" transform="translate(1740.684 0.075)" fill="#7b1aa7"/>
                    <path id="Path_200" data-name="Path 200" d="M0,9.592C113.2,140.041,287.177,340.491,398.839,469.7l2.646-3.1C291.509,336.525,119.188,131.818,8.2,0L0,9.592" transform="translate(1724.027 0.075)" fill="#7b1aa7"/>
                    <path id="Path_201" data-name="Path 201" d="M0,9.592c117.967,135.923,299.238,344.833,415.577,479.5l2.484-2.9C303.439,350.661,123.845,137.372,8.2,0L0,9.592" transform="translate(1707.37 0.075)" fill="#7b1aa7"/>
                    <path id="Path_202" data-name="Path 202" d="M0,9.592C122.73,151,311.322,368.335,432.317,508.482l2.319-2.712C315.349,364.82,128.512,142.918,8.2,0L0,9.592" transform="translate(1690.713 0.075)" fill="#7b1aa7"/>
                    <path id="Path_203" data-name="Path 203" d="M0,9.592C127.5,156.48,323.395,382.257,449.055,527.874l2.156-2.522C327.269,378.968,133.174,148.468,8.2,0L0,9.592" transform="translate(1674.056 0.075)" fill="#7b1aa7"/>
                    <path id="Path_204" data-name="Path 204" d="M0,9.63C132.274,161.983,335.476,396.206,465.826,547.266l1.959-2.293C339.213,393.125,137.857,154.033,8.23,0L0,9.63" transform="translate(1657.383 0.056)" fill="#7b1aa7"/>
                    <path id="Path_205" data-name="Path 205" d="M0,9.63c137.043,157.829,347.544,400.5,482.565,557.026l1.8-2.1C351.137,407.266,142.516,159.585,8.23,0L0,9.63" transform="translate(1640.726 0.055)" fill="#7b1aa7"/>
                    <path id="Path_206" data-name="Path 206" d="M0,9.629c124.653,143.43,375.085,432.546,499.3,576.419l1.633-1.911C377.926,438.78,130.8,145.793,8.23,0L0,9.629" transform="translate(1624.07 0.056)" fill="#7b1aa7"/>
                    <path id="Path_207" data-name="Path 207" d="M0,9.63C146.571,178.423,371.669,438,516.025,605.458l1.5-1.758C375,435.539,151.842,170.682,8.229,0L0,9.63" transform="translate(1607.413 0.055)" fill="#7b1aa7"/>
                    <path id="Path_208" data-name="Path 208" d="M0,9.63C151.338,183.9,383.728,451.94,532.764,624.85l1.339-1.567C386.931,449.669,156.5,176.233,8.23,0L0,9.63" transform="translate(1590.755 0.056)" fill="#7b1aa7"/>
                    <path id="Path_209" data-name="Path 209" d="M0,9.63C156.1,189.39,395.8,465.867,549.486,644.261l1.208-1.414C398.856,463.809,161.175,181.774,8.23,0L0,9.63" transform="translate(1574.099 0.056)" fill="#7b1aa7"/>
                    <path id="Path_210" data-name="Path 210" d="M0,9.63C160.853,194.882,407.862,479.795,566.208,663.671l1.079-1.261C410.781,477.95,165.847,187.313,8.23,0L0,9.63" transform="translate(1557.442 0.056)" fill="#7b1aa7"/>
                    <path id="Path_211" data-name="Path 211" d="M0,9.63C165.6,200.384,419.95,493.7,582.93,683.082l.947-1.108C422.686,492.114,170.528,192.841,8.23,0L0,9.63" transform="translate(1540.785 0.055)" fill="#7b1aa7"/>
                    <path id="Path_212" data-name="Path 212" d="M0,9.63C170.363,205.866,432,507.649,599.651,702.492l.817-.956C434.629,506.234,175.193,198.388,8.23,0L0,9.63" transform="translate(1524.128 0.055)" fill="#7b1aa7"/>
                    <path id="Path_213" data-name="Path 213" d="M0,9.63C175.113,211.363,444.077,521.564,616.375,721.9l.685-.8C446.542,520.389,179.869,203.921,8.23,0L0,9.63" transform="translate(1507.472 0.056)" fill="#7b1aa7"/>
                    <path id="Path_214" data-name="Path 214" d="M0,9.629c204.71,235.582,428.571,494.118,633.081,731.7l.588-.688C430.369,501.126,209.819,239.752,8.231,0L0,9.629" transform="translate(1490.814 0.057)" fill="#7b1aa7"/>
                    <path id="Path_215" data-name="Path 215" d="M0,9.629c204.032,234.82,446.766,515.139,649.787,751.132l.49-.574C448.546,522.661,208.938,238.685,8.231,0L0,9.629" transform="translate(1474.157 0.057)" fill="#7b1aa7"/>
                    <path id="Path_216" data-name="Path 216" d="M0,9.629c209.277,240.9,458.283,528.428,666.493,770.561l.392-.459C459.9,536.135,214.131,244.821,8.23,0L0,9.629" transform="translate(1457.501 0.057)" fill="#7b1aa7"/>
                    <path id="Path_217" data-name="Path 217" d="M0,9.629c214.547,246.94,469.776,541.745,683.2,789.991l.294-.344C471.288,549.579,219.3,250.986,8.23,0L0,9.629" transform="translate(1440.844 0.056)" fill="#7b1aa7"/>
                    <path id="Path_218" data-name="Path 218" d="M0,9.629c219.806,253,481.3,555.025,699.888,809.44l.229-.268C482.639,563.062,224.476,257.139,8.23,0L0,9.629" transform="translate(1424.187 0.057)" fill="#7b1aa7"/>
                    <path id="Path_219" data-name="Path 219" d="M0,9.629C232.854,277.783,485.937,569.76,716.578,838.517l.163-.191C487.263,568.794,237.182,272.11,8.231,0L0,9.629" transform="translate(1407.53 0.057)" fill="#7b1aa7"/>
                    <path id="Path_220" data-name="Path 220" d="M0,9.629C233.479,278.374,501.364,587.766,733.267,857.967l.1-.115C502.446,586.6,237.882,273.071,8.231,0L0,9.629" transform="translate(1390.873 0.057)" fill="#7b1aa7"/>
                    <path id="Path_221" data-name="Path 221" d="M0,9.629C241.732,288,510.422,598.026,749.94,877.434l.065-.077C573.955,670.9,369.092,428.289,193.262,219.821L8.231,0Z" transform="translate(1374.216 0.057)" fill="#7b1aa7"/>
                    <path id="Path_222" data-name="Path 222" d="M0,9.629C247.941,295.2,520.7,609.848,766.147,896.356l.033-.038C521.531,609.466,252.061,289.754,8.231,0L0,9.629" transform="translate(1357.56 0.057)" fill="#7b1aa7"/>
                    <path id="Path_223" data-name="Path 223" d="M0,9.629C247.959,295.217,520.74,609.893,766.2,896.423l.033-.038C521.569,609.511,252.079,289.775,8.23,0L0,9.629" transform="translate(1340.903 0.057)" fill="#7b1aa7"/>
                    <path id="Path_224" data-name="Path 224" d="M0,9.629C250.943,298.737,517.6,606.192,766.2,896.423l.033-.038c-186.716-218.939-383.048-451.237-568.9-671.821L8.231,0Z" transform="translate(1324.246 0.057)" fill="#7b1aa7"/>
                    <path id="Path_225" data-name="Path 225" d="M0,9.629C250.943,298.737,517.6,606.192,766.2,896.423l.033-.038c-186.717-218.939-383.049-451.237-568.9-671.821L8.231,0Z" transform="translate(1307.589 0.057)" fill="#7b1aa7"/>
                    <path id="Path_226" data-name="Path 226" d="M0,9.629C250.943,298.737,517.6,606.192,766.2,896.423l.033-.038c-186.717-218.939-383.049-451.237-568.9-671.821L8.231,0Z" transform="translate(1290.932 0.057)" fill="#7b1aa7"/>
                    <path id="Path_227" data-name="Path 227" d="M0,9.629C250.946,298.735,517.6,606.2,766.2,896.423l.033-.038C579.525,677.44,383.186,445.151,197.332,224.564L8.231,0Z" transform="translate(1274.275 0.057)" fill="#7b1aa7"/>
                    <path id="Path_228" data-name="Path 228" d="M0,9.629C250.946,298.734,517.6,606.2,766.2,896.423l.033-.038c-186.711-218.946-383.052-451.234-568.9-671.821L8.231,0Z" transform="translate(1257.619 0.057)" fill="#7b1aa7"/>
                    <path id="Path_229" data-name="Path 229" d="M0,9.629C247.7,294.969,520.629,609.766,766.2,896.423l.032-.038C585.126,684,377.6,438.548,197.332,224.564L8.231,0Z" transform="translate(1240.962 0.057)" fill="#7b1aa7"/>
                    <path id="Path_230" data-name="Path 230" d="M0,9.629C247.7,294.967,520.63,609.764,766.2,896.423l.033-.038C585.125,684,377.6,438.551,197.331,224.564L8.23,0,0,9.629" transform="translate(1224.305 0.057)" fill="#7b1aa7"/>
                    <path id="Path_231" data-name="Path 231" d="M0,9.667C247.724,294.981,520.647,609.782,766.221,896.441l.033-.038c-181.11-212.392-388.642-457.828-568.9-671.826L8.263,0Z" transform="translate(1207.631 0.038)" fill="#7b1aa7"/>
                    <path id="Path_232" data-name="Path 232" d="M0,9.667C247.724,294.98,520.647,609.782,766.22,896.441l.033-.038c-181.109-212.392-388.641-457.828-568.9-671.826L8.263,0Z" transform="translate(1190.974 0.038)" fill="#7b1aa7"/>
                    <path id="Path_233" data-name="Path 233" d="M0,9.668C244.711,291.474,523.8,613.482,766.221,896.442l.033-.038C524.589,613.039,248.933,286.037,8.263,0L0,9.668" transform="translate(1174.318 0.037)" fill="#7b1aa7"/>
                    <path id="Path_234" data-name="Path 234" d="M0,9.668C244.711,291.474,523.8,613.482,766.221,896.442l.033-.038C524.589,613.039,248.933,286.037,8.263,0L0,9.668" transform="translate(1157.661 0.037)" fill="#7b1aa7"/>
                    <path id="Path_235" data-name="Path 235" d="M0,9.668C244.707,291.479,523.8,613.486,766.221,896.442l.032-.038C524.593,613.036,248.935,286.033,8.263,0L0,9.668" transform="translate(1141.004 0.037)" fill="#7b1aa7"/>
                    <path id="Path_236" data-name="Path 236" d="M0,9.668C244.707,291.479,523.8,613.486,766.22,896.442l.033-.038C524.593,613.036,248.935,286.033,8.263,0Z" transform="translate(1124.347 0.037)" fill="#7b1aa7"/>
                    <path id="Path_237" data-name="Path 237" d="M0,9.668C244.707,291.479,523.8,613.486,766.221,896.442l.033-.038C524.592,613.036,248.935,286.033,8.263,0L0,9.668" transform="translate(1107.69 0.037)" fill="#7b1aa7"/>
                    <path id="Path_238" data-name="Path 238" d="M0,9.668C244.707,291.479,523.8,613.486,766.221,896.442l.033-.038C524.593,613.036,248.935,286.033,8.263,0L0,9.668" transform="translate(1091.033 0.037)" fill="#7b1aa7"/>
                    <path id="Path_239" data-name="Path 239" d="M0,9.668C244.707,291.479,523.8,613.486,766.221,896.442l.032-.038C524.593,613.036,248.935,286.033,8.263,0Z" transform="translate(1074.376 0.037)" fill="#7b1aa7"/>
                    <path id="Path_240" data-name="Path 240" d="M0,9.668C244.7,291.483,523.8,613.491,766.221,896.442l.032-.038C524.6,613.031,248.94,286.028,8.263,0L0,9.668" transform="translate(1057.72 0.037)" fill="#7b1aa7"/>
                    <path id="Path_241" data-name="Path 241" d="M0,9.668C244.707,291.479,523.8,613.486,766.221,896.442l.033-.038C524.593,613.036,248.935,286.033,8.263,0L0,9.668" transform="translate(1041.063 0.037)" fill="#7b1aa7"/>
                    <path id="Path_242" data-name="Path 242" d="M0,9.668C244.706,291.479,523.8,613.486,766.22,896.442l.034-.038C524.592,613.036,248.934,286.034,8.263,0L0,9.668" transform="translate(1024.406 0.037)" fill="#7b1aa7"/>
                    <path id="Path_243" data-name="Path 243" d="M0,9.668C244.707,291.479,523.8,613.486,766.221,896.442l.032-.038C524.592,613.036,248.935,286.034,8.263,0L0,9.668" transform="translate(1007.748 0.037)" fill="#7b1aa7"/>
                    <path id="Path_244" data-name="Path 244" d="M0,9.668C247.964,295.25,520.768,609.9,766.221,896.442l.033-.038C521.574,609.543,252.107,289.782,8.263,0L0,9.668" transform="translate(991.092 0.037)" fill="#7b1aa7"/>
                    <path id="Path_245" data-name="Path 245" d="M0,9.668C247.964,295.25,520.768,609.9,766.221,896.442l.033-.038C521.574,609.545,252.107,289.782,8.263,0L0,9.668" transform="translate(974.435 0.037)" fill="#7b1aa7"/>
                    <path id="Path_246" data-name="Path 246" d="M0,9.668C247.964,295.25,520.768,609.9,766.221,896.442l.032-.038C521.574,609.543,252.107,289.782,8.263,0L0,9.668" transform="translate(957.778 0.037)" fill="#7b1aa7"/>
                    <path id="Path_247" data-name="Path 247" d="M0,9.668C244.707,291.479,523.8,613.486,766.221,896.442l.033-.038C524.592,613.036,248.934,286.034,8.263,0L0,9.668" transform="translate(941.122 0.037)" fill="#7b1aa7"/>
                    <path id="Path_248" data-name="Path 248" d="M0,9.668C244.707,291.479,523.8,613.486,766.221,896.442l.033-.038C524.593,613.036,248.935,286.033,8.263,0L0,9.668" transform="translate(924.464 0.037)" fill="#7b1aa7"/>
                    <path id="Path_249" data-name="Path 249" d="M0,9.668C244.707,291.479,523.8,613.486,766.221,896.442l.033-.038C524.593,613.036,248.935,286.034,8.263,0Z" transform="translate(907.807 0.037)" fill="#7b1aa7"/>
                    <path id="Path_250" data-name="Path 250" d="M0,9.668C244.707,291.479,523.8,613.486,766.221,896.442l.032-.038C524.593,613.036,248.935,286.034,8.263,0L0,9.668" transform="translate(891.151 0.037)" fill="#7b1aa7"/>
                    <path id="Path_251" data-name="Path 251" d="M0,9.668c248.716,286.5,519.594,598.887,766.221,886.774l.032-.038C520.3,608.028,253.012,290.806,8.263,0L0,9.668" transform="translate(874.494 0.037)" fill="#7b1aa7"/>
                    <path id="Path_252" data-name="Path 252" d="M0,9.668c248.716,286.5,519.594,598.887,766.221,886.774l.033-.038C520.3,608.028,253.012,290.806,8.263,0L0,9.668" transform="translate(857.837 0.037)" fill="#7b1aa7"/>
                    <path id="Path_253" data-name="Path 253" d="M0,9.668c248.716,286.5,519.594,598.887,766.22,886.774l.032-.038C520.3,608.028,253.012,290.806,8.263,0L0,9.668" transform="translate(841.18 0.037)" fill="#7b1aa7"/>
                    <path id="Path_254" data-name="Path 254" d="M0,9.668c248.716,286.5,519.594,598.887,766.221,886.774l.032-.038C520.3,608.028,253.012,290.806,8.263,0L0,9.668" transform="translate(824.523 0.037)" fill="#7b1aa7"/>
                    <path id="Path_255" data-name="Path 255" d="M0,9.668c248.72,286.493,519.582,598.9,766.221,886.774l.033-.038C520.317,608.014,253.009,290.811,8.263,0L0,9.668" transform="translate(807.866 0.037)" fill="#7b1aa7"/>
                    <path id="Path_256" data-name="Path 256" d="M0,9.668c248.72,286.493,519.581,598.9,766.221,886.774l.033-.038C520.317,608.014,253.009,290.811,8.263,0L0,9.668" transform="translate(791.209 0.037)" fill="#7b1aa7"/>
                    <path id="Path_257" data-name="Path 257" d="M0,9.668c248.72,286.493,519.581,598.9,766.221,886.774l.032-.038C520.317,608.014,253.009,290.811,8.263,0L0,9.668" transform="translate(774.553 0.037)" fill="#7b1aa7"/>
                    <path id="Path_258" data-name="Path 258" d="M0,9.668c248.72,286.493,519.581,598.9,766.22,886.774l.034-.038C520.317,608.014,253.009,290.811,8.263,0L0,9.668" transform="translate(757.896 0.037)" fill="#7b1aa7"/>
                    <path id="Path_259" data-name="Path 259" d="M0,9.705C248.741,296.174,519.6,608.587,766.237,896.46l.033-.038C520.333,608.032,253.02,290.835,8.3,0L0,9.705" transform="translate(741.222 0.019)" fill="#7b1aa7"/>
                    <path id="Path_260" data-name="Path 260" d="M0,9.705C248.741,296.174,519.6,608.587,766.237,896.46l.032-.038C520.333,608.032,253.02,290.835,8.3,0L0,9.705" transform="translate(724.565 0.019)" fill="#7b1aa7"/>
                    <path id="Path_261" data-name="Path 261" d="M0,9.705C244.705,291.518,523.817,613.5,766.237,896.46l.032-.038C524.609,613.054,248.971,286.03,8.3,0L0,9.705" transform="translate(707.909 0.019)" fill="#7b1aa7"/>
                    <path id="Path_262" data-name="Path 262" d="M0,9.705C244.705,291.518,523.817,613.5,766.237,896.46l.032-.038C524.609,613.054,248.971,286.03,8.3,0L0,9.705" transform="translate(691.252 0.019)" fill="#7b1aa7"/>
                    <path id="Path_263" data-name="Path 263" d="M0,9.705C249.032,296.53,519.785,608.739,766.237,896.46l.032-.038C520.6,608.412,253.189,291.015,8.3,0L0,9.705" transform="translate(674.595 0.019)" fill="#7b1aa7"/>
                    <path id="Path_264" data-name="Path 264" d="M0,9.705c244.706,281.812,523.814,603.8,766.237,886.755l.032-.038C524.611,613.05,248.969,286.032,8.3,0L0,9.705" transform="translate(657.938 0.019)" fill="#7b1aa7"/>
                    <path id="Path_265" data-name="Path 265" d="M0,9.705c244.705,281.812,523.813,603.8,766.237,886.755l.032-.038C524.61,613.05,248.969,286.032,8.3,0L0,9.705" transform="translate(641.282 0.019)" fill="#7b1aa7"/>
                    <path id="Path_266" data-name="Path 266" d="M0,9.705c244.706,281.812,523.814,603.8,766.237,886.755l.032-.038C524.611,613.05,248.969,286.032,8.3,0L0,9.705" transform="translate(624.624 0.019)" fill="#7b1aa7"/>
                    <path id="Path_267" data-name="Path 267" d="M0,9.705c244.706,281.812,523.814,603.8,766.237,886.755l.032-.038C524.611,613.05,248.969,286.032,8.3,0L0,9.705" transform="translate(607.967 0.019)" fill="#7b1aa7"/>
                    <path id="Path_268" data-name="Path 268" d="M0,9.705c244.706,281.812,523.814,603.8,766.237,886.755l.032-.038C524.611,613.05,248.969,286.032,8.3,0L0,9.705" transform="translate(591.311 0.019)" fill="#7b1aa7"/>
                    <path id="Path_269" data-name="Path 269" d="M0,9.705c244.706,281.812,523.814,603.8,766.237,886.755l.032-.038C524.611,613.05,248.969,286.032,8.3,0L0,9.705" transform="translate(574.654 0.019)" fill="#7b1aa7"/>
                    <path id="Path_270" data-name="Path 270" d="M0,9.705c244.706,281.812,523.814,603.8,766.237,886.755l.032-.038C524.611,613.05,248.969,286.032,8.3,0L0,9.705" transform="translate(557.997 0.019)" fill="#7b1aa7"/>
                    <path id="Path_271" data-name="Path 271" d="M0,9.705C244.706,291.516,523.806,613.517,766.237,896.46l.032-.038C524.62,613.041,248.969,286.032,8.3,0L0,9.705" transform="translate(541.34 0.019)" fill="#7b1aa7"/>
                    <path id="Path_272" data-name="Path 272" d="M0,9.705C244.635,291.384,526.526,616.732,769.039,899.738l.033-.038C594.236,694.739,372.6,432.437,198.056,225.432L8.3,0Z" transform="translate(524.683 0.019)" fill="#7b1aa7"/>
                    <path id="Path_273" data-name="Path 273" d="M0,9.706C245.609,292.551,525.728,615.742,769.039,899.739l.033-.038C526.523,615.29,249.852,287.086,8.3,0L0,9.706" transform="translate(508.026 0.018)" fill="#7b1aa7"/>
                    <path id="Path_274" data-name="Path 274" d="M0,9.705C248.655,296.043,522.536,612.059,769.039,899.738l.033-.038c-181.8-213.148-390.007-459.585-571.013-674.27L8.3,0Z" transform="translate(491.369 0.019)" fill="#7b1aa7"/>
                    <path id="Path_275" data-name="Path 275" d="M0,9.706C245.609,292.551,525.728,615.742,769.039,899.739l.033-.038C526.523,615.29,249.852,287.086,8.3,0L0,9.706" transform="translate(474.713 0.018)" fill="#7b1aa7"/>
                    <path id="Path_276" data-name="Path 276" d="M0,9.706C245.609,292.551,525.728,615.742,769.039,899.739l.033-.038C526.523,615.29,249.852,287.086,8.3,0L0,9.706" transform="translate(458.056 0.018)" fill="#7b1aa7"/>
                    <path id="Path_277" data-name="Path 277" d="M0,9.706C245.609,292.551,525.728,615.742,769.039,899.739l.033-.038C526.523,615.29,249.852,287.086,8.3,0L0,9.706" transform="translate(441.398 0.018)" fill="#7b1aa7"/>
                    <path id="Path_278" data-name="Path 278" d="M0,9.706C245.609,292.551,525.728,615.742,769.039,899.739l.033-.038C526.523,615.29,249.852,287.086,8.3,0L0,9.706" transform="translate(424.742 0.018)" fill="#7b1aa7"/>
                    <path id="Path_279" data-name="Path 279" d="M0,9.705C245.609,292.55,525.728,615.742,769.039,899.738l.033-.038C526.523,615.289,249.852,287.086,8.3,0L0,9.705" transform="translate(408.085 0.019)" fill="#7b1aa7"/>
                    <path id="Path_280" data-name="Path 280" d="M0,9.705C245.609,292.55,525.728,615.742,769.039,899.738l.033-.038C526.523,615.289,249.852,287.086,8.3,0L0,9.705" transform="translate(391.428 0.019)" fill="#7b1aa7"/>
                    <path id="Path_281" data-name="Path 281" d="M0,9.705c245.6,282.85,525.723,606.042,769.039,890.033l.033-.038C526.527,615.285,249.856,287.08,8.3,0L0,9.705" transform="translate(374.771 0.019)" fill="#7b1aa7"/>
                    <path id="Path_282" data-name="Path 282" d="M0,9.705c245.6,282.85,525.724,606.042,769.039,890.033l.033-.038C526.527,615.285,249.856,287.08,8.3,0L0,9.705" transform="translate(358.114 0.019)" fill="#7b1aa7"/>
                    <path id="Path_283" data-name="Path 283" d="M0,9.705c245.6,282.85,525.723,606.042,769.039,890.033l.033-.038C526.527,615.285,249.856,287.08,8.3,0L0,9.705" transform="translate(341.457 0.019)" fill="#7b1aa7"/>
                    <path id="Path_284" data-name="Path 284" d="M0,9.705c245.6,282.85,525.723,606.042,769.039,890.033l.033-.038C526.527,615.285,249.856,287.08,8.3,0L0,9.705" transform="translate(324.8 0.019)" fill="#7b1aa7"/>
                    <path id="Path_285" data-name="Path 285" d="M0,9.705c245.6,282.85,525.723,606.042,769.039,890.033l.033-.038C526.527,615.285,249.856,287.081,8.3,0L0,9.705" transform="translate(308.144 0.019)" fill="#7b1aa7"/>
                    <path id="Path_286" data-name="Path 286" d="M0,9.743C245.631,292.561,525.736,615.77,769.055,899.757l.033-.038C526.546,615.3,249.861,287.113,8.328,0L0,9.743" transform="translate(291.471 0)" fill="#7b1aa7"/>
                    <path id="Path_287" data-name="Path 287" d="M0,9.743C245.631,292.561,525.736,615.77,769.055,899.757l.033-.038C526.546,615.3,249.861,287.113,8.328,0L0,9.743" transform="translate(274.814 0)" fill="#7b1aa7"/>
                    <path id="Path_288" data-name="Path 288" d="M0,9.743C245.631,292.561,525.736,615.77,769.055,899.757l.033-.038C526.546,615.3,249.861,287.113,8.328,0L0,9.743" transform="translate(258.157 0)" fill="#7b1aa7"/>
                    <path id="Path_289" data-name="Path 289" d="M0,9.743C245.631,292.561,525.736,615.77,769.055,899.757l.033-.038C526.546,615.3,249.861,287.113,8.328,0L0,9.743" transform="translate(241.5 0)" fill="#7b1aa7"/>
                    <path id="Path_290" data-name="Path 290" d="M0,9.743C245.631,292.56,525.735,615.771,769.055,899.757l.033-.038C526.547,615.3,249.861,287.113,8.328,0L0,9.743" transform="translate(224.843 0)" fill="#7b1aa7"/>
                    <path id="Path_291" data-name="Path 291" d="M0,9.743C245.631,292.56,525.735,615.771,769.055,899.757l.033-.038C526.547,615.3,249.861,287.113,8.328,0L0,9.743" transform="translate(208.186 0)" fill="#7b1aa7"/>
                    <path id="Path_292" data-name="Path 292" d="M0,9.743C245.631,292.56,525.735,615.771,769.055,899.757l.033-.038C526.547,615.3,249.861,287.113,8.328,0L0,9.743" transform="translate(191.529 0)" fill="#7b1aa7"/>
                    <path id="Path_293" data-name="Path 293" d="M0,9.743C245.631,292.56,525.735,615.771,769.055,899.757l.033-.038C526.547,615.3,249.861,287.113,8.328,0L0,9.743" transform="translate(174.873 0)" fill="#7b1aa7"/>
                    <path id="Path_294" data-name="Path 294" d="M0,9.743C245.63,292.56,525.735,615.771,769.054,899.757l.033-.038C526.547,615.3,249.86,287.113,8.327,0L0,9.743" transform="translate(158.216 0)" fill="#7b1aa7"/>
                    <path id="Path_295" data-name="Path 295" d="M0,9.743C245.631,292.56,525.735,615.771,769.055,899.757l.033-.038C526.547,615.3,249.861,287.113,8.328,0L0,9.743" transform="translate(141.558 0)" fill="#7b1aa7"/>
                    <path id="Path_296" data-name="Path 296" d="M0,9.743C245.631,292.56,525.735,615.771,769.055,899.757l.033-.038C526.547,615.3,249.861,287.113,8.328,0L0,9.743" transform="translate(124.902 0)" fill="#7b1aa7"/>
                    <path id="Path_297" data-name="Path 297" d="M0,9.743C245.631,292.56,525.735,615.771,769.055,899.757l.033-.038C526.547,615.3,249.861,287.113,8.328,0L0,9.743" transform="translate(108.245 0)" fill="#7b1aa7"/>
                    <path id="Path_298" data-name="Path 298" d="M0,9.743c248.894,286.61,522.687,602.433,769.055,890.014l.033-.038C523.522,611.789,253.05,290.867,8.328,0Z" transform="translate(91.588 0)" fill="#7b1aa7"/>
                    <path id="Path_299" data-name="Path 299" d="M0,9.743c246.543,283.876,527.682,608.3,771.906,893.349l.033-.037C528.492,617.578,250.765,288.179,8.328,0L0,9.743" transform="translate(74.932 0)" fill="#7b1aa7"/>
                    <path id="Path_300" data-name="Path 300" d="M0,9.743c246.543,283.876,527.682,608.3,771.906,893.349l.033-.037C528.492,617.578,250.765,288.179,8.328,0L0,9.743" transform="translate(58.274 0)" fill="#7b1aa7"/>
                    <path id="Path_301" data-name="Path 301" d="M0,9.743c246.543,283.876,527.682,608.3,771.906,893.349l.033-.037C528.492,617.578,250.765,288.179,8.328,0L0,9.743" transform="translate(41.617 0)" fill="#7b1aa7"/>
                    <path id="Path_302" data-name="Path 302" d="M0,9.743c246.543,283.876,527.682,608.3,771.906,893.349l.033-.037C528.492,617.578,250.765,288.179,8.328,0Z" transform="translate(24.96 0)" fill="#7b1aa7"/>
                    <path id="Path_303" data-name="Path 303" d="M0,9.743c246.543,283.876,527.682,608.3,771.906,893.349l.033-.037C528.492,617.578,250.765,288.179,8.328,0L0,9.743" transform="translate(8.304 0)" fill="#7b1aa7"/>
                    <path id="Path_304" data-name="Path 304" d="M0,9.629c243.877,280.786,521.959,601.7,763.527,883.662l.033-.038C522.749,610.879,248.028,285.063,8.23,0Z" transform="translate(0 9.772)" fill="#7b1aa7"/>
                    <path id="Path_305" data-name="Path 305" d="M0,9.246C238.449,283.968,510.472,597.794,746.708,873.613l.032-.038C511.175,597.435,242.522,278.717,7.9,0L0,9.246" transform="translate(0.163 29.451)" fill="#7b1aa7"/>
                    <path id="Path_306" data-name="Path 306" d="M0,8.98C232.226,276.375,499.723,585.338,729.935,853.993l.033-.038C563.993,659.4,353.555,410.444,187.822,213.986L7.675,0,0,8.98" transform="translate(0.278 49.071)" fill="#7b1aa7"/>
                    <path id="Path_307" data-name="Path 307" d="M0,8.674c227.757,262.4,487.493,562.249,713.149,825.679l.032-.038C488.2,570.542,231.506,266.22,7.414,0L0,8.674" transform="translate(0.408 68.711)" fill="#7b1aa7"/>
                    <path id="Path_308" data-name="Path 308" d="M0,8.368C222.421,264.591,475.989,557.487,696.361,814.714l.033-.038C476.707,557.08,225.971,259.984,7.152,0L0,8.368" transform="translate(0.539 88.351)" fill="#7b1aa7"/>
                    <path id="Path_309" data-name="Path 309" d="M0,8.062C217.026,258.181,464.52,544.008,679.575,795.074l.033-.037C465.183,543.655,220.5,253.677,6.892,0L0,8.062" transform="translate(0.669 107.991)" fill="#7b1aa7"/>
                    <path id="Path_310" data-name="Path 310" d="M0,7.718c210.782,243.02,453.709,523.663,662.77,767.7l.032-.038C512.035,598.7,320.893,372.6,170.3,194.248L6.6,0Z" transform="translate(0.817 127.649)" fill="#7b1aa7"/>
                    <path id="Path_311" data-name="Path 311" d="M0,7.451C206.267,245.324,441.553,517.083,646,755.793l.032-.037C442.159,516.777,209.517,241.1,6.369,0L0,7.451" transform="translate(0.931 147.269)" fill="#7b1aa7"/>
                    <path id="Path_312" data-name="Path 312" d="M0,7.145C200.877,238.907,430.063,503.629,629.212,736.154l.032-.038C430.655,503.328,204.038,234.8,6.107,0L0,7.145" transform="translate(1.061 166.91)" fill="#7b1aa7"/>
                    <path id="Path_313" data-name="Path 313" d="M0,6.879C192.366,228.663,421.213,493.427,612.44,716.535l.033-.038C421.758,492.769,195.444,225.039,5.879,0L0,6.879" transform="translate(1.176 186.53)" fill="#7b1aa7"/>
                    <path id="Path_314" data-name="Path 314" d="M0,6.572c189.427,218.538,407.7,470.96,595.653,690.322l.033-.038C460.176,538,288.244,334.864,152.842,174.557L5.618,0Z" transform="translate(1.306 206.17)" fill="#7b1aa7"/>
                    <path id="Path_315" data-name="Path 315" d="M0,6.3C181.786,216.044,398.107,466.358,578.88,677.272l.033-.038C398.621,465.736,184.66,212.661,5.389,0L0,6.3" transform="translate(1.42 225.791)" fill="#7b1aa7"/>
                    <path id="Path_316" data-name="Path 316" d="M0,6C178.705,212.348,384.728,450.566,562.093,657.632l.033-.038c-127.91-149.915-290.193-341.618-418-492.9L5.127,0Z" transform="translate(1.552 245.432)" fill="#7b1aa7"/>
                    <path id="Path_317" data-name="Path 317" d="M0,5.769C173.45,205.9,373.232,437.154,545.339,638.031l.033-.038c-124.1-145.46-281.576-331.425-405.61-478.168L4.931,0Z" transform="translate(1.649 265.032)" fill="#7b1aa7"/>
                    <path id="Path_318" data-name="Path 318" d="M0,5.465C150.2,179.026,380.9,445.884,528.551,618.393l.033-.038C381.752,446.356,152.339,174.9,4.671,0L0,5.465" transform="translate(1.78 284.671)" fill="#7b1aa7"/>
                    <path id="Path_319" data-name="Path 319" d="M0,5.235C160.734,190.759,351.933,412.256,511.8,598.789l.032-.038C352.377,411.718,163.048,188.034,4.475,0L0,5.235" transform="translate(1.878 304.274)" fill="#7b1aa7"/>
                    <path id="Path_320" data-name="Path 320" d="M0,4.967c155.427,179.522,340.39,393.763,495.024,574.2l.033-.038C340.816,398.213,157.689,181.825,4.246,0L0,4.967" transform="translate(1.992 323.895)" fill="#7b1aa7"/>
                    <path id="Path_321" data-name="Path 321" d="M0,4.738C150.178,178.189,328.866,385.22,478.27,559.567l.033-.038C329.268,384.732,152.3,175.686,4.05,0L0,4.738" transform="translate(2.091 343.496)" fill="#7b1aa7"/>
                    <path id="Path_322" data-name="Path 322" d="M0,4.471C144.891,171.9,317.312,371.706,461.5,539.947l.033-.038C317.716,371.216,146.926,169.5,3.821,0L0,4.471" transform="translate(2.204 363.116)" fill="#7b1aa7"/>
                    <path id="Path_323" data-name="Path 323" d="M0,4.242c139.657,161.339,305.79,353.951,444.743,516.1l.033-.038C306.166,357.737,141.526,163.377,3.625,0L0,4.242" transform="translate(2.303 382.718)" fill="#7b1aa7"/>
                    <path id="Path_324" data-name="Path 324" d="M0,3.974c134.383,155.3,294.234,340.709,427.972,496.751l.033-.038C294.619,344.218,136.133,157.208,3.4,0L0,3.974" transform="translate(2.417 402.339)" fill="#7b1aa7"/>
                    <path id="Path_325" data-name="Path 325" d="M0,3.783c129.129,149.232,282.728,327.4,411.233,477.358l.032-.038C283.083,330.758,130.787,151.061,3.234,0L0,3.783" transform="translate(2.499 421.92)" fill="#7b1aa7"/>
                    <path id="Path_326" data-name="Path 326" d="M0,3.517C112.054,133.254,284.208,332.69,394.462,461.522l.033-.038C284.84,333.047,113.388,130.488,3,0L0,3.517" transform="translate(2.613 441.54)" fill="#7b1aa7"/>
                    <path id="Path_327" data-name="Path 327" d="M0,3.325C118.586,140.469,259.671,304.179,377.723,441.938l.033-.038C260,303.783,120.062,138.728,2.842,0Z" transform="translate(2.695 461.124)" fill="#7b1aa7"/>
                    <path id="Path_328" data-name="Path 328" d="M0,3.1C102.557,121.832,260.056,304.433,360.968,422.337L361,422.3C260.647,304.745,103.668,119.429,2.645,0L0,3.1" transform="translate(2.793 480.724)" fill="#7b1aa7"/>
                    <path id="Path_329" data-name="Path 329" d="M0,2.867C97.77,116.147,247.97,290.3,344.211,402.734l.033-.038C248.541,290.583,98.829,113.855,2.449,0Z" transform="translate(2.891 500.326)" fill="#7b1aa7"/>
                    <path id="Path_330" data-name="Path 330" d="M0,2.638c93.013,107.79,235.885,273.523,327.458,380.5l.033-.038C236.441,276.42,93.963,108.315,2.253,0L0,2.638" transform="translate(2.989 519.928)" fill="#7b1aa7"/>
                    <path id="Path_331" data-name="Path 331" d="M0,2.446c88.237,102.323,223.826,259.583,310.719,361.1l.033-.038C224.343,262.288,89.149,102.752,2.09,0L0,2.446" transform="translate(3.071 539.511)" fill="#7b1aa7"/>
                    <path id="Path_332" data-name="Path 332" d="M0,2.255c73.409,85.011,220.86,256.4,293.98,341.713l.033-.039C221.076,258.364,74.574,85.86,1.926,0L0,2.255" transform="translate(3.152 559.093)" fill="#7b1aa7"/>
                    <path id="Path_333" data-name="Path 333" d="M0,2.1c78.743,91.318,199.712,231.7,277.258,322.3l.033-.038C200.178,234.031,79.491,91.7,1.8,0L0,2.1" transform="translate(3.217 578.657)" fill="#7b1aa7"/>
                    <path id="Path_334" data-name="Path 334" d="M0,1.911c65.046,75.367,195.714,227.3,260.519,302.911l.033-.038C195.9,228.948,66.039,76.079,1.633,0L0,1.911" transform="translate(3.299 598.239)" fill="#7b1aa7"/>
                    <path id="Path_335" data-name="Path 335" d="M0,1.719C60.854,72.276,183.126,214.48,243.781,285.238l.032-.039C183.316,214.223,61.765,71.175,1.47,0L0,1.719" transform="translate(3.381 617.822)" fill="#7b1aa7"/>
                    <path id="Path_336" data-name="Path 336" d="M0,1.528C56.67,67.265,170.547,199.743,227.042,265.655l.032-.039C170.72,199.508,57.483,66.283,1.306,0Z" transform="translate(3.462 637.404)" fill="#7b1aa7"/>
                    <path id="Path_337" data-name="Path 337" d="M0,1.376c52.5,60.9,157.992,183.64,210.319,244.716l.033-.039C158.133,184.82,53.218,61.408,1.175,0L0,1.376" transform="translate(3.527 656.968)" fill="#7b1aa7"/>
                    <path id="Path_338" data-name="Path 338" d="M0,1.223C48.323,57.3,145.425,170.3,193.6,226.528l.033-.038C145.559,170.12,48.965,56.52,1.045,0L0,1.223" transform="translate(3.593 676.53)" fill="#7b1aa7"/>
                    <path id="Path_339" data-name="Path 339" d="M0,1.07C44.14,52.325,132.854,155.6,176.875,206.965l.033-.038C132.987,155.414,44.715,51.627.914,0L0,1.07" transform="translate(3.658 696.095)" fill="#7b1aa7"/>
                    <path id="Path_340" data-name="Path 340" d="M0,.918C39.968,47.339,120.294,140.873,160.152,187.4l.033-.038C120.4,140.722,40.454,46.747.784,0L0,.918" transform="translate(3.723 715.657)" fill="#7b1aa7"/>
                    <path id="Path_341" data-name="Path 341" d="M0,.8C35.8,42.39,107.743,126.178,143.445,167.856l.033-.038C107.844,126.039,36.224,41.867.686,0L0,.8" transform="translate(3.773 735.201)" fill="#7b1aa7"/>
                    <path id="Path_342" data-name="Path 342" d="M0,.04,126.721,147.681C126.193,147.954.516-2.816,0,.04" transform="translate(3.837 755.374)" fill="#7b1aa7"/>
                    <path id="Path_343" data-name="Path 343" d="M0,.033C.035,0,110.017,128.392,110.048,128.2,109.509,128.5.432-2.383,0,.033" transform="translate(3.887 774.812)" fill="#7b1aa7"/>
                    <path id="Path_344" data-name="Path 344" d="M0,.029C.034-.009,93.326,108.937,93.356,108.75,92.9,109.005.369-2.043,0,.029" transform="translate(3.919 794.264)" fill="#7b1aa7"/>
                    <path id="Path_345" data-name="Path 345" d="M0,.019C.035-.017,76.618,89.5,76.649,89.31,76.294,89.491.284-1.527,0,.019" transform="translate(3.969 813.704)" fill="#7b1aa7"/>
                    <path id="Path_346" data-name="Path 346" d="M0,.015C.035-.02,59.926,70.039,59.957,69.854,59.681,69.993.221-1.187,0,.015" transform="translate(4.001 833.157)" fill="#7b1aa7"/>
                    <path id="Path_347" data-name="Path 347" d="M0,.011,43.232,50.436C43.224,50.583.12-.88,0,.011" transform="translate(4.033 852.608)" fill="#7b1aa7"/>
                    <path id="Path_348" data-name="Path 348" d="M0,.007C.036-.025,26.534,31.116,26.566,30.934,26.455,31.014.093-.526,0,.007" transform="translate(4.066 872.063)" fill="#7b1aa7"/>
                    <line id="Line_2" data-name="Line 2" x2="9.813" y2="11.48" transform="translate(4.115 891.499)" fill="none" stroke="#7b1aa7" stroke-width="0.051"/>
                  </g>
                </g>
              </g>
            </g>
          </g>
        </g>
      </g>
    </g>
  </g>
</svg>
