<svg xmlns="http://www.w3.org/2000/svg" xmlns:xlink="http://www.w3.org/1999/xlink" width="557.565" height="545.48" viewBox="0 0 557.565 545.48">
  <defs>
    <clipPath id="clip-path">
      <rect id="Rectangle_16" data-name="Rectangle 16" width="557.565" height="545.48" fill="none"/>
    </clipPath>
  </defs>
  <g id="Register_Banner" data-name="Register Banner" transform="translate(0)">
    <g id="Group_19" data-name="Group 19" transform="translate(0)">
      <g id="Group_18" data-name="Group 18" clip-path="url(#clip-path)">
        <path id="Union_2" data-name="Union 2" d="M493.436,7.538a30.5,30.5,0,0,1-2.552,4.455,6.322,6.322,0,0,0-1.173,2.79h-.793c-1.005.45-1.942.932-1.874,1.9.008.118-.061.2-.236.284-2.811,1.376-2.8,2.945.03,4.407.19.1.442.166.228.375-.685.685-.48,1.43-.457,2.209.091,4.113.1,8.226.137,12.339.129,13.087.244,26.18.472,39.272.183,10.924.046,21.853.145,32.777.137,15.233.508,329.239.777,344.473A4.444,4.444,0,0,1,486.5,456.3c-1.371,1.323-1.348,1.339-3.488.8a2.175,2.175,0,0,1-.259-.076c.487-.45.975-.857,1.417-1.29a5.538,5.538,0,0,0,1.485-4.541c-.038-2.013-.015-4.032-.046-6.051-.175-9.66-.442-318.093-.6-327.753-.145-9.173.038-18.346-.16-27.524-.213-9.607-.236-19.218-.274-28.836-.053-10.56-.091-21.12-.411-31.679-.008-.364-.137-.765.038-1.087.434-.82-.229-1.253-1.028-1.617a2.159,2.159,0,0,0-2.2.385,5.644,5.644,0,0,0-2.247,2.565,21.2,21.2,0,0,1-1.386,2.875,17.889,17.889,0,0,0-1.737,2.549A63.715,63.715,0,0,0,472,48.762a12.215,12.215,0,0,0,.526,5.789c.107.3.175.648.762.68a1.037,1.037,0,0,0,1-.533,2.461,2.461,0,0,0,.465-1.622,19.754,19.754,0,0,1,.632-5.56,31.6,31.6,0,0,1,3.763-9.093.606.606,0,0,1,.472-.417q.7,35.646,1.622,71.292a7.389,7.389,0,0,0-6.147.809,9.845,9.845,0,0,0-4.41,5.151,25.658,25.658,0,0,0-1.4,10.892c.069,1.366.122,2.725.122,4.086a6.607,6.607,0,0,1-1.142,4.294c-.137.177-.229.4.069.5.267.1.442-.113.564-.241a12.9,12.9,0,0,0,2.194-2.774c1.668-3.191,1.6-6.554,2.034-9.864a12.547,12.547,0,0,1,2.91-6.881,6.864,6.864,0,0,1,1.8-1.494,1.861,1.861,0,0,1,1.973-.048,2.838,2.838,0,0,1,1.531,2.067c.023.214.091.439-.4.477a3.146,3.146,0,0,0-2.407,1.328,15.018,15.018,0,0,0-3.039,10.747,35.7,35.7,0,0,1,.2,6.322,10.164,10.164,0,0,1-4.334,7.042c-.244.187-.7,35.331-.4,35.614.343.311.716,0,.983-.134,3.26-1.66,5.575-38.789,6.558-41.536a26.324,26.324,0,0,0,1.295-9.441,16.385,16.385,0,0,1,.206-3.856,3.352,3.352,0,0,1,1.455-2.292l.008-.005v.011c-.053,2.7.137,5.248.152,7.786.038,7.492.685,313.755.442,321.253a2.845,2.845,0,0,0,.069,1.018c.4,1.274-.129,2.485-.533,3.684-.358,1.05-1.485,1.523-3.039,1.542a35.442,35.442,0,0,0-5.949.445c-3.062.551-5.8,1.44-7.16,3.656-.289.471-.183.669.472.889a28.984,28.984,0,0,1,4.448,1.842,4.752,4.752,0,0,1,2.133,1.746,7.7,7.7,0,0,1,.9,5.612c-.228.852-.609,1.7-.769,2.565a.8.8,0,0,0-.244-.043c-.548-.016-.442.337-.548.519a7.088,7.088,0,0,1-2.894,2.779c-1.554.846-2.529.627-3.4-.546-3.024-4.064-5.316-8.279-5.035-13,.137-2.453,0-4.905.015-7.358.03-6.089-.16-310.944-.015-317.028.16-6.931.061-13.869.2-20.8.152-8.321-.015-16.643.19-24.964.152-6.425.114-12.852.16-19.27.015-1.334,0-2.661,0-3.995.091.005.175.005.259.005.168,1.376.328,2.753.51,4.123a17.779,17.779,0,0,0,2.2,7.272c1.127,1.842,2,3.775,4.052,5.256.267.193.51.578.967.407.487-.171.244-.557.175-.857a1.723,1.723,0,0,0-.206-.482,23.032,23.032,0,0,1-1.775-3.309,37.362,37.362,0,0,1-1.858-14.731,8.638,8.638,0,0,1,1.2-3.813,3.413,3.413,0,0,1,1.333-1.36c.693-.375,1.165-.241,1.226.369a4.047,4.047,0,0,1-.175,1.59,18.17,18.17,0,0,0-.716,8.531,9.72,9.72,0,0,0,5.415,6.94c.244.129.487.316.823.139.358-.193.129-.4-.038-.573a9.393,9.393,0,0,1-2.635-6.758c-.1-2.12.731-4.172,1.1-6.26a7.745,7.745,0,0,0-.587-5.382,4.676,4.676,0,0,0-3.877-2.656,8.683,8.683,0,0,0-5.057.975,12.964,12.964,0,0,0-6.162,6.57c-.625,1.523-.267,3.085-.289,4.637-.122,8.445-.129,16.884-.274,25.328-.244,14.281-.312,28.568-.472,42.849-.046,4.53.038,307.827-.038,312.352,0,.129.114.295-.183.4a18.7,18.7,0,0,0-3.222-2.822c-1.257-.838-2.46-1.724-3.816-2.474a28.4,28.4,0,0,0-7.023-2.345,37.032,37.032,0,0,0-7.182-.9,59.735,59.735,0,0,0-7.838-.279c-1.295.118-2.6.262-3.9.262-8.691-.005-17.374-.059-26.064-.076-39.668-.069-155.885-.307-195.548-.362q-25.706-.016-51.4.091c-27.345.118-54.688.129-82.032.182-.236,0-.472-.059-.708-.064a51.605,51.605,0,0,0-6.7-.228c-1.4.129-2.81.262-4.22.295a34.292,34.292,0,0,0-7.868,1.055c-2.826.744-5.629,1.5-7.868,3.063a31.821,31.821,0,0,0-5.568,4.444c-.251-.123-.183-.257-.183-.364.084-4.407-.343-307.581-.366-311.988q-.183-29.928-.335-59.862c-.023-3.813-.038-7.625-.114-11.438a11.865,11.865,0,0,0-.4-2.158,10.669,10.669,0,0,0-2.453-5.114,3.223,3.223,0,0,0-2.5-.964,5.323,5.323,0,0,0-2.986.862,8.518,8.518,0,0,0-3.877,4.616,34.072,34.072,0,0,0-1.622,12.129,12.458,12.458,0,0,0,1.836,6.64c.168.257.206.615.739.686.236-.519-.069-.986-.16-1.456a20.524,20.524,0,0,1-.221-6.174,49.035,49.035,0,0,1,1.31-8.16,7.184,7.184,0,0,1,2.1-3.668c1.005-.884,1.592-.862,2.384.129a6.816,6.816,0,0,1,1.539,4.354c.076,11.315.251,22.63.343,33.95.114,13.574.282,325.927.465,339.507.091,7.007.183,14.009-.069,21.012a18.862,18.862,0,0,1-.5,4.273c-.64,2.453-2.338,4.637-3.656,6.913a4.8,4.8,0,0,1-1.318,1.628,2.132,2.132,0,0,1-2.536.219,6.947,6.947,0,0,1-2.095-1.4c.221-.118-.023-.279-.107-.385a9.25,9.25,0,0,1-1.767-6.554c.2-2.421,1.333-4.61,4.715-5.837.762-.279,1.47-.632,2.2-.948,1.782-.765,1.8-1.2.053-2.115-.076-.043-.183-.064-.267-.107-3.115-1.67-6.863-1.912-10.549-2.115-1.813-.1-2.689-.648-3.359-1.73-1.226-1.986-1.051-4.091-1.12-6.153-.107-3.283-.388-305.337-.381-308.62.015-5.6.168-11.192.411-16.787.16-3.69-.868-7.363-.236-11.058a16.807,16.807,0,0,1,.678-3.593,1.237,1.237,0,0,1,1-.942,1.728,1.728,0,0,1,1.462.562,9.425,9.425,0,0,1,2.064,2.506c1.775,2.983,1.44,6.061.944,9.157a32.617,32.617,0,0,0-.533,5.291c0,.228.038.466.388.533.465.091.564-.193.708-.412a17.914,17.914,0,0,0,3.016-9.259,21.553,21.553,0,0,0-.853-6.506,8.633,8.633,0,0,0-3-5.172,5.159,5.159,0,0,0-2.323-1,6.837,6.837,0,0,0-3.74.578,6.562,6.562,0,0,1,.967-4.1,1.752,1.752,0,0,1,2.018-.643,9.233,9.233,0,0,1,2.658.932,10.906,10.906,0,0,1,3.694,3.373c1.836,2.64,4.722,4.509,8.416,5.8a1.783,1.783,0,0,0,1.531.091v-.437a24.813,24.813,0,0,1-6.261-5.264c-1.95-2.383-3.61-4.926-6.84-6.688a7.391,7.391,0,0,0-3.991-.953c-.221.011-.48.129-.541-.152A5.21,5.21,0,0,1,12.7,90.09a2.548,2.548,0,0,1,3.351-.284,5.3,5.3,0,0,1,.845.638,8.546,8.546,0,0,1,1.95,3.175,13.021,13.021,0,0,0,5.2,5.061c.221.134.533.412.891.161.4-.279.015-.471-.236-.664a8.642,8.642,0,0,1-3.58-6.415,5.515,5.515,0,0,0-1.417-3.513c-1.836-1.922-4.38-2.367-7.19-1.071-.419.193-.807.417-1.333.691.145-14.265.289-28.41.442-42.555a26.469,26.469,0,0,1,3.7,5.542,7.355,7.355,0,0,1,.442,2.59c.19,5.183-.594,10.351-.64,15.529a18.961,18.961,0,0,0,.792,6.8c.19.533.335,1.264,1.295,1.219.975-.048,1.127-.82,1.2-1.371.274-2.223.548-4.45.632-6.683.16-4.257.1-8.514.3-12.772a16.128,16.128,0,0,0-2.331-9.425c-1.508-2.458-3.1-4.894-4.654-7.342a5.621,5.621,0,0,0-1.752-1.954,2.34,2.34,0,0,0-1.935-.477c-.739.187-.876.7-1.005,1.189A36.818,36.818,0,0,0,6.649,46.48c-.137,4.189.137,8.37.168,12.552.122,15.792-.084,31.583-.328,47.376-.221,14.4-.023,327.577-.107,341.981a7.723,7.723,0,0,1-.091.937c-.229,2.035-.4,4.07,1.2,5.941a21.613,21.613,0,0,0,2.1,1.847,7.11,7.11,0,0,0-.792.311,1.212,1.212,0,0,1-1.7-.222l-.005-.006A8.287,8.287,0,0,1,5,453.92a10.844,10.844,0,0,1-.586-3.885c.053-1.189.282-2.372.289-3.561.129-11.508.074-321.79.168-333.3Q5,95.8,5.073,78.427q.137-27.191.244-54.383a6.305,6.305,0,0,0-.5-2.361c-.16-.412-.213-.686.419-1.018,1.729-.914,1.546-2.514-.289-3.3-.312-.134-.4-.251-.411-.509-.038-1.4-.7-1.885-2.559-1.842a15.826,15.826,0,0,0-1.234-2.3A3.836,3.836,0,0,1,0,10.914C-.03,9.757.915,8.906,1.73,8.019A11.391,11.391,0,0,0,4.3,3.312,14.15,14.15,0,0,1,11.861.375a53.7,53.7,0,0,1,14.853.3,21.52,21.52,0,0,1,8.47,2.913c2.262,1.5,4.326,3.149,6.512,4.707a49.172,49.172,0,0,0,17.381,8.279c2.148.533,2.514.482,3.892-.723a50.877,50.877,0,0,1,7.944-5.56,6.426,6.426,0,0,1,3.382-.83c27.131-.037,54.254.187,81.376.251q29.968.064,59.936.048c42.044-.065,160.634.012,202.668-.12a6.269,6.269,0,0,1,3.382.838,51.934,51.934,0,0,1,8.074,5.676,2.894,2.894,0,0,0,3.207.765,49.8,49.8,0,0,0,9.963-3.566,73.184,73.184,0,0,0,12.309-8.038A22.476,22.476,0,0,1,465.666.866a58.385,58.385,0,0,1,13.427-.53c4.958.3,8.835,2,11.12,5.146a5.974,5.974,0,0,0,3.222,2.056" transform="translate(39.011 0)" fill="#fff5e0"/>
      </g>
    </g>
  </g>
</svg>
