<svg xmlns="http://www.w3.org/2000/svg" xmlns:xlink="http://www.w3.org/1999/xlink" width="114.393" height="500" viewBox="0 0 114.393 500">
  <defs>
    <clipPath id="clip-path">
      <rect id="Rectangle_26" data-name="Rectangle 26" width="500" height="114.393" fill="none"/>
    </clipPath>
  </defs>
  <g id="Group_93" data-name="Group 93" transform="translate(114.393) rotate(90)">
    <g id="Group_91" data-name="Group 91" transform="translate(0 0)" clip-path="url(#clip-path)">
      <path id="Path_5120" data-name="Path 5120" d="M317.951,0a38.761,38.761,0,0,0-6.557.56A37.3,37.3,0,0,0,285.74,18.582a36.59,36.59,0,0,0-4.711,14.155c-.114,1.1-.219,2.249-.228,3.329l-.01,1.182L259.17,46.769c-1.327.581-2.663,1.219-3.972,1.9-.66.339-1.312.682-1.963,1.034l-1.008.547C251.44,49.7,248.993,48,248.993,48l-3.234,2.248-1.008-.547q-.977-.529-1.955-1.029c-1.3-.673-2.635-1.314-3.975-1.9L217.2,37.248l-.01-1.182c-.009-1.095-.116-2.259-.23-3.355a37.165,37.165,0,0,0-12.6-23.676,37.813,37.813,0,0,0-4.515-3.371,35.942,35.942,0,0,0-4.65-2.5,36.7,36.7,0,0,0-8.6-2.607A38.886,38.886,0,0,0,180.038,0a42.107,42.107,0,0,0-7.2.64c-.885.151-1.913.255-2.908.354a50.542,50.542,0,0,0-7.676,1.235A22.207,22.207,0,0,0,155.5,5.2a16.986,16.986,0,0,0-5.166,5.384,16.71,16.71,0,0,0-2.155,5.883,18.019,18.019,0,0,0,1.306,10.213,16.055,16.055,0,0,0,2.311,3.646,20.65,20.65,0,0,0,5.7,4.663,40.589,40.589,0,0,0,6.117,2.79c1.027.39,2.045.781,3.065,1.179,1.106.345,2.133.667,3.181,1,1.594.544,3.254.951,4.858,1.345l1.322.328c.415.109.785.235,1.152.362l.108.038.189.039a159.931,159.931,0,0,1,19.58,3.293l2.319.549L198.269,48c-.358.671-.744,1.3-1.108,1.876A15.679,15.679,0,0,1,195.605,52l-.423.516a29.492,29.492,0,0,1-9.583,7.257,35.967,35.967,0,0,1-10.582,3.2l-.191.024c-.773.1-1.54.191-2.319.258l-.677.035c-.623.034-1.239.067-1.84.081l-.337,0c-1.422-.018-2.878-.037-4.327-.186a44.474,44.474,0,0,1-8.8-1.569,37.983,37.983,0,0,1-15.409-8.539c-1.846-1.672-10.306-9.35-10.306-9.35s-4.179-3.731-5.28-4.708c-.39-.348-1.271-1.123-1.271-1.123-.466-.411-.934-.822-1.392-1.236-.254-.212-.467-.4-.68-.59s-.436-.388-.668-.576l-1.494-1.177q-1.229-.958-2.51-1.88c-.863-.607-1.739-1.193-2.568-1.732-1.735-1.124-3.492-2.163-5.22-3.09a90.972,90.972,0,0,0-10.8-4.889,153.928,153.928,0,0,0-22.741-6.352,66.569,66.569,0,0,0-13.65-1.449,62.233,62.233,0,0,0-19.523,3.156C35.9,20.42,29.565,24.657,23.441,28.755q-1.422.951-2.847,1.9c-7.081,4.7-13.861,9.824-20.2,14.664l-.394.3V61.69l1.847,1c.648.351,1.306.694,1.964,1.025,1.324.69,2.668,1.334,3.981,1.9C14.553,68.6,21.367,71.6,28.32,74.653l1.08.473.021,1.173c.017.953.092,2.027.232,3.383a36.74,36.74,0,0,0,4.7,14.128,37.181,37.181,0,0,0,7.912,9.559,38.836,38.836,0,0,0,4.509,3.363,37.05,37.05,0,0,0,4.648,2.5,36.658,36.658,0,0,0,8.6,2.6,38.6,38.6,0,0,0,6.544.559,42.632,42.632,0,0,0,7.194-.641c.873-.148,1.864-.248,2.913-.353a50.363,50.363,0,0,0,7.683-1.236,22.239,22.239,0,0,0,6.753-2.968,17.108,17.108,0,0,0,5.167-5.384,16.771,16.771,0,0,0,2.143-5.885,17.464,17.464,0,0,0,.064-5.4,17.831,17.831,0,0,0-1.36-4.811,15.786,15.786,0,0,0-2.319-3.644A20.606,20.606,0,0,0,89.119,77.4,39.412,39.412,0,0,0,83,74.63c-.764-.3-3.073-1.194-3.073-1.194l-3.159-.983c-1.642-.563-3.335-.979-4.971-1.381l-1.227-.3a11.187,11.187,0,0,1-1.12-.352l-.111-.04-.218-.049a160.127,160.127,0,0,1-19.571-3.282l-2.276-.539,1.057-2.074c.352-.693.746-1.318,1.127-1.922a15.926,15.926,0,0,1,1.5-2.047l-.715-.713.78.634.467-.575a29.347,29.347,0,0,1,9.515-7.187,35.923,35.923,0,0,1,10.583-3.2l.9-.106c.54-.066,1.071-.13,1.618-.177l.693-.037c.611-.032,1.228-.064,1.817-.078l.8.012c1.255.02,2.555.041,3.873.177a45.232,45.232,0,0,1,8.8,1.568A38.256,38.256,0,0,1,105.5,59.322c3.4,3.095,6.856,6.233,10.307,9.352,1.755,1.574,3.525,3.153,5.274,4.711l2.7,2.383c.185.156.389.338.595.521.255.229.479.43.723.628l1.489,1.163c.824.645,1.662,1.27,2.517,1.886.913.648,1.767,1.226,2.542,1.721,1.693,1.1,3.461,2.141,5.246,3.1a88.285,88.285,0,0,0,10.791,4.885,153.59,153.59,0,0,0,22.748,6.355,66.619,66.619,0,0,0,13.658,1.452,62.022,62.022,0,0,0,19.505-3.16c7.111-2.346,13.445-6.578,19.57-10.67.958-.641,1.9-1.273,2.851-1.9,7.241-4.816,14.018-9.944,21.5-15.666l1.11-.851.373.28.374-.279,1.11.849c7.473,5.72,14.248,10.846,21.5,15.67.941.62,1.884,1.251,2.832,1.884,6.129,4.1,12.467,8.332,19.582,10.679A62.024,62.024,0,0,0,313.9,97.48a66.66,66.66,0,0,0,13.662-1.453,153.492,153.492,0,0,0,22.733-6.35,88.25,88.25,0,0,0,10.8-4.889c1.779-.956,3.541-2,5.237-3.094.784-.5,1.646-1.085,2.559-1.734,1-.717,1.791-1.311,2.5-1.875l1.517-1.185c.209-.17.419-.357.629-.545.277-.248.483-.433.7-.612l2.675-2.363c1.745-1.553,3.515-3.132,5.275-4.71,3.444-3.114,6.906-6.252,10.306-9.35a38.184,38.184,0,0,1,15.389-8.532,45.837,45.837,0,0,1,8.861-1.576c1.267-.131,2.567-.152,3.824-.172l.842-.012c.548.014,1.166.046,1.779.079l.721.038c.514.045,1.049.109,1.585.175l.834.1a36.193,36.193,0,0,1,10.646,3.2,29.308,29.308,0,0,1,9.536,7.208l.505.623a15.876,15.876,0,0,1,1.518,2.076c.345.547.755,1.192,1.117,1.9l1.061,2.075-2.279.54a160.093,160.093,0,0,1-19.571,3.282l-.116.014-.206.072a11.081,11.081,0,0,1-1.143.359l-1.215.3c-1.647.4-3.335.819-4.911,1.362l-3.151.978-3.105,1.2a39.726,39.726,0,0,0-6.151,2.79,20.625,20.625,0,0,0-5.7,4.674,15.847,15.847,0,0,0-2.315,3.644,17.747,17.747,0,0,0-1.355,4.8,17.494,17.494,0,0,0,.061,5.4,16.639,16.639,0,0,0,2.151,5.884,16.94,16.94,0,0,0,5.147,5.383,22.413,22.413,0,0,0,6.778,2.981,50.233,50.233,0,0,0,7.672,1.231c1.075.109,2.052.208,2.913.354a42.019,42.019,0,0,0,7.194.641,38.727,38.727,0,0,0,6.557-.561,36.563,36.563,0,0,0,8.577-2.6,37.491,37.491,0,0,0,4.681-2.517,38.38,38.38,0,0,0,4.49-3.35,37.084,37.084,0,0,0,12.617-23.714c.052-.5.207-1.979.23-3.355l.02-1.175,1.081-.473c6.953-3.049,13.766-6.049,20.52-9.029,1.334-.58,2.669-1.219,3.967-1.9.682-.344,1.34-.686,1.987-1.037l1.846-1V45.613l-.393-.3c-6.332-4.835-13.11-9.952-20.207-14.667q-1.416-.936-2.842-1.893c-6.128-4.1-12.461-8.335-19.573-10.682a62.236,62.236,0,0,0-19.522-3.156,66.638,66.638,0,0,0-13.657,1.45,153.991,153.991,0,0,0-22.732,6.349,91.074,91.074,0,0,0-10.8,4.891c-1.731.929-3.489,1.969-5.225,3.092-.822.537-1.7,1.122-2.577,1.741q-1.261.906-2.5,1.876l-1.5,1.183c-.2.163-.4.342-.6.522-.256.227-.469.418-.694.6-.487.439-.95.846-1.415,1.255,0,0-.9.788-1.277,1.129q-1.831,1.623-3.659,3.26l-1.636,1.461-10.306,9.349A37.923,37.923,0,0,1,341.469,61.6a45.079,45.079,0,0,1-8.863,1.578c-1.4.143-2.849.162-4.256.18l-.387,0c-.567-.014-1.185-.046-1.8-.08l-.716-.039c-.743-.064-1.511-.159-2.287-.255l-.15-.019a36.081,36.081,0,0,1-10.617-3.2,29.346,29.346,0,0,1-9.546-7.208l-.443-.54a15.971,15.971,0,0,1-1.558-2.121c-.379-.6-.765-1.229-1.124-1.9l-1.12-2.094,2.322-.55a160.17,160.17,0,0,1,19.58-3.293l.114-.013.108-.038c.444-.153.814-.279,1.212-.386l1.342-.331c1.624-.4,3.276-.806,4.812-1.329,1.087-.345,2.116-.666,3.152-.986,1.088-.423,2.108-.813,3.128-1.2a40.623,40.623,0,0,0,6.124-2.791,20.677,20.677,0,0,0,5.708-4.678,16.059,16.059,0,0,0,2.306-3.642,18.034,18.034,0,0,0,1.3-10.2,16.7,16.7,0,0,0-2.152-5.878A16.944,16.944,0,0,0,342.5,5.209a22.3,22.3,0,0,0-6.782-2.982A50.449,50.449,0,0,0,328.056.994c-1-.1-2.024-.2-2.912-.354A42.024,42.024,0,0,0,317.951,0M288.512,36.2c.01-.807.1-1.751.186-2.584a29.66,29.66,0,0,1,3.739-11.232,29.11,29.11,0,0,1,6.312-7.609,29.5,29.5,0,0,1,3.533-2.636,28.119,28.119,0,0,1,3.6-1.951l.092-.036a29.1,29.1,0,0,1,6.7-2.038,31.815,31.815,0,0,1,5.277-.449,34.7,34.7,0,0,1,5.884.527c1.106.186,2.166.3,3.437.423a42.574,42.574,0,0,1,6.5,1.028,14.34,14.34,0,0,1,4.359,1.879l.111.078a9.063,9.063,0,0,1,3.947,6.078,10.147,10.147,0,0,1,.037,3.115,10.29,10.29,0,0,1-.749,2.711,8.764,8.764,0,0,1-1.214,1.908,13.351,13.351,0,0,1-3.654,2.943,34.672,34.672,0,0,1-5.02,2.268s-2.275.864-2.818,1.076l-.118.041c-.952.3-1.9.6-2.867.907l-.2.064c-1.127.384-2.42.7-3.789,1.042l-1.852.458-.155.042c-.243.067-.47.132-.677.2l-.191.066-.2.023A163.986,163.986,0,0,0,299.131,37.9l-10.689,2.527ZM178.874,34.455c-.2-.068-.425-.131-.663-.2l-.134-.037-1.721-.429c-1.425-.35-2.769-.681-3.966-1.085l-.2-.064q-1.43-.459-2.856-.9l-.1-.031c-.477-.188-.935-.363-1.39-.536l-1.5-.571a34.443,34.443,0,0,1-4.957-2.236,13.513,13.513,0,0,1-3.629-2.907,8.678,8.678,0,0,1-1.225-1.912,9.85,9.85,0,0,1-.768-2.683,10.142,10.142,0,0,1,.029-3.158,9.051,9.051,0,0,1,1.187-3.239,8.85,8.85,0,0,1,2.724-2.843l.168-.119a14.406,14.406,0,0,1,4.26-1.85,43.482,43.482,0,0,1,6.488-1.031c1.316-.131,2.411-.245,3.5-.431a35.324,35.324,0,0,1,5.912-.528,30.952,30.952,0,0,1,5.174.437,28.8,28.8,0,0,1,6.763,2.031,26.947,26.947,0,0,1,3.68,1.977A30.325,30.325,0,0,1,205.6,22.468a29.2,29.2,0,0,1,3.683,11.076c.085.844.184,1.823.2,2.65l.066,4.228L198.858,37.9a164.34,164.34,0,0,0-19.595-3.353l-.2-.023Zm147.157,41.16c.869,0,1.642-.019,2.3-.056a52.72,52.72,0,0,0,18.852-3.965A65.327,65.327,0,0,0,361.8,63.119a146.732,146.732,0,0,0,12.548-10.847c1.8-1.718,3.622-3.381,5.548-5.142l.785-.719q3.335-2.952,6.57-5.835c11.5-10.024,25.108-15.327,39.357-15.327,1.495,0,3.008.059,4.5.173,7.69.578,14.951,3,21.972,5.347,1.294.431,2.505.835,3.716,1.228a6.117,6.117,0,0,1,2.535,1.894,7.717,7.717,0,0,0,.817.805c9.344,7.137,17.132,13.065,25.261,19.019l2.3,1.683L485.22,56.79A89.478,89.478,0,0,1,474.549,61.9c-1.973.786-3.966,1.471-5.925,2.039l-1.672.484-.586-1.629c-.338-.943-.75-2.045-1.229-3.056-.519-1.083-1.128-2.23-1.865-3.509a15.963,15.963,0,0,0-.969-1.53c-.371-.543-.732-1.046-1.1-1.549s-.753-1-1.132-1.483c-.328-.39-.674-.769-1.03-1.159l-.285-.308a32.144,32.144,0,0,0-2.282-2.3c-.763-.679-1.618-1.4-2.606-2.18-.618-.476-1.256-.9-1.932-1.343l-.616-.409c-.433-.283-.815-.533-1.207-.769l-1.286-.705a44,44,0,0,0-9.776-3.816,59.182,59.182,0,0,0-9.35-1.615c-2.077-.183-4.418-.287-6.443-.287-.815,0-1.57.018-2.224.054A52.8,52.8,0,0,0,402.182,40.8a65.982,65.982,0,0,0-14.633,8.475A144.844,144.844,0,0,0,375.014,60.13c-1.731,1.636-3.513,3.265-5.333,4.928l-1.009.922c-1.386,1.226-6.575,5.84-6.575,5.84-11.5,10.028-25.12,15.332-39.382,15.332-1.475,0-2.977-.058-4.466-.171-7.655-.577-14.892-2.993-21.892-5.33l-.343-.115c-1.152-.384-2.3-.768-3.452-1.14a6.047,6.047,0,0,1-2.54-1.895,7.573,7.573,0,0,0-.816-.807c-8.46-6.472-16.752-12.793-25.248-19.016L261.661,57l2.485-1.392a88.772,88.772,0,0,1,10.673-5.117c1.959-.783,3.947-1.467,5.914-2.037l1.675-.486.583,1.635c.406,1.138.822,2.176,1.237,3.081.574,1.164,1.211,2.359,1.857,3.482a17.031,17.031,0,0,0,.983,1.548c.358.511.723,1.02,1.1,1.529.331.452.672.9,1.015,1.341l.113.148c.219.266.454.524.693.786l.486.533c.816.88,1.643,1.77,2.419,2.45s1.642,1.4,2.608,2.173c.7.546,1.408,1.011,2.156,1.5l.369.241c.4.261.813.527,1.219.776l1.29.7a42.376,42.376,0,0,0,9.775,3.819,58.283,58.283,0,0,0,9.352,1.616c2.02.185,4.337.289,6.372.289M12.579,53.715c8.167-5.982,16.278-12.157,25.275-19.028a7.8,7.8,0,0,0,.8-.8A6.12,6.12,0,0,1,41.19,32q1.862-.606,3.719-1.23C51.932,28.424,59.192,26,66.883,25.422c1.487-.114,3-.173,4.492-.173,14.249,0,27.853,5.295,39.343,15.314q3.264,2.913,6.563,5.83l.807.737c1.927,1.761,3.746,3.424,5.555,5.148a146.661,146.661,0,0,0,12.536,10.839A65.684,65.684,0,0,0,150.808,71.6,52.468,52.468,0,0,0,169.6,75.557c.72.039,1.494.058,2.359.058,2.036,0,4.367-.106,6.4-.291a58.1,58.1,0,0,0,9.324-1.613,42.288,42.288,0,0,0,9.769-3.814l1.255-.681c.452-.276.868-.542,1.272-.808l.336-.219c.774-.508,1.481-.973,2.2-1.531.956-.76,1.8-1.465,2.594-2.161s1.612-1.58,2.415-2.445l.187-.2c.387-.419.7-.762,1.017-1.146l.148-.193c.3-.39.632-.827.958-1.271.375-.51.74-1.018,1.1-1.537a17.3,17.3,0,0,0,.962-1.511c.668-1.164,1.309-2.365,1.893-3.554.4-.864.813-1.907,1.218-3.04l.583-1.633,1.674.486c1.962.569,3.954,1.254,5.919,2.039A88.971,88.971,0,0,1,233.841,55.6l2.485,1.392-2.3,1.683C225.541,64.9,217.235,71.227,208.766,77.7a7.546,7.546,0,0,0-.783.776,6.091,6.091,0,0,1-2.568,1.917c-1.193.387-2.395.788-3.6,1.19l-.188.063c-7,2.337-14.237,4.753-21.893,5.33-1.488.113-2.988.171-4.464.171-14.263,0-27.877-5.3-39.371-15.322l-2.388-2.122q-2.076-1.845-4.175-3.707l-1.036-.946c-1.824-1.667-3.6-3.293-5.331-4.924A144.64,144.64,0,0,0,110.44,49.275,66.122,66.122,0,0,0,95.8,40.8a52.586,52.586,0,0,0-18.787-3.962c-.713-.038-1.467-.056-2.282-.056-2.025,0-4.387.106-6.477.29a58.934,58.934,0,0,0-9.321,1.613,44.023,44.023,0,0,0-9.77,3.815l-1.252.686c-.439.262-.833.52-1.229.78l-.622.412c-.676.447-1.317.869-1.962,1.366-1.014.808-1.825,1.486-2.566,2.147a32.164,32.164,0,0,0-2.321,2.341l-.192.207c-.4.439-.765.837-1.136,1.28-.343.438-.724.933-1.094,1.437s-.732,1.008-1.083,1.521a16.475,16.475,0,0,0-.981,1.542c-.746,1.3-1.361,2.458-1.877,3.534-.47.993-.884,2.1-1.227,3.051l-.587,1.626-1.669-.484c-1.954-.567-3.948-1.252-5.927-2.039A89.51,89.51,0,0,1,12.768,56.79L10.282,55.4ZM430.663,77.839A164.219,164.219,0,0,0,450.223,74.5l10.7-2.527-.069,4.211c-.025.953-.13,2.058-.19,2.633A29.488,29.488,0,0,1,450.65,97.583a30.487,30.487,0,0,1-3.557,2.652,30.1,30.1,0,0,1-3.7,1.995,28.508,28.508,0,0,1-6.713,2.038,31.723,31.723,0,0,1-5.264.448,34.625,34.625,0,0,1-5.885-.526c-1.158-.193-2.285-.31-3.434-.422l-.126-.013a42.336,42.336,0,0,1-6.385-1.017,14.4,14.4,0,0,1-4.374-1.89l-.076-.055a9.172,9.172,0,0,1-2.8-2.92,9.059,9.059,0,0,1-1.165-3.193,10.412,10.412,0,0,1-.031-3.114,9.9,9.9,0,0,1,.762-2.712,8,8,0,0,1,1.219-1.9,12.946,12.946,0,0,1,3.632-2.926A32.666,32.666,0,0,1,417.7,81.8l2.979-1.158,2.848-.876.3-.1c1.122-.387,2.435-.716,3.826-1.062l1.6-.389c.39-.1.758-.207,1.08-.309l.165-.05ZM66.569,104.716a31.036,31.036,0,0,1-5.172-.436,28.982,28.982,0,0,1-6.9-2.094,29.783,29.783,0,0,1-3.514-1.89,31.31,31.31,0,0,1-3.639-2.7,29.625,29.625,0,0,1-6.315-7.648,28.852,28.852,0,0,1-3.7-11.1c-.07-.7-.171-1.754-.2-2.644l-.045-4.226L47.761,74.5a164.456,164.456,0,0,0,19.565,3.343l.175.021.167.051c.317.1.691.207,1.1.308l1.542.381c1.42.355,2.736.683,3.879,1.078l3.193.991,2.934,1.145a32.239,32.239,0,0,1,4.894,2.2,13.074,13.074,0,0,1,3.63,2.909,8.235,8.235,0,0,1,1.23,1.887,10.1,10.1,0,0,1,.774,2.777,10.438,10.438,0,0,1-.025,3.067,9.223,9.223,0,0,1-1.192,3.259,9.332,9.332,0,0,1-2.781,2.889l-.075.048a14.412,14.412,0,0,1-4.289,1.874,43.306,43.306,0,0,1-6.466,1.029l-.114.012c-1.159.114-2.294.232-3.426.423a35.159,35.159,0,0,1-5.908.527" transform="translate(1.007 1)" fill="#21a179"/>
      <path id="Path_5121" data-name="Path 5121" d="M432.42,112.393a37.783,37.783,0,0,0,6.389-.546,35.618,35.618,0,0,0,8.334-2.524,36.188,36.188,0,0,0,4.554-2.449,37.428,37.428,0,0,0,4.365-3.257,36.087,36.087,0,0,0,12.28-23.078c.084-.8.2-2.061.223-3.256l.03-1.813,1.671-.733c6.953-3.049,13.765-6.048,20.518-9.027,1.321-.574,2.63-1.2,3.906-1.867.686-.346,1.335-.684,1.974-1.031l1.323-.716V47.106c-6.707-5.121-13.317-10.086-20.153-14.629-.943-.623-1.893-1.257-2.844-1.894-6.07-4.06-12.347-8.258-19.328-10.562a61.225,61.225,0,0,0-19.205-3.1h0a65.543,65.543,0,0,0-13.447,1.429,153.011,153.011,0,0,0-22.581,6.3,90.188,90.188,0,0,0-10.685,4.836c-1.713.92-3.446,1.948-5.154,3.051-.81.528-1.678,1.108-2.544,1.718-.822.592-1.649,1.209-2.466,1.847l-1.5,1.18c-.191.155-.4.339-.6.521-.223.2-.445.4-.678.589-.5.451-1.01.9-1.52,1.347q-.574.5-1.144,1.012-1.834,1.626-3.659,3.26l-1.636,1.461-10.3,9.344a38.92,38.92,0,0,1-15.787,8.749,45.981,45.981,0,0,1-9.07,1.615c-1.415.146-2.9.165-4.335.183l-.371,0c-.61-.015-1.238-.048-1.866-.082l-.715-.038c-.789-.068-1.57-.164-2.358-.262l-.153-.019a37.084,37.084,0,0,1-10.93-3.293,30.326,30.326,0,0,1-9.869-7.457c-.2-.245-.337-.412-.475-.578A16.611,16.611,0,0,1,300.98,51.4c-.373-.593-.77-1.236-1.143-1.934l-1.731-3.237,3.588-.85a161.474,161.474,0,0,1,19.7-3.315l.078-.027c.39-.135.784-.269,1.208-.381l1.357-.336c1.585-.389,3.226-.792,4.73-1.305,1.109-.351,2.14-.673,3.179-.995q1.533-.6,3.066-1.18a39.684,39.684,0,0,0,5.979-2.723,19.675,19.675,0,0,0,5.439-4.452,15.064,15.064,0,0,0,2.163-3.414,16.972,16.972,0,0,0,1.286-4.531,17.214,17.214,0,0,0-.062-5.1,15.712,15.712,0,0,0-2.024-5.526,15.911,15.911,0,0,0-4.843-5.056,21.276,21.276,0,0,0-6.477-2.848,49.587,49.587,0,0,0-7.514-1.205c-1.068-.107-2.076-.21-2.98-.364A41.091,41.091,0,0,0,318.958,2a37.835,37.835,0,0,0-6.387.545,35.466,35.466,0,0,0-8.335,2.523,34.985,34.985,0,0,0-4.547,2.446,36.28,36.28,0,0,0-16.653,26.34c-.109,1.04-.213,2.182-.222,3.22L282.8,38.9l-22.215,9.782c-1.315.576-2.629,1.205-3.914,1.871-.657.337-1.3.675-1.946,1.025l-1.557.844s-2.595-1.809-3.167-2.2q-.859.593-1.716,1.19l-1.45,1.015-1.558-.845q-.965-.525-1.933-1.018c-1.3-.672-2.61-1.3-3.922-1.877L217.2,38.9l-.016-1.827c-.009-1.047-.113-2.185-.225-3.261A36.169,36.169,0,0,0,204.7,10.789a36.881,36.881,0,0,0-4.4-3.283,34.969,34.969,0,0,0-4.507-2.425,35.636,35.636,0,0,0-8.373-2.54A37.951,37.951,0,0,0,181.045,2a41.188,41.188,0,0,0-7.03.625c-.9.154-1.907.257-2.975.364A49.632,49.632,0,0,0,163.51,4.2a21.249,21.249,0,0,0-6.435,2.826,15.966,15.966,0,0,0-4.865,5.066,15.712,15.712,0,0,0-2.027,5.536,17.011,17.011,0,0,0,1.231,9.647,15.113,15.113,0,0,0,2.172,3.42,19.669,19.669,0,0,0,5.423,4.429,39.555,39.555,0,0,0,5.968,2.72q1.546.588,3.075,1.183c1.039.322,2.067.644,3.116.974,1.568.534,3.209.937,4.8,1.327l1.323.328c.455.119.851.253,1.241.389l.076.026a161.25,161.25,0,0,1,19.7,3.315l3.584.849-1.725,3.235c-.372.7-.77,1.343-1.144,1.938a16.461,16.461,0,0,1-1.632,2.228c-.138.167-.276.334-.413.5a30.387,30.387,0,0,1-9.929,7.531,36.992,36.992,0,0,1-10.88,3.288l-.207.026c-.788.1-1.569.194-2.359.262l-.711.038c-.629.033-1.257.067-1.868.082l-.37,0c-1.436-.018-2.922-.037-4.423-.191a45.628,45.628,0,0,1-8.966-1.6A38.954,38.954,0,0,1,141.443,54.8c-1.841-1.667-10.3-9.346-10.3-9.346l-1.732-1.547q-1.774-1.584-3.54-3.153c-.39-.349-.776-.689-1.162-1.028-.506-.445-1.013-.889-1.509-1.337-.232-.193-.452-.388-.673-.584-.205-.184-.412-.369-.633-.547l-1.484-1.168q-1.208-.943-2.475-1.855c-.844-.593-1.71-1.173-2.527-1.7-1.7-1.1-3.436-2.129-5.149-3.048A89.892,89.892,0,0,0,99.58,24.652a153.069,153.069,0,0,0-22.6-6.309,65.553,65.553,0,0,0-13.44-1.427,61.227,61.227,0,0,0-19.206,3.1c-6.983,2.3-13.259,6.5-19.328,10.563q-1.425.954-2.852,1.9c-6.822,4.534-13.435,9.5-20.145,14.624V62.1l1.323.716c.639.347,1.287.685,1.937,1.011Q7.25,64.856,9.2,65.7c6.766,2.985,13.579,5.984,20.531,9.033l1.67.733.031,1.811c.017.919.089,1.967.227,3.3a35.729,35.729,0,0,0,4.572,13.728,36.131,36.131,0,0,0,7.7,9.309,37.739,37.739,0,0,0,4.393,3.276,36.169,36.169,0,0,0,4.505,2.421,35.651,35.651,0,0,0,8.378,2.537,37.635,37.635,0,0,0,6.367.543,41.851,41.851,0,0,0,7.026-.626c.9-.155,1.912-.256,2.98-.364a49.568,49.568,0,0,0,7.536-1.209,21.219,21.219,0,0,0,6.434-2.826,16.043,16.043,0,0,0,4.866-5.065,15.774,15.774,0,0,0,2.017-5.537,16.518,16.518,0,0,0,.061-5.1,16.879,16.879,0,0,0-1.283-4.544,14.912,14.912,0,0,0-2.18-3.418,19.651,19.651,0,0,0-5.418-4.432,38.412,38.412,0,0,0-5.96-2.7c-.781-.305-3.087-1.2-3.087-1.2l-3.093-.96c-1.626-.557-3.3-.968-4.913-1.364l-1.228-.3a12.086,12.086,0,0,1-1.232-.386l-.087-.031a161.453,161.453,0,0,1-19.693-3.3l-3.516-.833,1.633-3.2c.38-.747.8-1.4,1.2-2.037a16.484,16.484,0,0,1,1.56-2.126c.149-.181.3-.363.448-.55l.071-.088a30.359,30.359,0,0,1,9.854-7.455,36.942,36.942,0,0,1,10.884-3.289l.924-.11c.549-.066,1.092-.132,1.65-.18l.725-.039c.621-.032,1.248-.064,1.845-.08l.843.013c1.285.021,2.615.043,3.963.182a46.314,46.314,0,0,1,8.963,1.6,39.236,39.236,0,0,1,15.818,8.765c3.393,3.093,6.852,6.229,10.3,9.348,1.751,1.57,3.52,3.148,5.268,4.705l2.7,2.379c.174.147.386.335.6.527s.444.4.687.6l1.473,1.15c.815.637,1.642,1.254,2.486,1.862.895.635,1.739,1.206,2.5,1.689,1.681,1.089,3.418,2.116,5.181,3.063a87.216,87.216,0,0,0,10.666,4.828,152.63,152.63,0,0,0,22.605,6.314,65.6,65.6,0,0,0,13.448,1.429,60.984,60.984,0,0,0,19.187-3.108c6.987-2.305,13.264-6.5,19.338-10.559q1.422-.951,2.845-1.892C233.684,77.119,240.444,72,247.9,66.3l1.717-1.315.383.286.381-.285,1.716,1.313c7.462,5.711,14.225,10.828,21.447,15.631.939.619,1.884,1.251,2.833,1.885,6.073,4.058,12.353,8.255,19.338,10.559a60.963,60.963,0,0,0,19.188,3.109,65.567,65.567,0,0,0,13.454-1.431,152.539,152.539,0,0,0,22.582-6.305,87.312,87.312,0,0,0,10.684-4.835c1.756-.944,3.495-1.972,5.166-3.053.775-.5,1.619-1.066,2.522-1.709.977-.7,1.764-1.292,2.462-1.843l1.522-1.19c.2-.166.427-.367.648-.565s.428-.382.648-.568l2.657-2.347c1.741-1.55,3.51-3.128,5.269-4.705,3.441-3.111,6.9-6.248,10.3-9.346a39.186,39.186,0,0,1,15.79-8.754,46.626,46.626,0,0,1,9.065-1.613c1.268-.132,2.6-.154,3.884-.175l.842-.013c.6.016,1.225.048,1.846.08l.724.039c.558.048,1.1.114,1.652.18l.83.1a37.052,37.052,0,0,1,10.97,3.3,30.294,30.294,0,0,1,9.86,7.458s.37.458.519.639a16.632,16.632,0,0,1,1.608,2.2c.361.572.77,1.219,1.145,1.954l1.639,3.207-3.52.834a161.453,161.453,0,0,1-19.693,3.3l-.092.032a11.788,11.788,0,0,1-1.246.39l-1.211.3c-1.617.4-3.286.806-4.825,1.336l-3.179.987-3.04,1.181a38.593,38.593,0,0,0-6.009,2.721,19.652,19.652,0,0,0-5.429,4.448,14.874,14.874,0,0,0-2.175,3.418,16.876,16.876,0,0,0-1.275,4.524,16.555,16.555,0,0,0,.058,5.1,15.626,15.626,0,0,0,2.023,5.536,15.88,15.88,0,0,0,4.841,5.063A21.318,21.318,0,0,0,414.9,110.2a49.418,49.418,0,0,0,7.519,1.2c1.067.109,2.076.21,2.981.365a41.217,41.217,0,0,0,7.024.626M462.957,71.7l-.091,5.5c-.025,1.006-.134,2.135-.2,2.721A30.49,30.49,0,0,1,452.32,99.336a31.636,31.636,0,0,1-3.676,2.739,30.835,30.835,0,0,1-3.838,2.07,29.532,29.532,0,0,1-6.94,2.107,32.714,32.714,0,0,1-5.441.464,35.641,35.641,0,0,1-6.053-.54c-1.131-.189-2.237-.3-3.365-.413l-.131-.014a43.18,43.18,0,0,1-6.531-1.042,15.464,15.464,0,0,1-4.69-2.032l-.1-.07a10.036,10.036,0,0,1-4.371-6.757,11.5,11.5,0,0,1-.036-3.416,10.929,10.929,0,0,1,.842-2.992,8.919,8.919,0,0,1,1.352-2.115,14.022,14.022,0,0,1,3.909-3.164,33.678,33.678,0,0,1,5.1-2.294l2.965-1.153,2.915-.9.275-.091c1.162-.4,2.5-.737,3.927-1.092l1.577-.384c.364-.091.712-.194,1.016-.29l.259-.08.27-.031A163.241,163.241,0,0,0,451,74.524L462.957,71.7m-425.884,0L49,74.523a163.613,163.613,0,0,0,19.447,3.323l.27.031.258.08c.3.1.653.2,1.041.291l1.544.381c1.425.356,2.772.692,3.968,1.1l3.162.982,3,1.167a33.363,33.363,0,0,1,5.034,2.268,14.032,14.032,0,0,1,3.894,3.132A9.242,9.242,0,0,1,92,89.407a11.115,11.115,0,0,1,.852,3.049,11.454,11.454,0,0,1-.029,3.354,10.046,10.046,0,0,1-4.406,6.822l-.088.056a15.443,15.443,0,0,1-4.581,2,44.287,44.287,0,0,1-6.619,1.058l-.118.012c-1.143.112-2.248.226-3.359.414a36.089,36.089,0,0,1-6.076.541,32.208,32.208,0,0,1-5.34-.45,30.006,30.006,0,0,1-7.143-2.168,30.63,30.63,0,0,1-3.636-1.954,32.361,32.361,0,0,1-3.767-2.8,30.579,30.579,0,0,1-6.526-7.9,29.892,29.892,0,0,1-3.83-11.479c-.079-.774-.177-1.827-.2-2.736L37.074,71.7M284.045,47.739l.9,2.526c.4,1.116.8,2.126,1.206,3,.539,1.093,1.159,2.26,1.814,3.4a16.468,16.468,0,0,0,.937,1.475q.53.753,1.084,1.509c.363.494.74.983,1.115,1.471.208.253.46.526.712.8l.412.451c.786.847,1.6,1.723,2.339,2.373.771.677,1.613,1.378,2.572,2.142.668.52,1.367.978,2.106,1.463l.343.225c.391.255.8.516,1.195.76l1.244.675a41.379,41.379,0,0,0,9.555,3.732,57.44,57.44,0,0,0,9.194,1.587c1.963.179,4.261.283,6.267.283.845,0,1.6-.018,2.243-.054a51.686,51.686,0,0,0,18.528-3.893A64.347,64.347,0,0,0,362.2,63.323a145.753,145.753,0,0,0,12.463-10.776c1.8-1.716,3.627-3.386,5.561-5.153l.784-.718c2.236-1.98,4.417-3.917,6.579-5.844,11.7-10.2,25.532-15.583,40.029-15.583,1.512,0,3.052.059,4.573.176,7.811.587,15.135,3.031,22.216,5.395,1.238.413,2.473.825,3.707,1.227a7.029,7.029,0,0,1,2.964,2.167,7.325,7.325,0,0,0,.7.695c9.313,7.112,17.1,13.039,25.239,19l3.55,2.6-3.842,2.151a90.721,90.721,0,0,1-10.79,5.172c-2,.8-4.028,1.493-6.017,2.069l-2.581.749-.906-2.516c-.331-.923-.732-2-1.192-2.966-.5-1.053-1.1-2.182-1.829-3.441a15.307,15.307,0,0,0-.915-1.445c-.377-.551-.732-1.045-1.1-1.539s-.739-.982-1.112-1.458c-.319-.378-.683-.775-1.055-1.183l-.205-.22c-.742-.8-1.508-1.622-2.205-2.228-.762-.677-1.594-1.374-2.572-2.151-.581-.446-1.208-.86-1.871-1.3l-.607-.4c-.392-.256-.776-.508-1.168-.743l-1.253-.686a43.065,43.065,0,0,0-9.556-3.729A58.36,58.36,0,0,0,430.6,39.06c-2.013-.177-4.341-.281-6.334-.281-.8,0-1.531.017-2.168.052a51.758,51.758,0,0,0-18.527,3.895,65,65,0,0,0-14.407,8.346,143.831,143.831,0,0,0-12.448,10.782c-1.734,1.64-3.521,3.273-5.345,4.94l-1.009.922c-1.4,1.236-6.585,5.849-6.585,5.849-11.7,10.2-25.543,15.586-40.053,15.586-1.5,0-3.03-.058-4.543-.173-7.777-.585-15.075-3.022-22.135-5.379-1.265-.422-2.526-.844-3.789-1.253a6.965,6.965,0,0,1-2.97-2.171,7.192,7.192,0,0,0-.693-.694c-8.44-6.457-16.738-12.782-25.225-19l-3.549-2.6,3.84-2.152a89.779,89.779,0,0,1,10.794-5.174c1.978-.79,4-1.488,6-2.068l2.588-.751M75.737,38.779c-1.993,0-4.321.1-6.39.285A58.358,58.358,0,0,0,60.2,40.646a43.085,43.085,0,0,0-9.548,3.727l-1.252.686c-.393.235-.776.486-1.16.738l-.619.41c-.663.438-1.289.853-1.905,1.325-.964.769-1.774,1.446-2.508,2.1a31.974,31.974,0,0,0-2.253,2.274l-.194.208c-.361.4-.727.794-1.1,1.241-.316.4-.691.891-1.054,1.387s-.721.991-1.065,1.494a15.578,15.578,0,0,0-.934,1.467c-.739,1.286-1.34,2.416-1.847,3.477-.452.953-.855,2.031-1.189,2.958l-.906,2.513-2.58-.749c-1.985-.575-4.009-1.271-6.017-2.069a90.709,90.709,0,0,1-10.789-5.172L9.439,56.51l3.55-2.6c8.144-5.966,16.257-12.141,25.258-19.016a7.549,7.549,0,0,0,.676-.681,7.025,7.025,0,0,1,2.958-2.164q1.86-.606,3.714-1.229c7.081-2.364,14.4-4.808,22.219-5.395,1.518-.117,3.057-.176,4.569-.176,14.5,0,28.331,5.382,40.006,15.562,2.184,1.949,4.365,3.885,6.568,5.834l.819.749c1.934,1.767,3.762,3.437,5.571,5.163a145.568,145.568,0,0,0,12.445,10.762A64.727,64.727,0,0,0,152.2,71.672a51.515,51.515,0,0,0,18.427,3.885c.734.04,1.489.058,2.334.058,2.006,0,4.3-.1,6.3-.287a57.168,57.168,0,0,0,9.152-1.582,41.291,41.291,0,0,0,9.545-3.725l1.26-.683c.4-.244.805-.505,1.2-.765l.335-.22c.739-.485,1.437-.943,2.128-1.481.93-.74,1.771-1.44,2.549-2.124.745-.655,1.564-1.537,2.356-2.39l.17-.184c.334-.363.656-.711.978-1.1.324-.425.7-.92,1.075-1.423s.73-1.006,1.091-1.519a15.828,15.828,0,0,0,.9-1.42c.672-1.172,1.293-2.339,1.871-3.512.364-.8.77-1.807,1.174-2.935l.9-2.523,2.587.751c2,.579,4.021,1.277,6.011,2.071a89.9,89.9,0,0,1,10.785,5.17l3.841,2.152-3.549,2.6C227.146,66.7,218.848,73.024,210.387,79.5a7.6,7.6,0,0,0-.671.677,6.956,6.956,0,0,1-2.985,2.176c-1.248.4-2.51.827-3.775,1.249-7.059,2.357-14.359,4.794-22.137,5.379-1.51.115-3.037.173-4.54.173-14.511,0-28.355-5.383-40.035-15.569l-2.395-2.129q-2.075-1.845-4.173-3.7l-1.048-.957c-1.822-1.666-3.608-3.3-5.342-4.936A144,144,0,0,0,110.84,51.072a65.109,65.109,0,0,0-14.419-8.351,51.6,51.6,0,0,0-18.427-3.886c-.726-.039-1.462-.056-2.257-.056M318.955,7.666a35.808,35.808,0,0,1,6.052.54c1.088.184,2.169.3,3.37.415a43.806,43.806,0,0,1,6.647,1.054,15.4,15.4,0,0,1,4.675,2.019l.132.094a10.054,10.054,0,0,1,4.353,6.728A11.558,11.558,0,0,1,343.4,24.9a9.785,9.785,0,0,1-1.348,2.131,14.4,14.4,0,0,1-3.935,3.184,35.458,35.458,0,0,1-5.166,2.338s-2.271.863-2.812,1.074l-.091.035-.093.028c-.949.3-1.9.6-2.86.9l-.194.063c-1.15.392-2.465.718-3.859,1.063l-1.853.458c-.271.075-.523.142-.748.218l-.293.1-.307.036a163.051,163.051,0,0,0-19.473,3.331l-11.951,2.825.091-5.508c.011-.84.107-1.81.191-2.666a30.578,30.578,0,0,1,3.871-11.638A30.135,30.135,0,0,1,299.1,15.02a30.644,30.644,0,0,1,3.647-2.721,29.089,29.089,0,0,1,3.739-2.028l.117-.046a30.054,30.054,0,0,1,6.9-2.094,32.632,32.632,0,0,1,5.455-.465M211.576,42.692l-11.945-2.823a163.4,163.4,0,0,0-19.477-3.332l-.307-.036-.293-.1c-.221-.075-.472-.141-.742-.216l-1.7-.422c-1.448-.357-2.817-.695-4.044-1.108l-.19-.062q-1.415-.454-2.842-.9l-.093-.028-.091-.035c-.516-.2-1.035-.4-1.548-.594l-1.313-.5a35.38,35.38,0,0,1-5.1-2.305,14.441,14.441,0,0,1-3.889-3.124,9.62,9.62,0,0,1-1.377-2.152A10.848,10.848,0,0,1,155.782,22a11.113,11.113,0,0,1,.034-3.458,10.01,10.01,0,0,1,1.314-3.582,9.841,9.841,0,0,1,3.034-3.167l.138-.1a15.449,15.449,0,0,1,4.59-2,44.268,44.268,0,0,1,6.641-1.059c1.29-.128,2.368-.24,3.431-.422a36.333,36.333,0,0,1,6.083-.542,31.967,31.967,0,0,1,5.343.451,29.768,29.768,0,0,1,7,2.1l.053.021a28.27,28.27,0,0,1,3.764,2.028,30.576,30.576,0,0,1,14.08,22.156c.092.919.189,1.894.2,2.755l.088,5.512m220.844,71.7a43.062,43.062,0,0,1-7.362-.655c-.828-.141-1.788-.239-2.8-.342a51.324,51.324,0,0,1-7.854-1.258,23.421,23.421,0,0,1-7.109-3.13,17.949,17.949,0,0,1-5.447-5.708,17.592,17.592,0,0,1-2.272-6.223,18.5,18.5,0,0,1-.065-5.693,18.8,18.8,0,0,1,1.428-5.058,16.982,16.982,0,0,1,2.455-3.872,21.605,21.605,0,0,1,5.973-4.911,40.7,40.7,0,0,1,6.321-2.868L418.7,73.5l.065-.025.067-.021,3.15-.978c1.613-.554,3.313-.971,4.956-1.374l1.223-.3a9.882,9.882,0,0,0,1.05-.33l.1-.036.218-.077.229-.025a159.3,159.3,0,0,0,19.45-3.262l1.037-.245-.483-.944c-.342-.671-.737-1.294-1.054-1.8l-.018-.029-.018-.03a14.646,14.646,0,0,0-1.423-1.941c-.135-.164-.435-.535-.514-.632a28.314,28.314,0,0,0-9.193-6.938A35.209,35.209,0,0,0,427.169,51.4l-.782-.092c-.521-.063-1.034-.125-1.557-.17l-.691-.038c-.585-.03-1.18-.061-1.748-.076l-.8.012c-1.233.02-2.511.04-3.705.164l-.029,0-.029,0a44.789,44.789,0,0,0-8.671,1.544,37.162,37.162,0,0,0-14.971,8.3c-3.405,3.1-6.867,6.243-10.31,9.355-1.768,1.584-3.538,3.164-5.28,4.715l-2.663,2.353c-.241.2-.44.381-.639.56l-.072.063c-.221.2-.443.395-.646.561l-1.554,1.215c-.716.567-1.522,1.17-2.527,1.893-.933.664-1.81,1.258-2.614,1.771-1.709,1.106-3.494,2.161-5.3,3.129a89.413,89.413,0,0,1-10.935,4.949A154.418,154.418,0,0,1,328.781,98a67.642,67.642,0,0,1-13.875,1.475,63.019,63.019,0,0,1-19.825-3.211c-7.243-2.39-13.639-6.664-19.824-10.8-.955-.638-1.892-1.264-2.823-1.878-7.287-4.846-14.076-9.983-21.563-15.713l-.5-.386-.367.273-.364-.272-.5.386c-7.49,5.733-14.281,10.871-21.545,15.7-.953.627-1.9,1.257-2.84,1.889-6.193,4.138-12.585,8.409-19.828,10.8a63.008,63.008,0,0,1-19.821,3.21,67.626,67.626,0,0,1-13.864-1.472,154.53,154.53,0,0,1-22.907-6.4,89.24,89.24,0,0,1-10.905-4.937c-1.809-.972-3.6-2.031-5.323-3.147-.777-.5-1.645-1.083-2.565-1.736s-1.753-1.287-2.561-1.918l-1.473-1.15c-.288-.234-.525-.446-.759-.656s-.425-.379-.586-.515l-2.732-2.41c-1.756-1.564-3.527-3.144-5.28-4.716-3.459-3.125-6.919-6.264-10.314-9.358a37.263,37.263,0,0,0-15.018-8.318,44.1,44.1,0,0,0-8.555-1.527l-.028,0-.027,0c-1.275-.131-2.553-.151-3.788-.171l-.8-.012c-.569.015-1.163.046-1.752.077l-.687.037c-.523.045-1.034.107-1.548.169l-.93.11a34.924,34.924,0,0,0-10.242,3.1,28.362,28.362,0,0,0-9.186,6.936l-.056.068c-.119.151-.258.32-.4.488l-.056.069a14.694,14.694,0,0,0-1.377,1.864l-.017.029-.018.029c-.409.648-.773,1.226-1.105,1.878l-.481.944,1.035.245a159.224,159.224,0,0,0,19.451,3.262l.227.025.216.076.087.03a10.459,10.459,0,0,0,1.041.33l1.237.306c1.646.4,3.35.822,5.054,1.4l3.067.951.066.021.064.025s2.311.895,3.093,1.2a40.049,40.049,0,0,1,6.236,2.834,21.558,21.558,0,0,1,5.957,4.886,17.047,17.047,0,0,1,2.463,3.87,18.838,18.838,0,0,1,1.442,5.093,18.466,18.466,0,0,1-.069,5.706,17.774,17.774,0,0,1-2.269,6.225,18.154,18.154,0,0,1-5.481,5.711,23.191,23.191,0,0,1-7.045,3.1,51.161,51.161,0,0,1-7.833,1.263c-1.041.105-2.015.2-2.852.346a43.835,43.835,0,0,1-7.366.655,39.519,39.519,0,0,1-6.707-.572,37.694,37.694,0,0,1-8.86-2.682,38.28,38.28,0,0,1-4.757-2.556,39.738,39.738,0,0,1-4.644-3.461A38.139,38.139,0,0,1,34.489,95.3a37.712,37.712,0,0,1-4.827-14.492c-.147-1.412-.222-2.514-.241-3.5l-.009-.534-.492-.216c-6.953-3.049-13.768-6.049-20.535-9.035C7.061,66.957,5.7,66.3,4.336,65.594c-.656-.33-1.327-.68-1.966-1.026l-1.322-.717L0,63.283V46.121l.787-.6c6.351-4.851,13.148-9.981,20.252-14.7.953-.629,1.9-1.262,2.847-1.9,6.18-4.135,12.57-8.411,19.818-10.8a63.24,63.24,0,0,1,19.84-3.207A67.624,67.624,0,0,1,77.4,16.386a154.857,154.857,0,0,1,22.9,6.4,91.845,91.845,0,0,1,10.914,4.942c1.753.94,3.533,1.994,5.29,3.131.921.6,1.792,1.185,2.592,1.747q1.332.96,2.557,1.915l1.49,1.173c.267.215.5.42.726.625.2.181.41.362.624.541l.031.026.029.027c.454.409.916.815,1.378,1.222l.112.1c.389.342.779.685,1.174,1.038,1.1.973,2.2,1.959,3.309,2.947l.23.206,1.732,1.547c.012.01,8.471,7.688,10.312,9.354a36.987,36.987,0,0,0,15.021,8.324,43.413,43.413,0,0,0,8.554,1.529l.031,0,.031,0c1.4.145,2.835.163,4.221.181l.347,0c.581-.015,1.177-.047,1.774-.079l.68-.036c.767-.067,1.556-.165,2.254-.251l.2-.026a34.925,34.925,0,0,0,10.255-3.1,28.53,28.53,0,0,0,9.258-7.007q.166-.207.334-.409l.072-.088a14.693,14.693,0,0,0,1.45-1.968l.015-.026.017-.027c.353-.561.728-1.17,1.072-1.814l.507-.952-1.055-.25a159.126,159.126,0,0,0-19.458-3.272l-.222-.025-.212-.073-.076-.026c-.358-.125-.706-.243-1.094-.345l-1.3-.321c-1.621-.4-3.3-.811-4.961-1.376-1-.314-2.026-.636-3.061-.956l-.07-.022-.068-.026c-1.017-.4-2.033-.787-3.059-1.178A41.318,41.318,0,0,1,158,36.85a21.557,21.557,0,0,1-5.958-4.879,17.067,17.067,0,0,1-2.459-3.876A18.992,18.992,0,0,1,148.2,17.307a17.7,17.7,0,0,1,2.284-6.237,18.026,18.026,0,0,1,5.482-5.711A23.194,23.194,0,0,1,163,2.263,51.461,51.461,0,0,1,170.837,1c.978-.1,1.99-.2,2.836-.345A43.143,43.143,0,0,1,181.045,0a39.868,39.868,0,0,1,6.712.569,37.791,37.791,0,0,1,8.857,2.686,36.848,36.848,0,0,1,4.764,2.562,38.8,38.8,0,0,1,4.646,3.467A38.157,38.157,0,0,1,218.96,33.578c.121,1.149.229,2.343.24,3.479l0,.538,21.034,9.26c1.358.6,2.718,1.248,4.039,1.934.647.33,1.307.677,1.965,1.035l.458.248.427-.3c.561-.392,1.122-.78,1.683-1.169l1.15-.795,1.191.767c.334.231,1.355.942,2.15,1.5l.46-.25c.656-.356,1.316-.7,1.988-1.047,1.319-.684,2.675-1.333,4.023-1.923L280.8,37.595l0-.538c.01-1.122.118-2.3.232-3.408A38.1,38.1,0,0,1,294.006,9.268,37.638,37.638,0,0,1,298.6,5.831,36.884,36.884,0,0,1,312.218.576,39.8,39.8,0,0,1,318.958,0a43.05,43.05,0,0,1,7.361.654c.855.145,1.866.247,2.845.345a51.338,51.338,0,0,1,7.807,1.257,23.33,23.33,0,0,1,7.115,3.133,17.934,17.934,0,0,1,5.443,5.694A17.653,17.653,0,0,1,351.8,17.3a19.025,19.025,0,0,1-1.373,10.771,17.127,17.127,0,0,1-2.438,3.858,21.661,21.661,0,0,1-5.987,4.919,41.525,41.525,0,0,1-6.279,2.864q-1.514.579-3.044,1.173l-.068.026-.069.022c-1.034.32-2.061.641-3.166.991-1.537.524-3.211.936-4.831,1.334l-1.382.342c-.322.086-.673.205-1.031.329l-.076.026-.214.075-.226.025a159.383,159.383,0,0,0-19.459,3.272l-1.056.251.509.952c.345.646.72,1.252,1.072,1.812l.017.027.016.028a14.8,14.8,0,0,0,1.446,1.966c.143.172.28.337.469.571a28.341,28.341,0,0,0,9.2,6.937,35.149,35.149,0,0,0,10.333,3.111L324.3,63c.691.086,1.479.184,2.245.251l.68.036c.6.033,1.2.064,1.778.079l.336,0c1.394-.018,2.825-.036,4.143-.173l.031,0,.031,0a43.949,43.949,0,0,0,8.67-1.545,36.89,36.89,0,0,0,14.966-8.292l10.311-9.353,1.648-1.472q1.83-1.635,3.664-3.264c.378-.338.765-.678,1.151-1.018l.125-.109c.462-.407.923-.812,1.376-1.221l.03-.028.032-.026c.215-.179.421-.362.627-.545.251-.223.466-.414.665-.576l1.524-1.2c.826-.645,1.677-1.282,2.537-1.9.8-.564,1.653-1.139,2.621-1.771,1.764-1.14,3.545-2.195,5.3-3.137a92.34,92.34,0,0,1,10.93-4.947,154.737,154.737,0,0,1,22.873-6.39,67.609,67.609,0,0,1,13.867-1.473A63.236,63.236,0,0,1,456.3,18.123c7.242,2.39,13.633,6.664,19.813,10.8q1.43.957,2.839,1.891c7.128,4.736,13.919,9.863,20.265,14.709l.787.6V63.283l-1.049.568-1.323.717c-.639.347-1.3.693-2.027,1.058-1.292.676-2.65,1.325-4.01,1.916-6.744,2.976-13.557,5.976-20.513,9.025l-.491.216-.009.534c-.022,1.272-.144,2.566-.234,3.428a38.088,38.088,0,0,1-12.958,24.378,39.312,39.312,0,0,1-4.6,3.431,38.5,38.5,0,0,1-4.841,2.6,37.536,37.536,0,0,1-8.787,2.66,39.8,39.8,0,0,1-6.742.577M421.981,82.6l-2.9,1.127a32.107,32.107,0,0,0-4.819,2.162,12.013,12.013,0,0,0-3.376,2.719,6.967,6.967,0,0,0-1.044,1.618,8.986,8.986,0,0,0-.7,2.478,9.473,9.473,0,0,0,.031,2.832,8.042,8.042,0,0,0,3.487,5.395l.034.023.034.024.1.07a13.41,13.41,0,0,0,4.021,1.721,41.343,41.343,0,0,0,6.232.988l.134.014c1.155.113,2.3.232,3.489.43a33.658,33.658,0,0,0,5.72.513,30.806,30.806,0,0,0,5.108-.436,27.484,27.484,0,0,0,6.45-1.96,28.882,28.882,0,0,0,3.586-1.936A29.406,29.406,0,0,0,451,97.83a28.487,28.487,0,0,0,9.677-18.154c.055-.526.158-1.6.182-2.529l.047-2.907-9.441,2.23a165.179,165.179,0,0,1-19.676,3.362l-.082.01-.081.024c-.418.132-.778.234-1.125.321l-1.587.386c-1.38.345-2.673.668-3.744,1.039l-.294.1ZM39.114,74.241l.032,2.965c.023.823.121,1.855.192,2.557A27.812,27.812,0,0,0,42.9,90.434a28.656,28.656,0,0,0,6.114,7.406,30.418,30.418,0,0,0,3.534,2.624,28.73,28.73,0,0,0,3.345,1.8,28.068,28.068,0,0,0,6.69,2.032,30.05,30.05,0,0,0,4.991.42,34.139,34.139,0,0,0,5.741-.513c1.163-.2,2.317-.317,3.495-.433l.114-.011a42.467,42.467,0,0,0,6.327-1.007,13.478,13.478,0,0,0,3.945-1.719l.119-.077a8.055,8.055,0,0,0,3.521-5.483,9.4,9.4,0,0,0,.018-2.742,9.106,9.106,0,0,0-.7-2.513,7.21,7.21,0,0,0-1.107-1.681,12.1,12.1,0,0,0-3.339-2.658,31.326,31.326,0,0,0-4.728-2.124L78.022,82.6l-3.094-.961-.03-.009-.029-.01c-1.1-.381-2.4-.7-3.768-1.047l-1.569-.387c-.38-.093-.773-.2-1.163-.325l-.071-.022-.083-.01a165.671,165.671,0,0,1-19.681-3.364Zm225.4-16.133,1.044.764c8.5,6.228,16.8,12.553,25.261,19.025a8.139,8.139,0,0,1,.944.923,5.211,5.211,0,0,0,2.107,1.622c1.161.376,2.313.76,3.468,1.146l.344.115c6.941,2.317,14.118,4.714,21.647,5.28,1.466.112,2.942.168,4.391.168,14.014,0,27.407-5.218,38.724-15.089,0,0,5.179-4.6,6.574-5.84l.984-.9c1.756-1.6,3.571-3.262,5.322-4.917a145.518,145.518,0,0,1,12.621-10.928,66.977,66.977,0,0,1,14.852-8.6,53.882,53.882,0,0,1,19.216-4.045c.652-.035,1.408-.053,2.248-.053,2.053,0,4.427.1,6.512.288a60.3,60.3,0,0,1,9.543,1.648,44.973,44.973,0,0,1,10,3.907l1.252.685.035.019.033.021c.4.242.8.5,1.2.764l.006,0,.036.024.607.4c.7.462,1.351.893,1.985,1.381,1.028.816,1.9,1.543,2.684,2.242.755.657,1.554,1.516,2.327,2.347l.217.234.09.1c.364.4.719.787,1.031,1.158l.022.027.022.027c.385.492.772.994,1.151,1.508s.743,1.023,1.133,1.594a17.042,17.042,0,0,1,1.01,1.6c.739,1.283,1.36,2.452,1.887,3.555.5,1.054.924,2.185,1.271,3.153l.266.74.76-.22c1.929-.559,3.891-1.234,5.833-2.007a88.478,88.478,0,0,0,10.551-5.057l1.131-.634-1.045-.765c-8.14-5.962-15.932-11.892-25.272-19.025a8.359,8.359,0,0,1-.944-.92,5.275,5.275,0,0,0-2.12-1.629c-1.206-.392-2.416-.8-3.631-1.2l-.087-.029c-6.963-2.325-14.163-4.729-21.726-5.3-1.468-.113-2.953-.17-4.422-.17-14,0-27.384,5.217-38.7,15.086q-3.219,2.871-6.567,5.834l-.76.695c-1.925,1.759-3.741,3.419-5.531,5.125a147.507,147.507,0,0,1-12.643,10.93,66.337,66.337,0,0,1-14.836,8.6,53.788,53.788,0,0,1-19.216,4.043c-.674.037-1.456.056-2.324.056-2.065,0-4.416-.106-6.45-.291a59.4,59.4,0,0,1-9.541-1.65,43.294,43.294,0,0,1-10-3.912l-1.232-.669-.047-.025-.046-.028c-.414-.254-.836-.525-1.242-.791l-.345-.226c-.791-.519-1.515-.994-2.241-1.559-1-.794-1.863-1.515-2.663-2.217s-1.658-1.625-2.475-2.5l-.434-.475-.073-.081c-.251-.274-.5-.546-.7-.8l-.022-.027-.021-.028-.114-.148c-.345-.449-.691-.9-1.025-1.354-.38-.518-.749-1.032-1.11-1.545a18.327,18.327,0,0,1-1.05-1.657c-.641-1.112-1.289-2.327-1.859-3.485l-.012-.024-.012-.026c-.427-.932-.855-2-1.27-3.162l-.265-.743-.762.221c-1.935.561-3.892,1.234-5.818,2a87.971,87.971,0,0,0-10.555,5.061ZM78.072,36.836a53.594,53.594,0,0,1,19.11,4.033,67.084,67.084,0,0,1,14.871,8.608,145.672,145.672,0,0,1,12.62,10.929c1.722,1.625,3.468,3.221,5.316,4.911l1.05.959c1.379,1.219,2.769,2.455,4.153,3.687l2.395,2.129c11.293,9.847,24.678,15.059,38.692,15.059,1.449,0,2.925-.056,4.386-.168,7.533-.566,14.71-2.963,21.65-5.28l.2-.067c1.2-.4,2.4-.8,3.589-1.188a5.18,5.18,0,0,0,2.127-1.626,8.577,8.577,0,0,1,.914-.9c8.486-6.491,16.8-12.825,25.293-19.049l1.046-.766-1.131-.633a87.7,87.7,0,0,0-10.541-5.054c-1.942-.776-3.9-1.451-5.831-2.01l-.762-.221-.266.742c-.414,1.16-.842,2.23-1.238,3.094l-.011.025-.012.025c-.595,1.209-1.244,2.428-1.931,3.624a17.932,17.932,0,0,1-1,1.568c-.373.532-.742,1.046-1.12,1.561-.332.451-.671.9-.972,1.289l-.125.163-.021.028-.022.027c-.339.413-.671.774-.993,1.124l-.059.064-.171.186c-.839.9-1.689,1.818-2.506,2.537s-1.663,1.421-2.624,2.187c-.764.6-1.489,1.071-2.256,1.575l-.358.235c-.415.271-.838.543-1.253.8l-.046.028-.046.025-1.26.684a43.207,43.207,0,0,1-9.984,3.9,58.851,58.851,0,0,1-9.468,1.641c-2.083.191-4.447.3-6.513.3-.875,0-1.665-.019-2.415-.06a53.474,53.474,0,0,1-19.109-4.032,66.68,66.68,0,0,1-14.862-8.61,147.563,147.563,0,0,1-12.617-10.907c-1.8-1.72-3.622-3.382-5.546-5.14l-.819-.748q-3.272-2.9-6.551-5.82c-11.286-9.84-24.66-15.049-38.66-15.049-1.469,0-2.953.057-4.414.17-7.568.568-14.769,2.972-21.733,5.3q-1.865.623-3.729,1.234a5.254,5.254,0,0,0-2.1,1.616,8.118,8.118,0,0,1-.914.9C30.473,43.354,22.357,49.532,14.183,55.52l-1.046.765,1.131.634a88.813,88.813,0,0,0,10.548,5.057c1.949.774,3.912,1.449,5.834,2.006l.76.221.267-.74c.351-.973.776-2.107,1.262-3.135.53-1.107,1.158-2.287,1.92-3.616A17.637,17.637,0,0,1,35.9,55.077q.474-.693,1.082-1.517c.372-.509.76-1.012,1.086-1.43l.021-.027.022-.027c.39-.465.762-.872,1.122-1.266l.037-.041.205-.221a33.32,33.32,0,0,1,2.406-2.421c.738-.658,1.562-1.347,2.575-2.155.7-.54,1.388-.993,2.049-1.43l.618-.409c.412-.271.818-.537,1.235-.786l.034-.021.034-.019,1.252-.686a44.966,44.966,0,0,1,9.987-3.9,59.924,59.924,0,0,1,9.462-1.642c2.159-.19,4.553-.3,6.606-.3.848,0,1.613.019,2.335.057M307.263,12.115a27.158,27.158,0,0,0-3.436,1.87,28.475,28.475,0,0,0-3.4,2.536,28.148,28.148,0,0,0-6.107,7.355A28.687,28.687,0,0,0,290.7,34.757c-.077.771-.167,1.693-.177,2.453l-.048,2.942,9.428-2.229a165.028,165.028,0,0,1,19.71-3.373l.088-.01.091-.031c.223-.076.471-.146.734-.218l.124-.034.028-.008.028-.007,1.853-.458c1.347-.333,2.618-.648,3.692-1.014l.219-.072c.973-.312,1.928-.612,2.882-.911l.033-.01.022-.009c.544-.211,2.826-1.079,2.826-1.079a33.714,33.714,0,0,0,4.87-2.2,12.473,12.473,0,0,0,3.394-2.726,7.8,7.8,0,0,0,1.076-1.7,9.6,9.6,0,0,0,.623-5.23,8.056,8.056,0,0,0-3.488-5.389l-.026-.017-.025-.018-.109-.077a13.33,13.33,0,0,0-4.027-1.725,41.827,41.827,0,0,0-6.353-1c-1.239-.124-2.363-.242-3.5-.433a33.823,33.823,0,0,0-5.715-.512,30.79,30.79,0,0,0-5.12.437,28.011,28.011,0,0,0-6.416,1.949l-.032.014-.033.013ZM180.3,34.54l.094.011A165.229,165.229,0,0,1,200.1,37.924l9.423,2.227-.046-2.94c-.011-.788-.107-1.744-.191-2.588a28.891,28.891,0,0,0-13.164-20.67,26.511,26.511,0,0,0-3.479-1.878l-.01,0-.029-.012-.029-.013a27.821,27.821,0,0,0-6.534-1.96,29.89,29.89,0,0,0-4.994-.421,34.4,34.4,0,0,0-5.751.515c-1.111.19-2.225.306-3.564.439a42.6,42.6,0,0,0-6.346,1.008,13.367,13.367,0,0,0-3.936,1.708l-.114.082-.029.02-.03.02a7.805,7.805,0,0,0-2.407,2.5,8.062,8.062,0,0,0-1.066,2.893,9.129,9.129,0,0,0-.028,2.864,8.8,8.8,0,0,0,.69,2.417,7.655,7.655,0,0,0,1.1,1.7,12.612,12.612,0,0,0,3.354,2.67,33.722,33.722,0,0,0,4.8,2.162l1.314.5.2.076c.452.173.908.346,1.363.524l.017.007.022.006c.966.3,1.919.6,2.867.906l.205.068c1.17.394,2.493.72,3.894,1.064l1.7.424.027.006.026.008.129.035c.261.072.5.141.723.215Z" transform="translate(0 0)"/>
    </g>
  </g>
</svg>
