<svg xmlns="http://www.w3.org/2000/svg" xmlns:xlink="http://www.w3.org/1999/xlink" width="732.033" height="288.166" viewBox="0 0 732.033 288.166">
  <defs>
    <clipPath id="clip-path">
      <rect id="Rectangle_15" data-name="Rectangle 15" width="732.033" height="278.166" transform="translate(0.501 10.511)" fill="none"/>
    </clipPath>
    <clipPath id="clip-path-2">
      <rect id="Rectangle_16" data-name="Rectangle 16" width="732.033" height="278.166" transform="translate(0.501 0.511)" fill="none"/>
    </clipPath>
  </defs>
  <g id="Text_Banner" data-name="Text Banner" transform="translate(-0.501 -0.511)">
    <g id="Group_17" data-name="Group 17">
      <g id="Group_16" data-name="Group 16" clip-path="url(#clip-path)">
        <path id="Path_349" data-name="Path 349" d="M732.534,20.177a40.04,40.04,0,0,1-3.35,5.849,8.3,8.3,0,0,0-1.54,3.663H726.6c-1.32.591-2.55,1.223-2.46,2.5.01.155-.08.26-.31.373-3.69,1.807-3.68,3.867.04,5.786.25.127.58.218.3.492-.9.9-.63,1.877-.6,2.9.12,5.4.13,10.8.18,16.2.17,17.182.32,34.372.62,51.561.24,14.342.06,28.691.19,43.033.18,20,.447,85.886.8,105.886a5.835,5.835,0,0,1-2.15,4.563c-1.8,1.737-1.77,1.758-4.58,1.048a2.875,2.875,0,0,1-.34-.1c.64-.591,1.28-1.125,1.86-1.694,1.83-1.8,1.99-3.782,1.95-5.962-.05-2.643-.02-5.294-.06-7.944-.23-12.683-.36-71.252-.57-83.935-.19-12.043.05-24.086-.21-36.136-.28-12.613-.31-25.232-.36-37.859-.07-13.864-.12-27.728-.54-41.592-.01-.478-.18-1,.05-1.427.57-1.076-.3-1.645-1.35-2.123a2.834,2.834,0,0,0-2.89.506,7.41,7.41,0,0,0-2.95,3.368,27.836,27.836,0,0,1-1.82,3.775c-.69,1.139-1.81,2.116-2.28,3.346a83.654,83.654,0,0,0-4.73,18.047,16.037,16.037,0,0,0,.69,7.6c.14.394.23.851,1,.893a1.362,1.362,0,0,0,1.31-.7,3.231,3.231,0,0,0,.61-2.13,25.932,25.932,0,0,1,.83-7.3,41.481,41.481,0,0,1,4.94-11.938.8.8,0,0,1,.62-.548q.915,46.8,2.13,93.6a9.7,9.7,0,0,0-8.07,1.062,12.926,12.926,0,0,0-5.79,6.763,33.686,33.686,0,0,0-1.84,14.3c.09,1.793.16,3.578.16,5.364.166,2-.364,49.874-1.5,51.524-.18.232-.3.52.09.661.35.134.58-.148.74-.316,1.123-1.076,2.092-48.188,2.88-49.528,2.19-4.19,2.1-8.6,2.67-12.95a16.473,16.473,0,0,1,3.82-9.034,9.012,9.012,0,0,1,2.36-1.961,2.443,2.443,0,0,1,2.59-.063,3.726,3.726,0,0,1,2.01,2.714c.03.281.12.576-.52.626a4.13,4.13,0,0,0-3.16,1.744c-3.46,4.408-4.3,9.189-3.99,14.11.332,2.754.419,51.417.26,54.186-.39,3.593-2.29,6.616-5.69,9.245-.32.246-.92.5-.52.872.45.408.94,0,1.29-.176,4.28-2.179,7.32-5.041,8.61-8.647,1.316-3.994,1.892-54.08,1.7-58.281a21.514,21.514,0,0,1,.27-5.062,4.4,4.4,0,0,1,1.91-3.009l.01-.007v.014c-.07,3.543.18,6.89.2,10.222.05,9.836.68,65.557.36,75.4a3.735,3.735,0,0,0,.09,1.336c.53,1.673-.17,3.262-.7,4.837-.47,1.378-1.95,2-3.99,2.025a46.525,46.525,0,0,0-7.81.584c-4.02.724-7.61,1.891-9.4,4.8-.38.619-.24.879.62,1.167a38.053,38.053,0,0,1,5.84,2.418,6.239,6.239,0,0,1,2.8,2.292,10.1,10.1,0,0,1,1.18,7.368c-.3,1.118-.8,2.236-1.01,3.368a1.054,1.054,0,0,0-.32-.056c-.72-.021-.58.443-.72.682a9.306,9.306,0,0,1-3.8,3.649c-2.04,1.111-3.32.823-4.46-.717-3.97-5.336-6.98-10.869-6.61-17.07.18-3.22,0-6.44.02-9.66.04-7.994.01-15.98.2-23.967.21-9.1.08-64.1.26-73.2.2-10.925-.02-21.851.25-32.776.2-8.436.15-16.873.21-25.3.02-1.751,0-3.494,0-5.245.12.007.23.007.34.007.22,1.807.43,3.614.67,5.413a23.342,23.342,0,0,0,2.89,9.547c1.48,2.418,2.62,4.956,5.32,6.9.35.253.67.759,1.27.534.64-.225.32-.731.23-1.125a2.258,2.258,0,0,0-.27-.633,30.232,30.232,0,0,1-2.33-4.345,49.053,49.053,0,0,1-2.44-19.341,11.341,11.341,0,0,1,1.58-5.006,4.481,4.481,0,0,1,1.75-1.786c.91-.492,1.53-.316,1.61.485a5.314,5.314,0,0,1-.23,2.088,23.855,23.855,0,0,0-.94,11.2c.7,3.684,2.83,6.805,7.11,9.111.32.169.64.415,1.08.183.47-.253.17-.527-.05-.752-2.69-2.665-3.32-5.737-3.46-8.872-.13-2.784.96-5.477,1.45-8.219a10.169,10.169,0,0,0-.77-7.066,6.139,6.139,0,0,0-5.09-3.487,11.4,11.4,0,0,0-6.64,1.28,17.02,17.02,0,0,0-8.09,8.626c-.82,2-.35,4.05-.38,6.088-.16,11.087-.17,22.167-.36,33.254-.32,18.75-.41,83.393-.62,102.143-.06,5.948-.17,11.888-.27,17.829,0,.169.15.387-.24.52a24.544,24.544,0,0,0-4.23-3.705c-1.65-1.1-3.23-2.264-5.01-3.248a37.281,37.281,0,0,0-9.22-3.079,48.622,48.622,0,0,0-9.43-1.188c-3.43-.134-6.82-.682-10.29-.366-1.7.155-3.41.344-5.12.344-11.41-.007-22.81-.077-34.22-.1-52.08-.091-288.859-.173-340.933-.246q-33.75-.021-67.489.12c-35.9.155-71.8.169-107.7.239-.31,0-.62-.077-.93-.084-2.93-.105-5.84-.576-8.8-.3-1.84.169-3.689.344-5.54.387a45.02,45.02,0,0,0-10.33,1.385c-3.71.977-7.39,1.969-10.33,4.021a41.773,41.773,0,0,0-7.31,5.835c-.33-.162-.24-.337-.24-.478.11-5.786-.23-11.565-.26-17.351-.16-26.195-.306-98.279-.44-124.479-.03-5.006-.05-10.011-.15-15.017a15.578,15.578,0,0,0-.52-2.833,14.007,14.007,0,0,0-3.22-6.714,4.231,4.231,0,0,0-3.28-1.265,6.988,6.988,0,0,0-3.92,1.132,11.184,11.184,0,0,0-5.09,6.06,44.733,44.733,0,0,0-2.13,15.924,16.356,16.356,0,0,0,2.41,8.718c.22.337.27.808.97.9.31-.682-.09-1.294-.21-1.912a26.946,26.946,0,0,1-.29-8.106,64.378,64.378,0,0,1,1.72-10.714,9.432,9.432,0,0,1,2.76-4.816c1.32-1.16,2.09-1.132,3.13.169a8.949,8.949,0,0,1,2.02,5.716c.1,14.855.33,29.711.45,44.573.15,17.822.15,81.537.39,99.366.12,9.2.24,18.392-.09,27.587a24.763,24.763,0,0,1-.66,5.61c-.84,3.22-3.07,6.088-4.8,9.076a6.3,6.3,0,0,1-1.73,2.137,2.8,2.8,0,0,1-3.33.288A9.119,9.119,0,0,1,27,286.407c.29-.155-.03-.366-.14-.506a12.144,12.144,0,0,1-2.32-8.605c.26-3.178,1.75-6.053,6.19-7.663,1-.366,1.93-.83,2.89-1.244,2.34-1.005,2.36-1.582.07-2.777-.1-.056-.24-.084-.35-.141-4.09-2.193-9.01-2.51-13.85-2.777-2.38-.134-3.53-.851-4.41-2.271-1.61-2.608-1.38-5.371-1.47-8.078-.14-4.31-.29-8.619-.28-12.929.02-7.347.22-60.58.54-67.926.21-4.844-1.14-9.667-.31-14.518a22.066,22.066,0,0,1,.89-4.717,1.624,1.624,0,0,1,1.31-1.237,2.269,2.269,0,0,1,1.92.738,12.374,12.374,0,0,1,2.71,3.29c2.33,3.916,1.89,7.958,1.24,12.022a42.823,42.823,0,0,0-.7,6.946c0,.3.05.612.51.7.61.12.74-.253.93-.541a23.519,23.519,0,0,0,3.96-12.156,28.3,28.3,0,0,0-1.12-8.542c-.63-2.447-1.45-4.858-3.94-6.791a6.773,6.773,0,0,0-3.05-1.315,8.977,8.977,0,0,0-4.91.759,8.615,8.615,0,0,1,1.27-5.385,2.3,2.3,0,0,1,2.65-.844,12.123,12.123,0,0,1,3.49,1.223,14.319,14.319,0,0,1,4.85,4.429c2.41,3.466,6.2,5.92,11.05,7.614a2.34,2.34,0,0,0,2.01.12v-.574a32.577,32.577,0,0,1-8.22-6.911c-2.56-3.129-4.74-6.468-8.98-8.781a9.7,9.7,0,0,0-5.24-1.251c-.29.014-.63.169-.71-.2-.51-2.4-.34-4.717,1.7-6.777,1.23-1.23,2.73-1.329,4.4-.373a6.959,6.959,0,0,1,1.11.837c1.41,1.216,1.86,2.735,2.56,4.169,1.32,2.714,3.82,4.8,6.83,6.644.29.176.7.541,1.17.211.52-.366.02-.619-.31-.872a11.346,11.346,0,0,1-4.7-8.422,7.241,7.241,0,0,0-1.86-4.612c-2.41-2.524-5.75-3.107-9.44-1.406-.55.253-1.06.548-1.75.907.19-18.729.38-37.3.58-55.871,1.82,2.383,3.79,4.689,4.86,7.276a9.657,9.657,0,0,1,.58,3.4c.25,6.805-.78,13.59-.84,20.388a24.894,24.894,0,0,0,1.04,8.922c.25.7.44,1.659,1.7,1.6,1.28-.063,1.48-1.076,1.57-1.8.36-2.918.72-5.842.83-8.774.21-5.589.13-11.178.39-16.768a21.175,21.175,0,0,0-3.06-12.374c-1.98-3.227-4.07-6.426-6.11-9.639a7.38,7.38,0,0,0-2.3-2.566,3.072,3.072,0,0,0-2.54-.626c-.97.246-1.15.921-1.32,1.561A48.339,48.339,0,0,0,9.23,71.535c-.18,5.5.18,10.989.22,16.479.16,20.733-.11,41.465-.43,62.2-.29,18.9-.25,83.7-.36,102.614a10.141,10.141,0,0,1-.12,1.23c-.3,2.672-.52,5.343,1.57,7.8a28.362,28.362,0,0,0,2.76,2.425,9.343,9.343,0,0,0-1.04.408A1.592,1.592,0,0,1,9.6,264.4l-.007-.008a10.88,10.88,0,0,1-2.75-4.3,14.237,14.237,0,0,1-.77-5.1c.07-1.561.37-3.114.38-4.675.17-15.109.317-76.1.44-91.218q.18-22.811.27-45.62.18-35.7.32-71.4a8.278,8.278,0,0,0-.65-3.1c-.21-.541-.28-.9.55-1.336,2.27-1.2,2.03-3.3-.38-4.331-.41-.176-.53-.33-.54-.668-.05-1.835-.92-2.475-3.36-2.418a20.778,20.778,0,0,0-1.62-3.016A5.036,5.036,0,0,1,.5,24.839c-.04-1.519,1.2-2.636,2.27-3.8a14.955,14.955,0,0,0,3.37-6.18A18.577,18.577,0,0,1,16.072,11a70.5,70.5,0,0,1,19.5.4,28.254,28.254,0,0,1,11.12,3.825c2.97,1.969,5.68,4.134,8.55,6.18a64.558,64.558,0,0,0,22.82,10.869c2.82.7,3.3.633,5.11-.949a66.8,66.8,0,0,1,10.43-7.3,8.436,8.436,0,0,1,4.44-1.09c35.62-.049,71.23.246,106.84.33q39.345.084,78.69.063c55.2-.085,295.1-.214,350.282-.387a8.231,8.231,0,0,1,4.44,1.1,68.187,68.187,0,0,1,10.6,7.452,3.8,3.8,0,0,0,4.21,1,65.378,65.378,0,0,0,13.08-4.682,96.085,96.085,0,0,0,16.16-10.553,29.509,29.509,0,0,1,13.73-5.849,76.654,76.654,0,0,1,17.629-.7c6.51.4,11.6,2.629,14.6,6.756a7.844,7.844,0,0,0,4.23,2.7" fill="#390c06"/>
      </g>
    </g>
    <g id="Group_19" data-name="Group 19">
      <g id="Group_18" data-name="Group 18" clip-path="url(#clip-path-2)">
        <path id="Path_350" data-name="Path 350" d="M732.534,10.177a40.039,40.039,0,0,1-3.35,5.849,8.3,8.3,0,0,0-1.54,3.663H726.6c-1.32.591-2.55,1.223-2.46,2.5.01.155-.08.26-.31.373-3.69,1.807-3.68,3.867.04,5.786.25.127.58.218.3.492-.9.9-.63,1.877-.6,2.9.12,5.4.13,10.8.18,16.2.17,17.182.32,34.372.62,51.561.24,14.342.06,28.691.19,43.033.18,20,.447,85.886.8,105.886a5.835,5.835,0,0,1-2.15,4.563c-1.8,1.737-1.77,1.758-4.58,1.048a2.878,2.878,0,0,1-.34-.1c.64-.591,1.28-1.125,1.86-1.694,1.83-1.8,1.99-3.782,1.95-5.962-.05-2.643-.02-5.294-.06-7.944-.23-12.683-.36-71.252-.57-83.935-.19-12.043.05-24.086-.21-36.136-.28-12.613-.31-25.232-.36-37.859-.07-13.864-.12-27.728-.54-41.592-.01-.478-.18-1,.05-1.427.57-1.076-.3-1.645-1.35-2.123a2.834,2.834,0,0,0-2.89.506,7.41,7.41,0,0,0-2.95,3.368,27.836,27.836,0,0,1-1.82,3.775c-.69,1.139-1.81,2.116-2.28,3.346a83.654,83.654,0,0,0-4.73,18.047,16.037,16.037,0,0,0,.69,7.6c.14.394.23.851,1,.893a1.362,1.362,0,0,0,1.31-.7,3.231,3.231,0,0,0,.61-2.13,25.932,25.932,0,0,1,.83-7.3,41.481,41.481,0,0,1,4.94-11.938.8.8,0,0,1,.62-.548q.915,46.8,2.13,93.6a9.7,9.7,0,0,0-8.07,1.062,12.926,12.926,0,0,0-5.79,6.763,33.686,33.686,0,0,0-1.84,14.3c.09,1.793.16,3.578.16,5.364a8.674,8.674,0,0,1-1.5,5.638c-.18.232-.3.52.09.661.35.134.58-.148.74-.316a16.928,16.928,0,0,0,2.88-3.642c2.19-4.19,2.1-8.6,2.67-12.95a16.473,16.473,0,0,1,3.82-9.034,9.012,9.012,0,0,1,2.36-1.961,2.443,2.443,0,0,1,2.59-.063,3.726,3.726,0,0,1,2.01,2.714c.03.281.12.576-.52.626a4.13,4.13,0,0,0-3.16,1.744c-3.46,4.408-4.3,9.189-3.99,14.11a46.882,46.882,0,0,1,.26,8.3c-.39,3.593-2.29,6.616-5.69,9.245-.32.246-.92,46.386-.52,46.758.45.408.94,0,1.29-.176,4.28-2.179,7.32-50.927,8.61-54.533a34.562,34.562,0,0,0,1.7-12.4,21.514,21.514,0,0,1,.27-5.062,4.4,4.4,0,0,1,1.91-3.009l.01-.007v.014c-.07,3.543.18,6.89.2,10.222.05,9.836.68,65.557.36,75.4a3.735,3.735,0,0,0,.09,1.336c.53,1.673-.17,3.262-.7,4.837-.47,1.378-1.95,2-3.99,2.025a46.527,46.527,0,0,0-7.81.584c-4.02.724-7.61,1.891-9.4,4.8-.38.619-.24.879.62,1.167a38.053,38.053,0,0,1,5.84,2.418,6.239,6.239,0,0,1,2.8,2.292,10.1,10.1,0,0,1,1.18,7.368c-.3,1.118-.8,2.236-1.01,3.368a1.054,1.054,0,0,0-.32-.056c-.72-.021-.58.443-.72.682a9.306,9.306,0,0,1-3.8,3.649c-2.04,1.111-3.32.823-4.46-.717-3.97-5.336-6.98-10.869-6.61-17.07.18-3.22,0-6.44.02-9.66.04-7.994.01-61.866.2-69.853.21-9.1.08-18.209.26-27.313.2-10.925-.02-21.851.25-32.776.2-8.436.15-16.873.21-25.3.02-1.751,0-3.494,0-5.245.12.007.23.007.34.007.22,1.807.43,3.614.67,5.413a23.342,23.342,0,0,0,2.89,9.547c1.48,2.418,2.62,4.956,5.32,6.9.35.253.67.759,1.27.534.64-.225.32-.731.23-1.125a2.258,2.258,0,0,0-.27-.633,30.232,30.232,0,0,1-2.33-4.345,49.053,49.053,0,0,1-2.44-19.341,11.341,11.341,0,0,1,1.58-5.006,4.481,4.481,0,0,1,1.75-1.786c.91-.492,1.53-.316,1.61.485a5.314,5.314,0,0,1-.23,2.088,23.855,23.855,0,0,0-.94,11.2c.7,3.684,2.83,6.805,7.11,9.111.32.169.64.415,1.08.183.47-.253.17-.527-.05-.752-2.69-2.665-3.32-5.737-3.46-8.872-.13-2.784.96-5.477,1.45-8.219a10.169,10.169,0,0,0-.77-7.066,6.139,6.139,0,0,0-5.09-3.487,11.4,11.4,0,0,0-6.64,1.28,17.02,17.02,0,0,0-8.09,8.626c-.82,2-.35,4.05-.38,6.088-.16,11.087-.17,22.167-.36,33.254-.32,18.75-.41,37.507-.62,56.257-.06,5.948-.17,57.774-.27,63.715,0,.169.15.387-.24.52a24.544,24.544,0,0,0-4.23-3.705c-1.65-1.1-3.23-2.264-5.01-3.248a37.281,37.281,0,0,0-9.22-3.079,48.622,48.622,0,0,0-9.43-1.188c-3.43-.134-6.82-.682-10.29-.366-1.7.155-3.41.344-5.12.344-11.41-.007-22.81-.077-34.22-.1-52.08-.091-288.859-.173-340.933-.246q-33.75-.021-67.489.12c-35.9.155-71.8.169-107.7.239-.31,0-.62-.077-.93-.084-2.93-.105-5.84-.576-8.8-.3-1.84.169-3.689.344-5.54.387a45.02,45.02,0,0,0-10.33,1.385c-3.71.977-7.39,1.969-10.33,4.021a41.773,41.773,0,0,0-7.31,5.835c-.33-.162-.24-.337-.24-.478.11-5.786-.23-57.451-.26-63.237q-.24-39.292-.44-78.593c-.03-5.006-.05-10.011-.15-15.017a15.578,15.578,0,0,0-.52-2.833,14.007,14.007,0,0,0-3.22-6.714,4.231,4.231,0,0,0-3.28-1.265,6.988,6.988,0,0,0-3.92,1.132,11.184,11.184,0,0,0-5.09,6.06,44.733,44.733,0,0,0-2.13,15.924,16.356,16.356,0,0,0,2.41,8.718c.22.337.27.808.97.9.31-.682-.09-1.294-.21-1.912a26.946,26.946,0,0,1-.29-8.106,64.378,64.378,0,0,1,1.72-10.714,9.432,9.432,0,0,1,2.76-4.816c1.32-1.16,2.09-1.132,3.13.169a8.949,8.949,0,0,1,2.02,5.716c.1,14.855.33,29.711.45,44.573.15,17.822.15,81.537.39,99.366.12,9.2.24,18.392-.09,27.587a24.763,24.763,0,0,1-.66,5.61c-.84,3.22-3.07,6.088-4.8,9.076a6.3,6.3,0,0,1-1.73,2.137,2.8,2.8,0,0,1-3.33.288A9.119,9.119,0,0,1,27,276.407c.29-.155-.03-.366-.14-.506a12.144,12.144,0,0,1-2.32-8.605c.26-3.178,1.75-6.053,6.19-7.663,1-.366,1.93-.83,2.89-1.244,2.34-1.005,2.36-1.582.07-2.777-.1-.056-.24-.084-.35-.141-4.09-2.193-9.01-2.51-13.85-2.777-2.38-.134-3.53-.851-4.41-2.271-1.61-2.608-1.38-5.371-1.47-8.078-.14-4.31-.29-54.505-.28-58.815.02-7.347.22-14.694.54-22.04.21-4.844-1.14-9.667-.31-14.518a22.066,22.066,0,0,1,.89-4.717,1.624,1.624,0,0,1,1.31-1.237,2.269,2.269,0,0,1,1.92.738,12.374,12.374,0,0,1,2.71,3.29c2.33,3.916,1.89,7.958,1.24,12.022a42.823,42.823,0,0,0-.7,6.946c0,.3.05.612.51.7.61.12.74-.253.93-.541a23.519,23.519,0,0,0,3.96-12.156,28.3,28.3,0,0,0-1.12-8.542c-.63-2.447-1.45-4.858-3.94-6.791a6.773,6.773,0,0,0-3.05-1.315,8.977,8.977,0,0,0-4.91.759,8.615,8.615,0,0,1,1.27-5.385,2.3,2.3,0,0,1,2.65-.844,12.123,12.123,0,0,1,3.49,1.223,14.319,14.319,0,0,1,4.85,4.429c2.41,3.466,6.2,5.92,11.05,7.614a2.34,2.34,0,0,0,2.01.12v-.574a32.577,32.577,0,0,1-8.22-6.911c-2.56-3.129-4.74-6.468-8.98-8.781a9.7,9.7,0,0,0-5.24-1.251c-.29.014-.63.169-.71-.2-.51-2.4-.34-4.717,1.7-6.777,1.23-1.23,2.73-1.329,4.4-.373a6.96,6.96,0,0,1,1.11.837c1.41,1.216,1.86,2.735,2.56,4.169,1.32,2.714,3.82,4.8,6.83,6.644.29.176.7.541,1.17.211.52-.366.02-.619-.31-.872a11.347,11.347,0,0,1-4.7-8.422,7.241,7.241,0,0,0-1.86-4.612c-2.41-2.524-5.75-3.107-9.44-1.406-.55.253-1.06.548-1.75.907.19-18.729.38-37.3.58-55.871,1.82,2.383,3.79,4.689,4.86,7.276a9.657,9.657,0,0,1,.58,3.4c.25,6.805-.78,13.59-.84,20.388a24.894,24.894,0,0,0,1.04,8.922c.25.7.44,1.659,1.7,1.6,1.28-.063,1.48-1.076,1.57-1.8.36-2.918.72-5.842.83-8.774.21-5.589.13-11.178.39-16.768a21.175,21.175,0,0,0-3.06-12.374c-1.98-3.227-4.07-6.426-6.11-9.639a7.38,7.38,0,0,0-2.3-2.566,3.072,3.072,0,0,0-2.54-.626c-.97.246-1.15.921-1.32,1.561A48.339,48.339,0,0,0,9.23,61.535c-.18,5.5.18,10.989.22,16.479.16,20.733-.11,41.465-.43,62.2-.29,18.9-.25,83.7-.36,102.614a10.141,10.141,0,0,1-.12,1.23c-.3,2.672-.52,5.343,1.57,7.8a28.366,28.366,0,0,0,2.76,2.425,9.339,9.339,0,0,0-1.04.408A1.592,1.592,0,0,1,9.6,254.4l-.007-.008a10.88,10.88,0,0,1-2.75-4.3,14.237,14.237,0,0,1-.77-5.1c.07-1.561.37-3.114.38-4.675.17-15.109.317-76.1.44-91.218q.18-22.811.27-45.62.18-35.7.32-71.4a8.278,8.278,0,0,0-.65-3.1c-.21-.541-.28-.9.55-1.336,2.27-1.2,2.03-3.3-.38-4.331-.41-.176-.53-.33-.54-.668-.05-1.835-.92-2.475-3.36-2.418a20.778,20.778,0,0,0-1.62-3.016A5.036,5.036,0,0,1,.5,14.839c-.04-1.519,1.2-2.636,2.27-3.8a14.955,14.955,0,0,0,3.37-6.18A18.577,18.577,0,0,1,16.072,1a70.5,70.5,0,0,1,19.5.4,28.254,28.254,0,0,1,11.12,3.825c2.97,1.969,5.68,4.134,8.55,6.18a64.558,64.558,0,0,0,22.82,10.869c2.82.7,3.3.633,5.11-.949a66.8,66.8,0,0,1,10.43-7.3,8.436,8.436,0,0,1,4.44-1.09c35.62-.049,71.23.246,106.84.33q39.345.084,78.69.063c55.2-.085,295.1-.214,350.282-.387a8.231,8.231,0,0,1,4.44,1.1,68.187,68.187,0,0,1,10.6,7.452,3.8,3.8,0,0,0,4.21,1,65.378,65.378,0,0,0,13.08-4.682,96.085,96.085,0,0,0,16.16-10.553,29.509,29.509,0,0,1,13.73-5.849A76.654,76.654,0,0,1,713.7.721c6.51.4,11.6,2.629,14.6,6.756a7.844,7.844,0,0,0,4.23,2.7" fill="#fff5e0"/>
        <path id="Path_351" data-name="Path 351" d="M732.534,10.177a40.039,40.039,0,0,1-3.35,5.849,8.3,8.3,0,0,0-1.54,3.663H726.6c-1.32.591-2.55,1.223-2.46,2.5.01.155-.08.26-.31.373-3.69,1.807-3.68,3.867.04,5.786.25.127.58.218.3.492-.9.9-.63,1.877-.6,2.9.12,5.4.13,10.8.18,16.2.17,17.182.32,34.372.62,51.561.24,14.342.06,28.691.19,43.033.18,20,.447,85.886.8,105.886a5.835,5.835,0,0,1-2.15,4.563c-1.8,1.737-1.77,1.758-4.58,1.048a2.878,2.878,0,0,1-.34-.1c.64-.591,1.28-1.125,1.86-1.694,1.83-1.8,1.99-3.782,1.95-5.962-.05-2.643-.02-5.294-.06-7.944-.23-12.683-.36-71.252-.57-83.935-.19-12.043.05-24.086-.21-36.136-.28-12.613-.31-25.232-.36-37.859-.07-13.864-.12-27.728-.54-41.592-.01-.478-.18-1,.05-1.427.57-1.076-.3-1.645-1.35-2.123a2.834,2.834,0,0,0-2.89.506,7.41,7.41,0,0,0-2.95,3.368,27.836,27.836,0,0,1-1.82,3.775c-.69,1.139-1.81,2.116-2.28,3.346a83.654,83.654,0,0,0-4.73,18.047,16.037,16.037,0,0,0,.69,7.6c.14.394.23.851,1,.893a1.362,1.362,0,0,0,1.31-.7,3.231,3.231,0,0,0,.61-2.13,25.932,25.932,0,0,1,.83-7.3,41.481,41.481,0,0,1,4.94-11.938.8.8,0,0,1,.62-.548q.915,46.8,2.13,93.6a9.7,9.7,0,0,0-8.07,1.062,12.926,12.926,0,0,0-5.79,6.763,33.686,33.686,0,0,0-1.84,14.3c.09,1.793.16,3.578.16,5.364a8.674,8.674,0,0,1-1.5,5.638c-.18.232-.3.52.09.661.35.134.58-.148.74-.316a16.928,16.928,0,0,0,2.88-3.642c2.19-4.19,2.1-8.6,2.67-12.95a16.473,16.473,0,0,1,3.82-9.034,9.012,9.012,0,0,1,2.36-1.961,2.443,2.443,0,0,1,2.59-.063,3.726,3.726,0,0,1,2.01,2.714c.03.281.12.576-.52.626a4.13,4.13,0,0,0-3.16,1.744c-3.46,4.408-4.3,9.189-3.99,14.11a46.882,46.882,0,0,1,.26,8.3c-.39,3.593-2.29,6.616-5.69,9.245-.32.246-.92,46.386-.52,46.758.45.408.94,0,1.29-.176,4.28-2.179,7.32-50.927,8.61-54.533a34.562,34.562,0,0,0,1.7-12.4,21.514,21.514,0,0,1,.27-5.062,4.4,4.4,0,0,1,1.91-3.009l.01-.007v.014c-.07,3.543.18,6.89.2,10.222.05,9.836.68,65.557.36,75.4a3.735,3.735,0,0,0,.09,1.336c.53,1.673-.17,3.262-.7,4.837-.47,1.378-1.95,2-3.99,2.025a46.527,46.527,0,0,0-7.81.584c-4.02.724-7.61,1.891-9.4,4.8-.38.619-.24.879.62,1.167a38.053,38.053,0,0,1,5.84,2.418,6.239,6.239,0,0,1,2.8,2.292,10.1,10.1,0,0,1,1.18,7.368c-.3,1.118-.8,2.236-1.01,3.368a1.054,1.054,0,0,0-.32-.056c-.72-.021-.58.443-.72.682a9.306,9.306,0,0,1-3.8,3.649c-2.04,1.111-3.32.823-4.46-.717-3.97-5.336-6.98-10.869-6.61-17.07.18-3.22,0-6.44.02-9.66.04-7.994.01-61.866.2-69.853.21-9.1.08-18.209.26-27.313.2-10.925-.02-21.851.25-32.776.2-8.436.15-16.873.21-25.3.02-1.751,0-3.494,0-5.245.12.007.23.007.34.007.22,1.807.43,3.614.67,5.413a23.342,23.342,0,0,0,2.89,9.547c1.48,2.418,2.62,4.956,5.32,6.9.35.253.67.759,1.27.534.64-.225.32-.731.23-1.125a2.258,2.258,0,0,0-.27-.633,30.232,30.232,0,0,1-2.33-4.345,49.053,49.053,0,0,1-2.44-19.341,11.341,11.341,0,0,1,1.58-5.006,4.481,4.481,0,0,1,1.75-1.786c.91-.492,1.53-.316,1.61.485a5.314,5.314,0,0,1-.23,2.088,23.855,23.855,0,0,0-.94,11.2c.7,3.684,2.83,6.805,7.11,9.111.32.169.64.415,1.08.183.47-.253.17-.527-.05-.752-2.69-2.665-3.32-5.737-3.46-8.872-.13-2.784.96-5.477,1.45-8.219a10.169,10.169,0,0,0-.77-7.066,6.139,6.139,0,0,0-5.09-3.487,11.4,11.4,0,0,0-6.64,1.28,17.02,17.02,0,0,0-8.09,8.626c-.82,2-.35,4.05-.38,6.088-.16,11.087-.17,22.167-.36,33.254-.32,18.75-.41,37.507-.62,56.257-.06,5.948-.17,57.774-.27,63.715,0,.169.15.387-.24.52a24.544,24.544,0,0,0-4.23-3.705c-1.65-1.1-3.23-2.264-5.01-3.248a37.281,37.281,0,0,0-9.22-3.079,48.622,48.622,0,0,0-9.43-1.188c-3.43-.134-6.82-.682-10.29-.366-1.7.155-3.41.344-5.12.344-11.41-.007-22.81-.077-34.22-.1-52.08-.091-288.859-.173-340.933-.246q-33.75-.021-67.489.12c-35.9.155-71.8.169-107.7.239-.31,0-.62-.077-.93-.084-2.93-.105-5.84-.576-8.8-.3-1.84.169-3.689.344-5.54.387a45.02,45.02,0,0,0-10.33,1.385c-3.71.977-7.39,1.969-10.33,4.021a41.773,41.773,0,0,0-7.31,5.835c-.33-.162-.24-.337-.24-.478.11-5.786-.23-57.451-.26-63.237q-.24-39.292-.44-78.593c-.03-5.006-.05-10.011-.15-15.017a15.578,15.578,0,0,0-.52-2.833,14.007,14.007,0,0,0-3.22-6.714,4.231,4.231,0,0,0-3.28-1.265,6.988,6.988,0,0,0-3.92,1.132,11.184,11.184,0,0,0-5.09,6.06,44.733,44.733,0,0,0-2.13,15.924,16.356,16.356,0,0,0,2.41,8.718c.22.337.27.808.97.9.31-.682-.09-1.294-.21-1.912a26.946,26.946,0,0,1-.29-8.106,64.378,64.378,0,0,1,1.72-10.714,9.432,9.432,0,0,1,2.76-4.816c1.32-1.16,2.09-1.132,3.13.169a8.949,8.949,0,0,1,2.02,5.716c.1,14.855.33,29.711.45,44.573.15,17.822.15,81.537.39,99.366.12,9.2.24,18.392-.09,27.587a24.763,24.763,0,0,1-.66,5.61c-.84,3.22-3.07,6.088-4.8,9.076a6.3,6.3,0,0,1-1.73,2.137,2.8,2.8,0,0,1-3.33.288A9.119,9.119,0,0,1,27,276.407c.29-.155-.03-.366-.14-.506a12.144,12.144,0,0,1-2.32-8.605c.26-3.178,1.75-6.053,6.19-7.663,1-.366,1.93-.83,2.89-1.244,2.34-1.005,2.36-1.582.07-2.777-.1-.056-.24-.084-.35-.141-4.09-2.193-9.01-2.51-13.85-2.777-2.38-.134-3.53-.851-4.41-2.271-1.61-2.608-1.38-5.371-1.47-8.078-.14-4.31-.29-54.505-.28-58.815.02-7.347.22-14.694.54-22.04.21-4.844-1.14-9.667-.31-14.518a22.066,22.066,0,0,1,.89-4.717,1.624,1.624,0,0,1,1.31-1.237,2.269,2.269,0,0,1,1.92.738,12.374,12.374,0,0,1,2.71,3.29c2.33,3.916,1.89,7.958,1.24,12.022a42.823,42.823,0,0,0-.7,6.946c0,.3.05.612.51.7.61.12.74-.253.93-.541a23.519,23.519,0,0,0,3.96-12.156,28.3,28.3,0,0,0-1.12-8.542c-.63-2.447-1.45-4.858-3.94-6.791a6.773,6.773,0,0,0-3.05-1.315,8.977,8.977,0,0,0-4.91.759,8.615,8.615,0,0,1,1.27-5.385,2.3,2.3,0,0,1,2.65-.844,12.123,12.123,0,0,1,3.49,1.223,14.319,14.319,0,0,1,4.85,4.429c2.41,3.466,6.2,5.92,11.05,7.614a2.34,2.34,0,0,0,2.01.12v-.574a32.577,32.577,0,0,1-8.22-6.911c-2.56-3.129-4.74-6.468-8.98-8.781a9.7,9.7,0,0,0-5.24-1.251c-.29.014-.63.169-.71-.2-.51-2.4-.34-4.717,1.7-6.777,1.23-1.23,2.73-1.329,4.4-.373a6.96,6.96,0,0,1,1.11.837c1.41,1.216,1.86,2.735,2.56,4.169,1.32,2.714,3.82,4.8,6.83,6.644.29.176.7.541,1.17.211.52-.366.02-.619-.31-.872a11.347,11.347,0,0,1-4.7-8.422,7.241,7.241,0,0,0-1.86-4.612c-2.41-2.524-5.75-3.107-9.44-1.406-.55.253-1.06.548-1.75.907.19-18.729.38-37.3.58-55.871,1.82,2.383,3.79,4.689,4.86,7.276a9.657,9.657,0,0,1,.58,3.4c.25,6.805-.78,13.59-.84,20.388a24.894,24.894,0,0,0,1.04,8.922c.25.7.44,1.659,1.7,1.6,1.28-.063,1.48-1.076,1.57-1.8.36-2.918.72-5.842.83-8.774.21-5.589.13-11.178.39-16.768a21.175,21.175,0,0,0-3.06-12.374c-1.98-3.227-4.07-6.426-6.11-9.639a7.38,7.38,0,0,0-2.3-2.566,3.072,3.072,0,0,0-2.54-.626c-.97.246-1.15.921-1.32,1.561A48.339,48.339,0,0,0,9.23,61.535c-.18,5.5.18,10.989.22,16.479.16,20.733-.11,41.465-.43,62.2-.29,18.9-.25,83.7-.36,102.614a10.141,10.141,0,0,1-.12,1.23c-.3,2.672-.52,5.343,1.57,7.8a28.366,28.366,0,0,0,2.76,2.425,9.339,9.339,0,0,0-1.04.408A1.592,1.592,0,0,1,9.6,254.4l-.007-.008a10.88,10.88,0,0,1-2.75-4.3,14.237,14.237,0,0,1-.77-5.1c.07-1.561.37-3.114.38-4.675.17-15.109.317-76.1.44-91.218q.18-22.811.27-45.62.18-35.7.32-71.4a8.278,8.278,0,0,0-.65-3.1c-.21-.541-.28-.9.55-1.336,2.27-1.2,2.03-3.3-.38-4.331-.41-.176-.53-.33-.54-.668-.05-1.835-.92-2.475-3.36-2.418a20.778,20.778,0,0,0-1.62-3.016A5.036,5.036,0,0,1,.5,14.839c-.04-1.519,1.2-2.636,2.27-3.8a14.955,14.955,0,0,0,3.37-6.18A18.577,18.577,0,0,1,16.072,1a70.5,70.5,0,0,1,19.5.4,28.254,28.254,0,0,1,11.12,3.825c2.97,1.969,5.68,4.134,8.55,6.18a64.558,64.558,0,0,0,22.82,10.869c2.82.7,3.3.633,5.11-.949a66.8,66.8,0,0,1,10.43-7.3,8.436,8.436,0,0,1,4.44-1.09c35.62-.049,71.23.246,106.84.33q39.345.084,78.69.063c55.2-.085,295.1-.214,350.282-.387a8.231,8.231,0,0,1,4.44,1.1,68.187,68.187,0,0,1,10.6,7.452,3.8,3.8,0,0,0,4.21,1,65.378,65.378,0,0,0,13.08-4.682,96.085,96.085,0,0,0,16.16-10.553,29.509,29.509,0,0,1,13.73-5.849A76.654,76.654,0,0,1,713.7.721c6.51.4,11.6,2.629,14.6,6.756a7.844,7.844,0,0,0,4.23,2.7" fill="none" stroke="#f0bf5d" stroke-width="1"/>
      </g>
    </g>
  </g>
</svg>
